%TF.GenerationSoftware,KiCad,Pcbnew,8.0.3*%
%TF.CreationDate,2024-09-23T16:56:09+02:00*%
%TF.ProjectId,USAN_r0,5553414e-5f72-4302-9e6b-696361645f70,rev?*%
%TF.SameCoordinates,Original*%
%TF.FileFunction,Legend,Top*%
%TF.FilePolarity,Positive*%
%FSLAX46Y46*%
G04 Gerber Fmt 4.6, Leading zero omitted, Abs format (unit mm)*
G04 Created by KiCad (PCBNEW 8.0.3) date 2024-09-23 16:56:09*
%MOMM*%
%LPD*%
G01*
G04 APERTURE LIST*
%ADD10C,0.300000*%
%ADD11C,0.100000*%
%ADD12C,0.160000*%
%ADD13C,0.150000*%
%ADD14C,0.600000*%
%ADD15C,0.254000*%
%ADD16C,0.200000*%
%ADD17C,0.120000*%
%ADD18C,0.000000*%
G04 APERTURE END LIST*
D10*
X60000000Y-118200000D02*
X63000000Y-118200000D01*
D11*
X63150000Y-104500000D02*
X67350000Y-104500000D01*
X67350000Y-110900000D01*
X63150000Y-110900000D01*
X63150000Y-104500000D01*
D12*
X94800000Y-82250000D02*
X102450000Y-82250000D01*
X102450000Y-87050000D01*
X94800000Y-87050000D01*
X94800000Y-82250000D01*
D11*
X64467982Y-118199621D02*
X62917982Y-118949621D01*
X62917982Y-117449621D01*
X64467982Y-118199621D01*
G36*
X64467982Y-118199621D02*
G01*
X62917982Y-118949621D01*
X62917982Y-117449621D01*
X64467982Y-118199621D01*
G37*
D10*
X60000000Y-118200000D02*
X60000000Y-115200000D01*
D11*
X65300000Y-104500000D02*
X69150000Y-102700000D01*
D13*
X67800000Y-60200000D02*
X69750000Y-60200000D01*
X69750000Y-87700000D01*
X67800000Y-87700000D01*
X67800000Y-60200000D01*
D11*
X60750000Y-115276264D02*
X59250000Y-115276264D01*
X60000000Y-113726264D01*
X60750000Y-115276264D01*
G36*
X60750000Y-115276264D02*
G01*
X59250000Y-115276264D01*
X60000000Y-113726264D01*
X60750000Y-115276264D01*
G37*
D13*
X67800000Y-60900000D02*
X53500000Y-62300000D01*
D12*
X80676691Y-67495489D02*
X80819548Y-67543108D01*
X80819548Y-67543108D02*
X80867167Y-67590727D01*
X80867167Y-67590727D02*
X80914786Y-67685965D01*
X80914786Y-67685965D02*
X80914786Y-67828822D01*
X80914786Y-67828822D02*
X80867167Y-67924060D01*
X80867167Y-67924060D02*
X80819548Y-67971680D01*
X80819548Y-67971680D02*
X80724310Y-68019299D01*
X80724310Y-68019299D02*
X80343358Y-68019299D01*
X80343358Y-68019299D02*
X80343358Y-67019299D01*
X80343358Y-67019299D02*
X80676691Y-67019299D01*
X80676691Y-67019299D02*
X80771929Y-67066918D01*
X80771929Y-67066918D02*
X80819548Y-67114537D01*
X80819548Y-67114537D02*
X80867167Y-67209775D01*
X80867167Y-67209775D02*
X80867167Y-67305013D01*
X80867167Y-67305013D02*
X80819548Y-67400251D01*
X80819548Y-67400251D02*
X80771929Y-67447870D01*
X80771929Y-67447870D02*
X80676691Y-67495489D01*
X80676691Y-67495489D02*
X80343358Y-67495489D01*
X81533834Y-67019299D02*
X81724310Y-67019299D01*
X81724310Y-67019299D02*
X81819548Y-67066918D01*
X81819548Y-67066918D02*
X81914786Y-67162156D01*
X81914786Y-67162156D02*
X81962405Y-67352632D01*
X81962405Y-67352632D02*
X81962405Y-67685965D01*
X81962405Y-67685965D02*
X81914786Y-67876441D01*
X81914786Y-67876441D02*
X81819548Y-67971680D01*
X81819548Y-67971680D02*
X81724310Y-68019299D01*
X81724310Y-68019299D02*
X81533834Y-68019299D01*
X81533834Y-68019299D02*
X81438596Y-67971680D01*
X81438596Y-67971680D02*
X81343358Y-67876441D01*
X81343358Y-67876441D02*
X81295739Y-67685965D01*
X81295739Y-67685965D02*
X81295739Y-67352632D01*
X81295739Y-67352632D02*
X81343358Y-67162156D01*
X81343358Y-67162156D02*
X81438596Y-67066918D01*
X81438596Y-67066918D02*
X81533834Y-67019299D01*
X82581453Y-67019299D02*
X82771929Y-67019299D01*
X82771929Y-67019299D02*
X82867167Y-67066918D01*
X82867167Y-67066918D02*
X82962405Y-67162156D01*
X82962405Y-67162156D02*
X83010024Y-67352632D01*
X83010024Y-67352632D02*
X83010024Y-67685965D01*
X83010024Y-67685965D02*
X82962405Y-67876441D01*
X82962405Y-67876441D02*
X82867167Y-67971680D01*
X82867167Y-67971680D02*
X82771929Y-68019299D01*
X82771929Y-68019299D02*
X82581453Y-68019299D01*
X82581453Y-68019299D02*
X82486215Y-67971680D01*
X82486215Y-67971680D02*
X82390977Y-67876441D01*
X82390977Y-67876441D02*
X82343358Y-67685965D01*
X82343358Y-67685965D02*
X82343358Y-67352632D01*
X82343358Y-67352632D02*
X82390977Y-67162156D01*
X82390977Y-67162156D02*
X82486215Y-67066918D01*
X82486215Y-67066918D02*
X82581453Y-67019299D01*
X83295739Y-67019299D02*
X83867167Y-67019299D01*
X83581453Y-68019299D02*
X83581453Y-67019299D01*
X86695739Y-117183584D02*
X87171929Y-117183584D01*
X86600501Y-117469299D02*
X86933834Y-116469299D01*
X86933834Y-116469299D02*
X87267167Y-117469299D01*
X87505263Y-116469299D02*
X88124310Y-116469299D01*
X88124310Y-116469299D02*
X87790977Y-116850251D01*
X87790977Y-116850251D02*
X87933834Y-116850251D01*
X87933834Y-116850251D02*
X88029072Y-116897870D01*
X88029072Y-116897870D02*
X88076691Y-116945489D01*
X88076691Y-116945489D02*
X88124310Y-117040727D01*
X88124310Y-117040727D02*
X88124310Y-117278822D01*
X88124310Y-117278822D02*
X88076691Y-117374060D01*
X88076691Y-117374060D02*
X88029072Y-117421680D01*
X88029072Y-117421680D02*
X87933834Y-117469299D01*
X87933834Y-117469299D02*
X87648120Y-117469299D01*
X87648120Y-117469299D02*
X87552882Y-117421680D01*
X87552882Y-117421680D02*
X87505263Y-117374060D01*
X115995739Y-91583584D02*
X116471929Y-91583584D01*
X115900501Y-91869299D02*
X116233834Y-90869299D01*
X116233834Y-90869299D02*
X116567167Y-91869299D01*
X117090977Y-90869299D02*
X117186215Y-90869299D01*
X117186215Y-90869299D02*
X117281453Y-90916918D01*
X117281453Y-90916918D02*
X117329072Y-90964537D01*
X117329072Y-90964537D02*
X117376691Y-91059775D01*
X117376691Y-91059775D02*
X117424310Y-91250251D01*
X117424310Y-91250251D02*
X117424310Y-91488346D01*
X117424310Y-91488346D02*
X117376691Y-91678822D01*
X117376691Y-91678822D02*
X117329072Y-91774060D01*
X117329072Y-91774060D02*
X117281453Y-91821680D01*
X117281453Y-91821680D02*
X117186215Y-91869299D01*
X117186215Y-91869299D02*
X117090977Y-91869299D01*
X117090977Y-91869299D02*
X116995739Y-91821680D01*
X116995739Y-91821680D02*
X116948120Y-91774060D01*
X116948120Y-91774060D02*
X116900501Y-91678822D01*
X116900501Y-91678822D02*
X116852882Y-91488346D01*
X116852882Y-91488346D02*
X116852882Y-91250251D01*
X116852882Y-91250251D02*
X116900501Y-91059775D01*
X116900501Y-91059775D02*
X116948120Y-90964537D01*
X116948120Y-90964537D02*
X116995739Y-90916918D01*
X116995739Y-90916918D02*
X117090977Y-90869299D01*
D14*
X105873307Y-121613085D02*
X106159021Y-121898800D01*
X106159021Y-121898800D02*
X105873307Y-122184514D01*
X105873307Y-122184514D02*
X105587593Y-121898800D01*
X105587593Y-121898800D02*
X105873307Y-121613085D01*
X105873307Y-121613085D02*
X105873307Y-122184514D01*
D12*
X72645739Y-69821680D02*
X72788596Y-69869299D01*
X72788596Y-69869299D02*
X73026691Y-69869299D01*
X73026691Y-69869299D02*
X73121929Y-69821680D01*
X73121929Y-69821680D02*
X73169548Y-69774060D01*
X73169548Y-69774060D02*
X73217167Y-69678822D01*
X73217167Y-69678822D02*
X73217167Y-69583584D01*
X73217167Y-69583584D02*
X73169548Y-69488346D01*
X73169548Y-69488346D02*
X73121929Y-69440727D01*
X73121929Y-69440727D02*
X73026691Y-69393108D01*
X73026691Y-69393108D02*
X72836215Y-69345489D01*
X72836215Y-69345489D02*
X72740977Y-69297870D01*
X72740977Y-69297870D02*
X72693358Y-69250251D01*
X72693358Y-69250251D02*
X72645739Y-69155013D01*
X72645739Y-69155013D02*
X72645739Y-69059775D01*
X72645739Y-69059775D02*
X72693358Y-68964537D01*
X72693358Y-68964537D02*
X72740977Y-68916918D01*
X72740977Y-68916918D02*
X72836215Y-68869299D01*
X72836215Y-68869299D02*
X73074310Y-68869299D01*
X73074310Y-68869299D02*
X73217167Y-68916918D01*
X73550501Y-68869299D02*
X73788596Y-69869299D01*
X73788596Y-69869299D02*
X73979072Y-69155013D01*
X73979072Y-69155013D02*
X74169548Y-69869299D01*
X74169548Y-69869299D02*
X74407644Y-68869299D01*
X74788596Y-69869299D02*
X74788596Y-68869299D01*
X74788596Y-68869299D02*
X75026691Y-68869299D01*
X75026691Y-68869299D02*
X75169548Y-68916918D01*
X75169548Y-68916918D02*
X75264786Y-69012156D01*
X75264786Y-69012156D02*
X75312405Y-69107394D01*
X75312405Y-69107394D02*
X75360024Y-69297870D01*
X75360024Y-69297870D02*
X75360024Y-69440727D01*
X75360024Y-69440727D02*
X75312405Y-69631203D01*
X75312405Y-69631203D02*
X75264786Y-69726441D01*
X75264786Y-69726441D02*
X75169548Y-69821680D01*
X75169548Y-69821680D02*
X75026691Y-69869299D01*
X75026691Y-69869299D02*
X74788596Y-69869299D01*
X62976691Y-86345489D02*
X63119548Y-86393108D01*
X63119548Y-86393108D02*
X63167167Y-86440727D01*
X63167167Y-86440727D02*
X63214786Y-86535965D01*
X63214786Y-86535965D02*
X63214786Y-86678822D01*
X63214786Y-86678822D02*
X63167167Y-86774060D01*
X63167167Y-86774060D02*
X63119548Y-86821680D01*
X63119548Y-86821680D02*
X63024310Y-86869299D01*
X63024310Y-86869299D02*
X62643358Y-86869299D01*
X62643358Y-86869299D02*
X62643358Y-85869299D01*
X62643358Y-85869299D02*
X62976691Y-85869299D01*
X62976691Y-85869299D02*
X63071929Y-85916918D01*
X63071929Y-85916918D02*
X63119548Y-85964537D01*
X63119548Y-85964537D02*
X63167167Y-86059775D01*
X63167167Y-86059775D02*
X63167167Y-86155013D01*
X63167167Y-86155013D02*
X63119548Y-86250251D01*
X63119548Y-86250251D02*
X63071929Y-86297870D01*
X63071929Y-86297870D02*
X62976691Y-86345489D01*
X62976691Y-86345489D02*
X62643358Y-86345489D01*
D14*
X122173307Y-91813085D02*
X122459021Y-92098800D01*
X122459021Y-92098800D02*
X122173307Y-92384514D01*
X122173307Y-92384514D02*
X121887593Y-92098800D01*
X121887593Y-92098800D02*
X122173307Y-91813085D01*
X122173307Y-91813085D02*
X122173307Y-92384514D01*
D12*
X51100501Y-98669299D02*
X51433834Y-99669299D01*
X51433834Y-99669299D02*
X51767167Y-98669299D01*
X52433834Y-99145489D02*
X52576691Y-99193108D01*
X52576691Y-99193108D02*
X52624310Y-99240727D01*
X52624310Y-99240727D02*
X52671929Y-99335965D01*
X52671929Y-99335965D02*
X52671929Y-99478822D01*
X52671929Y-99478822D02*
X52624310Y-99574060D01*
X52624310Y-99574060D02*
X52576691Y-99621680D01*
X52576691Y-99621680D02*
X52481453Y-99669299D01*
X52481453Y-99669299D02*
X52100501Y-99669299D01*
X52100501Y-99669299D02*
X52100501Y-98669299D01*
X52100501Y-98669299D02*
X52433834Y-98669299D01*
X52433834Y-98669299D02*
X52529072Y-98716918D01*
X52529072Y-98716918D02*
X52576691Y-98764537D01*
X52576691Y-98764537D02*
X52624310Y-98859775D01*
X52624310Y-98859775D02*
X52624310Y-98955013D01*
X52624310Y-98955013D02*
X52576691Y-99050251D01*
X52576691Y-99050251D02*
X52529072Y-99097870D01*
X52529072Y-99097870D02*
X52433834Y-99145489D01*
X52433834Y-99145489D02*
X52100501Y-99145489D01*
X53100501Y-98669299D02*
X53100501Y-99478822D01*
X53100501Y-99478822D02*
X53148120Y-99574060D01*
X53148120Y-99574060D02*
X53195739Y-99621680D01*
X53195739Y-99621680D02*
X53290977Y-99669299D01*
X53290977Y-99669299D02*
X53481453Y-99669299D01*
X53481453Y-99669299D02*
X53576691Y-99621680D01*
X53576691Y-99621680D02*
X53624310Y-99574060D01*
X53624310Y-99574060D02*
X53671929Y-99478822D01*
X53671929Y-99478822D02*
X53671929Y-98669299D01*
X54100501Y-99621680D02*
X54243358Y-99669299D01*
X54243358Y-99669299D02*
X54481453Y-99669299D01*
X54481453Y-99669299D02*
X54576691Y-99621680D01*
X54576691Y-99621680D02*
X54624310Y-99574060D01*
X54624310Y-99574060D02*
X54671929Y-99478822D01*
X54671929Y-99478822D02*
X54671929Y-99383584D01*
X54671929Y-99383584D02*
X54624310Y-99288346D01*
X54624310Y-99288346D02*
X54576691Y-99240727D01*
X54576691Y-99240727D02*
X54481453Y-99193108D01*
X54481453Y-99193108D02*
X54290977Y-99145489D01*
X54290977Y-99145489D02*
X54195739Y-99097870D01*
X54195739Y-99097870D02*
X54148120Y-99050251D01*
X54148120Y-99050251D02*
X54100501Y-98955013D01*
X54100501Y-98955013D02*
X54100501Y-98859775D01*
X54100501Y-98859775D02*
X54148120Y-98764537D01*
X54148120Y-98764537D02*
X54195739Y-98716918D01*
X54195739Y-98716918D02*
X54290977Y-98669299D01*
X54290977Y-98669299D02*
X54529072Y-98669299D01*
X54529072Y-98669299D02*
X54671929Y-98716918D01*
X56386215Y-98716918D02*
X56290977Y-98669299D01*
X56290977Y-98669299D02*
X56148120Y-98669299D01*
X56148120Y-98669299D02*
X56005263Y-98716918D01*
X56005263Y-98716918D02*
X55910025Y-98812156D01*
X55910025Y-98812156D02*
X55862406Y-98907394D01*
X55862406Y-98907394D02*
X55814787Y-99097870D01*
X55814787Y-99097870D02*
X55814787Y-99240727D01*
X55814787Y-99240727D02*
X55862406Y-99431203D01*
X55862406Y-99431203D02*
X55910025Y-99526441D01*
X55910025Y-99526441D02*
X56005263Y-99621680D01*
X56005263Y-99621680D02*
X56148120Y-99669299D01*
X56148120Y-99669299D02*
X56243358Y-99669299D01*
X56243358Y-99669299D02*
X56386215Y-99621680D01*
X56386215Y-99621680D02*
X56433834Y-99574060D01*
X56433834Y-99574060D02*
X56433834Y-99240727D01*
X56433834Y-99240727D02*
X56243358Y-99240727D01*
X56862406Y-99669299D02*
X56862406Y-98669299D01*
X56862406Y-98669299D02*
X57433834Y-99669299D01*
X57433834Y-99669299D02*
X57433834Y-98669299D01*
X57910025Y-99669299D02*
X57910025Y-98669299D01*
X57910025Y-98669299D02*
X58148120Y-98669299D01*
X58148120Y-98669299D02*
X58290977Y-98716918D01*
X58290977Y-98716918D02*
X58386215Y-98812156D01*
X58386215Y-98812156D02*
X58433834Y-98907394D01*
X58433834Y-98907394D02*
X58481453Y-99097870D01*
X58481453Y-99097870D02*
X58481453Y-99240727D01*
X58481453Y-99240727D02*
X58433834Y-99431203D01*
X58433834Y-99431203D02*
X58386215Y-99526441D01*
X58386215Y-99526441D02*
X58290977Y-99621680D01*
X58290977Y-99621680D02*
X58148120Y-99669299D01*
X58148120Y-99669299D02*
X57910025Y-99669299D01*
X69283081Y-61267167D02*
X69330700Y-61171929D01*
X69330700Y-61171929D02*
X69330700Y-61029072D01*
X69330700Y-61029072D02*
X69283081Y-60886215D01*
X69283081Y-60886215D02*
X69187843Y-60790977D01*
X69187843Y-60790977D02*
X69092605Y-60743358D01*
X69092605Y-60743358D02*
X68902129Y-60695739D01*
X68902129Y-60695739D02*
X68759272Y-60695739D01*
X68759272Y-60695739D02*
X68568796Y-60743358D01*
X68568796Y-60743358D02*
X68473558Y-60790977D01*
X68473558Y-60790977D02*
X68378320Y-60886215D01*
X68378320Y-60886215D02*
X68330700Y-61029072D01*
X68330700Y-61029072D02*
X68330700Y-61124310D01*
X68330700Y-61124310D02*
X68378320Y-61267167D01*
X68378320Y-61267167D02*
X68425939Y-61314786D01*
X68425939Y-61314786D02*
X68759272Y-61314786D01*
X68759272Y-61314786D02*
X68759272Y-61124310D01*
X68330700Y-61743358D02*
X69330700Y-61743358D01*
X69330700Y-61743358D02*
X68330700Y-62314786D01*
X68330700Y-62314786D02*
X69330700Y-62314786D01*
X68330700Y-62790977D02*
X69330700Y-62790977D01*
X69330700Y-62790977D02*
X69330700Y-63029072D01*
X69330700Y-63029072D02*
X69283081Y-63171929D01*
X69283081Y-63171929D02*
X69187843Y-63267167D01*
X69187843Y-63267167D02*
X69092605Y-63314786D01*
X69092605Y-63314786D02*
X68902129Y-63362405D01*
X68902129Y-63362405D02*
X68759272Y-63362405D01*
X68759272Y-63362405D02*
X68568796Y-63314786D01*
X68568796Y-63314786D02*
X68473558Y-63267167D01*
X68473558Y-63267167D02*
X68378320Y-63171929D01*
X68378320Y-63171929D02*
X68330700Y-63029072D01*
X68330700Y-63029072D02*
X68330700Y-62790977D01*
X68378320Y-63838596D02*
X68330700Y-63838596D01*
X68330700Y-63838596D02*
X68235462Y-63790977D01*
X68235462Y-63790977D02*
X68187843Y-63743358D01*
X69330700Y-64886215D02*
X68330700Y-65219548D01*
X68330700Y-65219548D02*
X69330700Y-65552881D01*
X68235462Y-65648120D02*
X68235462Y-66410024D01*
X68330700Y-66648120D02*
X69330700Y-66648120D01*
X68330700Y-67124310D02*
X69330700Y-67124310D01*
X69330700Y-67124310D02*
X68330700Y-67695738D01*
X68330700Y-67695738D02*
X69330700Y-67695738D01*
X68378320Y-68219548D02*
X68330700Y-68219548D01*
X68330700Y-68219548D02*
X68235462Y-68171929D01*
X68235462Y-68171929D02*
X68187843Y-68124310D01*
X69330700Y-69267167D02*
X69330700Y-69838595D01*
X68330700Y-69552881D02*
X69330700Y-69552881D01*
X68330700Y-70171929D02*
X68997367Y-70171929D01*
X68806891Y-70171929D02*
X68902129Y-70219548D01*
X68902129Y-70219548D02*
X68949748Y-70267167D01*
X68949748Y-70267167D02*
X68997367Y-70362405D01*
X68997367Y-70362405D02*
X68997367Y-70457643D01*
X68378320Y-70838596D02*
X68330700Y-70838596D01*
X68330700Y-70838596D02*
X68235462Y-70790977D01*
X68235462Y-70790977D02*
X68187843Y-70743358D01*
X68616415Y-71981453D02*
X68616415Y-72457643D01*
X68330700Y-71886215D02*
X69330700Y-72219548D01*
X69330700Y-72219548D02*
X68330700Y-72552881D01*
X69283081Y-73410024D02*
X69330700Y-73314786D01*
X69330700Y-73314786D02*
X69330700Y-73171929D01*
X69330700Y-73171929D02*
X69283081Y-73029072D01*
X69283081Y-73029072D02*
X69187843Y-72933834D01*
X69187843Y-72933834D02*
X69092605Y-72886215D01*
X69092605Y-72886215D02*
X68902129Y-72838596D01*
X68902129Y-72838596D02*
X68759272Y-72838596D01*
X68759272Y-72838596D02*
X68568796Y-72886215D01*
X68568796Y-72886215D02*
X68473558Y-72933834D01*
X68473558Y-72933834D02*
X68378320Y-73029072D01*
X68378320Y-73029072D02*
X68330700Y-73171929D01*
X68330700Y-73171929D02*
X68330700Y-73267167D01*
X68330700Y-73267167D02*
X68378320Y-73410024D01*
X68378320Y-73410024D02*
X68425939Y-73457643D01*
X68425939Y-73457643D02*
X68759272Y-73457643D01*
X68759272Y-73457643D02*
X68759272Y-73267167D01*
X68330700Y-73886215D02*
X69330700Y-73886215D01*
X69330700Y-73886215D02*
X68330700Y-74457643D01*
X68330700Y-74457643D02*
X69330700Y-74457643D01*
X68330700Y-74933834D02*
X69330700Y-74933834D01*
X69330700Y-74933834D02*
X69330700Y-75171929D01*
X69330700Y-75171929D02*
X69283081Y-75314786D01*
X69283081Y-75314786D02*
X69187843Y-75410024D01*
X69187843Y-75410024D02*
X69092605Y-75457643D01*
X69092605Y-75457643D02*
X68902129Y-75505262D01*
X68902129Y-75505262D02*
X68759272Y-75505262D01*
X68759272Y-75505262D02*
X68568796Y-75457643D01*
X68568796Y-75457643D02*
X68473558Y-75410024D01*
X68473558Y-75410024D02*
X68378320Y-75314786D01*
X68378320Y-75314786D02*
X68330700Y-75171929D01*
X68330700Y-75171929D02*
X68330700Y-74933834D01*
X68378320Y-75981453D02*
X68330700Y-75981453D01*
X68330700Y-75981453D02*
X68235462Y-75933834D01*
X68235462Y-75933834D02*
X68187843Y-75886215D01*
X68616415Y-77124310D02*
X68616415Y-77600500D01*
X68330700Y-77029072D02*
X69330700Y-77362405D01*
X69330700Y-77362405D02*
X68330700Y-77695738D01*
X68235462Y-77790977D02*
X68235462Y-78552881D01*
X69330700Y-78981453D02*
X69330700Y-79171929D01*
X69330700Y-79171929D02*
X69283081Y-79267167D01*
X69283081Y-79267167D02*
X69187843Y-79362405D01*
X69187843Y-79362405D02*
X68997367Y-79410024D01*
X68997367Y-79410024D02*
X68664034Y-79410024D01*
X68664034Y-79410024D02*
X68473558Y-79362405D01*
X68473558Y-79362405D02*
X68378320Y-79267167D01*
X68378320Y-79267167D02*
X68330700Y-79171929D01*
X68330700Y-79171929D02*
X68330700Y-78981453D01*
X68330700Y-78981453D02*
X68378320Y-78886215D01*
X68378320Y-78886215D02*
X68473558Y-78790977D01*
X68473558Y-78790977D02*
X68664034Y-78743358D01*
X68664034Y-78743358D02*
X68997367Y-78743358D01*
X68997367Y-78743358D02*
X69187843Y-78790977D01*
X69187843Y-78790977D02*
X69283081Y-78886215D01*
X69283081Y-78886215D02*
X69330700Y-78981453D01*
X69330700Y-79838596D02*
X68521177Y-79838596D01*
X68521177Y-79838596D02*
X68425939Y-79886215D01*
X68425939Y-79886215D02*
X68378320Y-79933834D01*
X68378320Y-79933834D02*
X68330700Y-80029072D01*
X68330700Y-80029072D02*
X68330700Y-80219548D01*
X68330700Y-80219548D02*
X68378320Y-80314786D01*
X68378320Y-80314786D02*
X68425939Y-80362405D01*
X68425939Y-80362405D02*
X68521177Y-80410024D01*
X68521177Y-80410024D02*
X69330700Y-80410024D01*
X69330700Y-80743358D02*
X69330700Y-81314786D01*
X68330700Y-81029072D02*
X69330700Y-81029072D01*
X68378320Y-81695739D02*
X68330700Y-81695739D01*
X68330700Y-81695739D02*
X68235462Y-81648120D01*
X68235462Y-81648120D02*
X68187843Y-81600501D01*
X68854510Y-83219548D02*
X68806891Y-83362405D01*
X68806891Y-83362405D02*
X68759272Y-83410024D01*
X68759272Y-83410024D02*
X68664034Y-83457643D01*
X68664034Y-83457643D02*
X68521177Y-83457643D01*
X68521177Y-83457643D02*
X68425939Y-83410024D01*
X68425939Y-83410024D02*
X68378320Y-83362405D01*
X68378320Y-83362405D02*
X68330700Y-83267167D01*
X68330700Y-83267167D02*
X68330700Y-82886215D01*
X68330700Y-82886215D02*
X69330700Y-82886215D01*
X69330700Y-82886215D02*
X69330700Y-83219548D01*
X69330700Y-83219548D02*
X69283081Y-83314786D01*
X69283081Y-83314786D02*
X69235462Y-83362405D01*
X69235462Y-83362405D02*
X69140224Y-83410024D01*
X69140224Y-83410024D02*
X69044986Y-83410024D01*
X69044986Y-83410024D02*
X68949748Y-83362405D01*
X68949748Y-83362405D02*
X68902129Y-83314786D01*
X68902129Y-83314786D02*
X68854510Y-83219548D01*
X68854510Y-83219548D02*
X68854510Y-82886215D01*
X68235462Y-83648120D02*
X68235462Y-84410024D01*
X69330700Y-84838596D02*
X69330700Y-85029072D01*
X69330700Y-85029072D02*
X69283081Y-85124310D01*
X69283081Y-85124310D02*
X69187843Y-85219548D01*
X69187843Y-85219548D02*
X68997367Y-85267167D01*
X68997367Y-85267167D02*
X68664034Y-85267167D01*
X68664034Y-85267167D02*
X68473558Y-85219548D01*
X68473558Y-85219548D02*
X68378320Y-85124310D01*
X68378320Y-85124310D02*
X68330700Y-85029072D01*
X68330700Y-85029072D02*
X68330700Y-84838596D01*
X68330700Y-84838596D02*
X68378320Y-84743358D01*
X68378320Y-84743358D02*
X68473558Y-84648120D01*
X68473558Y-84648120D02*
X68664034Y-84600501D01*
X68664034Y-84600501D02*
X68997367Y-84600501D01*
X68997367Y-84600501D02*
X69187843Y-84648120D01*
X69187843Y-84648120D02*
X69283081Y-84743358D01*
X69283081Y-84743358D02*
X69330700Y-84838596D01*
X69330700Y-85695739D02*
X68521177Y-85695739D01*
X68521177Y-85695739D02*
X68425939Y-85743358D01*
X68425939Y-85743358D02*
X68378320Y-85790977D01*
X68378320Y-85790977D02*
X68330700Y-85886215D01*
X68330700Y-85886215D02*
X68330700Y-86076691D01*
X68330700Y-86076691D02*
X68378320Y-86171929D01*
X68378320Y-86171929D02*
X68425939Y-86219548D01*
X68425939Y-86219548D02*
X68521177Y-86267167D01*
X68521177Y-86267167D02*
X69330700Y-86267167D01*
X69330700Y-86600501D02*
X69330700Y-87171929D01*
X68330700Y-86886215D02*
X69330700Y-86886215D01*
X64101879Y-117430700D02*
X63435213Y-116430700D01*
X63435213Y-117430700D02*
X64101879Y-116430700D01*
D14*
X86873307Y-121713085D02*
X87159021Y-121998800D01*
X87159021Y-121998800D02*
X86873307Y-122284514D01*
X86873307Y-122284514D02*
X86587593Y-121998800D01*
X86587593Y-121998800D02*
X86873307Y-121713085D01*
X86873307Y-121713085D02*
X86873307Y-122284514D01*
X122323307Y-72013085D02*
X122609021Y-72298800D01*
X122609021Y-72298800D02*
X122323307Y-72584514D01*
X122323307Y-72584514D02*
X122037593Y-72298800D01*
X122037593Y-72298800D02*
X122323307Y-72013085D01*
X122323307Y-72013085D02*
X122323307Y-72584514D01*
D12*
X51095739Y-87183584D02*
X51571929Y-87183584D01*
X51000501Y-87469299D02*
X51333834Y-86469299D01*
X51333834Y-86469299D02*
X51667167Y-87469299D01*
X69219548Y-88359355D02*
X68743358Y-88359355D01*
X68743358Y-88359355D02*
X68743358Y-87359355D01*
X69743358Y-87359355D02*
X69838596Y-87359355D01*
X69838596Y-87359355D02*
X69933834Y-87406974D01*
X69933834Y-87406974D02*
X69981453Y-87454593D01*
X69981453Y-87454593D02*
X70029072Y-87549831D01*
X70029072Y-87549831D02*
X70076691Y-87740307D01*
X70076691Y-87740307D02*
X70076691Y-87978402D01*
X70076691Y-87978402D02*
X70029072Y-88168878D01*
X70029072Y-88168878D02*
X69981453Y-88264116D01*
X69981453Y-88264116D02*
X69933834Y-88311736D01*
X69933834Y-88311736D02*
X69838596Y-88359355D01*
X69838596Y-88359355D02*
X69743358Y-88359355D01*
X69743358Y-88359355D02*
X69648120Y-88311736D01*
X69648120Y-88311736D02*
X69600501Y-88264116D01*
X69600501Y-88264116D02*
X69552882Y-88168878D01*
X69552882Y-88168878D02*
X69505263Y-87978402D01*
X69505263Y-87978402D02*
X69505263Y-87740307D01*
X69505263Y-87740307D02*
X69552882Y-87549831D01*
X69552882Y-87549831D02*
X69600501Y-87454593D01*
X69600501Y-87454593D02*
X69648120Y-87406974D01*
X69648120Y-87406974D02*
X69743358Y-87359355D01*
X69219548Y-89969299D02*
X68743358Y-89969299D01*
X68743358Y-89969299D02*
X68743358Y-88969299D01*
X70076691Y-89969299D02*
X69505263Y-89969299D01*
X69790977Y-89969299D02*
X69790977Y-88969299D01*
X69790977Y-88969299D02*
X69695739Y-89112156D01*
X69695739Y-89112156D02*
X69600501Y-89207394D01*
X69600501Y-89207394D02*
X69505263Y-89255013D01*
X95667167Y-82597030D02*
X95571929Y-82549411D01*
X95571929Y-82549411D02*
X95429072Y-82549411D01*
X95429072Y-82549411D02*
X95286215Y-82597030D01*
X95286215Y-82597030D02*
X95190977Y-82692268D01*
X95190977Y-82692268D02*
X95143358Y-82787506D01*
X95143358Y-82787506D02*
X95095739Y-82977982D01*
X95095739Y-82977982D02*
X95095739Y-83120839D01*
X95095739Y-83120839D02*
X95143358Y-83311315D01*
X95143358Y-83311315D02*
X95190977Y-83406553D01*
X95190977Y-83406553D02*
X95286215Y-83501792D01*
X95286215Y-83501792D02*
X95429072Y-83549411D01*
X95429072Y-83549411D02*
X95524310Y-83549411D01*
X95524310Y-83549411D02*
X95667167Y-83501792D01*
X95667167Y-83501792D02*
X95714786Y-83454172D01*
X95714786Y-83454172D02*
X95714786Y-83120839D01*
X95714786Y-83120839D02*
X95524310Y-83120839D01*
X96143358Y-83549411D02*
X96143358Y-82549411D01*
X96143358Y-82549411D02*
X96524310Y-82549411D01*
X96524310Y-82549411D02*
X96619548Y-82597030D01*
X96619548Y-82597030D02*
X96667167Y-82644649D01*
X96667167Y-82644649D02*
X96714786Y-82739887D01*
X96714786Y-82739887D02*
X96714786Y-82882744D01*
X96714786Y-82882744D02*
X96667167Y-82977982D01*
X96667167Y-82977982D02*
X96619548Y-83025601D01*
X96619548Y-83025601D02*
X96524310Y-83073220D01*
X96524310Y-83073220D02*
X96143358Y-83073220D01*
X97143358Y-83549411D02*
X97143358Y-82549411D01*
X97810024Y-82549411D02*
X98000500Y-82549411D01*
X98000500Y-82549411D02*
X98095738Y-82597030D01*
X98095738Y-82597030D02*
X98190976Y-82692268D01*
X98190976Y-82692268D02*
X98238595Y-82882744D01*
X98238595Y-82882744D02*
X98238595Y-83216077D01*
X98238595Y-83216077D02*
X98190976Y-83406553D01*
X98190976Y-83406553D02*
X98095738Y-83501792D01*
X98095738Y-83501792D02*
X98000500Y-83549411D01*
X98000500Y-83549411D02*
X97810024Y-83549411D01*
X97810024Y-83549411D02*
X97714786Y-83501792D01*
X97714786Y-83501792D02*
X97619548Y-83406553D01*
X97619548Y-83406553D02*
X97571929Y-83216077D01*
X97571929Y-83216077D02*
X97571929Y-82882744D01*
X97571929Y-82882744D02*
X97619548Y-82692268D01*
X97619548Y-82692268D02*
X97714786Y-82597030D01*
X97714786Y-82597030D02*
X97810024Y-82549411D01*
X98667167Y-83454172D02*
X98714786Y-83501792D01*
X98714786Y-83501792D02*
X98667167Y-83549411D01*
X98667167Y-83549411D02*
X98619548Y-83501792D01*
X98619548Y-83501792D02*
X98667167Y-83454172D01*
X98667167Y-83454172D02*
X98667167Y-83549411D01*
X98667167Y-82930363D02*
X98714786Y-82977982D01*
X98714786Y-82977982D02*
X98667167Y-83025601D01*
X98667167Y-83025601D02*
X98619548Y-82977982D01*
X98619548Y-82977982D02*
X98667167Y-82930363D01*
X98667167Y-82930363D02*
X98667167Y-83025601D01*
X95143358Y-85159355D02*
X95143358Y-84159355D01*
X95143358Y-84159355D02*
X95524310Y-84159355D01*
X95524310Y-84159355D02*
X95619548Y-84206974D01*
X95619548Y-84206974D02*
X95667167Y-84254593D01*
X95667167Y-84254593D02*
X95714786Y-84349831D01*
X95714786Y-84349831D02*
X95714786Y-84492688D01*
X95714786Y-84492688D02*
X95667167Y-84587926D01*
X95667167Y-84587926D02*
X95619548Y-84635545D01*
X95619548Y-84635545D02*
X95524310Y-84683164D01*
X95524310Y-84683164D02*
X95143358Y-84683164D01*
X96143358Y-84635545D02*
X96476691Y-84635545D01*
X96619548Y-85159355D02*
X96143358Y-85159355D01*
X96143358Y-85159355D02*
X96143358Y-84159355D01*
X96143358Y-84159355D02*
X96619548Y-84159355D01*
X97095739Y-85159355D02*
X97286215Y-85159355D01*
X97286215Y-85159355D02*
X97381453Y-85111736D01*
X97381453Y-85111736D02*
X97429072Y-85064116D01*
X97429072Y-85064116D02*
X97524310Y-84921259D01*
X97524310Y-84921259D02*
X97571929Y-84730783D01*
X97571929Y-84730783D02*
X97571929Y-84349831D01*
X97571929Y-84349831D02*
X97524310Y-84254593D01*
X97524310Y-84254593D02*
X97476691Y-84206974D01*
X97476691Y-84206974D02*
X97381453Y-84159355D01*
X97381453Y-84159355D02*
X97190977Y-84159355D01*
X97190977Y-84159355D02*
X97095739Y-84206974D01*
X97095739Y-84206974D02*
X97048120Y-84254593D01*
X97048120Y-84254593D02*
X97000501Y-84349831D01*
X97000501Y-84349831D02*
X97000501Y-84587926D01*
X97000501Y-84587926D02*
X97048120Y-84683164D01*
X97048120Y-84683164D02*
X97095739Y-84730783D01*
X97095739Y-84730783D02*
X97190977Y-84778402D01*
X97190977Y-84778402D02*
X97381453Y-84778402D01*
X97381453Y-84778402D02*
X97476691Y-84730783D01*
X97476691Y-84730783D02*
X97524310Y-84683164D01*
X97524310Y-84683164D02*
X97571929Y-84587926D01*
X98762406Y-85159355D02*
X98762406Y-84159355D01*
X98762406Y-84159355D02*
X99143358Y-84159355D01*
X99143358Y-84159355D02*
X99238596Y-84206974D01*
X99238596Y-84206974D02*
X99286215Y-84254593D01*
X99286215Y-84254593D02*
X99333834Y-84349831D01*
X99333834Y-84349831D02*
X99333834Y-84492688D01*
X99333834Y-84492688D02*
X99286215Y-84587926D01*
X99286215Y-84587926D02*
X99238596Y-84635545D01*
X99238596Y-84635545D02*
X99143358Y-84683164D01*
X99143358Y-84683164D02*
X98762406Y-84683164D01*
X99762406Y-84635545D02*
X100095739Y-84635545D01*
X100238596Y-85159355D02*
X99762406Y-85159355D01*
X99762406Y-85159355D02*
X99762406Y-84159355D01*
X99762406Y-84159355D02*
X100238596Y-84159355D01*
X101190977Y-85159355D02*
X100619549Y-85159355D01*
X100905263Y-85159355D02*
X100905263Y-84159355D01*
X100905263Y-84159355D02*
X100810025Y-84302212D01*
X100810025Y-84302212D02*
X100714787Y-84397450D01*
X100714787Y-84397450D02*
X100619549Y-84445069D01*
X101810025Y-84159355D02*
X101905263Y-84159355D01*
X101905263Y-84159355D02*
X102000501Y-84206974D01*
X102000501Y-84206974D02*
X102048120Y-84254593D01*
X102048120Y-84254593D02*
X102095739Y-84349831D01*
X102095739Y-84349831D02*
X102143358Y-84540307D01*
X102143358Y-84540307D02*
X102143358Y-84778402D01*
X102143358Y-84778402D02*
X102095739Y-84968878D01*
X102095739Y-84968878D02*
X102048120Y-85064116D01*
X102048120Y-85064116D02*
X102000501Y-85111736D01*
X102000501Y-85111736D02*
X101905263Y-85159355D01*
X101905263Y-85159355D02*
X101810025Y-85159355D01*
X101810025Y-85159355D02*
X101714787Y-85111736D01*
X101714787Y-85111736D02*
X101667168Y-85064116D01*
X101667168Y-85064116D02*
X101619549Y-84968878D01*
X101619549Y-84968878D02*
X101571930Y-84778402D01*
X101571930Y-84778402D02*
X101571930Y-84540307D01*
X101571930Y-84540307D02*
X101619549Y-84349831D01*
X101619549Y-84349831D02*
X101667168Y-84254593D01*
X101667168Y-84254593D02*
X101714787Y-84206974D01*
X101714787Y-84206974D02*
X101810025Y-84159355D01*
X95143358Y-86769299D02*
X95143358Y-85769299D01*
X95143358Y-85769299D02*
X95524310Y-85769299D01*
X95524310Y-85769299D02*
X95619548Y-85816918D01*
X95619548Y-85816918D02*
X95667167Y-85864537D01*
X95667167Y-85864537D02*
X95714786Y-85959775D01*
X95714786Y-85959775D02*
X95714786Y-86102632D01*
X95714786Y-86102632D02*
X95667167Y-86197870D01*
X95667167Y-86197870D02*
X95619548Y-86245489D01*
X95619548Y-86245489D02*
X95524310Y-86293108D01*
X95524310Y-86293108D02*
X95143358Y-86293108D01*
X96143358Y-86245489D02*
X96476691Y-86245489D01*
X96619548Y-86769299D02*
X96143358Y-86769299D01*
X96143358Y-86769299D02*
X96143358Y-85769299D01*
X96143358Y-85769299D02*
X96619548Y-85769299D01*
X96952882Y-85769299D02*
X97619548Y-85769299D01*
X97619548Y-85769299D02*
X97190977Y-86769299D01*
X98762406Y-86769299D02*
X98762406Y-85769299D01*
X98762406Y-85769299D02*
X99143358Y-85769299D01*
X99143358Y-85769299D02*
X99238596Y-85816918D01*
X99238596Y-85816918D02*
X99286215Y-85864537D01*
X99286215Y-85864537D02*
X99333834Y-85959775D01*
X99333834Y-85959775D02*
X99333834Y-86102632D01*
X99333834Y-86102632D02*
X99286215Y-86197870D01*
X99286215Y-86197870D02*
X99238596Y-86245489D01*
X99238596Y-86245489D02*
X99143358Y-86293108D01*
X99143358Y-86293108D02*
X98762406Y-86293108D01*
X99762406Y-86245489D02*
X100095739Y-86245489D01*
X100238596Y-86769299D02*
X99762406Y-86769299D01*
X99762406Y-86769299D02*
X99762406Y-85769299D01*
X99762406Y-85769299D02*
X100238596Y-85769299D01*
X100810025Y-86197870D02*
X100714787Y-86150251D01*
X100714787Y-86150251D02*
X100667168Y-86102632D01*
X100667168Y-86102632D02*
X100619549Y-86007394D01*
X100619549Y-86007394D02*
X100619549Y-85959775D01*
X100619549Y-85959775D02*
X100667168Y-85864537D01*
X100667168Y-85864537D02*
X100714787Y-85816918D01*
X100714787Y-85816918D02*
X100810025Y-85769299D01*
X100810025Y-85769299D02*
X101000501Y-85769299D01*
X101000501Y-85769299D02*
X101095739Y-85816918D01*
X101095739Y-85816918D02*
X101143358Y-85864537D01*
X101143358Y-85864537D02*
X101190977Y-85959775D01*
X101190977Y-85959775D02*
X101190977Y-86007394D01*
X101190977Y-86007394D02*
X101143358Y-86102632D01*
X101143358Y-86102632D02*
X101095739Y-86150251D01*
X101095739Y-86150251D02*
X101000501Y-86197870D01*
X101000501Y-86197870D02*
X100810025Y-86197870D01*
X100810025Y-86197870D02*
X100714787Y-86245489D01*
X100714787Y-86245489D02*
X100667168Y-86293108D01*
X100667168Y-86293108D02*
X100619549Y-86388346D01*
X100619549Y-86388346D02*
X100619549Y-86578822D01*
X100619549Y-86578822D02*
X100667168Y-86674060D01*
X100667168Y-86674060D02*
X100714787Y-86721680D01*
X100714787Y-86721680D02*
X100810025Y-86769299D01*
X100810025Y-86769299D02*
X101000501Y-86769299D01*
X101000501Y-86769299D02*
X101095739Y-86721680D01*
X101095739Y-86721680D02*
X101143358Y-86674060D01*
X101143358Y-86674060D02*
X101190977Y-86578822D01*
X101190977Y-86578822D02*
X101190977Y-86388346D01*
X101190977Y-86388346D02*
X101143358Y-86293108D01*
X101143358Y-86293108D02*
X101095739Y-86245489D01*
X101095739Y-86245489D02*
X101000501Y-86197870D01*
X80393358Y-66619299D02*
X80393358Y-65619299D01*
X80393358Y-65619299D02*
X80964786Y-66619299D01*
X80964786Y-66619299D02*
X80964786Y-65619299D01*
X82012405Y-66619299D02*
X81679072Y-66143108D01*
X81440977Y-66619299D02*
X81440977Y-65619299D01*
X81440977Y-65619299D02*
X81821929Y-65619299D01*
X81821929Y-65619299D02*
X81917167Y-65666918D01*
X81917167Y-65666918D02*
X81964786Y-65714537D01*
X81964786Y-65714537D02*
X82012405Y-65809775D01*
X82012405Y-65809775D02*
X82012405Y-65952632D01*
X82012405Y-65952632D02*
X81964786Y-66047870D01*
X81964786Y-66047870D02*
X81917167Y-66095489D01*
X81917167Y-66095489D02*
X81821929Y-66143108D01*
X81821929Y-66143108D02*
X81440977Y-66143108D01*
X82393358Y-66571680D02*
X82536215Y-66619299D01*
X82536215Y-66619299D02*
X82774310Y-66619299D01*
X82774310Y-66619299D02*
X82869548Y-66571680D01*
X82869548Y-66571680D02*
X82917167Y-66524060D01*
X82917167Y-66524060D02*
X82964786Y-66428822D01*
X82964786Y-66428822D02*
X82964786Y-66333584D01*
X82964786Y-66333584D02*
X82917167Y-66238346D01*
X82917167Y-66238346D02*
X82869548Y-66190727D01*
X82869548Y-66190727D02*
X82774310Y-66143108D01*
X82774310Y-66143108D02*
X82583834Y-66095489D01*
X82583834Y-66095489D02*
X82488596Y-66047870D01*
X82488596Y-66047870D02*
X82440977Y-66000251D01*
X82440977Y-66000251D02*
X82393358Y-65905013D01*
X82393358Y-65905013D02*
X82393358Y-65809775D01*
X82393358Y-65809775D02*
X82440977Y-65714537D01*
X82440977Y-65714537D02*
X82488596Y-65666918D01*
X82488596Y-65666918D02*
X82583834Y-65619299D01*
X82583834Y-65619299D02*
X82821929Y-65619299D01*
X82821929Y-65619299D02*
X82964786Y-65666918D01*
X83250501Y-65619299D02*
X83821929Y-65619299D01*
X83536215Y-66619299D02*
X83536215Y-65619299D01*
X63043358Y-68069299D02*
X63043358Y-68878822D01*
X63043358Y-68878822D02*
X63090977Y-68974060D01*
X63090977Y-68974060D02*
X63138596Y-69021680D01*
X63138596Y-69021680D02*
X63233834Y-69069299D01*
X63233834Y-69069299D02*
X63424310Y-69069299D01*
X63424310Y-69069299D02*
X63519548Y-69021680D01*
X63519548Y-69021680D02*
X63567167Y-68974060D01*
X63567167Y-68974060D02*
X63614786Y-68878822D01*
X63614786Y-68878822D02*
X63614786Y-68069299D01*
X64090977Y-69069299D02*
X64090977Y-68069299D01*
X64090977Y-68069299D02*
X64471929Y-68069299D01*
X64471929Y-68069299D02*
X64567167Y-68116918D01*
X64567167Y-68116918D02*
X64614786Y-68164537D01*
X64614786Y-68164537D02*
X64662405Y-68259775D01*
X64662405Y-68259775D02*
X64662405Y-68402632D01*
X64662405Y-68402632D02*
X64614786Y-68497870D01*
X64614786Y-68497870D02*
X64567167Y-68545489D01*
X64567167Y-68545489D02*
X64471929Y-68593108D01*
X64471929Y-68593108D02*
X64090977Y-68593108D01*
X63967167Y-104837086D02*
X63871929Y-104789467D01*
X63871929Y-104789467D02*
X63729072Y-104789467D01*
X63729072Y-104789467D02*
X63586215Y-104837086D01*
X63586215Y-104837086D02*
X63490977Y-104932324D01*
X63490977Y-104932324D02*
X63443358Y-105027562D01*
X63443358Y-105027562D02*
X63395739Y-105218038D01*
X63395739Y-105218038D02*
X63395739Y-105360895D01*
X63395739Y-105360895D02*
X63443358Y-105551371D01*
X63443358Y-105551371D02*
X63490977Y-105646609D01*
X63490977Y-105646609D02*
X63586215Y-105741848D01*
X63586215Y-105741848D02*
X63729072Y-105789467D01*
X63729072Y-105789467D02*
X63824310Y-105789467D01*
X63824310Y-105789467D02*
X63967167Y-105741848D01*
X63967167Y-105741848D02*
X64014786Y-105694228D01*
X64014786Y-105694228D02*
X64014786Y-105360895D01*
X64014786Y-105360895D02*
X63824310Y-105360895D01*
X64443358Y-105789467D02*
X64443358Y-104789467D01*
X64443358Y-104789467D02*
X64824310Y-104789467D01*
X64824310Y-104789467D02*
X64919548Y-104837086D01*
X64919548Y-104837086D02*
X64967167Y-104884705D01*
X64967167Y-104884705D02*
X65014786Y-104979943D01*
X65014786Y-104979943D02*
X65014786Y-105122800D01*
X65014786Y-105122800D02*
X64967167Y-105218038D01*
X64967167Y-105218038D02*
X64919548Y-105265657D01*
X64919548Y-105265657D02*
X64824310Y-105313276D01*
X64824310Y-105313276D02*
X64443358Y-105313276D01*
X65443358Y-105789467D02*
X65443358Y-104789467D01*
X66110024Y-104789467D02*
X66300500Y-104789467D01*
X66300500Y-104789467D02*
X66395738Y-104837086D01*
X66395738Y-104837086D02*
X66490976Y-104932324D01*
X66490976Y-104932324D02*
X66538595Y-105122800D01*
X66538595Y-105122800D02*
X66538595Y-105456133D01*
X66538595Y-105456133D02*
X66490976Y-105646609D01*
X66490976Y-105646609D02*
X66395738Y-105741848D01*
X66395738Y-105741848D02*
X66300500Y-105789467D01*
X66300500Y-105789467D02*
X66110024Y-105789467D01*
X66110024Y-105789467D02*
X66014786Y-105741848D01*
X66014786Y-105741848D02*
X65919548Y-105646609D01*
X65919548Y-105646609D02*
X65871929Y-105456133D01*
X65871929Y-105456133D02*
X65871929Y-105122800D01*
X65871929Y-105122800D02*
X65919548Y-104932324D01*
X65919548Y-104932324D02*
X66014786Y-104837086D01*
X66014786Y-104837086D02*
X66110024Y-104789467D01*
X66967167Y-105694228D02*
X67014786Y-105741848D01*
X67014786Y-105741848D02*
X66967167Y-105789467D01*
X66967167Y-105789467D02*
X66919548Y-105741848D01*
X66919548Y-105741848D02*
X66967167Y-105694228D01*
X66967167Y-105694228D02*
X66967167Y-105789467D01*
X66967167Y-105170419D02*
X67014786Y-105218038D01*
X67014786Y-105218038D02*
X66967167Y-105265657D01*
X66967167Y-105265657D02*
X66919548Y-105218038D01*
X66919548Y-105218038D02*
X66967167Y-105170419D01*
X66967167Y-105170419D02*
X66967167Y-105265657D01*
X63443358Y-107399411D02*
X63443358Y-106399411D01*
X63443358Y-106399411D02*
X63824310Y-106399411D01*
X63824310Y-106399411D02*
X63919548Y-106447030D01*
X63919548Y-106447030D02*
X63967167Y-106494649D01*
X63967167Y-106494649D02*
X64014786Y-106589887D01*
X64014786Y-106589887D02*
X64014786Y-106732744D01*
X64014786Y-106732744D02*
X63967167Y-106827982D01*
X63967167Y-106827982D02*
X63919548Y-106875601D01*
X63919548Y-106875601D02*
X63824310Y-106923220D01*
X63824310Y-106923220D02*
X63443358Y-106923220D01*
X65014786Y-107304172D02*
X64967167Y-107351792D01*
X64967167Y-107351792D02*
X64824310Y-107399411D01*
X64824310Y-107399411D02*
X64729072Y-107399411D01*
X64729072Y-107399411D02*
X64586215Y-107351792D01*
X64586215Y-107351792D02*
X64490977Y-107256553D01*
X64490977Y-107256553D02*
X64443358Y-107161315D01*
X64443358Y-107161315D02*
X64395739Y-106970839D01*
X64395739Y-106970839D02*
X64395739Y-106827982D01*
X64395739Y-106827982D02*
X64443358Y-106637506D01*
X64443358Y-106637506D02*
X64490977Y-106542268D01*
X64490977Y-106542268D02*
X64586215Y-106447030D01*
X64586215Y-106447030D02*
X64729072Y-106399411D01*
X64729072Y-106399411D02*
X64824310Y-106399411D01*
X64824310Y-106399411D02*
X64967167Y-106447030D01*
X64967167Y-106447030D02*
X65014786Y-106494649D01*
X65967167Y-107399411D02*
X65395739Y-107399411D01*
X65681453Y-107399411D02*
X65681453Y-106399411D01*
X65681453Y-106399411D02*
X65586215Y-106542268D01*
X65586215Y-106542268D02*
X65490977Y-106637506D01*
X65490977Y-106637506D02*
X65395739Y-106685125D01*
X63443358Y-109009355D02*
X63443358Y-108009355D01*
X63443358Y-108009355D02*
X63824310Y-108009355D01*
X63824310Y-108009355D02*
X63919548Y-108056974D01*
X63919548Y-108056974D02*
X63967167Y-108104593D01*
X63967167Y-108104593D02*
X64014786Y-108199831D01*
X64014786Y-108199831D02*
X64014786Y-108342688D01*
X64014786Y-108342688D02*
X63967167Y-108437926D01*
X63967167Y-108437926D02*
X63919548Y-108485545D01*
X63919548Y-108485545D02*
X63824310Y-108533164D01*
X63824310Y-108533164D02*
X63443358Y-108533164D01*
X65014786Y-108914116D02*
X64967167Y-108961736D01*
X64967167Y-108961736D02*
X64824310Y-109009355D01*
X64824310Y-109009355D02*
X64729072Y-109009355D01*
X64729072Y-109009355D02*
X64586215Y-108961736D01*
X64586215Y-108961736D02*
X64490977Y-108866497D01*
X64490977Y-108866497D02*
X64443358Y-108771259D01*
X64443358Y-108771259D02*
X64395739Y-108580783D01*
X64395739Y-108580783D02*
X64395739Y-108437926D01*
X64395739Y-108437926D02*
X64443358Y-108247450D01*
X64443358Y-108247450D02*
X64490977Y-108152212D01*
X64490977Y-108152212D02*
X64586215Y-108056974D01*
X64586215Y-108056974D02*
X64729072Y-108009355D01*
X64729072Y-108009355D02*
X64824310Y-108009355D01*
X64824310Y-108009355D02*
X64967167Y-108056974D01*
X64967167Y-108056974D02*
X65014786Y-108104593D01*
X65395739Y-108104593D02*
X65443358Y-108056974D01*
X65443358Y-108056974D02*
X65538596Y-108009355D01*
X65538596Y-108009355D02*
X65776691Y-108009355D01*
X65776691Y-108009355D02*
X65871929Y-108056974D01*
X65871929Y-108056974D02*
X65919548Y-108104593D01*
X65919548Y-108104593D02*
X65967167Y-108199831D01*
X65967167Y-108199831D02*
X65967167Y-108295069D01*
X65967167Y-108295069D02*
X65919548Y-108437926D01*
X65919548Y-108437926D02*
X65348120Y-109009355D01*
X65348120Y-109009355D02*
X65967167Y-109009355D01*
X63443358Y-110619299D02*
X63443358Y-109619299D01*
X63443358Y-109619299D02*
X63824310Y-109619299D01*
X63824310Y-109619299D02*
X63919548Y-109666918D01*
X63919548Y-109666918D02*
X63967167Y-109714537D01*
X63967167Y-109714537D02*
X64014786Y-109809775D01*
X64014786Y-109809775D02*
X64014786Y-109952632D01*
X64014786Y-109952632D02*
X63967167Y-110047870D01*
X63967167Y-110047870D02*
X63919548Y-110095489D01*
X63919548Y-110095489D02*
X63824310Y-110143108D01*
X63824310Y-110143108D02*
X63443358Y-110143108D01*
X65014786Y-110524060D02*
X64967167Y-110571680D01*
X64967167Y-110571680D02*
X64824310Y-110619299D01*
X64824310Y-110619299D02*
X64729072Y-110619299D01*
X64729072Y-110619299D02*
X64586215Y-110571680D01*
X64586215Y-110571680D02*
X64490977Y-110476441D01*
X64490977Y-110476441D02*
X64443358Y-110381203D01*
X64443358Y-110381203D02*
X64395739Y-110190727D01*
X64395739Y-110190727D02*
X64395739Y-110047870D01*
X64395739Y-110047870D02*
X64443358Y-109857394D01*
X64443358Y-109857394D02*
X64490977Y-109762156D01*
X64490977Y-109762156D02*
X64586215Y-109666918D01*
X64586215Y-109666918D02*
X64729072Y-109619299D01*
X64729072Y-109619299D02*
X64824310Y-109619299D01*
X64824310Y-109619299D02*
X64967167Y-109666918D01*
X64967167Y-109666918D02*
X65014786Y-109714537D01*
X65348120Y-109619299D02*
X65967167Y-109619299D01*
X65967167Y-109619299D02*
X65633834Y-110000251D01*
X65633834Y-110000251D02*
X65776691Y-110000251D01*
X65776691Y-110000251D02*
X65871929Y-110047870D01*
X65871929Y-110047870D02*
X65919548Y-110095489D01*
X65919548Y-110095489D02*
X65967167Y-110190727D01*
X65967167Y-110190727D02*
X65967167Y-110428822D01*
X65967167Y-110428822D02*
X65919548Y-110524060D01*
X65919548Y-110524060D02*
X65871929Y-110571680D01*
X65871929Y-110571680D02*
X65776691Y-110619299D01*
X65776691Y-110619299D02*
X65490977Y-110619299D01*
X65490977Y-110619299D02*
X65395739Y-110571680D01*
X65395739Y-110571680D02*
X65348120Y-110524060D01*
X119595739Y-112983584D02*
X120071929Y-112983584D01*
X119500501Y-113269299D02*
X119833834Y-112269299D01*
X119833834Y-112269299D02*
X120167167Y-113269299D01*
X121024310Y-113269299D02*
X120452882Y-113269299D01*
X120738596Y-113269299D02*
X120738596Y-112269299D01*
X120738596Y-112269299D02*
X120643358Y-112412156D01*
X120643358Y-112412156D02*
X120548120Y-112507394D01*
X120548120Y-112507394D02*
X120452882Y-112555013D01*
X58250501Y-95019299D02*
X58821929Y-95019299D01*
X58536215Y-96019299D02*
X58536215Y-95019299D01*
X59060025Y-95019299D02*
X59726691Y-96019299D01*
X59726691Y-95019299D02*
X59060025Y-96019299D01*
X62964787Y-96019299D02*
X62631454Y-95543108D01*
X62393359Y-96019299D02*
X62393359Y-95019299D01*
X62393359Y-95019299D02*
X62774311Y-95019299D01*
X62774311Y-95019299D02*
X62869549Y-95066918D01*
X62869549Y-95066918D02*
X62917168Y-95114537D01*
X62917168Y-95114537D02*
X62964787Y-95209775D01*
X62964787Y-95209775D02*
X62964787Y-95352632D01*
X62964787Y-95352632D02*
X62917168Y-95447870D01*
X62917168Y-95447870D02*
X62869549Y-95495489D01*
X62869549Y-95495489D02*
X62774311Y-95543108D01*
X62774311Y-95543108D02*
X62393359Y-95543108D01*
X63298121Y-95019299D02*
X63964787Y-96019299D01*
X63964787Y-95019299D02*
X63298121Y-96019299D01*
X61283834Y-114669372D02*
X61283834Y-115145563D01*
X60950501Y-114145563D02*
X61283834Y-114669372D01*
X61283834Y-114669372D02*
X61617167Y-114145563D01*
X65845739Y-119533584D02*
X66321929Y-119533584D01*
X65750501Y-119819299D02*
X66083834Y-118819299D01*
X66083834Y-118819299D02*
X66417167Y-119819299D01*
X66702882Y-118914537D02*
X66750501Y-118866918D01*
X66750501Y-118866918D02*
X66845739Y-118819299D01*
X66845739Y-118819299D02*
X67083834Y-118819299D01*
X67083834Y-118819299D02*
X67179072Y-118866918D01*
X67179072Y-118866918D02*
X67226691Y-118914537D01*
X67226691Y-118914537D02*
X67274310Y-119009775D01*
X67274310Y-119009775D02*
X67274310Y-119105013D01*
X67274310Y-119105013D02*
X67226691Y-119247870D01*
X67226691Y-119247870D02*
X66655263Y-119819299D01*
X66655263Y-119819299D02*
X67274310Y-119819299D01*
X90400501Y-77769299D02*
X90733834Y-78769299D01*
X90733834Y-78769299D02*
X91067167Y-77769299D01*
X91162406Y-78864537D02*
X91924310Y-78864537D01*
X92733834Y-78674060D02*
X92686215Y-78721680D01*
X92686215Y-78721680D02*
X92543358Y-78769299D01*
X92543358Y-78769299D02*
X92448120Y-78769299D01*
X92448120Y-78769299D02*
X92305263Y-78721680D01*
X92305263Y-78721680D02*
X92210025Y-78626441D01*
X92210025Y-78626441D02*
X92162406Y-78531203D01*
X92162406Y-78531203D02*
X92114787Y-78340727D01*
X92114787Y-78340727D02*
X92114787Y-78197870D01*
X92114787Y-78197870D02*
X92162406Y-78007394D01*
X92162406Y-78007394D02*
X92210025Y-77912156D01*
X92210025Y-77912156D02*
X92305263Y-77816918D01*
X92305263Y-77816918D02*
X92448120Y-77769299D01*
X92448120Y-77769299D02*
X92543358Y-77769299D01*
X92543358Y-77769299D02*
X92686215Y-77816918D01*
X92686215Y-77816918D02*
X92733834Y-77864537D01*
X93305263Y-78769299D02*
X93210025Y-78721680D01*
X93210025Y-78721680D02*
X93162406Y-78674060D01*
X93162406Y-78674060D02*
X93114787Y-78578822D01*
X93114787Y-78578822D02*
X93114787Y-78293108D01*
X93114787Y-78293108D02*
X93162406Y-78197870D01*
X93162406Y-78197870D02*
X93210025Y-78150251D01*
X93210025Y-78150251D02*
X93305263Y-78102632D01*
X93305263Y-78102632D02*
X93448120Y-78102632D01*
X93448120Y-78102632D02*
X93543358Y-78150251D01*
X93543358Y-78150251D02*
X93590977Y-78197870D01*
X93590977Y-78197870D02*
X93638596Y-78293108D01*
X93638596Y-78293108D02*
X93638596Y-78578822D01*
X93638596Y-78578822D02*
X93590977Y-78674060D01*
X93590977Y-78674060D02*
X93543358Y-78721680D01*
X93543358Y-78721680D02*
X93448120Y-78769299D01*
X93448120Y-78769299D02*
X93305263Y-78769299D01*
X94067168Y-78769299D02*
X94067168Y-78102632D01*
X94067168Y-78293108D02*
X94114787Y-78197870D01*
X94114787Y-78197870D02*
X94162406Y-78150251D01*
X94162406Y-78150251D02*
X94257644Y-78102632D01*
X94257644Y-78102632D02*
X94352882Y-78102632D01*
X95067168Y-78721680D02*
X94971930Y-78769299D01*
X94971930Y-78769299D02*
X94781454Y-78769299D01*
X94781454Y-78769299D02*
X94686216Y-78721680D01*
X94686216Y-78721680D02*
X94638597Y-78626441D01*
X94638597Y-78626441D02*
X94638597Y-78245489D01*
X94638597Y-78245489D02*
X94686216Y-78150251D01*
X94686216Y-78150251D02*
X94781454Y-78102632D01*
X94781454Y-78102632D02*
X94971930Y-78102632D01*
X94971930Y-78102632D02*
X95067168Y-78150251D01*
X95067168Y-78150251D02*
X95114787Y-78245489D01*
X95114787Y-78245489D02*
X95114787Y-78340727D01*
X95114787Y-78340727D02*
X94638597Y-78435965D01*
X63395739Y-72864537D02*
X63443358Y-72816918D01*
X63443358Y-72816918D02*
X63538596Y-72769299D01*
X63538596Y-72769299D02*
X63776691Y-72769299D01*
X63776691Y-72769299D02*
X63871929Y-72816918D01*
X63871929Y-72816918D02*
X63919548Y-72864537D01*
X63919548Y-72864537D02*
X63967167Y-72959775D01*
X63967167Y-72959775D02*
X63967167Y-73055013D01*
X63967167Y-73055013D02*
X63919548Y-73197870D01*
X63919548Y-73197870D02*
X63348120Y-73769299D01*
X63348120Y-73769299D02*
X63967167Y-73769299D01*
X64252882Y-72769299D02*
X64586215Y-73769299D01*
X64586215Y-73769299D02*
X64919548Y-72769299D01*
X65729072Y-72769299D02*
X65252882Y-72769299D01*
X65252882Y-72769299D02*
X65205263Y-73245489D01*
X65205263Y-73245489D02*
X65252882Y-73197870D01*
X65252882Y-73197870D02*
X65348120Y-73150251D01*
X65348120Y-73150251D02*
X65586215Y-73150251D01*
X65586215Y-73150251D02*
X65681453Y-73197870D01*
X65681453Y-73197870D02*
X65729072Y-73245489D01*
X65729072Y-73245489D02*
X65776691Y-73340727D01*
X65776691Y-73340727D02*
X65776691Y-73578822D01*
X65776691Y-73578822D02*
X65729072Y-73674060D01*
X65729072Y-73674060D02*
X65681453Y-73721680D01*
X65681453Y-73721680D02*
X65586215Y-73769299D01*
X65586215Y-73769299D02*
X65348120Y-73769299D01*
X65348120Y-73769299D02*
X65252882Y-73721680D01*
X65252882Y-73721680D02*
X65205263Y-73674060D01*
X79765657Y-93106641D02*
X79765657Y-92773308D01*
X80289467Y-92630451D02*
X80289467Y-93106641D01*
X80289467Y-93106641D02*
X79289467Y-93106641D01*
X79289467Y-93106641D02*
X79289467Y-92630451D01*
X79622800Y-92297117D02*
X80289467Y-92059022D01*
X80289467Y-92059022D02*
X79622800Y-91820927D01*
X80241848Y-91059022D02*
X80289467Y-91154260D01*
X80289467Y-91154260D02*
X80289467Y-91344736D01*
X80289467Y-91344736D02*
X80241848Y-91439974D01*
X80241848Y-91439974D02*
X80146609Y-91487593D01*
X80146609Y-91487593D02*
X79765657Y-91487593D01*
X79765657Y-91487593D02*
X79670419Y-91439974D01*
X79670419Y-91439974D02*
X79622800Y-91344736D01*
X79622800Y-91344736D02*
X79622800Y-91154260D01*
X79622800Y-91154260D02*
X79670419Y-91059022D01*
X79670419Y-91059022D02*
X79765657Y-91011403D01*
X79765657Y-91011403D02*
X79860895Y-91011403D01*
X79860895Y-91011403D02*
X79956133Y-91487593D01*
X80289467Y-90582831D02*
X79622800Y-90582831D01*
X79813276Y-90582831D02*
X79718038Y-90535212D01*
X79718038Y-90535212D02*
X79670419Y-90487593D01*
X79670419Y-90487593D02*
X79622800Y-90392355D01*
X79622800Y-90392355D02*
X79622800Y-90297117D01*
X79622800Y-90059021D02*
X80289467Y-89820926D01*
X79622800Y-89582831D02*
X80289467Y-89820926D01*
X80289467Y-89820926D02*
X80527562Y-89916164D01*
X80527562Y-89916164D02*
X80575181Y-89963783D01*
X80575181Y-89963783D02*
X80622800Y-90059021D01*
X80289467Y-88439973D02*
X79622800Y-88439973D01*
X79718038Y-88439973D02*
X79670419Y-88392354D01*
X79670419Y-88392354D02*
X79622800Y-88297116D01*
X79622800Y-88297116D02*
X79622800Y-88154259D01*
X79622800Y-88154259D02*
X79670419Y-88059021D01*
X79670419Y-88059021D02*
X79765657Y-88011402D01*
X79765657Y-88011402D02*
X80289467Y-88011402D01*
X79765657Y-88011402D02*
X79670419Y-87963783D01*
X79670419Y-87963783D02*
X79622800Y-87868545D01*
X79622800Y-87868545D02*
X79622800Y-87725688D01*
X79622800Y-87725688D02*
X79670419Y-87630449D01*
X79670419Y-87630449D02*
X79765657Y-87582830D01*
X79765657Y-87582830D02*
X80289467Y-87582830D01*
X80289467Y-86678069D02*
X79765657Y-86678069D01*
X79765657Y-86678069D02*
X79670419Y-86725688D01*
X79670419Y-86725688D02*
X79622800Y-86820926D01*
X79622800Y-86820926D02*
X79622800Y-87011402D01*
X79622800Y-87011402D02*
X79670419Y-87106640D01*
X80241848Y-86678069D02*
X80289467Y-86773307D01*
X80289467Y-86773307D02*
X80289467Y-87011402D01*
X80289467Y-87011402D02*
X80241848Y-87106640D01*
X80241848Y-87106640D02*
X80146609Y-87154259D01*
X80146609Y-87154259D02*
X80051371Y-87154259D01*
X80051371Y-87154259D02*
X79956133Y-87106640D01*
X79956133Y-87106640D02*
X79908514Y-87011402D01*
X79908514Y-87011402D02*
X79908514Y-86773307D01*
X79908514Y-86773307D02*
X79860895Y-86678069D01*
X80241848Y-85773307D02*
X80289467Y-85868545D01*
X80289467Y-85868545D02*
X80289467Y-86059021D01*
X80289467Y-86059021D02*
X80241848Y-86154259D01*
X80241848Y-86154259D02*
X80194228Y-86201878D01*
X80194228Y-86201878D02*
X80098990Y-86249497D01*
X80098990Y-86249497D02*
X79813276Y-86249497D01*
X79813276Y-86249497D02*
X79718038Y-86201878D01*
X79718038Y-86201878D02*
X79670419Y-86154259D01*
X79670419Y-86154259D02*
X79622800Y-86059021D01*
X79622800Y-86059021D02*
X79622800Y-85868545D01*
X79622800Y-85868545D02*
X79670419Y-85773307D01*
X80289467Y-85344735D02*
X79289467Y-85344735D01*
X80289467Y-84916164D02*
X79765657Y-84916164D01*
X79765657Y-84916164D02*
X79670419Y-84963783D01*
X79670419Y-84963783D02*
X79622800Y-85059021D01*
X79622800Y-85059021D02*
X79622800Y-85201878D01*
X79622800Y-85201878D02*
X79670419Y-85297116D01*
X79670419Y-85297116D02*
X79718038Y-85344735D01*
X80289467Y-84439973D02*
X79622800Y-84439973D01*
X79289467Y-84439973D02*
X79337086Y-84487592D01*
X79337086Y-84487592D02*
X79384705Y-84439973D01*
X79384705Y-84439973D02*
X79337086Y-84392354D01*
X79337086Y-84392354D02*
X79289467Y-84439973D01*
X79289467Y-84439973D02*
X79384705Y-84439973D01*
X79622800Y-83963783D02*
X80289467Y-83963783D01*
X79718038Y-83963783D02*
X79670419Y-83916164D01*
X79670419Y-83916164D02*
X79622800Y-83820926D01*
X79622800Y-83820926D02*
X79622800Y-83678069D01*
X79622800Y-83678069D02*
X79670419Y-83582831D01*
X79670419Y-83582831D02*
X79765657Y-83535212D01*
X79765657Y-83535212D02*
X80289467Y-83535212D01*
X80241848Y-82678069D02*
X80289467Y-82773307D01*
X80289467Y-82773307D02*
X80289467Y-82963783D01*
X80289467Y-82963783D02*
X80241848Y-83059021D01*
X80241848Y-83059021D02*
X80146609Y-83106640D01*
X80146609Y-83106640D02*
X79765657Y-83106640D01*
X79765657Y-83106640D02*
X79670419Y-83059021D01*
X79670419Y-83059021D02*
X79622800Y-82963783D01*
X79622800Y-82963783D02*
X79622800Y-82773307D01*
X79622800Y-82773307D02*
X79670419Y-82678069D01*
X79670419Y-82678069D02*
X79765657Y-82630450D01*
X79765657Y-82630450D02*
X79860895Y-82630450D01*
X79860895Y-82630450D02*
X79956133Y-83106640D01*
X80289467Y-81439973D02*
X79622800Y-81439973D01*
X79289467Y-81439973D02*
X79337086Y-81487592D01*
X79337086Y-81487592D02*
X79384705Y-81439973D01*
X79384705Y-81439973D02*
X79337086Y-81392354D01*
X79337086Y-81392354D02*
X79289467Y-81439973D01*
X79289467Y-81439973D02*
X79384705Y-81439973D01*
X80241848Y-81011402D02*
X80289467Y-80916164D01*
X80289467Y-80916164D02*
X80289467Y-80725688D01*
X80289467Y-80725688D02*
X80241848Y-80630450D01*
X80241848Y-80630450D02*
X80146609Y-80582831D01*
X80146609Y-80582831D02*
X80098990Y-80582831D01*
X80098990Y-80582831D02*
X80003752Y-80630450D01*
X80003752Y-80630450D02*
X79956133Y-80725688D01*
X79956133Y-80725688D02*
X79956133Y-80868545D01*
X79956133Y-80868545D02*
X79908514Y-80963783D01*
X79908514Y-80963783D02*
X79813276Y-81011402D01*
X79813276Y-81011402D02*
X79765657Y-81011402D01*
X79765657Y-81011402D02*
X79670419Y-80963783D01*
X79670419Y-80963783D02*
X79622800Y-80868545D01*
X79622800Y-80868545D02*
X79622800Y-80725688D01*
X79622800Y-80725688D02*
X79670419Y-80630450D01*
X81899411Y-92678070D02*
X81375601Y-92678070D01*
X81375601Y-92678070D02*
X81280363Y-92725689D01*
X81280363Y-92725689D02*
X81232744Y-92820927D01*
X81232744Y-92820927D02*
X81232744Y-93011403D01*
X81232744Y-93011403D02*
X81280363Y-93106641D01*
X81851792Y-92678070D02*
X81899411Y-92773308D01*
X81899411Y-92773308D02*
X81899411Y-93011403D01*
X81899411Y-93011403D02*
X81851792Y-93106641D01*
X81851792Y-93106641D02*
X81756553Y-93154260D01*
X81756553Y-93154260D02*
X81661315Y-93154260D01*
X81661315Y-93154260D02*
X81566077Y-93106641D01*
X81566077Y-93106641D02*
X81518458Y-93011403D01*
X81518458Y-93011403D02*
X81518458Y-92773308D01*
X81518458Y-92773308D02*
X81470839Y-92678070D01*
X81851792Y-91487593D02*
X81899411Y-91392355D01*
X81899411Y-91392355D02*
X81899411Y-91201879D01*
X81899411Y-91201879D02*
X81851792Y-91106641D01*
X81851792Y-91106641D02*
X81756553Y-91059022D01*
X81756553Y-91059022D02*
X81708934Y-91059022D01*
X81708934Y-91059022D02*
X81613696Y-91106641D01*
X81613696Y-91106641D02*
X81566077Y-91201879D01*
X81566077Y-91201879D02*
X81566077Y-91344736D01*
X81566077Y-91344736D02*
X81518458Y-91439974D01*
X81518458Y-91439974D02*
X81423220Y-91487593D01*
X81423220Y-91487593D02*
X81375601Y-91487593D01*
X81375601Y-91487593D02*
X81280363Y-91439974D01*
X81280363Y-91439974D02*
X81232744Y-91344736D01*
X81232744Y-91344736D02*
X81232744Y-91201879D01*
X81232744Y-91201879D02*
X81280363Y-91106641D01*
X81899411Y-90630450D02*
X81232744Y-90630450D01*
X81327982Y-90630450D02*
X81280363Y-90582831D01*
X81280363Y-90582831D02*
X81232744Y-90487593D01*
X81232744Y-90487593D02*
X81232744Y-90344736D01*
X81232744Y-90344736D02*
X81280363Y-90249498D01*
X81280363Y-90249498D02*
X81375601Y-90201879D01*
X81375601Y-90201879D02*
X81899411Y-90201879D01*
X81375601Y-90201879D02*
X81280363Y-90154260D01*
X81280363Y-90154260D02*
X81232744Y-90059022D01*
X81232744Y-90059022D02*
X81232744Y-89916165D01*
X81232744Y-89916165D02*
X81280363Y-89820926D01*
X81280363Y-89820926D02*
X81375601Y-89773307D01*
X81375601Y-89773307D02*
X81899411Y-89773307D01*
X81899411Y-89154260D02*
X81851792Y-89249498D01*
X81851792Y-89249498D02*
X81804172Y-89297117D01*
X81804172Y-89297117D02*
X81708934Y-89344736D01*
X81708934Y-89344736D02*
X81423220Y-89344736D01*
X81423220Y-89344736D02*
X81327982Y-89297117D01*
X81327982Y-89297117D02*
X81280363Y-89249498D01*
X81280363Y-89249498D02*
X81232744Y-89154260D01*
X81232744Y-89154260D02*
X81232744Y-89011403D01*
X81232744Y-89011403D02*
X81280363Y-88916165D01*
X81280363Y-88916165D02*
X81327982Y-88868546D01*
X81327982Y-88868546D02*
X81423220Y-88820927D01*
X81423220Y-88820927D02*
X81708934Y-88820927D01*
X81708934Y-88820927D02*
X81804172Y-88868546D01*
X81804172Y-88868546D02*
X81851792Y-88916165D01*
X81851792Y-88916165D02*
X81899411Y-89011403D01*
X81899411Y-89011403D02*
X81899411Y-89154260D01*
X81899411Y-88392355D02*
X80899411Y-88392355D01*
X81518458Y-88297117D02*
X81899411Y-88011403D01*
X81232744Y-88011403D02*
X81613696Y-88392355D01*
X81851792Y-87201879D02*
X81899411Y-87297117D01*
X81899411Y-87297117D02*
X81899411Y-87487593D01*
X81899411Y-87487593D02*
X81851792Y-87582831D01*
X81851792Y-87582831D02*
X81756553Y-87630450D01*
X81756553Y-87630450D02*
X81375601Y-87630450D01*
X81375601Y-87630450D02*
X81280363Y-87582831D01*
X81280363Y-87582831D02*
X81232744Y-87487593D01*
X81232744Y-87487593D02*
X81232744Y-87297117D01*
X81232744Y-87297117D02*
X81280363Y-87201879D01*
X81280363Y-87201879D02*
X81375601Y-87154260D01*
X81375601Y-87154260D02*
X81470839Y-87154260D01*
X81470839Y-87154260D02*
X81566077Y-87630450D01*
X81899411Y-85963783D02*
X81232744Y-85963783D01*
X81327982Y-85963783D02*
X81280363Y-85916164D01*
X81280363Y-85916164D02*
X81232744Y-85820926D01*
X81232744Y-85820926D02*
X81232744Y-85678069D01*
X81232744Y-85678069D02*
X81280363Y-85582831D01*
X81280363Y-85582831D02*
X81375601Y-85535212D01*
X81375601Y-85535212D02*
X81899411Y-85535212D01*
X81375601Y-85535212D02*
X81280363Y-85487593D01*
X81280363Y-85487593D02*
X81232744Y-85392355D01*
X81232744Y-85392355D02*
X81232744Y-85249498D01*
X81232744Y-85249498D02*
X81280363Y-85154259D01*
X81280363Y-85154259D02*
X81375601Y-85106640D01*
X81375601Y-85106640D02*
X81899411Y-85106640D01*
X81899411Y-84201879D02*
X81375601Y-84201879D01*
X81375601Y-84201879D02*
X81280363Y-84249498D01*
X81280363Y-84249498D02*
X81232744Y-84344736D01*
X81232744Y-84344736D02*
X81232744Y-84535212D01*
X81232744Y-84535212D02*
X81280363Y-84630450D01*
X81851792Y-84201879D02*
X81899411Y-84297117D01*
X81899411Y-84297117D02*
X81899411Y-84535212D01*
X81899411Y-84535212D02*
X81851792Y-84630450D01*
X81851792Y-84630450D02*
X81756553Y-84678069D01*
X81756553Y-84678069D02*
X81661315Y-84678069D01*
X81661315Y-84678069D02*
X81566077Y-84630450D01*
X81566077Y-84630450D02*
X81518458Y-84535212D01*
X81518458Y-84535212D02*
X81518458Y-84297117D01*
X81518458Y-84297117D02*
X81470839Y-84201879D01*
X81851792Y-83297117D02*
X81899411Y-83392355D01*
X81899411Y-83392355D02*
X81899411Y-83582831D01*
X81899411Y-83582831D02*
X81851792Y-83678069D01*
X81851792Y-83678069D02*
X81804172Y-83725688D01*
X81804172Y-83725688D02*
X81708934Y-83773307D01*
X81708934Y-83773307D02*
X81423220Y-83773307D01*
X81423220Y-83773307D02*
X81327982Y-83725688D01*
X81327982Y-83725688D02*
X81280363Y-83678069D01*
X81280363Y-83678069D02*
X81232744Y-83582831D01*
X81232744Y-83582831D02*
X81232744Y-83392355D01*
X81232744Y-83392355D02*
X81280363Y-83297117D01*
X81899411Y-82868545D02*
X80899411Y-82868545D01*
X81899411Y-82439974D02*
X81375601Y-82439974D01*
X81375601Y-82439974D02*
X81280363Y-82487593D01*
X81280363Y-82487593D02*
X81232744Y-82582831D01*
X81232744Y-82582831D02*
X81232744Y-82725688D01*
X81232744Y-82725688D02*
X81280363Y-82820926D01*
X81280363Y-82820926D02*
X81327982Y-82868545D01*
X81899411Y-81963783D02*
X81232744Y-81963783D01*
X80899411Y-81963783D02*
X80947030Y-82011402D01*
X80947030Y-82011402D02*
X80994649Y-81963783D01*
X80994649Y-81963783D02*
X80947030Y-81916164D01*
X80947030Y-81916164D02*
X80899411Y-81963783D01*
X80899411Y-81963783D02*
X80994649Y-81963783D01*
X81232744Y-81487593D02*
X81899411Y-81487593D01*
X81327982Y-81487593D02*
X81280363Y-81439974D01*
X81280363Y-81439974D02*
X81232744Y-81344736D01*
X81232744Y-81344736D02*
X81232744Y-81201879D01*
X81232744Y-81201879D02*
X81280363Y-81106641D01*
X81280363Y-81106641D02*
X81375601Y-81059022D01*
X81375601Y-81059022D02*
X81899411Y-81059022D01*
X81851792Y-80201879D02*
X81899411Y-80297117D01*
X81899411Y-80297117D02*
X81899411Y-80487593D01*
X81899411Y-80487593D02*
X81851792Y-80582831D01*
X81851792Y-80582831D02*
X81756553Y-80630450D01*
X81756553Y-80630450D02*
X81375601Y-80630450D01*
X81375601Y-80630450D02*
X81280363Y-80582831D01*
X81280363Y-80582831D02*
X81232744Y-80487593D01*
X81232744Y-80487593D02*
X81232744Y-80297117D01*
X81232744Y-80297117D02*
X81280363Y-80201879D01*
X81280363Y-80201879D02*
X81375601Y-80154260D01*
X81375601Y-80154260D02*
X81470839Y-80154260D01*
X81470839Y-80154260D02*
X81566077Y-80630450D01*
X83509355Y-93106641D02*
X82842688Y-93106641D01*
X82509355Y-93106641D02*
X82556974Y-93154260D01*
X82556974Y-93154260D02*
X82604593Y-93106641D01*
X82604593Y-93106641D02*
X82556974Y-93059022D01*
X82556974Y-93059022D02*
X82509355Y-93106641D01*
X82509355Y-93106641D02*
X82604593Y-93106641D01*
X82842688Y-92773308D02*
X82842688Y-92392356D01*
X83509355Y-92630451D02*
X82652212Y-92630451D01*
X82652212Y-92630451D02*
X82556974Y-92582832D01*
X82556974Y-92582832D02*
X82509355Y-92487594D01*
X82509355Y-92487594D02*
X82509355Y-92392356D01*
X82842688Y-91392355D02*
X83509355Y-91154260D01*
X82842688Y-90916165D02*
X83509355Y-91154260D01*
X83509355Y-91154260D02*
X83747450Y-91249498D01*
X83747450Y-91249498D02*
X83795069Y-91297117D01*
X83795069Y-91297117D02*
X83842688Y-91392355D01*
X83509355Y-90392355D02*
X83461736Y-90487593D01*
X83461736Y-90487593D02*
X83414116Y-90535212D01*
X83414116Y-90535212D02*
X83318878Y-90582831D01*
X83318878Y-90582831D02*
X83033164Y-90582831D01*
X83033164Y-90582831D02*
X82937926Y-90535212D01*
X82937926Y-90535212D02*
X82890307Y-90487593D01*
X82890307Y-90487593D02*
X82842688Y-90392355D01*
X82842688Y-90392355D02*
X82842688Y-90249498D01*
X82842688Y-90249498D02*
X82890307Y-90154260D01*
X82890307Y-90154260D02*
X82937926Y-90106641D01*
X82937926Y-90106641D02*
X83033164Y-90059022D01*
X83033164Y-90059022D02*
X83318878Y-90059022D01*
X83318878Y-90059022D02*
X83414116Y-90106641D01*
X83414116Y-90106641D02*
X83461736Y-90154260D01*
X83461736Y-90154260D02*
X83509355Y-90249498D01*
X83509355Y-90249498D02*
X83509355Y-90392355D01*
X82842688Y-89201879D02*
X83509355Y-89201879D01*
X82842688Y-89630450D02*
X83366497Y-89630450D01*
X83366497Y-89630450D02*
X83461736Y-89582831D01*
X83461736Y-89582831D02*
X83509355Y-89487593D01*
X83509355Y-89487593D02*
X83509355Y-89344736D01*
X83509355Y-89344736D02*
X83461736Y-89249498D01*
X83461736Y-89249498D02*
X83414116Y-89201879D01*
X83509355Y-87820926D02*
X83461736Y-87916164D01*
X83461736Y-87916164D02*
X83414116Y-87963783D01*
X83414116Y-87963783D02*
X83318878Y-88011402D01*
X83318878Y-88011402D02*
X83033164Y-88011402D01*
X83033164Y-88011402D02*
X82937926Y-87963783D01*
X82937926Y-87963783D02*
X82890307Y-87916164D01*
X82890307Y-87916164D02*
X82842688Y-87820926D01*
X82842688Y-87820926D02*
X82842688Y-87678069D01*
X82842688Y-87678069D02*
X82890307Y-87582831D01*
X82890307Y-87582831D02*
X82937926Y-87535212D01*
X82937926Y-87535212D02*
X83033164Y-87487593D01*
X83033164Y-87487593D02*
X83318878Y-87487593D01*
X83318878Y-87487593D02*
X83414116Y-87535212D01*
X83414116Y-87535212D02*
X83461736Y-87582831D01*
X83461736Y-87582831D02*
X83509355Y-87678069D01*
X83509355Y-87678069D02*
X83509355Y-87820926D01*
X82842688Y-87059021D02*
X83842688Y-87059021D01*
X82890307Y-87059021D02*
X82842688Y-86963783D01*
X82842688Y-86963783D02*
X82842688Y-86773307D01*
X82842688Y-86773307D02*
X82890307Y-86678069D01*
X82890307Y-86678069D02*
X82937926Y-86630450D01*
X82937926Y-86630450D02*
X83033164Y-86582831D01*
X83033164Y-86582831D02*
X83318878Y-86582831D01*
X83318878Y-86582831D02*
X83414116Y-86630450D01*
X83414116Y-86630450D02*
X83461736Y-86678069D01*
X83461736Y-86678069D02*
X83509355Y-86773307D01*
X83509355Y-86773307D02*
X83509355Y-86963783D01*
X83509355Y-86963783D02*
X83461736Y-87059021D01*
X83461736Y-85773307D02*
X83509355Y-85868545D01*
X83509355Y-85868545D02*
X83509355Y-86059021D01*
X83509355Y-86059021D02*
X83461736Y-86154259D01*
X83461736Y-86154259D02*
X83366497Y-86201878D01*
X83366497Y-86201878D02*
X82985545Y-86201878D01*
X82985545Y-86201878D02*
X82890307Y-86154259D01*
X82890307Y-86154259D02*
X82842688Y-86059021D01*
X82842688Y-86059021D02*
X82842688Y-85868545D01*
X82842688Y-85868545D02*
X82890307Y-85773307D01*
X82890307Y-85773307D02*
X82985545Y-85725688D01*
X82985545Y-85725688D02*
X83080783Y-85725688D01*
X83080783Y-85725688D02*
X83176021Y-86201878D01*
X83509355Y-85297116D02*
X82842688Y-85297116D01*
X83033164Y-85297116D02*
X82937926Y-85249497D01*
X82937926Y-85249497D02*
X82890307Y-85201878D01*
X82890307Y-85201878D02*
X82842688Y-85106640D01*
X82842688Y-85106640D02*
X82842688Y-85011402D01*
X83509355Y-84249497D02*
X82985545Y-84249497D01*
X82985545Y-84249497D02*
X82890307Y-84297116D01*
X82890307Y-84297116D02*
X82842688Y-84392354D01*
X82842688Y-84392354D02*
X82842688Y-84582830D01*
X82842688Y-84582830D02*
X82890307Y-84678068D01*
X83461736Y-84249497D02*
X83509355Y-84344735D01*
X83509355Y-84344735D02*
X83509355Y-84582830D01*
X83509355Y-84582830D02*
X83461736Y-84678068D01*
X83461736Y-84678068D02*
X83366497Y-84725687D01*
X83366497Y-84725687D02*
X83271259Y-84725687D01*
X83271259Y-84725687D02*
X83176021Y-84678068D01*
X83176021Y-84678068D02*
X83128402Y-84582830D01*
X83128402Y-84582830D02*
X83128402Y-84344735D01*
X83128402Y-84344735D02*
X83080783Y-84249497D01*
X82842688Y-83916163D02*
X82842688Y-83535211D01*
X82509355Y-83773306D02*
X83366497Y-83773306D01*
X83366497Y-83773306D02*
X83461736Y-83725687D01*
X83461736Y-83725687D02*
X83509355Y-83630449D01*
X83509355Y-83630449D02*
X83509355Y-83535211D01*
X83461736Y-82820925D02*
X83509355Y-82916163D01*
X83509355Y-82916163D02*
X83509355Y-83106639D01*
X83509355Y-83106639D02*
X83461736Y-83201877D01*
X83461736Y-83201877D02*
X83366497Y-83249496D01*
X83366497Y-83249496D02*
X82985545Y-83249496D01*
X82985545Y-83249496D02*
X82890307Y-83201877D01*
X82890307Y-83201877D02*
X82842688Y-83106639D01*
X82842688Y-83106639D02*
X82842688Y-82916163D01*
X82842688Y-82916163D02*
X82890307Y-82820925D01*
X82890307Y-82820925D02*
X82985545Y-82773306D01*
X82985545Y-82773306D02*
X83080783Y-82773306D01*
X83080783Y-82773306D02*
X83176021Y-83249496D01*
X85119299Y-93106641D02*
X84452632Y-93106641D01*
X84119299Y-93106641D02*
X84166918Y-93154260D01*
X84166918Y-93154260D02*
X84214537Y-93106641D01*
X84214537Y-93106641D02*
X84166918Y-93059022D01*
X84166918Y-93059022D02*
X84119299Y-93106641D01*
X84119299Y-93106641D02*
X84214537Y-93106641D01*
X84452632Y-92773308D02*
X84452632Y-92392356D01*
X84119299Y-92630451D02*
X84976441Y-92630451D01*
X84976441Y-92630451D02*
X85071680Y-92582832D01*
X85071680Y-92582832D02*
X85119299Y-92487594D01*
X85119299Y-92487594D02*
X85119299Y-92392356D01*
X84452632Y-91392355D02*
X85119299Y-91201879D01*
X85119299Y-91201879D02*
X84643108Y-91011403D01*
X84643108Y-91011403D02*
X85119299Y-90820927D01*
X85119299Y-90820927D02*
X84452632Y-90630451D01*
X85119299Y-90249498D02*
X84452632Y-90249498D01*
X84643108Y-90249498D02*
X84547870Y-90201879D01*
X84547870Y-90201879D02*
X84500251Y-90154260D01*
X84500251Y-90154260D02*
X84452632Y-90059022D01*
X84452632Y-90059022D02*
X84452632Y-89963784D01*
X85119299Y-89487593D02*
X85071680Y-89582831D01*
X85071680Y-89582831D02*
X85024060Y-89630450D01*
X85024060Y-89630450D02*
X84928822Y-89678069D01*
X84928822Y-89678069D02*
X84643108Y-89678069D01*
X84643108Y-89678069D02*
X84547870Y-89630450D01*
X84547870Y-89630450D02*
X84500251Y-89582831D01*
X84500251Y-89582831D02*
X84452632Y-89487593D01*
X84452632Y-89487593D02*
X84452632Y-89344736D01*
X84452632Y-89344736D02*
X84500251Y-89249498D01*
X84500251Y-89249498D02*
X84547870Y-89201879D01*
X84547870Y-89201879D02*
X84643108Y-89154260D01*
X84643108Y-89154260D02*
X84928822Y-89154260D01*
X84928822Y-89154260D02*
X85024060Y-89201879D01*
X85024060Y-89201879D02*
X85071680Y-89249498D01*
X85071680Y-89249498D02*
X85119299Y-89344736D01*
X85119299Y-89344736D02*
X85119299Y-89487593D01*
X84452632Y-88725688D02*
X85119299Y-88725688D01*
X84547870Y-88725688D02*
X84500251Y-88678069D01*
X84500251Y-88678069D02*
X84452632Y-88582831D01*
X84452632Y-88582831D02*
X84452632Y-88439974D01*
X84452632Y-88439974D02*
X84500251Y-88344736D01*
X84500251Y-88344736D02*
X84595489Y-88297117D01*
X84595489Y-88297117D02*
X85119299Y-88297117D01*
X84452632Y-87392355D02*
X85262156Y-87392355D01*
X85262156Y-87392355D02*
X85357394Y-87439974D01*
X85357394Y-87439974D02*
X85405013Y-87487593D01*
X85405013Y-87487593D02*
X85452632Y-87582831D01*
X85452632Y-87582831D02*
X85452632Y-87725688D01*
X85452632Y-87725688D02*
X85405013Y-87820926D01*
X85071680Y-87392355D02*
X85119299Y-87487593D01*
X85119299Y-87487593D02*
X85119299Y-87678069D01*
X85119299Y-87678069D02*
X85071680Y-87773307D01*
X85071680Y-87773307D02*
X85024060Y-87820926D01*
X85024060Y-87820926D02*
X84928822Y-87868545D01*
X84928822Y-87868545D02*
X84643108Y-87868545D01*
X84643108Y-87868545D02*
X84547870Y-87820926D01*
X84547870Y-87820926D02*
X84500251Y-87773307D01*
X84500251Y-87773307D02*
X84452632Y-87678069D01*
X84452632Y-87678069D02*
X84452632Y-87487593D01*
X84452632Y-87487593D02*
X84500251Y-87392355D01*
X85071680Y-85773307D02*
X85119299Y-85868545D01*
X85119299Y-85868545D02*
X85119299Y-86059021D01*
X85119299Y-86059021D02*
X85071680Y-86154259D01*
X85071680Y-86154259D02*
X84976441Y-86201878D01*
X84976441Y-86201878D02*
X84595489Y-86201878D01*
X84595489Y-86201878D02*
X84500251Y-86154259D01*
X84500251Y-86154259D02*
X84452632Y-86059021D01*
X84452632Y-86059021D02*
X84452632Y-85868545D01*
X84452632Y-85868545D02*
X84500251Y-85773307D01*
X84500251Y-85773307D02*
X84595489Y-85725688D01*
X84595489Y-85725688D02*
X84690727Y-85725688D01*
X84690727Y-85725688D02*
X84785965Y-86201878D01*
X84452632Y-85297116D02*
X85119299Y-85297116D01*
X84547870Y-85297116D02*
X84500251Y-85249497D01*
X84500251Y-85249497D02*
X84452632Y-85154259D01*
X84452632Y-85154259D02*
X84452632Y-85011402D01*
X84452632Y-85011402D02*
X84500251Y-84916164D01*
X84500251Y-84916164D02*
X84595489Y-84868545D01*
X84595489Y-84868545D02*
X85119299Y-84868545D01*
X85119299Y-84249497D02*
X85071680Y-84344735D01*
X85071680Y-84344735D02*
X85024060Y-84392354D01*
X85024060Y-84392354D02*
X84928822Y-84439973D01*
X84928822Y-84439973D02*
X84643108Y-84439973D01*
X84643108Y-84439973D02*
X84547870Y-84392354D01*
X84547870Y-84392354D02*
X84500251Y-84344735D01*
X84500251Y-84344735D02*
X84452632Y-84249497D01*
X84452632Y-84249497D02*
X84452632Y-84106640D01*
X84452632Y-84106640D02*
X84500251Y-84011402D01*
X84500251Y-84011402D02*
X84547870Y-83963783D01*
X84547870Y-83963783D02*
X84643108Y-83916164D01*
X84643108Y-83916164D02*
X84928822Y-83916164D01*
X84928822Y-83916164D02*
X85024060Y-83963783D01*
X85024060Y-83963783D02*
X85071680Y-84011402D01*
X85071680Y-84011402D02*
X85119299Y-84106640D01*
X85119299Y-84106640D02*
X85119299Y-84249497D01*
X84452632Y-83059021D02*
X85119299Y-83059021D01*
X84452632Y-83487592D02*
X84976441Y-83487592D01*
X84976441Y-83487592D02*
X85071680Y-83439973D01*
X85071680Y-83439973D02*
X85119299Y-83344735D01*
X85119299Y-83344735D02*
X85119299Y-83201878D01*
X85119299Y-83201878D02*
X85071680Y-83106640D01*
X85071680Y-83106640D02*
X85024060Y-83059021D01*
X84452632Y-82154259D02*
X85262156Y-82154259D01*
X85262156Y-82154259D02*
X85357394Y-82201878D01*
X85357394Y-82201878D02*
X85405013Y-82249497D01*
X85405013Y-82249497D02*
X85452632Y-82344735D01*
X85452632Y-82344735D02*
X85452632Y-82487592D01*
X85452632Y-82487592D02*
X85405013Y-82582830D01*
X85071680Y-82154259D02*
X85119299Y-82249497D01*
X85119299Y-82249497D02*
X85119299Y-82439973D01*
X85119299Y-82439973D02*
X85071680Y-82535211D01*
X85071680Y-82535211D02*
X85024060Y-82582830D01*
X85024060Y-82582830D02*
X84928822Y-82630449D01*
X84928822Y-82630449D02*
X84643108Y-82630449D01*
X84643108Y-82630449D02*
X84547870Y-82582830D01*
X84547870Y-82582830D02*
X84500251Y-82535211D01*
X84500251Y-82535211D02*
X84452632Y-82439973D01*
X84452632Y-82439973D02*
X84452632Y-82249497D01*
X84452632Y-82249497D02*
X84500251Y-82154259D01*
X85119299Y-81678068D02*
X84119299Y-81678068D01*
X85119299Y-81249497D02*
X84595489Y-81249497D01*
X84595489Y-81249497D02*
X84500251Y-81297116D01*
X84500251Y-81297116D02*
X84452632Y-81392354D01*
X84452632Y-81392354D02*
X84452632Y-81535211D01*
X84452632Y-81535211D02*
X84500251Y-81630449D01*
X84500251Y-81630449D02*
X84547870Y-81678068D01*
D11*
X82833334Y-33557419D02*
X83500000Y-33557419D01*
X83500000Y-33557419D02*
X83071429Y-34557419D01*
X84357143Y-33557419D02*
X83880953Y-33557419D01*
X83880953Y-33557419D02*
X83833334Y-34033609D01*
X83833334Y-34033609D02*
X83880953Y-33985990D01*
X83880953Y-33985990D02*
X83976191Y-33938371D01*
X83976191Y-33938371D02*
X84214286Y-33938371D01*
X84214286Y-33938371D02*
X84309524Y-33985990D01*
X84309524Y-33985990D02*
X84357143Y-34033609D01*
X84357143Y-34033609D02*
X84404762Y-34128847D01*
X84404762Y-34128847D02*
X84404762Y-34366942D01*
X84404762Y-34366942D02*
X84357143Y-34462180D01*
X84357143Y-34462180D02*
X84309524Y-34509800D01*
X84309524Y-34509800D02*
X84214286Y-34557419D01*
X84214286Y-34557419D02*
X83976191Y-34557419D01*
X83976191Y-34557419D02*
X83880953Y-34509800D01*
X83880953Y-34509800D02*
X83833334Y-34462180D01*
X84880953Y-34509800D02*
X84880953Y-34557419D01*
X84880953Y-34557419D02*
X84833334Y-34652657D01*
X84833334Y-34652657D02*
X84785715Y-34700276D01*
X85500000Y-33557419D02*
X85595238Y-33557419D01*
X85595238Y-33557419D02*
X85690476Y-33605038D01*
X85690476Y-33605038D02*
X85738095Y-33652657D01*
X85738095Y-33652657D02*
X85785714Y-33747895D01*
X85785714Y-33747895D02*
X85833333Y-33938371D01*
X85833333Y-33938371D02*
X85833333Y-34176466D01*
X85833333Y-34176466D02*
X85785714Y-34366942D01*
X85785714Y-34366942D02*
X85738095Y-34462180D01*
X85738095Y-34462180D02*
X85690476Y-34509800D01*
X85690476Y-34509800D02*
X85595238Y-34557419D01*
X85595238Y-34557419D02*
X85500000Y-34557419D01*
X85500000Y-34557419D02*
X85404762Y-34509800D01*
X85404762Y-34509800D02*
X85357143Y-34462180D01*
X85357143Y-34462180D02*
X85309524Y-34366942D01*
X85309524Y-34366942D02*
X85261905Y-34176466D01*
X85261905Y-34176466D02*
X85261905Y-33938371D01*
X85261905Y-33938371D02*
X85309524Y-33747895D01*
X85309524Y-33747895D02*
X85357143Y-33652657D01*
X85357143Y-33652657D02*
X85404762Y-33605038D01*
X85404762Y-33605038D02*
X85500000Y-33557419D01*
X86452381Y-33557419D02*
X86547619Y-33557419D01*
X86547619Y-33557419D02*
X86642857Y-33605038D01*
X86642857Y-33605038D02*
X86690476Y-33652657D01*
X86690476Y-33652657D02*
X86738095Y-33747895D01*
X86738095Y-33747895D02*
X86785714Y-33938371D01*
X86785714Y-33938371D02*
X86785714Y-34176466D01*
X86785714Y-34176466D02*
X86738095Y-34366942D01*
X86738095Y-34366942D02*
X86690476Y-34462180D01*
X86690476Y-34462180D02*
X86642857Y-34509800D01*
X86642857Y-34509800D02*
X86547619Y-34557419D01*
X86547619Y-34557419D02*
X86452381Y-34557419D01*
X86452381Y-34557419D02*
X86357143Y-34509800D01*
X86357143Y-34509800D02*
X86309524Y-34462180D01*
X86309524Y-34462180D02*
X86261905Y-34366942D01*
X86261905Y-34366942D02*
X86214286Y-34176466D01*
X86214286Y-34176466D02*
X86214286Y-33938371D01*
X86214286Y-33938371D02*
X86261905Y-33747895D01*
X86261905Y-33747895D02*
X86309524Y-33652657D01*
X86309524Y-33652657D02*
X86357143Y-33605038D01*
X86357143Y-33605038D02*
X86452381Y-33557419D01*
X87404762Y-33557419D02*
X87500000Y-33557419D01*
X87500000Y-33557419D02*
X87595238Y-33605038D01*
X87595238Y-33605038D02*
X87642857Y-33652657D01*
X87642857Y-33652657D02*
X87690476Y-33747895D01*
X87690476Y-33747895D02*
X87738095Y-33938371D01*
X87738095Y-33938371D02*
X87738095Y-34176466D01*
X87738095Y-34176466D02*
X87690476Y-34366942D01*
X87690476Y-34366942D02*
X87642857Y-34462180D01*
X87642857Y-34462180D02*
X87595238Y-34509800D01*
X87595238Y-34509800D02*
X87500000Y-34557419D01*
X87500000Y-34557419D02*
X87404762Y-34557419D01*
X87404762Y-34557419D02*
X87309524Y-34509800D01*
X87309524Y-34509800D02*
X87261905Y-34462180D01*
X87261905Y-34462180D02*
X87214286Y-34366942D01*
X87214286Y-34366942D02*
X87166667Y-34176466D01*
X87166667Y-34176466D02*
X87166667Y-33938371D01*
X87166667Y-33938371D02*
X87214286Y-33747895D01*
X87214286Y-33747895D02*
X87261905Y-33652657D01*
X87261905Y-33652657D02*
X87309524Y-33605038D01*
X87309524Y-33605038D02*
X87404762Y-33557419D01*
X88357143Y-33557419D02*
X88452381Y-33557419D01*
X88452381Y-33557419D02*
X88547619Y-33605038D01*
X88547619Y-33605038D02*
X88595238Y-33652657D01*
X88595238Y-33652657D02*
X88642857Y-33747895D01*
X88642857Y-33747895D02*
X88690476Y-33938371D01*
X88690476Y-33938371D02*
X88690476Y-34176466D01*
X88690476Y-34176466D02*
X88642857Y-34366942D01*
X88642857Y-34366942D02*
X88595238Y-34462180D01*
X88595238Y-34462180D02*
X88547619Y-34509800D01*
X88547619Y-34509800D02*
X88452381Y-34557419D01*
X88452381Y-34557419D02*
X88357143Y-34557419D01*
X88357143Y-34557419D02*
X88261905Y-34509800D01*
X88261905Y-34509800D02*
X88214286Y-34462180D01*
X88214286Y-34462180D02*
X88166667Y-34366942D01*
X88166667Y-34366942D02*
X88119048Y-34176466D01*
X88119048Y-34176466D02*
X88119048Y-33938371D01*
X88119048Y-33938371D02*
X88166667Y-33747895D01*
X88166667Y-33747895D02*
X88214286Y-33652657D01*
X88214286Y-33652657D02*
X88261905Y-33605038D01*
X88261905Y-33605038D02*
X88357143Y-33557419D01*
X89880953Y-34557419D02*
X89880953Y-33890752D01*
X89880953Y-33985990D02*
X89928572Y-33938371D01*
X89928572Y-33938371D02*
X90023810Y-33890752D01*
X90023810Y-33890752D02*
X90166667Y-33890752D01*
X90166667Y-33890752D02*
X90261905Y-33938371D01*
X90261905Y-33938371D02*
X90309524Y-34033609D01*
X90309524Y-34033609D02*
X90309524Y-34557419D01*
X90309524Y-34033609D02*
X90357143Y-33938371D01*
X90357143Y-33938371D02*
X90452381Y-33890752D01*
X90452381Y-33890752D02*
X90595238Y-33890752D01*
X90595238Y-33890752D02*
X90690477Y-33938371D01*
X90690477Y-33938371D02*
X90738096Y-34033609D01*
X90738096Y-34033609D02*
X90738096Y-34557419D01*
X91214286Y-34557419D02*
X91214286Y-33890752D01*
X91214286Y-33985990D02*
X91261905Y-33938371D01*
X91261905Y-33938371D02*
X91357143Y-33890752D01*
X91357143Y-33890752D02*
X91500000Y-33890752D01*
X91500000Y-33890752D02*
X91595238Y-33938371D01*
X91595238Y-33938371D02*
X91642857Y-34033609D01*
X91642857Y-34033609D02*
X91642857Y-34557419D01*
X91642857Y-34033609D02*
X91690476Y-33938371D01*
X91690476Y-33938371D02*
X91785714Y-33890752D01*
X91785714Y-33890752D02*
X91928571Y-33890752D01*
X91928571Y-33890752D02*
X92023810Y-33938371D01*
X92023810Y-33938371D02*
X92071429Y-34033609D01*
X92071429Y-34033609D02*
X92071429Y-34557419D01*
X50000000Y-49500000D02*
X50000000Y-34613580D01*
X125000000Y-49500000D02*
X125000000Y-34613580D01*
X50000000Y-35200000D02*
X125000000Y-35200000D01*
X50000000Y-35200000D02*
X125000000Y-35200000D01*
X50000000Y-35200000D02*
X51126504Y-34613579D01*
X50000000Y-35200000D02*
X51126504Y-35786421D01*
X125000000Y-35200000D02*
X123873496Y-35786421D01*
X125000000Y-35200000D02*
X123873496Y-34613579D01*
X133857419Y-92166665D02*
X133857419Y-91499999D01*
X133857419Y-91499999D02*
X134857419Y-91928570D01*
X133857419Y-90642856D02*
X133857419Y-91119046D01*
X133857419Y-91119046D02*
X134333609Y-91166665D01*
X134333609Y-91166665D02*
X134285990Y-91119046D01*
X134285990Y-91119046D02*
X134238371Y-91023808D01*
X134238371Y-91023808D02*
X134238371Y-90785713D01*
X134238371Y-90785713D02*
X134285990Y-90690475D01*
X134285990Y-90690475D02*
X134333609Y-90642856D01*
X134333609Y-90642856D02*
X134428847Y-90595237D01*
X134428847Y-90595237D02*
X134666942Y-90595237D01*
X134666942Y-90595237D02*
X134762180Y-90642856D01*
X134762180Y-90642856D02*
X134809800Y-90690475D01*
X134809800Y-90690475D02*
X134857419Y-90785713D01*
X134857419Y-90785713D02*
X134857419Y-91023808D01*
X134857419Y-91023808D02*
X134809800Y-91119046D01*
X134809800Y-91119046D02*
X134762180Y-91166665D01*
X134809800Y-90119046D02*
X134857419Y-90119046D01*
X134857419Y-90119046D02*
X134952657Y-90166665D01*
X134952657Y-90166665D02*
X135000276Y-90214284D01*
X133857419Y-89499999D02*
X133857419Y-89404761D01*
X133857419Y-89404761D02*
X133905038Y-89309523D01*
X133905038Y-89309523D02*
X133952657Y-89261904D01*
X133952657Y-89261904D02*
X134047895Y-89214285D01*
X134047895Y-89214285D02*
X134238371Y-89166666D01*
X134238371Y-89166666D02*
X134476466Y-89166666D01*
X134476466Y-89166666D02*
X134666942Y-89214285D01*
X134666942Y-89214285D02*
X134762180Y-89261904D01*
X134762180Y-89261904D02*
X134809800Y-89309523D01*
X134809800Y-89309523D02*
X134857419Y-89404761D01*
X134857419Y-89404761D02*
X134857419Y-89499999D01*
X134857419Y-89499999D02*
X134809800Y-89595237D01*
X134809800Y-89595237D02*
X134762180Y-89642856D01*
X134762180Y-89642856D02*
X134666942Y-89690475D01*
X134666942Y-89690475D02*
X134476466Y-89738094D01*
X134476466Y-89738094D02*
X134238371Y-89738094D01*
X134238371Y-89738094D02*
X134047895Y-89690475D01*
X134047895Y-89690475D02*
X133952657Y-89642856D01*
X133952657Y-89642856D02*
X133905038Y-89595237D01*
X133905038Y-89595237D02*
X133857419Y-89499999D01*
X133857419Y-88547618D02*
X133857419Y-88452380D01*
X133857419Y-88452380D02*
X133905038Y-88357142D01*
X133905038Y-88357142D02*
X133952657Y-88309523D01*
X133952657Y-88309523D02*
X134047895Y-88261904D01*
X134047895Y-88261904D02*
X134238371Y-88214285D01*
X134238371Y-88214285D02*
X134476466Y-88214285D01*
X134476466Y-88214285D02*
X134666942Y-88261904D01*
X134666942Y-88261904D02*
X134762180Y-88309523D01*
X134762180Y-88309523D02*
X134809800Y-88357142D01*
X134809800Y-88357142D02*
X134857419Y-88452380D01*
X134857419Y-88452380D02*
X134857419Y-88547618D01*
X134857419Y-88547618D02*
X134809800Y-88642856D01*
X134809800Y-88642856D02*
X134762180Y-88690475D01*
X134762180Y-88690475D02*
X134666942Y-88738094D01*
X134666942Y-88738094D02*
X134476466Y-88785713D01*
X134476466Y-88785713D02*
X134238371Y-88785713D01*
X134238371Y-88785713D02*
X134047895Y-88738094D01*
X134047895Y-88738094D02*
X133952657Y-88690475D01*
X133952657Y-88690475D02*
X133905038Y-88642856D01*
X133905038Y-88642856D02*
X133857419Y-88547618D01*
X133857419Y-87595237D02*
X133857419Y-87499999D01*
X133857419Y-87499999D02*
X133905038Y-87404761D01*
X133905038Y-87404761D02*
X133952657Y-87357142D01*
X133952657Y-87357142D02*
X134047895Y-87309523D01*
X134047895Y-87309523D02*
X134238371Y-87261904D01*
X134238371Y-87261904D02*
X134476466Y-87261904D01*
X134476466Y-87261904D02*
X134666942Y-87309523D01*
X134666942Y-87309523D02*
X134762180Y-87357142D01*
X134762180Y-87357142D02*
X134809800Y-87404761D01*
X134809800Y-87404761D02*
X134857419Y-87499999D01*
X134857419Y-87499999D02*
X134857419Y-87595237D01*
X134857419Y-87595237D02*
X134809800Y-87690475D01*
X134809800Y-87690475D02*
X134762180Y-87738094D01*
X134762180Y-87738094D02*
X134666942Y-87785713D01*
X134666942Y-87785713D02*
X134476466Y-87833332D01*
X134476466Y-87833332D02*
X134238371Y-87833332D01*
X134238371Y-87833332D02*
X134047895Y-87785713D01*
X134047895Y-87785713D02*
X133952657Y-87738094D01*
X133952657Y-87738094D02*
X133905038Y-87690475D01*
X133905038Y-87690475D02*
X133857419Y-87595237D01*
X133857419Y-86642856D02*
X133857419Y-86547618D01*
X133857419Y-86547618D02*
X133905038Y-86452380D01*
X133905038Y-86452380D02*
X133952657Y-86404761D01*
X133952657Y-86404761D02*
X134047895Y-86357142D01*
X134047895Y-86357142D02*
X134238371Y-86309523D01*
X134238371Y-86309523D02*
X134476466Y-86309523D01*
X134476466Y-86309523D02*
X134666942Y-86357142D01*
X134666942Y-86357142D02*
X134762180Y-86404761D01*
X134762180Y-86404761D02*
X134809800Y-86452380D01*
X134809800Y-86452380D02*
X134857419Y-86547618D01*
X134857419Y-86547618D02*
X134857419Y-86642856D01*
X134857419Y-86642856D02*
X134809800Y-86738094D01*
X134809800Y-86738094D02*
X134762180Y-86785713D01*
X134762180Y-86785713D02*
X134666942Y-86833332D01*
X134666942Y-86833332D02*
X134476466Y-86880951D01*
X134476466Y-86880951D02*
X134238371Y-86880951D01*
X134238371Y-86880951D02*
X134047895Y-86833332D01*
X134047895Y-86833332D02*
X133952657Y-86785713D01*
X133952657Y-86785713D02*
X133905038Y-86738094D01*
X133905038Y-86738094D02*
X133857419Y-86642856D01*
X134857419Y-85119046D02*
X134190752Y-85119046D01*
X134285990Y-85119046D02*
X134238371Y-85071427D01*
X134238371Y-85071427D02*
X134190752Y-84976189D01*
X134190752Y-84976189D02*
X134190752Y-84833332D01*
X134190752Y-84833332D02*
X134238371Y-84738094D01*
X134238371Y-84738094D02*
X134333609Y-84690475D01*
X134333609Y-84690475D02*
X134857419Y-84690475D01*
X134333609Y-84690475D02*
X134238371Y-84642856D01*
X134238371Y-84642856D02*
X134190752Y-84547618D01*
X134190752Y-84547618D02*
X134190752Y-84404761D01*
X134190752Y-84404761D02*
X134238371Y-84309522D01*
X134238371Y-84309522D02*
X134333609Y-84261903D01*
X134333609Y-84261903D02*
X134857419Y-84261903D01*
X134857419Y-83785713D02*
X134190752Y-83785713D01*
X134285990Y-83785713D02*
X134238371Y-83738094D01*
X134238371Y-83738094D02*
X134190752Y-83642856D01*
X134190752Y-83642856D02*
X134190752Y-83499999D01*
X134190752Y-83499999D02*
X134238371Y-83404761D01*
X134238371Y-83404761D02*
X134333609Y-83357142D01*
X134333609Y-83357142D02*
X134857419Y-83357142D01*
X134333609Y-83357142D02*
X134238371Y-83309523D01*
X134238371Y-83309523D02*
X134190752Y-83214285D01*
X134190752Y-83214285D02*
X134190752Y-83071428D01*
X134190752Y-83071428D02*
X134238371Y-82976189D01*
X134238371Y-82976189D02*
X134333609Y-82928570D01*
X134333609Y-82928570D02*
X134857419Y-82928570D01*
X125500000Y-50000000D02*
X136386420Y-50000000D01*
X125500000Y-125000000D02*
X136386420Y-125000000D01*
X135800000Y-50000000D02*
X135800000Y-125000000D01*
X135800000Y-50000000D02*
X135800000Y-125000000D01*
X135800000Y-50000000D02*
X136386421Y-51126504D01*
X135800000Y-50000000D02*
X135213579Y-51126504D01*
X135800000Y-125000000D02*
X135213579Y-123873496D01*
X135800000Y-125000000D02*
X136386421Y-123873496D01*
D15*
X80582382Y-111654318D02*
X81308096Y-111654318D01*
X80945239Y-112924318D02*
X80945239Y-111654318D01*
X81610477Y-111654318D02*
X82396668Y-111654318D01*
X82396668Y-111654318D02*
X81973334Y-112138127D01*
X81973334Y-112138127D02*
X82154763Y-112138127D01*
X82154763Y-112138127D02*
X82275715Y-112198603D01*
X82275715Y-112198603D02*
X82336191Y-112259080D01*
X82336191Y-112259080D02*
X82396668Y-112380032D01*
X82396668Y-112380032D02*
X82396668Y-112682413D01*
X82396668Y-112682413D02*
X82336191Y-112803365D01*
X82336191Y-112803365D02*
X82275715Y-112863842D01*
X82275715Y-112863842D02*
X82154763Y-112924318D01*
X82154763Y-112924318D02*
X81791906Y-112924318D01*
X81791906Y-112924318D02*
X81670953Y-112863842D01*
X81670953Y-112863842D02*
X81610477Y-112803365D01*
X111454318Y-78417618D02*
X111454318Y-77691904D01*
X112724318Y-78054761D02*
X111454318Y-78054761D01*
X112724318Y-76603332D02*
X112724318Y-77329047D01*
X112724318Y-76966190D02*
X111454318Y-76966190D01*
X111454318Y-76966190D02*
X111635746Y-77087142D01*
X111635746Y-77087142D02*
X111756699Y-77208094D01*
X111756699Y-77208094D02*
X111817175Y-77329047D01*
D12*
X67854299Y-124533332D02*
X67854299Y-123914285D01*
X67854299Y-123914285D02*
X68235251Y-124247618D01*
X68235251Y-124247618D02*
X68235251Y-124104761D01*
X68235251Y-124104761D02*
X68282870Y-124009523D01*
X68282870Y-124009523D02*
X68330489Y-123961904D01*
X68330489Y-123961904D02*
X68425727Y-123914285D01*
X68425727Y-123914285D02*
X68663822Y-123914285D01*
X68663822Y-123914285D02*
X68759060Y-123961904D01*
X68759060Y-123961904D02*
X68806680Y-124009523D01*
X68806680Y-124009523D02*
X68854299Y-124104761D01*
X68854299Y-124104761D02*
X68854299Y-124390475D01*
X68854299Y-124390475D02*
X68806680Y-124485713D01*
X68806680Y-124485713D02*
X68759060Y-124533332D01*
X68754299Y-120114285D02*
X68754299Y-120685713D01*
X68754299Y-120399999D02*
X67754299Y-120399999D01*
X67754299Y-120399999D02*
X67897156Y-120495237D01*
X67897156Y-120495237D02*
X67992394Y-120590475D01*
X67992394Y-120590475D02*
X68040013Y-120685713D01*
D13*
X70959580Y-56192857D02*
X71007200Y-56240476D01*
X71007200Y-56240476D02*
X71054819Y-56383333D01*
X71054819Y-56383333D02*
X71054819Y-56478571D01*
X71054819Y-56478571D02*
X71007200Y-56621428D01*
X71007200Y-56621428D02*
X70911961Y-56716666D01*
X70911961Y-56716666D02*
X70816723Y-56764285D01*
X70816723Y-56764285D02*
X70626247Y-56811904D01*
X70626247Y-56811904D02*
X70483390Y-56811904D01*
X70483390Y-56811904D02*
X70292914Y-56764285D01*
X70292914Y-56764285D02*
X70197676Y-56716666D01*
X70197676Y-56716666D02*
X70102438Y-56621428D01*
X70102438Y-56621428D02*
X70054819Y-56478571D01*
X70054819Y-56478571D02*
X70054819Y-56383333D01*
X70054819Y-56383333D02*
X70102438Y-56240476D01*
X70102438Y-56240476D02*
X70150057Y-56192857D01*
X71054819Y-55240476D02*
X71054819Y-55811904D01*
X71054819Y-55526190D02*
X70054819Y-55526190D01*
X70054819Y-55526190D02*
X70197676Y-55621428D01*
X70197676Y-55621428D02*
X70292914Y-55716666D01*
X70292914Y-55716666D02*
X70340533Y-55811904D01*
X70388152Y-54383333D02*
X71054819Y-54383333D01*
X70007200Y-54621428D02*
X70721485Y-54859523D01*
X70721485Y-54859523D02*
X70721485Y-54240476D01*
D12*
X116166667Y-87404299D02*
X116785714Y-87404299D01*
X116785714Y-87404299D02*
X116452381Y-87785251D01*
X116452381Y-87785251D02*
X116595238Y-87785251D01*
X116595238Y-87785251D02*
X116690476Y-87832870D01*
X116690476Y-87832870D02*
X116738095Y-87880489D01*
X116738095Y-87880489D02*
X116785714Y-87975727D01*
X116785714Y-87975727D02*
X116785714Y-88213822D01*
X116785714Y-88213822D02*
X116738095Y-88309060D01*
X116738095Y-88309060D02*
X116690476Y-88356680D01*
X116690476Y-88356680D02*
X116595238Y-88404299D01*
X116595238Y-88404299D02*
X116309524Y-88404299D01*
X116309524Y-88404299D02*
X116214286Y-88356680D01*
X116214286Y-88356680D02*
X116166667Y-88309060D01*
X121285714Y-87954299D02*
X120714286Y-87954299D01*
X121000000Y-87954299D02*
X121000000Y-86954299D01*
X121000000Y-86954299D02*
X120904762Y-87097156D01*
X120904762Y-87097156D02*
X120809524Y-87192394D01*
X120809524Y-87192394D02*
X120714286Y-87240013D01*
X89654299Y-116833332D02*
X89654299Y-116214285D01*
X89654299Y-116214285D02*
X90035251Y-116547618D01*
X90035251Y-116547618D02*
X90035251Y-116404761D01*
X90035251Y-116404761D02*
X90082870Y-116309523D01*
X90082870Y-116309523D02*
X90130489Y-116261904D01*
X90130489Y-116261904D02*
X90225727Y-116214285D01*
X90225727Y-116214285D02*
X90463822Y-116214285D01*
X90463822Y-116214285D02*
X90559060Y-116261904D01*
X90559060Y-116261904D02*
X90606680Y-116309523D01*
X90606680Y-116309523D02*
X90654299Y-116404761D01*
X90654299Y-116404761D02*
X90654299Y-116690475D01*
X90654299Y-116690475D02*
X90606680Y-116785713D01*
X90606680Y-116785713D02*
X90559060Y-116833332D01*
X90254299Y-119614285D02*
X90254299Y-120185713D01*
X90254299Y-119899999D02*
X89254299Y-119899999D01*
X89254299Y-119899999D02*
X89397156Y-119995237D01*
X89397156Y-119995237D02*
X89492394Y-120090475D01*
X89492394Y-120090475D02*
X89540013Y-120185713D01*
D15*
X99532382Y-111454318D02*
X100258096Y-111454318D01*
X99895239Y-112724318D02*
X99895239Y-111454318D01*
X101225715Y-111877651D02*
X101225715Y-112724318D01*
X100923334Y-111393842D02*
X100620953Y-112300984D01*
X100620953Y-112300984D02*
X101407144Y-112300984D01*
D12*
X87754299Y-120114285D02*
X87754299Y-120685713D01*
X87754299Y-120399999D02*
X86754299Y-120399999D01*
X86754299Y-120399999D02*
X86897156Y-120495237D01*
X86897156Y-120495237D02*
X86992394Y-120590475D01*
X86992394Y-120590475D02*
X87040013Y-120685713D01*
X86854299Y-124533332D02*
X86854299Y-123914285D01*
X86854299Y-123914285D02*
X87235251Y-124247618D01*
X87235251Y-124247618D02*
X87235251Y-124104761D01*
X87235251Y-124104761D02*
X87282870Y-124009523D01*
X87282870Y-124009523D02*
X87330489Y-123961904D01*
X87330489Y-123961904D02*
X87425727Y-123914285D01*
X87425727Y-123914285D02*
X87663822Y-123914285D01*
X87663822Y-123914285D02*
X87759060Y-123961904D01*
X87759060Y-123961904D02*
X87806680Y-124009523D01*
X87806680Y-124009523D02*
X87854299Y-124104761D01*
X87854299Y-124104761D02*
X87854299Y-124390475D01*
X87854299Y-124390475D02*
X87806680Y-124485713D01*
X87806680Y-124485713D02*
X87759060Y-124533332D01*
X124066667Y-109954299D02*
X124685714Y-109954299D01*
X124685714Y-109954299D02*
X124352381Y-110335251D01*
X124352381Y-110335251D02*
X124495238Y-110335251D01*
X124495238Y-110335251D02*
X124590476Y-110382870D01*
X124590476Y-110382870D02*
X124638095Y-110430489D01*
X124638095Y-110430489D02*
X124685714Y-110525727D01*
X124685714Y-110525727D02*
X124685714Y-110763822D01*
X124685714Y-110763822D02*
X124638095Y-110859060D01*
X124638095Y-110859060D02*
X124590476Y-110906680D01*
X124590476Y-110906680D02*
X124495238Y-110954299D01*
X124495238Y-110954299D02*
X124209524Y-110954299D01*
X124209524Y-110954299D02*
X124114286Y-110906680D01*
X124114286Y-110906680D02*
X124066667Y-110859060D01*
X120685714Y-111054299D02*
X120114286Y-111054299D01*
X120400000Y-111054299D02*
X120400000Y-110054299D01*
X120400000Y-110054299D02*
X120304762Y-110197156D01*
X120304762Y-110197156D02*
X120209524Y-110292394D01*
X120209524Y-110292394D02*
X120114286Y-110340013D01*
X120985714Y-107804299D02*
X120414286Y-107804299D01*
X120700000Y-107804299D02*
X120700000Y-106804299D01*
X120700000Y-106804299D02*
X120604762Y-106947156D01*
X120604762Y-106947156D02*
X120509524Y-107042394D01*
X120509524Y-107042394D02*
X120414286Y-107090013D01*
X115966667Y-107254299D02*
X116585714Y-107254299D01*
X116585714Y-107254299D02*
X116252381Y-107635251D01*
X116252381Y-107635251D02*
X116395238Y-107635251D01*
X116395238Y-107635251D02*
X116490476Y-107682870D01*
X116490476Y-107682870D02*
X116538095Y-107730489D01*
X116538095Y-107730489D02*
X116585714Y-107825727D01*
X116585714Y-107825727D02*
X116585714Y-108063822D01*
X116585714Y-108063822D02*
X116538095Y-108159060D01*
X116538095Y-108159060D02*
X116490476Y-108206680D01*
X116490476Y-108206680D02*
X116395238Y-108254299D01*
X116395238Y-108254299D02*
X116109524Y-108254299D01*
X116109524Y-108254299D02*
X116014286Y-108206680D01*
X116014286Y-108206680D02*
X115966667Y-108159060D01*
X71354299Y-119514285D02*
X71354299Y-120085713D01*
X71354299Y-119799999D02*
X70354299Y-119799999D01*
X70354299Y-119799999D02*
X70497156Y-119895237D01*
X70497156Y-119895237D02*
X70592394Y-119990475D01*
X70592394Y-119990475D02*
X70640013Y-120085713D01*
X70704299Y-116883332D02*
X70704299Y-116264285D01*
X70704299Y-116264285D02*
X71085251Y-116597618D01*
X71085251Y-116597618D02*
X71085251Y-116454761D01*
X71085251Y-116454761D02*
X71132870Y-116359523D01*
X71132870Y-116359523D02*
X71180489Y-116311904D01*
X71180489Y-116311904D02*
X71275727Y-116264285D01*
X71275727Y-116264285D02*
X71513822Y-116264285D01*
X71513822Y-116264285D02*
X71609060Y-116311904D01*
X71609060Y-116311904D02*
X71656680Y-116359523D01*
X71656680Y-116359523D02*
X71704299Y-116454761D01*
X71704299Y-116454761D02*
X71704299Y-116740475D01*
X71704299Y-116740475D02*
X71656680Y-116835713D01*
X71656680Y-116835713D02*
X71609060Y-116883332D01*
D15*
X111204318Y-98327618D02*
X111204318Y-97601904D01*
X112474318Y-97964761D02*
X111204318Y-97964761D01*
X111325270Y-97239047D02*
X111264794Y-97178571D01*
X111264794Y-97178571D02*
X111204318Y-97057618D01*
X111204318Y-97057618D02*
X111204318Y-96755237D01*
X111204318Y-96755237D02*
X111264794Y-96634285D01*
X111264794Y-96634285D02*
X111325270Y-96573809D01*
X111325270Y-96573809D02*
X111446222Y-96513332D01*
X111446222Y-96513332D02*
X111567175Y-96513332D01*
X111567175Y-96513332D02*
X111748603Y-96573809D01*
X111748603Y-96573809D02*
X112474318Y-97299523D01*
X112474318Y-97299523D02*
X112474318Y-96513332D01*
D12*
X123866667Y-90254299D02*
X124485714Y-90254299D01*
X124485714Y-90254299D02*
X124152381Y-90635251D01*
X124152381Y-90635251D02*
X124295238Y-90635251D01*
X124295238Y-90635251D02*
X124390476Y-90682870D01*
X124390476Y-90682870D02*
X124438095Y-90730489D01*
X124438095Y-90730489D02*
X124485714Y-90825727D01*
X124485714Y-90825727D02*
X124485714Y-91063822D01*
X124485714Y-91063822D02*
X124438095Y-91159060D01*
X124438095Y-91159060D02*
X124390476Y-91206680D01*
X124390476Y-91206680D02*
X124295238Y-91254299D01*
X124295238Y-91254299D02*
X124009524Y-91254299D01*
X124009524Y-91254299D02*
X123914286Y-91206680D01*
X123914286Y-91206680D02*
X123866667Y-91159060D01*
X121085714Y-91254299D02*
X120514286Y-91254299D01*
X120800000Y-91254299D02*
X120800000Y-90254299D01*
X120800000Y-90254299D02*
X120704762Y-90397156D01*
X120704762Y-90397156D02*
X120609524Y-90492394D01*
X120609524Y-90492394D02*
X120514286Y-90540013D01*
%TO.C,V3*%
D11*
X97000000Y-50500000D02*
X110000000Y-50500000D01*
X110000000Y-63500000D01*
X97000000Y-63500000D01*
X97000000Y-50500000D01*
D16*
%TO.C,V_ADJ1*%
X118300000Y-60000000D02*
X118300000Y-60000000D01*
X118500000Y-60000000D02*
X118500000Y-60000000D01*
X118300000Y-60000000D02*
G75*
G02*
X118500000Y-60000000I100000J0D01*
G01*
X118500000Y-60000000D02*
G75*
G02*
X118300000Y-60000000I-100000J0D01*
G01*
D17*
%TO.C,C23*%
X61440580Y-75590000D02*
X61159420Y-75590000D01*
X61440580Y-76610000D02*
X61159420Y-76610000D01*
%TO.C,D21*%
X54200000Y-68400000D02*
X54200000Y-66440000D01*
X55400000Y-66440000D02*
X54200000Y-66440000D01*
X55400000Y-68400000D02*
X55400000Y-66440000D01*
%TO.C,Q11*%
X92390000Y-107250000D02*
X92390000Y-106450000D01*
X92390000Y-107250000D02*
X92390000Y-108050000D01*
X95510000Y-107250000D02*
X95510000Y-106450000D01*
X95510000Y-107250000D02*
X95510000Y-108050000D01*
X95790000Y-106190000D02*
X95460000Y-105950000D01*
X95790000Y-105710000D01*
X95790000Y-106190000D01*
G36*
X95790000Y-106190000D02*
G01*
X95460000Y-105950000D01*
X95790000Y-105710000D01*
X95790000Y-106190000D01*
G37*
%TO.C,R29*%
X113977500Y-109897258D02*
X113977500Y-109422742D01*
X115022500Y-109897258D02*
X115022500Y-109422742D01*
%TO.C,T_TX1*%
X60350000Y-97400000D02*
G75*
G02*
X58450000Y-97400000I-950000J0D01*
G01*
X58450000Y-97400000D02*
G75*
G02*
X60350000Y-97400000I950000J0D01*
G01*
%TO.C,R58*%
X90962743Y-114977500D02*
X91437259Y-114977500D01*
X90962743Y-116022500D02*
X91437259Y-116022500D01*
%TO.C,T_PE8*%
X98450000Y-91900000D02*
G75*
G02*
X96550000Y-91900000I-950000J0D01*
G01*
X96550000Y-91900000D02*
G75*
G02*
X98450000Y-91900000I950000J0D01*
G01*
%TO.C,C19*%
X54434420Y-85190000D02*
X54715580Y-85190000D01*
X54434420Y-86210000D02*
X54715580Y-86210000D01*
%TO.C,C80*%
X71690000Y-80434420D02*
X71690000Y-80715580D01*
X72710000Y-80434420D02*
X72710000Y-80715580D01*
%TO.C,C51*%
X82740580Y-96490000D02*
X82459420Y-96490000D01*
X82740580Y-97510000D02*
X82459420Y-97510000D01*
%TO.C,R62*%
X92927501Y-116012742D02*
X92927501Y-116487258D01*
X93972501Y-116012742D02*
X93972501Y-116487258D01*
%TO.C,R32*%
X117727500Y-96597743D02*
X117727500Y-97072259D01*
X118772500Y-96597743D02*
X118772500Y-97072259D01*
%TO.C,R17*%
X121227500Y-86487258D02*
X121227500Y-86012742D01*
X122272500Y-86487258D02*
X122272500Y-86012742D01*
%TO.C,C78*%
X88059421Y-112740000D02*
X88340581Y-112740000D01*
X88059421Y-113760000D02*
X88340581Y-113760000D01*
%TO.C,C84*%
X58740580Y-85190000D02*
X58459420Y-85190000D01*
X58740580Y-86210000D02*
X58459420Y-86210000D01*
%TO.C,C32*%
X72765580Y-77490000D02*
X72484420Y-77490000D01*
X72765580Y-78510000D02*
X72484420Y-78510000D01*
%TO.C,R66*%
X59577500Y-52462258D02*
X59577500Y-51987742D01*
X60622500Y-52462258D02*
X60622500Y-51987742D01*
%TO.C,Q7*%
X86690000Y-107249999D02*
X86690000Y-106449999D01*
X86690000Y-107249999D02*
X86690000Y-108049999D01*
X89810000Y-107249999D02*
X89810000Y-106449999D01*
X89810000Y-107249999D02*
X89810000Y-108049999D01*
X90090000Y-106189999D02*
X89760000Y-105949999D01*
X90090000Y-105709999D01*
X90090000Y-106189999D01*
G36*
X90090000Y-106189999D02*
G01*
X89760000Y-105949999D01*
X90090000Y-105709999D01*
X90090000Y-106189999D01*
G37*
D11*
%TO.C,T3*%
X77750001Y-109050000D02*
X78750001Y-109050000D01*
X77750001Y-115650000D02*
X77750001Y-109050000D01*
X78750001Y-115650000D02*
X77750001Y-115650000D01*
X82750001Y-115650000D02*
X80750001Y-115650000D01*
X85350001Y-109350000D02*
X85350001Y-109000000D01*
X85350001Y-115650000D02*
X85350001Y-109350000D01*
D17*
%TO.C,C31*%
X92659420Y-85290000D02*
X92940580Y-85290000D01*
X92659420Y-86310000D02*
X92940580Y-86310000D01*
%TO.C,R69*%
X58777500Y-68787742D02*
X58777500Y-69262258D01*
X59822500Y-68787742D02*
X59822500Y-69262258D01*
%TO.C,D20*%
X59365000Y-53802500D02*
X59365000Y-56087500D01*
X60835000Y-53802500D02*
X59365000Y-53802500D01*
X60835000Y-56087500D02*
X60835000Y-53802500D01*
%TO.C,R28*%
X122727500Y-86487258D02*
X122727500Y-86012742D01*
X123772500Y-86487258D02*
X123772500Y-86012742D01*
%TO.C,C44*%
X69465000Y-93738748D02*
X69465000Y-94261252D01*
X70935000Y-93738748D02*
X70935000Y-94261252D01*
%TO.C,T_DAC_B1*%
X62750000Y-88200000D02*
G75*
G02*
X60850000Y-88200000I-950000J0D01*
G01*
X60850000Y-88200000D02*
G75*
G02*
X62750000Y-88200000I950000J0D01*
G01*
%TO.C,D14*%
X67740000Y-110000000D02*
X67740000Y-112000000D01*
X67740000Y-110000000D02*
X71750000Y-110000000D01*
X67740000Y-112000000D02*
X71750000Y-112000000D01*
%TO.C,R15*%
X118227500Y-83987258D02*
X118227500Y-83512742D01*
X119272500Y-83987258D02*
X119272500Y-83512742D01*
%TO.C,C83*%
X54459420Y-83590000D02*
X54740580Y-83590000D01*
X54459420Y-84610000D02*
X54740580Y-84610000D01*
%TO.C,T_PE7*%
X95550000Y-91900000D02*
G75*
G02*
X93650000Y-91900000I-950000J0D01*
G01*
X93650000Y-91900000D02*
G75*
G02*
X95550000Y-91900000I950000J0D01*
G01*
D11*
%TO.C,T1*%
X108850000Y-81250000D02*
X108850000Y-80250000D01*
X109150000Y-73650000D02*
X108800000Y-73650000D01*
X115450000Y-73650000D02*
X109150000Y-73650000D01*
X115450000Y-76250000D02*
X115450000Y-78250000D01*
X115450000Y-80250000D02*
X115450000Y-81250000D01*
X115450000Y-81250000D02*
X108850000Y-81250000D01*
D17*
%TO.C,C29*%
X57552500Y-105940580D02*
X57552500Y-105659420D01*
X58572500Y-105940580D02*
X58572500Y-105659420D01*
%TO.C,C79*%
X56390000Y-73840580D02*
X56390000Y-73559420D01*
X57410000Y-73840580D02*
X57410000Y-73559420D01*
%TO.C,R33*%
X115762742Y-102387500D02*
X116237258Y-102387500D01*
X115762742Y-103432500D02*
X116237258Y-103432500D01*
%TO.C,R30*%
X114727500Y-106897258D02*
X114727500Y-106422742D01*
X115772500Y-106897258D02*
X115772500Y-106422742D01*
%TO.C,R42*%
X122477500Y-106397258D02*
X122477500Y-105922742D01*
X123522500Y-106397258D02*
X123522500Y-105922742D01*
%TO.C,C48*%
X96990000Y-73540000D02*
X96990000Y-76290000D01*
X96990000Y-82060000D02*
X96990000Y-79310000D01*
X104445563Y-73540000D02*
X96990000Y-73540000D01*
X104445563Y-82060000D02*
X96990000Y-82060000D01*
X105510000Y-74604437D02*
X104445563Y-73540000D01*
X105510000Y-74604437D02*
X105510000Y-76290000D01*
X105510000Y-80995563D02*
X104445563Y-82060000D01*
X105510000Y-80995563D02*
X105510000Y-79310000D01*
X106250000Y-80810000D02*
X106250000Y-79810000D01*
X106750000Y-80310000D02*
X105750000Y-80310000D01*
%TO.C,R37*%
X75012743Y-118227500D02*
X75487259Y-118227500D01*
X75012743Y-119272500D02*
X75487259Y-119272500D01*
%TO.C,C58*%
X75950000Y-99790000D02*
X76950000Y-99790000D01*
X76450000Y-99290000D02*
X76450000Y-100290000D01*
X77190000Y-99104437D02*
X77190000Y-100790000D01*
X77190000Y-99104437D02*
X78254437Y-98040000D01*
X77190000Y-105495563D02*
X77190000Y-103810000D01*
X77190000Y-105495563D02*
X78254437Y-106560000D01*
X78254437Y-98040000D02*
X85710000Y-98040000D01*
X78254437Y-106560000D02*
X85710000Y-106560000D01*
X85710000Y-98040000D02*
X85710000Y-100790000D01*
X85710000Y-106560000D02*
X85710000Y-103810000D01*
%TO.C,R16*%
X119727500Y-83987258D02*
X119727500Y-83512742D01*
X120772500Y-83987258D02*
X120772500Y-83512742D01*
%TO.C,T_PC1*%
X67550000Y-99200000D02*
G75*
G02*
X65650000Y-99200000I-950000J0D01*
G01*
X65650000Y-99200000D02*
G75*
G02*
X67550000Y-99200000I950000J0D01*
G01*
%TO.C,D3*%
X65315000Y-88755000D02*
X65315000Y-90225000D01*
X65315000Y-90225000D02*
X67600000Y-90225000D01*
X67600000Y-88755000D02*
X65315000Y-88755000D01*
%TO.C,C63*%
X88440001Y-117140580D02*
X88440001Y-116859420D01*
X89460001Y-117140580D02*
X89460001Y-116859420D01*
%TO.C,JP3*%
X78000000Y-75900000D02*
X78000000Y-73100000D01*
X78700000Y-72450000D02*
X79300000Y-72450000D01*
X79300000Y-76550000D02*
X78700000Y-76550000D01*
X80000000Y-73100000D02*
X80000000Y-75900000D01*
X80200000Y-75700000D02*
X80500000Y-75400000D01*
X80200000Y-75700000D02*
X80500000Y-76000000D01*
X80500000Y-76000000D02*
X80500000Y-75400000D01*
X78000000Y-73150000D02*
G75*
G02*
X78700000Y-72450000I700000J0D01*
G01*
X78700000Y-76550000D02*
G75*
G02*
X78000000Y-75850000I-1J699999D01*
G01*
X79300000Y-72450000D02*
G75*
G02*
X80000000Y-73150000I0J-700000D01*
G01*
X80000000Y-75850000D02*
G75*
G02*
X79300000Y-76550000I-699999J-1D01*
G01*
%TO.C,Q8*%
X73440000Y-107250000D02*
X73440000Y-106450000D01*
X73440000Y-107250000D02*
X73440000Y-108050000D01*
X76560000Y-107250000D02*
X76560000Y-106450000D01*
X76560000Y-107250000D02*
X76560000Y-108050000D01*
X76840000Y-106190000D02*
X76510000Y-105950000D01*
X76840000Y-105710000D01*
X76840000Y-106190000D01*
G36*
X76840000Y-106190000D02*
G01*
X76510000Y-105950000D01*
X76840000Y-105710000D01*
X76840000Y-106190000D01*
G37*
%TO.C,R55*%
X91462743Y-121227500D02*
X91937259Y-121227500D01*
X91462743Y-122272500D02*
X91937259Y-122272500D01*
%TO.C,R48*%
X73977501Y-116012742D02*
X73977501Y-116487258D01*
X75022501Y-116012742D02*
X75022501Y-116487258D01*
%TO.C,R2*%
X112977500Y-64162258D02*
X112977500Y-63687742D01*
X114022500Y-64162258D02*
X114022500Y-63687742D01*
D18*
%TO.C,G\u002A\u002A\u002A*%
G36*
X91938768Y-68685880D02*
G01*
X91938768Y-69660946D01*
X95742693Y-69660946D01*
X99546618Y-69660946D01*
X99544004Y-69856442D01*
X99541391Y-70051938D01*
X95542170Y-70054363D01*
X91542949Y-70056788D01*
X91542949Y-68883801D01*
X91542949Y-67710813D01*
X91740859Y-67710813D01*
X91938768Y-67710813D01*
X91938768Y-68685880D01*
G37*
G36*
X87420638Y-68154903D02*
G01*
X87420638Y-68608647D01*
X87874382Y-68608647D01*
X88328126Y-68608647D01*
X88328126Y-68154903D01*
X88328126Y-67701159D01*
X88569479Y-67701159D01*
X88810832Y-67701159D01*
X88810832Y-68864481D01*
X88810832Y-70027803D01*
X88569479Y-70027803D01*
X88328126Y-70027803D01*
X88328126Y-69520961D01*
X88328126Y-69014120D01*
X87874382Y-69014120D01*
X87420638Y-69014120D01*
X87420638Y-69520961D01*
X87420638Y-70027803D01*
X87179285Y-70027803D01*
X86937932Y-70027803D01*
X86937932Y-68864481D01*
X86937932Y-67701159D01*
X87179285Y-67701159D01*
X87420638Y-67701159D01*
X87420638Y-68154903D01*
G37*
G36*
X91031281Y-67899069D02*
G01*
X91031281Y-68096978D01*
X90403763Y-68096978D01*
X89776245Y-68096978D01*
X89776245Y-68352812D01*
X89776245Y-68608647D01*
X90360515Y-68608647D01*
X90944785Y-68608647D01*
X90942176Y-68808970D01*
X90939566Y-69009293D01*
X90357906Y-69011782D01*
X89776245Y-69014271D01*
X89776245Y-69323059D01*
X89776245Y-69631848D01*
X90425484Y-69634329D01*
X91074724Y-69636811D01*
X91077338Y-69832307D01*
X91079951Y-70027803D01*
X90191572Y-70027803D01*
X89303192Y-70027803D01*
X89303192Y-68864481D01*
X89303192Y-67701159D01*
X90167237Y-67701159D01*
X91031281Y-67701159D01*
X91031281Y-67899069D01*
G37*
G36*
X95597681Y-65794470D02*
G01*
X95597681Y-65992379D01*
X93256639Y-65992379D01*
X90915597Y-65992379D01*
X90913101Y-66516115D01*
X90910604Y-67039852D01*
X90716911Y-67042459D01*
X90657606Y-67042937D01*
X90604975Y-67042752D01*
X90562036Y-67041963D01*
X90531808Y-67040632D01*
X90517306Y-67038820D01*
X90516588Y-67038437D01*
X90515334Y-67027796D01*
X90514158Y-66999639D01*
X90513081Y-66955757D01*
X90512128Y-66897942D01*
X90511319Y-66827986D01*
X90510678Y-66747679D01*
X90510228Y-66658815D01*
X90509990Y-66563184D01*
X90509958Y-66512093D01*
X90509958Y-65992379D01*
X88173660Y-65992379D01*
X85837362Y-65992379D01*
X85837362Y-65794470D01*
X85837362Y-65596560D01*
X90717522Y-65596560D01*
X95597681Y-65596560D01*
X95597681Y-65794470D01*
G37*
G36*
X100206529Y-69290925D02*
G01*
X100303398Y-69310682D01*
X100396523Y-69346880D01*
X100482975Y-69398141D01*
X100559824Y-69463090D01*
X100614144Y-69526310D01*
X100652360Y-69587775D01*
X100684859Y-69658299D01*
X100708658Y-69730416D01*
X100720359Y-69792260D01*
X100726471Y-69851920D01*
X100655254Y-69861334D01*
X100584036Y-69870748D01*
X100658856Y-69872043D01*
X100694101Y-69873512D01*
X100720410Y-69876245D01*
X100733142Y-69879714D01*
X100733662Y-69880577D01*
X100732081Y-69892810D01*
X100727877Y-69919182D01*
X100721836Y-69954828D01*
X100719267Y-69969540D01*
X100691957Y-70071510D01*
X100648274Y-70165057D01*
X100589817Y-70248562D01*
X100518184Y-70320408D01*
X100434974Y-70378975D01*
X100341783Y-70422645D01*
X100246142Y-70448733D01*
X100198305Y-70456394D01*
X100156886Y-70459614D01*
X100113528Y-70458596D01*
X100059870Y-70453545D01*
X100057887Y-70453319D01*
X99996057Y-70440447D01*
X99928162Y-70416724D01*
X99861602Y-70385140D01*
X99810004Y-70353212D01*
X99728213Y-70283957D01*
X99661397Y-70204300D01*
X99610275Y-70116185D01*
X99575568Y-70021559D01*
X99557994Y-69922367D01*
X99558135Y-69871157D01*
X99961345Y-69871157D01*
X99969652Y-69931565D01*
X99993504Y-69982744D01*
X100031303Y-70022505D01*
X100081448Y-70048661D01*
X100093812Y-70052329D01*
X100141488Y-70060152D01*
X100183734Y-70055242D01*
X100228056Y-70036404D01*
X100241199Y-70028867D01*
X100284807Y-69993043D01*
X100313367Y-69949019D01*
X100327391Y-69900032D01*
X100327387Y-69849315D01*
X100313865Y-69800107D01*
X100287337Y-69755641D01*
X100248312Y-69719155D01*
X100197300Y-69693884D01*
X100187951Y-69691067D01*
X100144178Y-69687068D01*
X100095444Y-69695049D01*
X100050211Y-69713114D01*
X100030110Y-69726481D01*
X99989975Y-69769528D01*
X99967370Y-69820198D01*
X99961345Y-69871157D01*
X99558135Y-69871157D01*
X99558275Y-69820555D01*
X99576217Y-69721392D01*
X99612244Y-69624217D01*
X99664068Y-69536481D01*
X99729911Y-69459628D01*
X99807993Y-69395101D01*
X99896538Y-69344345D01*
X99993766Y-69308802D01*
X100097899Y-69289917D01*
X100108847Y-69288983D01*
X100206529Y-69290925D01*
G37*
G36*
X86409908Y-70998274D02*
G01*
X86433610Y-71012139D01*
X86466987Y-71032846D01*
X86507062Y-71058429D01*
X86550854Y-71086924D01*
X86595386Y-71116365D01*
X86637678Y-71144786D01*
X86674751Y-71170224D01*
X86703627Y-71190711D01*
X86721327Y-71204285D01*
X86725480Y-71208694D01*
X86720439Y-71220535D01*
X86707450Y-71242316D01*
X86696603Y-71258669D01*
X86668250Y-71304289D01*
X86640069Y-71357283D01*
X86614344Y-71412542D01*
X86593360Y-71464956D01*
X86579399Y-71509413D01*
X86575370Y-71529939D01*
X86572426Y-71562272D01*
X86574661Y-71582735D01*
X86583446Y-71598385D01*
X86590154Y-71606008D01*
X86622560Y-71630518D01*
X86670866Y-71653447D01*
X86731665Y-71673357D01*
X86773826Y-71683488D01*
X86780989Y-71684656D01*
X86791411Y-71685761D01*
X86805615Y-71686803D01*
X86824119Y-71687786D01*
X86847443Y-71688711D01*
X86876109Y-71689579D01*
X86910636Y-71690393D01*
X86951544Y-71691153D01*
X86999353Y-71691862D01*
X87054583Y-71692522D01*
X87117755Y-71693133D01*
X87189388Y-71693699D01*
X87270003Y-71694220D01*
X87360119Y-71694698D01*
X87460258Y-71695136D01*
X87570938Y-71695534D01*
X87692681Y-71695894D01*
X87826005Y-71696219D01*
X87971432Y-71696509D01*
X88129481Y-71696768D01*
X88300673Y-71696995D01*
X88485527Y-71697194D01*
X88684564Y-71697365D01*
X88898304Y-71697511D01*
X89127266Y-71697633D01*
X89371971Y-71697733D01*
X89632940Y-71697813D01*
X89910692Y-71697874D01*
X90205747Y-71697918D01*
X90518625Y-71697947D01*
X90849847Y-71697962D01*
X91147961Y-71697966D01*
X95453269Y-71697966D01*
X95450656Y-71893462D01*
X95448042Y-72088958D01*
X91130235Y-72091383D01*
X86812429Y-72093807D01*
X86811345Y-72033458D01*
X86810262Y-71973109D01*
X86799277Y-72023126D01*
X86791875Y-72052551D01*
X86784823Y-72073694D01*
X86781487Y-72079813D01*
X86765842Y-72083503D01*
X86735822Y-72080980D01*
X86694959Y-72073244D01*
X86646788Y-72061296D01*
X86594841Y-72046134D01*
X86542654Y-72028760D01*
X86493759Y-72010174D01*
X86451691Y-71991377D01*
X86432033Y-71980899D01*
X86344947Y-71921281D01*
X86275415Y-71853757D01*
X86223494Y-71778581D01*
X86189240Y-71696008D01*
X86172708Y-71606294D01*
X86173955Y-71509693D01*
X86193037Y-71406460D01*
X86230010Y-71296850D01*
X86264762Y-71220087D01*
X86298100Y-71154540D01*
X86328642Y-71097609D01*
X86355267Y-71051192D01*
X86376854Y-71017184D01*
X86392282Y-70997481D01*
X86398860Y-70993215D01*
X86409908Y-70998274D01*
G37*
D17*
%TO.C,T_GND2*%
X57550000Y-101150000D02*
G75*
G02*
X55650000Y-101150000I-950000J0D01*
G01*
X55650000Y-101150000D02*
G75*
G02*
X57550000Y-101150000I950000J0D01*
G01*
%TO.C,T_PC3*%
X71050000Y-102700000D02*
G75*
G02*
X69150000Y-102700000I-950000J0D01*
G01*
X69150000Y-102700000D02*
G75*
G02*
X71050000Y-102700000I950000J0D01*
G01*
%TO.C,Q5*%
X107000000Y-102350001D02*
X106200000Y-102350001D01*
X107000000Y-102350001D02*
X107800000Y-102350001D01*
X107000000Y-105470001D02*
X106200000Y-105470001D01*
X107000000Y-105470001D02*
X107800000Y-105470001D01*
X105700000Y-102400001D02*
X105460000Y-102070001D01*
X105940000Y-102070001D01*
X105700000Y-102400001D01*
G36*
X105700000Y-102400001D02*
G01*
X105460000Y-102070001D01*
X105940000Y-102070001D01*
X105700000Y-102400001D01*
G37*
%TO.C,R40*%
X74262742Y-103077500D02*
X74737258Y-103077500D01*
X74262742Y-104122500D02*
X74737258Y-104122500D01*
%TO.C,T_V_MCU1*%
X93750000Y-80500000D02*
G75*
G02*
X91850000Y-80500000I-950000J0D01*
G01*
X91850000Y-80500000D02*
G75*
G02*
X93750000Y-80500000I950000J0D01*
G01*
%TO.C,D2*%
X65315000Y-87165000D02*
X65315000Y-88635000D01*
X65315000Y-88635000D02*
X67600000Y-88635000D01*
X67600000Y-87165000D02*
X65315000Y-87165000D01*
%TO.C,R1*%
X115837742Y-65477500D02*
X116312258Y-65477500D01*
X115837742Y-66522500D02*
X116312258Y-66522500D01*
%TO.C,C37*%
X85290000Y-76140580D02*
X85290000Y-75859420D01*
X86310000Y-76140580D02*
X86310000Y-75859420D01*
%TO.C,T_V_ref1*%
X65050000Y-75300000D02*
G75*
G02*
X63150000Y-75300000I-950000J0D01*
G01*
X63150000Y-75300000D02*
G75*
G02*
X65050000Y-75300000I950000J0D01*
G01*
%TO.C,C43*%
X82459420Y-74690000D02*
X82740580Y-74690000D01*
X82459420Y-75710000D02*
X82740580Y-75710000D01*
%TO.C,C36*%
X91490000Y-83259420D02*
X91490000Y-83540580D01*
X92510000Y-83259420D02*
X92510000Y-83540580D01*
%TO.C,R46*%
X82337258Y-118277500D02*
X81862742Y-118277500D01*
X82337258Y-119322500D02*
X81862742Y-119322500D01*
%TO.C,R20*%
X114227500Y-89987258D02*
X114227500Y-89512742D01*
X115272500Y-89987258D02*
X115272500Y-89512742D01*
%TO.C,R21*%
X102977500Y-90822259D02*
X102977500Y-90347743D01*
X104022500Y-90822259D02*
X104022500Y-90347743D01*
%TO.C,C25*%
X55434420Y-79490000D02*
X55715580Y-79490000D01*
X55434420Y-80510000D02*
X55715580Y-80510000D01*
%TO.C,C77*%
X69109421Y-112740000D02*
X69390581Y-112740000D01*
X69109421Y-113760000D02*
X69390581Y-113760000D01*
%TO.C,C55*%
X116890580Y-108400000D02*
X116609420Y-108400000D01*
X116890580Y-109420000D02*
X116609420Y-109420000D01*
%TO.C,D7*%
X112500000Y-88110000D02*
X112500000Y-84100000D01*
X112500000Y-88110000D02*
X114500000Y-88110000D01*
X114500000Y-88110000D02*
X114500000Y-84100000D01*
%TO.C,R51*%
X93962743Y-118227500D02*
X94437259Y-118227500D01*
X93962743Y-119272500D02*
X94437259Y-119272500D01*
%TO.C,R23*%
X117977500Y-103897258D02*
X117977500Y-103422742D01*
X119022500Y-103897258D02*
X119022500Y-103422742D01*
%TO.C,R26*%
X102977501Y-104072259D02*
X102977501Y-103597743D01*
X104022501Y-104072259D02*
X104022501Y-103597743D01*
%TO.C,FB1*%
X90637122Y-96840000D02*
X89837878Y-96840000D01*
X90637122Y-97960000D02*
X89837878Y-97960000D01*
%TO.C,JP9*%
X69000001Y-123700000D02*
X69000001Y-120900000D01*
X69700001Y-120250000D02*
X70300001Y-120250000D01*
X70300001Y-124350000D02*
X69700001Y-124350000D01*
X71000001Y-120900000D02*
X71000001Y-123700000D01*
X69000001Y-120950000D02*
G75*
G02*
X69700001Y-120250000I699999J1D01*
G01*
X69700001Y-124350000D02*
G75*
G02*
X69000001Y-123650000I0J700000D01*
G01*
X70300001Y-120250000D02*
G75*
G02*
X71000001Y-120950000I1J-699999D01*
G01*
X71000001Y-123650000D02*
G75*
G02*
X70300001Y-124350000I-700000J0D01*
G01*
%TO.C,C15*%
X57890000Y-73840580D02*
X57890000Y-73559420D01*
X58910000Y-73840580D02*
X58910000Y-73559420D01*
%TO.C,V12*%
D11*
X70000000Y-50500000D02*
X83000000Y-50500000D01*
X83000000Y-63500000D01*
X70000000Y-63500000D01*
X70000000Y-50500000D01*
D17*
%TO.C,R38*%
X75012743Y-119727500D02*
X75487259Y-119727500D01*
X75012743Y-120772500D02*
X75487259Y-120772500D01*
%TO.C,J1*%
D11*
X56762500Y-103425000D02*
X49962500Y-103425000D01*
X49962500Y-111425000D01*
X56762500Y-111425000D01*
X56762500Y-103425000D01*
D17*
%TO.C,IN1*%
X50870000Y-60890000D02*
X52200000Y-60890000D01*
X50870000Y-62220000D02*
X50870000Y-60890000D01*
X50870000Y-63490000D02*
X50870000Y-76250000D01*
X50870000Y-63490000D02*
X53530000Y-63490000D01*
X50870000Y-76250000D02*
X53530000Y-76250000D01*
X53530000Y-63490000D02*
X53530000Y-76250000D01*
%TO.C,D19*%
X89840001Y-112500000D02*
X89840001Y-114500000D01*
X89840001Y-112500000D02*
X93850001Y-112500000D01*
X89840001Y-114500000D02*
X93850001Y-114500000D01*
%TO.C,R68*%
X56787742Y-66877500D02*
X57262258Y-66877500D01*
X56787742Y-67922500D02*
X57262258Y-67922500D01*
%TO.C,R9*%
X103227500Y-84162258D02*
X103227500Y-83687742D01*
X104272500Y-84162258D02*
X104272500Y-83687742D01*
%TO.C,C14*%
X61140000Y-52354437D02*
X61140000Y-59810000D01*
X61140000Y-59810000D02*
X63890000Y-59810000D01*
X62204437Y-51290000D02*
X61140000Y-52354437D01*
X62204437Y-51290000D02*
X63890000Y-51290000D01*
X67910000Y-50050000D02*
X67910000Y-51050000D01*
X68410000Y-50550000D02*
X67410000Y-50550000D01*
X68595563Y-51290000D02*
X66910000Y-51290000D01*
X68595563Y-51290000D02*
X69660000Y-52354437D01*
X69660000Y-52354437D02*
X69660000Y-59810000D01*
X69660000Y-59810000D02*
X66910000Y-59810000D01*
%TO.C,DAC_UP1*%
X60800000Y-67700000D02*
X62800000Y-67700000D01*
X60800000Y-70500000D02*
X60800000Y-67700000D01*
X62800000Y-67700000D02*
X62800000Y-70500000D01*
X62800000Y-70500000D02*
X60800000Y-70500000D01*
%TO.C,V5*%
D11*
X83500000Y-50500000D02*
X96500000Y-50500000D01*
X96500000Y-63500000D01*
X83500000Y-63500000D01*
X83500000Y-50500000D01*
D17*
%TO.C,R71*%
X51377500Y-84487742D02*
X51377500Y-84962258D01*
X52422500Y-84487742D02*
X52422500Y-84962258D01*
%TO.C,Q2*%
X107250000Y-82440000D02*
X106450000Y-82440000D01*
X107250000Y-82440000D02*
X108050000Y-82440000D01*
X107250000Y-85560000D02*
X106450000Y-85560000D01*
X107250000Y-85560000D02*
X108050000Y-85560000D01*
X105950000Y-82490000D02*
X105710000Y-82160000D01*
X106190000Y-82160000D01*
X105950000Y-82490000D01*
G36*
X105950000Y-82490000D02*
G01*
X105710000Y-82160000D01*
X106190000Y-82160000D01*
X105950000Y-82490000D01*
G37*
%TO.C,C16*%
X61361252Y-77165000D02*
X60838748Y-77165000D01*
X61361252Y-78635000D02*
X60838748Y-78635000D01*
%TO.C,T_RX1*%
X63550000Y-97400000D02*
G75*
G02*
X61650000Y-97400000I-950000J0D01*
G01*
X61650000Y-97400000D02*
G75*
G02*
X63550000Y-97400000I950000J0D01*
G01*
%TO.C,T_Analog3*%
X68550000Y-117400000D02*
G75*
G02*
X66650000Y-117400000I-950000J0D01*
G01*
X66650000Y-117400000D02*
G75*
G02*
X68550000Y-117400000I950000J0D01*
G01*
%TO.C,JP4*%
X116650000Y-86800000D02*
X116650000Y-86200000D01*
X117300000Y-85500000D02*
X120100000Y-85500000D01*
X120100000Y-87500000D02*
X117300000Y-87500000D01*
X120750000Y-86200000D02*
X120750000Y-86800000D01*
X116650000Y-86200000D02*
G75*
G02*
X117350000Y-85500000I700000J0D01*
G01*
X117350000Y-87500000D02*
G75*
G02*
X116650000Y-86800000I0J700000D01*
G01*
X120050000Y-85500000D02*
G75*
G02*
X120750000Y-86200000I1J-699999D01*
G01*
X120750000Y-86800000D02*
G75*
G02*
X120050000Y-87500000I-699999J-1D01*
G01*
%TO.C,R41*%
X72512743Y-121227500D02*
X72987259Y-121227500D01*
X72512743Y-122272500D02*
X72987259Y-122272500D01*
%TO.C,C34*%
X77884420Y-95690000D02*
X78165580Y-95690000D01*
X77884420Y-96710000D02*
X78165580Y-96710000D01*
D16*
%TO.C,IC4*%
X59550000Y-72850000D02*
X62450000Y-72850000D01*
X59550000Y-73450000D02*
X59550000Y-72850000D01*
X62450000Y-72850000D02*
X62450000Y-73450000D01*
X62450000Y-73450000D02*
X59550000Y-73450000D01*
X62600000Y-71300000D02*
X62600000Y-72500000D01*
D17*
%TO.C,D15*%
X70890001Y-112500000D02*
X70890001Y-114500000D01*
X70890001Y-112500000D02*
X74900001Y-112500000D01*
X70890001Y-114500000D02*
X74900001Y-114500000D01*
%TO.C,JP10*%
X90450001Y-120100000D02*
X90450001Y-117300000D01*
X91150001Y-116650000D02*
X91750001Y-116650000D01*
X91750001Y-120750000D02*
X91150001Y-120750000D01*
X92450001Y-117300000D02*
X92450001Y-120100000D01*
X90450001Y-117350000D02*
G75*
G02*
X91150001Y-116650000I700000J0D01*
G01*
X91150001Y-120750000D02*
G75*
G02*
X90450001Y-120050000I-1J699999D01*
G01*
X91750001Y-116650000D02*
G75*
G02*
X92450001Y-117350000I0J-700000D01*
G01*
X92450001Y-120050000D02*
G75*
G02*
X91750001Y-120750000I-699999J-1D01*
G01*
%TO.C,C75*%
X112740000Y-89890580D02*
X112740000Y-89609420D01*
X113760000Y-89890580D02*
X113760000Y-89609420D01*
%TO.C,R11*%
X116012742Y-82477500D02*
X116487258Y-82477500D01*
X116012742Y-83522500D02*
X116487258Y-83522500D01*
%TO.C,R8*%
X66537742Y-90477500D02*
X67012258Y-90477500D01*
X66537742Y-91522500D02*
X67012258Y-91522500D01*
%TO.C,R5*%
X60650242Y-107502500D02*
X61124758Y-107502500D01*
X60650242Y-108547500D02*
X61124758Y-108547500D01*
%TO.C,T_Analog4*%
X88150000Y-118800000D02*
G75*
G02*
X86250000Y-118800000I-950000J0D01*
G01*
X86250000Y-118800000D02*
G75*
G02*
X88150000Y-118800000I950000J0D01*
G01*
%TO.C,C68*%
X119690000Y-63565580D02*
X119690000Y-63284420D01*
X120710000Y-63565580D02*
X120710000Y-63284420D01*
D11*
%TO.C,T4*%
X96700001Y-108850000D02*
X97700001Y-108850000D01*
X96700001Y-115450000D02*
X96700001Y-108850000D01*
X97700001Y-115450000D02*
X96700001Y-115450000D01*
X101700001Y-115450000D02*
X99700001Y-115450000D01*
X104300001Y-109150000D02*
X104300001Y-108800000D01*
X104300001Y-115450000D02*
X104300001Y-109150000D01*
D17*
%TO.C,R35*%
X88087742Y-103227500D02*
X88562258Y-103227500D01*
X88087742Y-104272500D02*
X88562258Y-104272500D01*
%TO.C,C21*%
X60890000Y-93415580D02*
X60890000Y-93134420D01*
X61910000Y-93415580D02*
X61910000Y-93134420D01*
%TO.C,R7*%
X66537742Y-91977500D02*
X67012258Y-91977500D01*
X66537742Y-93022500D02*
X67012258Y-93022500D01*
%TO.C,D10*%
X109750000Y-111170001D02*
X109750000Y-107160001D01*
X109750000Y-111170001D02*
X111750000Y-111170001D01*
X111750000Y-111170001D02*
X111750000Y-107160001D01*
%TO.C,JP11*%
X87950001Y-123700000D02*
X87950001Y-120900000D01*
X88650001Y-120250000D02*
X89250001Y-120250000D01*
X89250001Y-124350000D02*
X88650001Y-124350000D01*
X89950001Y-120900000D02*
X89950001Y-123700000D01*
X87950001Y-120950000D02*
G75*
G02*
X88650001Y-120250000I699999J1D01*
G01*
X88650001Y-124350000D02*
G75*
G02*
X87950001Y-123650000I0J700000D01*
G01*
X89250001Y-120250000D02*
G75*
G02*
X89950001Y-120950000I1J-699999D01*
G01*
X89950001Y-123650000D02*
G75*
G02*
X89250001Y-124350000I-700000J0D01*
G01*
%TO.C,T_VBUS1*%
X54000000Y-101200000D02*
G75*
G02*
X52100000Y-101200000I-950000J0D01*
G01*
X52100000Y-101200000D02*
G75*
G02*
X54000000Y-101200000I950000J0D01*
G01*
%TO.C,R43*%
X69012743Y-114227500D02*
X69487259Y-114227500D01*
X69012743Y-115272500D02*
X69487259Y-115272500D01*
%TO.C,T_PE9*%
X95650000Y-89100000D02*
G75*
G02*
X93750000Y-89100000I-950000J0D01*
G01*
X93750000Y-89100000D02*
G75*
G02*
X95650000Y-89100000I950000J0D01*
G01*
%TO.C,R19*%
X114977500Y-86987258D02*
X114977500Y-86512742D01*
X116022500Y-86987258D02*
X116022500Y-86512742D01*
%TO.C,Q10*%
X105790000Y-109250000D02*
X105790000Y-108450000D01*
X105790000Y-109250000D02*
X105790000Y-110050000D01*
X108910000Y-109250000D02*
X108910000Y-108450000D01*
X108910000Y-109250000D02*
X108910000Y-110050000D01*
X105840000Y-110550000D02*
X105510000Y-110790000D01*
X105510000Y-110310000D01*
X105840000Y-110550000D01*
G36*
X105840000Y-110550000D02*
G01*
X105510000Y-110790000D01*
X105510000Y-110310000D01*
X105840000Y-110550000D01*
G37*
%TO.C,C20*%
X54538748Y-81565000D02*
X55061252Y-81565000D01*
X54538748Y-83035000D02*
X55061252Y-83035000D01*
%TO.C,C24*%
X58740580Y-79490000D02*
X58459420Y-79490000D01*
X58740580Y-80510000D02*
X58459420Y-80510000D01*
%TO.C,R52*%
X93962743Y-119727500D02*
X94437259Y-119727500D01*
X93962743Y-120772500D02*
X94437259Y-120772500D01*
%TO.C,T_TR_A1*%
X119750000Y-91400000D02*
G75*
G02*
X117850000Y-91400000I-950000J0D01*
G01*
X117850000Y-91400000D02*
G75*
G02*
X119750000Y-91400000I950000J0D01*
G01*
%TO.C,C41*%
X71490000Y-94054420D02*
X71490000Y-94335580D01*
X72510000Y-94054420D02*
X72510000Y-94335580D01*
%TO.C,JP7*%
X120000000Y-109210000D02*
X120000000Y-108610000D01*
X120650000Y-107910000D02*
X123450000Y-107910000D01*
X123450000Y-109910000D02*
X120650000Y-109910000D01*
X124100000Y-108610000D02*
X124100000Y-109210000D01*
X120000000Y-108610000D02*
G75*
G02*
X120700000Y-107910000I699999J1D01*
G01*
X120700000Y-109910000D02*
G75*
G02*
X120000000Y-109210000I-1J699999D01*
G01*
X123400000Y-107910000D02*
G75*
G02*
X124100000Y-108610000I0J-700000D01*
G01*
X124100000Y-109210000D02*
G75*
G02*
X123400000Y-109910000I-700000J0D01*
G01*
%TO.C,D18*%
X86690000Y-110200000D02*
X86690000Y-112200000D01*
X86690000Y-110200000D02*
X90700000Y-110200000D01*
X86690000Y-112200000D02*
X90700000Y-112200000D01*
%TO.C,C39*%
X86890000Y-76140580D02*
X86890000Y-75859420D01*
X87910000Y-76140580D02*
X87910000Y-75859420D01*
%TO.C,R56*%
X72512743Y-122727500D02*
X72987259Y-122727500D01*
X72512743Y-123772500D02*
X72987259Y-123772500D01*
%TO.C,JP1*%
X80600000Y-72500000D02*
X80600000Y-71900000D01*
X81300000Y-71200000D02*
X82700000Y-71200000D01*
X82700000Y-73200000D02*
X81300000Y-73200000D01*
X83400000Y-71900000D02*
X83400000Y-72500000D01*
X80600000Y-71900000D02*
G75*
G02*
X81300000Y-71200000I699999J1D01*
G01*
X81300000Y-73200000D02*
G75*
G02*
X80600000Y-72500000I-1J699999D01*
G01*
X82700000Y-71200000D02*
G75*
G02*
X83400000Y-71900000I0J-700000D01*
G01*
X83400000Y-72500000D02*
G75*
G02*
X82700000Y-73200000I-700000J0D01*
G01*
%TO.C,R4*%
X103227500Y-70912258D02*
X103227500Y-70437742D01*
X104272500Y-70912258D02*
X104272500Y-70437742D01*
%TO.C,JP6*%
X116400000Y-106710000D02*
X116400000Y-106110000D01*
X117050000Y-105410000D02*
X119850000Y-105410000D01*
X119850000Y-107410000D02*
X117050000Y-107410000D01*
X120500000Y-106110000D02*
X120500000Y-106710000D01*
X116400000Y-106110000D02*
G75*
G02*
X117100000Y-105410000I700000J0D01*
G01*
X117100000Y-107410000D02*
G75*
G02*
X116400000Y-106710000I0J700000D01*
G01*
X119800000Y-105410000D02*
G75*
G02*
X120500000Y-106110000I1J-699999D01*
G01*
X120500000Y-106710000D02*
G75*
G02*
X119800000Y-107410000I-699999J-1D01*
G01*
%TO.C,C28*%
X112765000Y-60811252D02*
X112765000Y-60288748D01*
X114235000Y-60811252D02*
X114235000Y-60288748D01*
%TO.C,R67*%
X91462743Y-122727500D02*
X91937259Y-122727500D01*
X91462743Y-123772500D02*
X91937259Y-123772500D01*
%TO.C,T_PE10*%
X98450000Y-89100000D02*
G75*
G02*
X96550000Y-89100000I-950000J0D01*
G01*
X96550000Y-89100000D02*
G75*
G02*
X98450000Y-89100000I950000J0D01*
G01*
%TO.C,T_DAC_A1*%
X52150000Y-89000000D02*
G75*
G02*
X50250000Y-89000000I-950000J0D01*
G01*
X50250000Y-89000000D02*
G75*
G02*
X52150000Y-89000000I950000J0D01*
G01*
D16*
%TO.C,IC3*%
X52725000Y-86550000D02*
X54200000Y-86550000D01*
D17*
%TO.C,Q4*%
X106999999Y-89100001D02*
X106199999Y-89100001D01*
X106999999Y-89100001D02*
X107799999Y-89100001D01*
X106999999Y-92220001D02*
X106199999Y-92220001D01*
X106999999Y-92220001D02*
X107799999Y-92220001D01*
X105699999Y-89150001D02*
X105459999Y-88820001D01*
X105939999Y-88820001D01*
X105699999Y-89150001D01*
G36*
X105699999Y-89150001D02*
G01*
X105459999Y-88820001D01*
X105939999Y-88820001D01*
X105699999Y-89150001D01*
G37*
%TO.C,R44*%
X72012743Y-114977500D02*
X72487259Y-114977500D01*
X72012743Y-116022500D02*
X72487259Y-116022500D01*
%TO.C,R61*%
X94427501Y-116012742D02*
X94427501Y-116487258D01*
X95472501Y-116012742D02*
X95472501Y-116487258D01*
D16*
%TO.C,Y1*%
X71925000Y-99125000D02*
X71925000Y-99125000D01*
X71925000Y-99325000D02*
X71925000Y-99325000D01*
D11*
X73725000Y-97625000D02*
X74325000Y-97625000D01*
X73725000Y-99625000D02*
X74325000Y-99625000D01*
D16*
X71925000Y-99125000D02*
G75*
G02*
X71925000Y-99325000I0J-100000D01*
G01*
X71925000Y-99325000D02*
G75*
G02*
X71925000Y-99125000I0J100000D01*
G01*
D17*
%TO.C,C40*%
X82434420Y-76290000D02*
X82715580Y-76290000D01*
X82434420Y-77310000D02*
X82715580Y-77310000D01*
%TO.C,JP8*%
X71500001Y-120100000D02*
X71500001Y-117300000D01*
X72200001Y-116650000D02*
X72800001Y-116650000D01*
X72800001Y-120750000D02*
X72200001Y-120750000D01*
X73500001Y-117300000D02*
X73500001Y-120100000D01*
X71500001Y-117350000D02*
G75*
G02*
X72200001Y-116650000I700000J0D01*
G01*
X72200001Y-120750000D02*
G75*
G02*
X71500001Y-120050000I-1J699999D01*
G01*
X72800001Y-116650000D02*
G75*
G02*
X73500001Y-117350000I0J-700000D01*
G01*
X73500001Y-120050000D02*
G75*
G02*
X72800001Y-120750000I-699999J-1D01*
G01*
%TO.C,R13*%
X116012742Y-83977500D02*
X116487258Y-83977500D01*
X116012742Y-85022500D02*
X116487258Y-85022500D01*
D15*
%TO.C,J3*%
X71000000Y-70399000D02*
X71000000Y-71525000D01*
X71000000Y-75399000D02*
X71000000Y-74132000D01*
X71000000Y-75399000D02*
X71921000Y-75399000D01*
X77000000Y-70399000D02*
X71000000Y-70399000D01*
X77000000Y-70399000D02*
X77000000Y-71633000D01*
X77000000Y-75399000D02*
X76070000Y-75399000D01*
X77000000Y-75399000D02*
X77000000Y-74086000D01*
X72372000Y-76747000D02*
G75*
G02*
X72264000Y-76747000I-54000J0D01*
G01*
X72264000Y-76747000D02*
G75*
G02*
X72372000Y-76747000I54000J0D01*
G01*
D17*
%TO.C,C59*%
X69490001Y-117140580D02*
X69490001Y-116859420D01*
X70510001Y-117140580D02*
X70510001Y-116859420D01*
%TO.C,C26*%
X65452500Y-102490580D02*
X65452500Y-102209420D01*
X66472500Y-102490580D02*
X66472500Y-102209420D01*
%TO.C,U1*%
X59815000Y-99890000D02*
X59815000Y-99405000D01*
X59815000Y-103385000D02*
X59815000Y-102660000D01*
X60540000Y-99165000D02*
X60115000Y-99165000D01*
X60540000Y-103385000D02*
X59815000Y-103385000D01*
X63310000Y-99165000D02*
X64035000Y-99165000D01*
X63310000Y-103385000D02*
X64035000Y-103385000D01*
X64035000Y-99165000D02*
X64035000Y-99890000D01*
X64035000Y-103385000D02*
X64035000Y-102660000D01*
X59815000Y-99165000D02*
X59575000Y-98835000D01*
X60055000Y-98835000D01*
X59815000Y-99165000D01*
G36*
X59815000Y-99165000D02*
G01*
X59575000Y-98835000D01*
X60055000Y-98835000D01*
X59815000Y-99165000D01*
G37*
%TO.C,R60*%
X101262258Y-117977500D02*
X100787742Y-117977500D01*
X101262258Y-119022500D02*
X100787742Y-119022500D01*
%TO.C,R34*%
X115762742Y-103887500D02*
X116237258Y-103887500D01*
X115762742Y-104932500D02*
X116237258Y-104932500D01*
%TO.C,D11*%
X112250000Y-108020000D02*
X112250000Y-104010000D01*
X112250000Y-108020000D02*
X114250000Y-108020000D01*
X114250000Y-108020000D02*
X114250000Y-104010000D01*
D11*
%TO.C,T2*%
X108600000Y-101160000D02*
X108600000Y-100160000D01*
X108900000Y-93560000D02*
X108550000Y-93560000D01*
X115200000Y-93560000D02*
X108900000Y-93560000D01*
X115200000Y-96160000D02*
X115200000Y-98160000D01*
X115200000Y-100160000D02*
X115200000Y-101160000D01*
X115200000Y-101160000D02*
X108600000Y-101160000D01*
D17*
%TO.C,R70*%
X61077500Y-84487742D02*
X61077500Y-84962258D01*
X62122500Y-84487742D02*
X62122500Y-84962258D01*
%TO.C,R27*%
X120977500Y-106397258D02*
X120977500Y-105922742D01*
X122022500Y-106397258D02*
X122022500Y-105922742D01*
%TO.C,JP2*%
X80600000Y-69900000D02*
X80600000Y-69300000D01*
X81300000Y-68600000D02*
X82700000Y-68600000D01*
X82700000Y-70600000D02*
X81300000Y-70600000D01*
X83400000Y-69300000D02*
X83400000Y-69900000D01*
X80600000Y-69300000D02*
G75*
G02*
X81300000Y-68600000I699999J1D01*
G01*
X81300000Y-70600000D02*
G75*
G02*
X80600000Y-69900000I-1J699999D01*
G01*
X82700000Y-68600000D02*
G75*
G02*
X83400000Y-69300000I0J-700000D01*
G01*
X83400000Y-69900000D02*
G75*
G02*
X82700000Y-70600000I-700000J0D01*
G01*
%TO.C,C38*%
X93090000Y-83259420D02*
X93090000Y-83540580D01*
X94110000Y-83259420D02*
X94110000Y-83540580D01*
%TO.C,R47*%
X75477501Y-116012742D02*
X75477501Y-116487258D01*
X76522501Y-116012742D02*
X76522501Y-116487258D01*
%TO.C,D1*%
X58950000Y-60040000D02*
X58950000Y-65850000D01*
X63250000Y-60040000D02*
X58950000Y-60040000D01*
X63250000Y-60040000D02*
X63250000Y-65850000D01*
%TO.C,C35*%
X89834420Y-95190000D02*
X90115580Y-95190000D01*
X89834420Y-96210000D02*
X90115580Y-96210000D01*
%TO.C,C18*%
X58740580Y-83590000D02*
X58459420Y-83590000D01*
X58740580Y-84610000D02*
X58459420Y-84610000D01*
%TO.C,T_Analog2*%
X123250000Y-112800000D02*
G75*
G02*
X121350000Y-112800000I-950000J0D01*
G01*
X121350000Y-112800000D02*
G75*
G02*
X123250000Y-112800000I950000J0D01*
G01*
%TO.C,C30*%
X57552500Y-108659420D02*
X57552500Y-108940580D01*
X58572500Y-108659420D02*
X58572500Y-108940580D01*
%TO.C,C17*%
X58661252Y-81565000D02*
X58138748Y-81565000D01*
X58661252Y-83035000D02*
X58138748Y-83035000D01*
%TO.C,U2*%
X74765000Y-79590000D02*
X75465000Y-79590000D01*
X74765000Y-80290000D02*
X74765000Y-79590000D01*
X74765000Y-93110000D02*
X74765000Y-93810000D01*
X74765000Y-93810000D02*
X75465000Y-93810000D01*
X88985000Y-79590000D02*
X88285000Y-79590000D01*
X88985000Y-80290000D02*
X88985000Y-79590000D01*
X88985000Y-93110000D02*
X88985000Y-93810000D01*
X88985000Y-93810000D02*
X88285000Y-93810000D01*
X75465000Y-94437500D02*
X74995000Y-94777500D01*
X74995000Y-94097500D01*
X75465000Y-94437500D01*
G36*
X75465000Y-94437500D02*
G01*
X74995000Y-94777500D01*
X74995000Y-94097500D01*
X75465000Y-94437500D01*
G37*
%TO.C,R6*%
X60650242Y-105952500D02*
X61124758Y-105952500D01*
X60650242Y-106997500D02*
X61124758Y-106997500D01*
%TO.C,D6*%
X110000000Y-91260000D02*
X110000000Y-87250000D01*
X110000000Y-91260000D02*
X112000000Y-91260000D01*
X112000000Y-91260000D02*
X112000000Y-87250000D01*
%TO.C,R57*%
X87962743Y-114227500D02*
X88437259Y-114227500D01*
X87962743Y-115272500D02*
X88437259Y-115272500D01*
%TO.C,R10*%
X117977500Y-76687742D02*
X117977500Y-77162258D01*
X119022500Y-76687742D02*
X119022500Y-77162258D01*
%TO.C,JP5*%
X120250000Y-89300000D02*
X120250000Y-88700000D01*
X120900000Y-88000000D02*
X123700000Y-88000000D01*
X123700000Y-90000000D02*
X120900000Y-90000000D01*
X124350000Y-88700000D02*
X124350000Y-89300000D01*
X120250000Y-88700000D02*
G75*
G02*
X120950000Y-88000000I699999J1D01*
G01*
X120950000Y-90000000D02*
G75*
G02*
X120250000Y-89300000I-1J699999D01*
G01*
X123650000Y-88000000D02*
G75*
G02*
X124350000Y-88700000I0J-700000D01*
G01*
X124350000Y-89300000D02*
G75*
G02*
X123650000Y-90000000I-700000J0D01*
G01*
%TO.C,T_PC2*%
X69950000Y-100300000D02*
G75*
G02*
X68050000Y-100300000I-950000J0D01*
G01*
X68050000Y-100300000D02*
G75*
G02*
X69950000Y-100300000I950000J0D01*
G01*
%TO.C,C62*%
X105350000Y-114890000D02*
X106350000Y-114890000D01*
X105850000Y-114390000D02*
X105850000Y-115390000D01*
X106590000Y-114204437D02*
X106590000Y-115890000D01*
X106590000Y-114204437D02*
X107654437Y-113140000D01*
X106590000Y-120595563D02*
X106590000Y-118910000D01*
X106590000Y-120595563D02*
X107654437Y-121660000D01*
X107654437Y-113140000D02*
X115110000Y-113140000D01*
X107654437Y-121660000D02*
X115110000Y-121660000D01*
X115110000Y-113140000D02*
X115110000Y-115890000D01*
X115110000Y-121660000D02*
X115110000Y-118910000D01*
%TO.C,C54*%
X96440000Y-93540000D02*
X96440000Y-96290000D01*
X96440000Y-102060000D02*
X96440000Y-99310000D01*
X103895563Y-93540000D02*
X96440000Y-93540000D01*
X103895563Y-102060000D02*
X96440000Y-102060000D01*
X104960000Y-94604437D02*
X103895563Y-93540000D01*
X104960000Y-94604437D02*
X104960000Y-96290000D01*
X104960000Y-100995563D02*
X103895563Y-102060000D01*
X104960000Y-100995563D02*
X104960000Y-99310000D01*
X105700000Y-100810000D02*
X105700000Y-99810000D01*
X106200000Y-100310000D02*
X105200000Y-100310000D01*
%TO.C,R54*%
X93787742Y-103227501D02*
X94262258Y-103227501D01*
X93787742Y-104272501D02*
X94262258Y-104272501D01*
%TO.C,R24*%
X119477500Y-103897258D02*
X119477500Y-103422742D01*
X120522500Y-103897258D02*
X120522500Y-103422742D01*
%TO.C,F1*%
X55797936Y-63440000D02*
X57002064Y-63440000D01*
X55797936Y-66160000D02*
X57002064Y-66160000D01*
%TO.C,C22*%
X62665000Y-92811252D02*
X62665000Y-92288748D01*
X64135000Y-92811252D02*
X64135000Y-92288748D01*
%TO.C,C76*%
X112490000Y-109800580D02*
X112490000Y-109519420D01*
X113510000Y-109800580D02*
X113510000Y-109519420D01*
%TO.C,C50*%
X117140580Y-88490000D02*
X116859420Y-88490000D01*
X117140580Y-89510000D02*
X116859420Y-89510000D01*
%TO.C,Q1*%
X107250000Y-69190000D02*
X106450000Y-69190000D01*
X107250000Y-69190000D02*
X108050000Y-69190000D01*
X107250000Y-72310000D02*
X106450000Y-72310000D01*
X107250000Y-72310000D02*
X108050000Y-72310000D01*
X105950000Y-69240000D02*
X105710000Y-68910000D01*
X106190000Y-68910000D01*
X105950000Y-69240000D01*
G36*
X105950000Y-69240000D02*
G01*
X105710000Y-68910000D01*
X106190000Y-68910000D01*
X105950000Y-69240000D01*
G37*
%TD*%
M02*
