%TF.GenerationSoftware,KiCad,Pcbnew,8.0.3*%
%TF.CreationDate,2024-09-23T16:56:09+02:00*%
%TF.ProjectId,USAN_r0,5553414e-5f72-4302-9e6b-696361645f70,rev?*%
%TF.SameCoordinates,Original*%
%TF.FileFunction,Soldermask,Top*%
%TF.FilePolarity,Negative*%
%FSLAX46Y46*%
G04 Gerber Fmt 4.6, Leading zero omitted, Abs format (unit mm)*
G04 Created by KiCad (PCBNEW 8.0.3) date 2024-09-23 16:56:09*
%MOMM*%
%LPD*%
G01*
G04 APERTURE LIST*
G04 Aperture macros list*
%AMRoundRect*
0 Rectangle with rounded corners*
0 $1 Rounding radius*
0 $2 $3 $4 $5 $6 $7 $8 $9 X,Y pos of 4 corners*
0 Add a 4 corners polygon primitive as box body*
4,1,4,$2,$3,$4,$5,$6,$7,$8,$9,$2,$3,0*
0 Add four circle primitives for the rounded corners*
1,1,$1+$1,$2,$3*
1,1,$1+$1,$4,$5*
1,1,$1+$1,$6,$7*
1,1,$1+$1,$8,$9*
0 Add four rect primitives between the rounded corners*
20,1,$1+$1,$2,$3,$4,$5,0*
20,1,$1+$1,$4,$5,$6,$7,0*
20,1,$1+$1,$6,$7,$8,$9,0*
20,1,$1+$1,$8,$9,$2,$3,0*%
%AMFreePoly0*
4,1,19,0.550000,-0.750000,0.000000,-0.750000,0.000000,-0.744911,-0.071157,-0.744911,-0.207708,-0.704816,-0.327430,-0.627875,-0.420627,-0.520320,-0.479746,-0.390866,-0.500000,-0.250000,-0.500000,0.250000,-0.479746,0.390866,-0.420627,0.520320,-0.327430,0.627875,-0.207708,0.704816,-0.071157,0.744911,0.000000,0.744911,0.000000,0.750000,0.550000,0.750000,0.550000,-0.750000,0.550000,-0.750000,
$1*%
%AMFreePoly1*
4,1,19,0.000000,0.744911,0.071157,0.744911,0.207708,0.704816,0.327430,0.627875,0.420627,0.520320,0.479746,0.390866,0.500000,0.250000,0.500000,-0.250000,0.479746,-0.390866,0.420627,-0.520320,0.327430,-0.627875,0.207708,-0.704816,0.071157,-0.744911,0.000000,-0.744911,0.000000,-0.750000,-0.550000,-0.750000,-0.550000,0.750000,0.000000,0.750000,0.000000,0.744911,0.000000,0.744911,
$1*%
%AMFreePoly2*
4,1,19,0.500000,-0.750000,0.000000,-0.750000,0.000000,-0.744911,-0.071157,-0.744911,-0.207708,-0.704816,-0.327430,-0.627875,-0.420627,-0.520320,-0.479746,-0.390866,-0.500000,-0.250000,-0.500000,0.250000,-0.479746,0.390866,-0.420627,0.520320,-0.327430,0.627875,-0.207708,0.704816,-0.071157,0.744911,0.000000,0.744911,0.000000,0.750000,0.500000,0.750000,0.500000,-0.750000,0.500000,-0.750000,
$1*%
%AMFreePoly3*
4,1,19,0.000000,0.744911,0.071157,0.744911,0.207708,0.704816,0.327430,0.627875,0.420627,0.520320,0.479746,0.390866,0.500000,0.250000,0.500000,-0.250000,0.479746,-0.390866,0.420627,-0.520320,0.327430,-0.627875,0.207708,-0.704816,0.071157,-0.744911,0.000000,-0.744911,0.000000,-0.750000,-0.500000,-0.750000,-0.500000,0.750000,0.000000,0.750000,0.000000,0.744911,0.000000,0.744911,
$1*%
G04 Aperture macros list end*
%ADD10R,2.500000X2.500000*%
%ADD11R,0.400000X0.700000*%
%ADD12R,3.000000X0.800000*%
%ADD13RoundRect,0.225000X0.225000X0.250000X-0.225000X0.250000X-0.225000X-0.250000X0.225000X-0.250000X0*%
%ADD14RoundRect,0.150000X0.200000X-0.150000X0.200000X0.150000X-0.200000X0.150000X-0.200000X-0.150000X0*%
%ADD15RoundRect,0.150000X-0.150000X0.512500X-0.150000X-0.512500X0.150000X-0.512500X0.150000X0.512500X0*%
%ADD16RoundRect,0.200000X0.275000X-0.200000X0.275000X0.200000X-0.275000X0.200000X-0.275000X-0.200000X0*%
%ADD17C,1.500000*%
%ADD18RoundRect,0.200000X-0.200000X-0.275000X0.200000X-0.275000X0.200000X0.275000X-0.200000X0.275000X0*%
%ADD19RoundRect,0.225000X-0.225000X-0.250000X0.225000X-0.250000X0.225000X0.250000X-0.225000X0.250000X0*%
%ADD20RoundRect,0.225000X-0.250000X0.225000X-0.250000X-0.225000X0.250000X-0.225000X0.250000X0.225000X0*%
%ADD21RoundRect,0.200000X-0.275000X0.200000X-0.275000X-0.200000X0.275000X-0.200000X0.275000X0.200000X0*%
%ADD22R,1.200000X2.500000*%
%ADD23RoundRect,0.218750X-0.256250X0.218750X-0.256250X-0.218750X0.256250X-0.218750X0.256250X0.218750X0*%
%ADD24RoundRect,0.250000X-0.475000X0.250000X-0.475000X-0.250000X0.475000X-0.250000X0.475000X0.250000X0*%
%ADD25RoundRect,0.225000X-0.225000X-0.375000X0.225000X-0.375000X0.225000X0.375000X-0.225000X0.375000X0*%
%ADD26RoundRect,0.625000X-1.875000X0.625000X-1.875000X-0.625000X1.875000X-0.625000X1.875000X0.625000X0*%
%ADD27R,2.500000X1.200000*%
%ADD28RoundRect,0.225000X0.250000X-0.225000X0.250000X0.225000X-0.250000X0.225000X-0.250000X-0.225000X0*%
%ADD29RoundRect,0.250000X1.750000X1.000000X-1.750000X1.000000X-1.750000X-1.000000X1.750000X-1.000000X0*%
%ADD30RoundRect,0.250000X-1.750000X-1.000000X1.750000X-1.000000X1.750000X1.000000X-1.750000X1.000000X0*%
%ADD31RoundRect,0.218750X-0.218750X-0.256250X0.218750X-0.256250X0.218750X0.256250X-0.218750X0.256250X0*%
%ADD32FreePoly0,90.000000*%
%ADD33R,1.500000X1.000000*%
%ADD34FreePoly1,90.000000*%
%ADD35RoundRect,0.150000X-0.512500X-0.150000X0.512500X-0.150000X0.512500X0.150000X-0.512500X0.150000X0*%
%ADD36RoundRect,0.200000X0.200000X0.275000X-0.200000X0.275000X-0.200000X-0.275000X0.200000X-0.275000X0*%
%ADD37RoundRect,0.225000X0.375000X-0.225000X0.375000X0.225000X-0.375000X0.225000X-0.375000X-0.225000X0*%
%ADD38RoundRect,0.218750X0.218750X0.381250X-0.218750X0.381250X-0.218750X-0.381250X0.218750X-0.381250X0*%
%ADD39FreePoly0,270.000000*%
%ADD40FreePoly1,270.000000*%
%ADD41C,0.800000*%
%ADD42C,6.400000*%
%ADD43RoundRect,0.125000X-0.575000X0.125000X-0.575000X-0.125000X0.575000X-0.125000X0.575000X0.125000X0*%
%ADD44O,3.600000X1.100000*%
%ADD45R,1.700000X1.700000*%
%ADD46O,1.700000X1.700000*%
%ADD47RoundRect,0.250000X-1.000000X1.500000X-1.000000X-1.500000X1.000000X-1.500000X1.000000X1.500000X0*%
%ADD48RoundRect,0.250000X0.250000X0.475000X-0.250000X0.475000X-0.250000X-0.475000X0.250000X-0.475000X0*%
%ADD49FreePoly0,180.000000*%
%ADD50R,1.000000X1.500000*%
%ADD51FreePoly1,180.000000*%
%ADD52R,0.600000X1.200000*%
%ADD53RoundRect,0.625000X0.625000X1.875000X-0.625000X1.875000X-0.625000X-1.875000X0.625000X-1.875000X0*%
%ADD54RoundRect,0.150000X0.150000X-0.512500X0.150000X0.512500X-0.150000X0.512500X-0.150000X-0.512500X0*%
%ADD55RoundRect,0.250000X-0.250000X-0.475000X0.250000X-0.475000X0.250000X0.475000X-0.250000X0.475000X0*%
%ADD56FreePoly0,0.000000*%
%ADD57FreePoly1,0.000000*%
%ADD58FreePoly2,0.000000*%
%ADD59FreePoly3,0.000000*%
%ADD60RoundRect,0.250000X0.475000X-0.250000X0.475000X0.250000X-0.475000X0.250000X-0.475000X-0.250000X0*%
%ADD61R,1.475000X0.450000*%
%ADD62R,3.250000X5.020000*%
%ADD63R,0.900000X0.800000*%
%ADD64R,0.600000X1.550000*%
%ADD65R,1.200000X1.800000*%
%ADD66RoundRect,0.062500X-0.350000X-0.062500X0.350000X-0.062500X0.350000X0.062500X-0.350000X0.062500X0*%
%ADD67RoundRect,0.062500X-0.062500X-0.350000X0.062500X-0.350000X0.062500X0.350000X-0.062500X0.350000X0*%
%ADD68RoundRect,0.250000X-0.900000X1.000000X-0.900000X-1.000000X0.900000X-1.000000X0.900000X1.000000X0*%
%ADD69RoundRect,0.075000X0.075000X-0.725000X0.075000X0.725000X-0.075000X0.725000X-0.075000X-0.725000X0*%
%ADD70RoundRect,0.075000X0.725000X-0.075000X0.725000X0.075000X-0.725000X0.075000X-0.725000X-0.075000X0*%
%ADD71RoundRect,0.250000X-0.375000X-1.075000X0.375000X-1.075000X0.375000X1.075000X-0.375000X1.075000X0*%
G04 APERTURE END LIST*
D10*
%TO.C,V3*%
X98500000Y-52000000D03*
X98500000Y-62000000D03*
X108500000Y-62000000D03*
X108500000Y-52000000D03*
%TD*%
D11*
%TO.C,V_ADJ1*%
X118400000Y-60975000D03*
X117800000Y-60975000D03*
X117200000Y-60975000D03*
X116600000Y-60975000D03*
X116000000Y-60975000D03*
X116000000Y-64025000D03*
X116600000Y-64025000D03*
X117200000Y-64025000D03*
X117800000Y-64025000D03*
X118400000Y-64025000D03*
D12*
X117200000Y-62500000D03*
%TD*%
D13*
%TO.C,C23*%
X62075000Y-76100000D03*
X60525000Y-76100000D03*
%TD*%
D14*
%TO.C,D21*%
X54800000Y-67000000D03*
X54800000Y-68400000D03*
%TD*%
D15*
%TO.C,Q11*%
X94900000Y-106112500D03*
X93000000Y-106112500D03*
X93950000Y-108387500D03*
%TD*%
D16*
%TO.C,R29*%
X114500000Y-110485000D03*
X114500000Y-108835000D03*
%TD*%
D17*
%TO.C,T_TX1*%
X59400000Y-97400000D03*
%TD*%
D18*
%TO.C,R58*%
X90375001Y-115500000D03*
X92025001Y-115500000D03*
%TD*%
D17*
%TO.C,T_PE8*%
X97500000Y-91900000D03*
%TD*%
D19*
%TO.C,C19*%
X53800000Y-85700000D03*
X55350000Y-85700000D03*
%TD*%
D20*
%TO.C,C80*%
X72200000Y-79800000D03*
X72200000Y-81350000D03*
%TD*%
D13*
%TO.C,C51*%
X83375000Y-97000000D03*
X81825000Y-97000000D03*
%TD*%
D21*
%TO.C,R62*%
X93450001Y-115425000D03*
X93450001Y-117075000D03*
%TD*%
%TO.C,R32*%
X118250000Y-96010001D03*
X118250000Y-97660001D03*
%TD*%
D16*
%TO.C,R17*%
X121750000Y-87075000D03*
X121750000Y-85425000D03*
%TD*%
D19*
%TO.C,C78*%
X87425001Y-113250000D03*
X88975001Y-113250000D03*
%TD*%
D13*
%TO.C,C84*%
X59375000Y-85700000D03*
X57825000Y-85700000D03*
%TD*%
%TO.C,C32*%
X73400000Y-78000000D03*
X71850000Y-78000000D03*
%TD*%
D16*
%TO.C,R66*%
X60100000Y-53050000D03*
X60100000Y-51400000D03*
%TD*%
D15*
%TO.C,Q7*%
X89200000Y-106112499D03*
X87300000Y-106112499D03*
X88250000Y-108387499D03*
%TD*%
D22*
%TO.C,T3*%
X84250001Y-109000000D03*
X82050001Y-109000000D03*
X79850001Y-109000000D03*
X79850001Y-115700000D03*
X84250001Y-115700000D03*
%TD*%
D19*
%TO.C,C31*%
X92025000Y-85800000D03*
X93575000Y-85800000D03*
%TD*%
D21*
%TO.C,R69*%
X59300000Y-68200000D03*
X59300000Y-69850000D03*
%TD*%
D23*
%TO.C,D20*%
X60100000Y-54500000D03*
X60100000Y-56075000D03*
%TD*%
D16*
%TO.C,R28*%
X123250000Y-87075000D03*
X123250000Y-85425000D03*
%TD*%
D24*
%TO.C,C44*%
X70200000Y-93050000D03*
X70200000Y-94950000D03*
%TD*%
D17*
%TO.C,T_DAC_B1*%
X61800000Y-88200000D03*
%TD*%
D25*
%TO.C,D14*%
X68450000Y-111000000D03*
X71750000Y-111000000D03*
%TD*%
D16*
%TO.C,R15*%
X118750000Y-84575000D03*
X118750000Y-82925000D03*
%TD*%
D19*
%TO.C,C83*%
X53825000Y-84100000D03*
X55375000Y-84100000D03*
%TD*%
D26*
%TO.C,LS2*%
X121500000Y-94410001D03*
X121500000Y-99410001D03*
%TD*%
D17*
%TO.C,T_PE7*%
X94600000Y-91900000D03*
%TD*%
D27*
%TO.C,T1*%
X108800000Y-74750000D03*
X108800000Y-76950000D03*
X108800000Y-79150000D03*
X115500000Y-79150000D03*
X115500000Y-74750000D03*
%TD*%
D28*
%TO.C,C29*%
X58062500Y-106575000D03*
X58062500Y-105025000D03*
%TD*%
%TO.C,C79*%
X56900000Y-74475000D03*
X56900000Y-72925000D03*
%TD*%
D18*
%TO.C,R33*%
X115175000Y-102910000D03*
X116825000Y-102910000D03*
%TD*%
D16*
%TO.C,R30*%
X115250000Y-107485000D03*
X115250000Y-105835000D03*
%TD*%
%TO.C,R42*%
X123000000Y-106985000D03*
X123000000Y-105335000D03*
%TD*%
D29*
%TO.C,C48*%
X104300000Y-77800000D03*
X98200000Y-77800000D03*
%TD*%
D18*
%TO.C,R37*%
X74425001Y-118750000D03*
X76075001Y-118750000D03*
%TD*%
D30*
%TO.C,C58*%
X78400000Y-102300000D03*
X84500000Y-102300000D03*
%TD*%
D16*
%TO.C,R16*%
X120250000Y-84575000D03*
X120250000Y-82925000D03*
%TD*%
D17*
%TO.C,T_PC1*%
X66600000Y-99200000D03*
%TD*%
D31*
%TO.C,D3*%
X66012500Y-89490000D03*
X67587500Y-89490000D03*
%TD*%
D28*
%TO.C,C63*%
X88950001Y-117775000D03*
X88950001Y-116225000D03*
%TD*%
D32*
%TO.C,JP3*%
X79000000Y-75800000D03*
D33*
X79000000Y-74500000D03*
D34*
X79000000Y-73200000D03*
%TD*%
D15*
%TO.C,Q8*%
X75950000Y-106112500D03*
X74050000Y-106112500D03*
X75000000Y-108387500D03*
%TD*%
D18*
%TO.C,R55*%
X90875001Y-121750000D03*
X92525001Y-121750000D03*
%TD*%
D21*
%TO.C,R48*%
X74500001Y-115425000D03*
X74500001Y-117075000D03*
%TD*%
D16*
%TO.C,R2*%
X113500000Y-64750000D03*
X113500000Y-63100000D03*
%TD*%
D17*
%TO.C,T_GND2*%
X56600000Y-101150000D03*
%TD*%
%TO.C,T_PC3*%
X70100000Y-102700000D03*
%TD*%
D35*
%TO.C,Q5*%
X105862500Y-102960001D03*
X105862500Y-104860001D03*
X108137500Y-103910001D03*
%TD*%
D18*
%TO.C,R40*%
X73675000Y-103600000D03*
X75325000Y-103600000D03*
%TD*%
D17*
%TO.C,T_V_MCU1*%
X92800000Y-80500000D03*
%TD*%
D31*
%TO.C,D2*%
X66012500Y-87900000D03*
X67587500Y-87900000D03*
%TD*%
D18*
%TO.C,R1*%
X115250000Y-66000000D03*
X116900000Y-66000000D03*
%TD*%
D28*
%TO.C,C37*%
X85800000Y-76775000D03*
X85800000Y-75225000D03*
%TD*%
D17*
%TO.C,T_V_ref1*%
X64100000Y-75300000D03*
%TD*%
D19*
%TO.C,C43*%
X81825000Y-75200000D03*
X83375000Y-75200000D03*
%TD*%
D20*
%TO.C,C36*%
X92000000Y-82625000D03*
X92000000Y-84175000D03*
%TD*%
D36*
%TO.C,R46*%
X82925000Y-118800000D03*
X81275000Y-118800000D03*
%TD*%
D16*
%TO.C,R20*%
X114750000Y-90575000D03*
X114750000Y-88925000D03*
%TD*%
%TO.C,R21*%
X103500000Y-91410001D03*
X103500000Y-89760001D03*
%TD*%
D19*
%TO.C,C25*%
X54800000Y-80000000D03*
X56350000Y-80000000D03*
%TD*%
%TO.C,C77*%
X68475001Y-113250000D03*
X70025001Y-113250000D03*
%TD*%
D13*
%TO.C,C55*%
X117525000Y-108910000D03*
X115975000Y-108910000D03*
%TD*%
D37*
%TO.C,D7*%
X113500000Y-87400000D03*
X113500000Y-84100000D03*
%TD*%
D18*
%TO.C,R51*%
X93375001Y-118750000D03*
X95025001Y-118750000D03*
%TD*%
D16*
%TO.C,R23*%
X118500000Y-104485000D03*
X118500000Y-102835000D03*
%TD*%
%TO.C,R26*%
X103500001Y-104660001D03*
X103500001Y-103010001D03*
%TD*%
D38*
%TO.C,FB1*%
X91300000Y-97400000D03*
X89175000Y-97400000D03*
%TD*%
D39*
%TO.C,JP9*%
X70000001Y-121000000D03*
D33*
X70000001Y-122300000D03*
D40*
X70000001Y-123600000D03*
%TD*%
D28*
%TO.C,C15*%
X58400000Y-74475000D03*
X58400000Y-72925000D03*
%TD*%
D10*
%TO.C,V12*%
X71500000Y-52000000D03*
X71500000Y-62000000D03*
X81500000Y-62000000D03*
X81500000Y-52000000D03*
%TD*%
D41*
%TO.C,H3*%
X120000000Y-117600000D03*
X121697056Y-118302944D03*
X118302944Y-118302944D03*
X122400000Y-120000000D03*
D42*
X120000000Y-120000000D03*
D41*
X117600000Y-120000000D03*
X121697056Y-121697056D03*
X118302944Y-121697056D03*
X120000000Y-122400000D03*
%TD*%
D26*
%TO.C,LS1*%
X121750000Y-74500000D03*
X121750000Y-79500000D03*
%TD*%
D18*
%TO.C,R38*%
X74425001Y-120250000D03*
X76075001Y-120250000D03*
%TD*%
D41*
%TO.C,H4*%
X117600000Y-55000000D03*
X118302944Y-53302944D03*
X118302944Y-56697056D03*
X120000000Y-52600000D03*
D42*
X120000000Y-55000000D03*
D41*
X120000000Y-57400000D03*
X121697056Y-53302944D03*
X121697056Y-56697056D03*
X122400000Y-55000000D03*
%TD*%
D43*
%TO.C,J1*%
X56062500Y-105825000D03*
X56062500Y-106625000D03*
X56062500Y-107425000D03*
X56062500Y-108225000D03*
X56062500Y-109025000D03*
D44*
X53662500Y-103775000D03*
X53662500Y-111075000D03*
%TD*%
D45*
%TO.C,IN1*%
X52200000Y-62220000D03*
D46*
X52200000Y-64760000D03*
X52200000Y-67300000D03*
X52200000Y-69840000D03*
X52200000Y-72380000D03*
X52200000Y-74920000D03*
%TD*%
D25*
%TO.C,D19*%
X90550001Y-113500000D03*
X93850001Y-113500000D03*
%TD*%
D18*
%TO.C,R68*%
X56200000Y-67400000D03*
X57850000Y-67400000D03*
%TD*%
D16*
%TO.C,R9*%
X103750000Y-84750000D03*
X103750000Y-83100000D03*
%TD*%
D47*
%TO.C,C14*%
X65400000Y-52300000D03*
X65400000Y-58800000D03*
%TD*%
D33*
%TO.C,DAC_UP1*%
X61800000Y-68450000D03*
X61800000Y-69750000D03*
%TD*%
D10*
%TO.C,V5*%
X85000000Y-52000000D03*
X85000000Y-62000000D03*
X95000000Y-62000000D03*
X95000000Y-52000000D03*
%TD*%
D21*
%TO.C,R71*%
X51900000Y-83900000D03*
X51900000Y-85550000D03*
%TD*%
D35*
%TO.C,Q2*%
X106112500Y-83050000D03*
X106112500Y-84950000D03*
X108387500Y-84000000D03*
%TD*%
D48*
%TO.C,C16*%
X62050000Y-77900000D03*
X60150000Y-77900000D03*
%TD*%
D17*
%TO.C,T_RX1*%
X62600000Y-97400000D03*
%TD*%
D41*
%TO.C,H2*%
X52600000Y-120000000D03*
X53302944Y-118302944D03*
X53302944Y-121697056D03*
X55000000Y-117600000D03*
D42*
X55000000Y-120000000D03*
D41*
X55000000Y-122400000D03*
X56697056Y-118302944D03*
X56697056Y-121697056D03*
X57400000Y-120000000D03*
%TD*%
%TO.C,H1*%
X52600000Y-55000000D03*
X53302944Y-53302944D03*
X53302944Y-56697056D03*
X55000000Y-52600000D03*
D42*
X55000000Y-55000000D03*
D41*
X55000000Y-57400000D03*
X56697056Y-53302944D03*
X56697056Y-56697056D03*
X57400000Y-55000000D03*
%TD*%
D17*
%TO.C,T_Analog3*%
X67600000Y-117400000D03*
%TD*%
D49*
%TO.C,JP4*%
X120000000Y-86500000D03*
D50*
X118700000Y-86500000D03*
D51*
X117400000Y-86500000D03*
%TD*%
D18*
%TO.C,R41*%
X71925001Y-121750000D03*
X73575001Y-121750000D03*
%TD*%
D19*
%TO.C,C34*%
X77250000Y-96200000D03*
X78800000Y-96200000D03*
%TD*%
D52*
%TO.C,IC4*%
X61950000Y-71900000D03*
X61000000Y-71900000D03*
X60050000Y-71900000D03*
X60050000Y-74400000D03*
X61000000Y-74400000D03*
X61950000Y-74400000D03*
%TD*%
D25*
%TO.C,D15*%
X71600001Y-113500000D03*
X74900001Y-113500000D03*
%TD*%
D32*
%TO.C,JP10*%
X91450001Y-120000000D03*
D33*
X91450001Y-118700000D03*
D34*
X91450001Y-117400000D03*
%TD*%
D28*
%TO.C,C75*%
X113250000Y-90525000D03*
X113250000Y-88975000D03*
%TD*%
D18*
%TO.C,R11*%
X115425000Y-83000000D03*
X117075000Y-83000000D03*
%TD*%
%TO.C,R8*%
X65950000Y-91000000D03*
X67600000Y-91000000D03*
%TD*%
%TO.C,R5*%
X60062500Y-108025000D03*
X61712500Y-108025000D03*
%TD*%
D17*
%TO.C,T_Analog4*%
X87200000Y-118800000D03*
%TD*%
D28*
%TO.C,C68*%
X120200000Y-64200000D03*
X120200000Y-62650000D03*
%TD*%
D22*
%TO.C,T4*%
X103200001Y-108800000D03*
X101000001Y-108800000D03*
X98800001Y-108800000D03*
X98800001Y-115500000D03*
X103200001Y-115500000D03*
%TD*%
D18*
%TO.C,R35*%
X87500000Y-103750000D03*
X89150000Y-103750000D03*
%TD*%
D28*
%TO.C,C21*%
X61400000Y-94050000D03*
X61400000Y-92500000D03*
%TD*%
D18*
%TO.C,R7*%
X65950000Y-92500000D03*
X67600000Y-92500000D03*
%TD*%
D53*
%TO.C,LS4*%
X103450000Y-121750000D03*
X98450000Y-121750000D03*
%TD*%
D37*
%TO.C,D10*%
X110750000Y-110460001D03*
X110750000Y-107160001D03*
%TD*%
D39*
%TO.C,JP11*%
X88950001Y-121000000D03*
D33*
X88950001Y-122300000D03*
D40*
X88950001Y-123600000D03*
%TD*%
D17*
%TO.C,T_VBUS1*%
X53050000Y-101200000D03*
%TD*%
D18*
%TO.C,R43*%
X68425001Y-114750000D03*
X70075001Y-114750000D03*
%TD*%
D17*
%TO.C,T_PE9*%
X94700000Y-89100000D03*
%TD*%
D16*
%TO.C,R19*%
X115500000Y-87575000D03*
X115500000Y-85925000D03*
%TD*%
D54*
%TO.C,Q10*%
X106400000Y-110387500D03*
X108300000Y-110387500D03*
X107350000Y-108112500D03*
%TD*%
D55*
%TO.C,C20*%
X53850000Y-82300000D03*
X55750000Y-82300000D03*
%TD*%
D53*
%TO.C,LS3*%
X84500000Y-122000000D03*
X79500000Y-122000000D03*
%TD*%
D13*
%TO.C,C24*%
X59375000Y-80000000D03*
X57825000Y-80000000D03*
%TD*%
D18*
%TO.C,R52*%
X93375001Y-120250000D03*
X95025001Y-120250000D03*
%TD*%
D17*
%TO.C,T_TR_A1*%
X118800000Y-91400000D03*
%TD*%
D20*
%TO.C,C41*%
X72000000Y-93420000D03*
X72000000Y-94970000D03*
%TD*%
D56*
%TO.C,JP7*%
X120750000Y-108910000D03*
D50*
X122050000Y-108910000D03*
D57*
X123350000Y-108910000D03*
%TD*%
D25*
%TO.C,D18*%
X87400000Y-111200000D03*
X90700000Y-111200000D03*
%TD*%
D28*
%TO.C,C39*%
X87400000Y-76775000D03*
X87400000Y-75225000D03*
%TD*%
D18*
%TO.C,R56*%
X71925001Y-123250000D03*
X73575001Y-123250000D03*
%TD*%
D58*
%TO.C,JP1*%
X81350000Y-72200000D03*
D59*
X82650000Y-72200000D03*
%TD*%
D16*
%TO.C,R4*%
X103750000Y-71500000D03*
X103750000Y-69850000D03*
%TD*%
D49*
%TO.C,JP6*%
X119750000Y-106410000D03*
D50*
X118450000Y-106410000D03*
D51*
X117150000Y-106410000D03*
%TD*%
D60*
%TO.C,C28*%
X113500000Y-61500000D03*
X113500000Y-59600000D03*
%TD*%
D18*
%TO.C,R67*%
X90875001Y-123250000D03*
X92525001Y-123250000D03*
%TD*%
D17*
%TO.C,T_PE10*%
X97500000Y-89100000D03*
%TD*%
%TO.C,T_DAC_A1*%
X51200000Y-89000000D03*
%TD*%
D61*
%TO.C,IC3*%
X53462000Y-87125000D03*
X53462000Y-87775000D03*
X53462000Y-88425000D03*
X53462000Y-89075000D03*
X53462000Y-89725000D03*
X53462000Y-90375000D03*
X53462000Y-91025000D03*
X53462000Y-91675000D03*
X53462000Y-92325000D03*
X53462000Y-92975000D03*
X53462000Y-93625000D03*
X53462000Y-94275000D03*
X59338000Y-94275000D03*
X59338000Y-93625000D03*
X59338000Y-92975000D03*
X59338000Y-92325000D03*
X59338000Y-91675000D03*
X59338000Y-91025000D03*
X59338000Y-90375000D03*
X59338000Y-89725000D03*
X59338000Y-89075000D03*
X59338000Y-88425000D03*
X59338000Y-87775000D03*
X59338000Y-87125000D03*
D62*
X56400000Y-90700000D03*
%TD*%
D35*
%TO.C,Q4*%
X105862499Y-89710001D03*
X105862499Y-91610001D03*
X108137499Y-90660001D03*
%TD*%
D18*
%TO.C,R44*%
X71425001Y-115500000D03*
X73075001Y-115500000D03*
%TD*%
D21*
%TO.C,R61*%
X94950001Y-115425000D03*
X94950001Y-117075000D03*
%TD*%
D63*
%TO.C,Y1*%
X73100000Y-99350000D03*
X74950000Y-99350000D03*
X74950000Y-97900000D03*
X73100000Y-97900000D03*
%TD*%
D19*
%TO.C,C40*%
X81800000Y-76800000D03*
X83350000Y-76800000D03*
%TD*%
D32*
%TO.C,JP8*%
X72500001Y-120000000D03*
D33*
X72500001Y-118700000D03*
D34*
X72500001Y-117400000D03*
%TD*%
D18*
%TO.C,R13*%
X115425000Y-84500000D03*
X117075000Y-84500000D03*
%TD*%
D64*
%TO.C,J3*%
X72500000Y-75399000D03*
X73500000Y-75399000D03*
X74500000Y-75399000D03*
X75500000Y-75399000D03*
D65*
X76800000Y-72874000D03*
X71200000Y-72874000D03*
%TD*%
D28*
%TO.C,C59*%
X70000001Y-117775000D03*
X70000001Y-116225000D03*
%TD*%
%TO.C,C26*%
X65962500Y-103125000D03*
X65962500Y-101575000D03*
%TD*%
D66*
%TO.C,U1*%
X59987500Y-100275000D03*
X59987500Y-100775000D03*
X59987500Y-101275000D03*
X59987500Y-101775000D03*
X59987500Y-102275000D03*
D67*
X60925000Y-103212500D03*
X61425000Y-103212500D03*
X61925000Y-103212500D03*
X62425000Y-103212500D03*
X62925000Y-103212500D03*
D66*
X63862500Y-102275000D03*
X63862500Y-101775000D03*
X63862500Y-101275000D03*
X63862500Y-100775000D03*
X63862500Y-100275000D03*
D67*
X62925000Y-99337500D03*
X62425000Y-99337500D03*
X61925000Y-99337500D03*
X61425000Y-99337500D03*
X60925000Y-99337500D03*
D10*
X61925000Y-101275000D03*
%TD*%
D36*
%TO.C,R60*%
X101850000Y-118500000D03*
X100200000Y-118500000D03*
%TD*%
D18*
%TO.C,R34*%
X115175000Y-104410000D03*
X116825000Y-104410000D03*
%TD*%
D37*
%TO.C,D11*%
X113250000Y-107310000D03*
X113250000Y-104010000D03*
%TD*%
D27*
%TO.C,T2*%
X108550000Y-94660000D03*
X108550000Y-96860000D03*
X108550000Y-99060000D03*
X115250000Y-99060000D03*
X115250000Y-94660000D03*
%TD*%
D21*
%TO.C,R70*%
X61600000Y-83900000D03*
X61600000Y-85550000D03*
%TD*%
D16*
%TO.C,R27*%
X121500000Y-106985000D03*
X121500000Y-105335000D03*
%TD*%
D58*
%TO.C,JP2*%
X81350000Y-69600000D03*
D59*
X82650000Y-69600000D03*
%TD*%
D20*
%TO.C,C38*%
X93600000Y-82625000D03*
X93600000Y-84175000D03*
%TD*%
D21*
%TO.C,R47*%
X76000001Y-115425000D03*
X76000001Y-117075000D03*
%TD*%
D68*
%TO.C,D1*%
X61100000Y-61550000D03*
X61100000Y-65850000D03*
%TD*%
D19*
%TO.C,C35*%
X89200000Y-95700000D03*
X90750000Y-95700000D03*
%TD*%
D13*
%TO.C,C18*%
X59375000Y-84100000D03*
X57825000Y-84100000D03*
%TD*%
D17*
%TO.C,T_Analog2*%
X122300000Y-112800000D03*
%TD*%
D20*
%TO.C,C30*%
X58062500Y-108025000D03*
X58062500Y-109575000D03*
%TD*%
D48*
%TO.C,C17*%
X59350000Y-82300000D03*
X57450000Y-82300000D03*
%TD*%
D69*
%TO.C,U2*%
X75875000Y-94375000D03*
X76375000Y-94375000D03*
X76875000Y-94375000D03*
X77375000Y-94375000D03*
X77875000Y-94375000D03*
X78375000Y-94375000D03*
X78875000Y-94375000D03*
X79375000Y-94375000D03*
X79875000Y-94375000D03*
X80375000Y-94375000D03*
X80875000Y-94375000D03*
X81375000Y-94375000D03*
X81875000Y-94375000D03*
X82375000Y-94375000D03*
X82875000Y-94375000D03*
X83375000Y-94375000D03*
X83875000Y-94375000D03*
X84375000Y-94375000D03*
X84875000Y-94375000D03*
X85375000Y-94375000D03*
X85875000Y-94375000D03*
X86375000Y-94375000D03*
X86875000Y-94375000D03*
X87375000Y-94375000D03*
X87875000Y-94375000D03*
D70*
X89550000Y-92700000D03*
X89550000Y-92200000D03*
X89550000Y-91700000D03*
X89550000Y-91200000D03*
X89550000Y-90700000D03*
X89550000Y-90200000D03*
X89550000Y-89700000D03*
X89550000Y-89200000D03*
X89550000Y-88700000D03*
X89550000Y-88200000D03*
X89550000Y-87700000D03*
X89550000Y-87200000D03*
X89550000Y-86700000D03*
X89550000Y-86200000D03*
X89550000Y-85700000D03*
X89550000Y-85200000D03*
X89550000Y-84700000D03*
X89550000Y-84200000D03*
X89550000Y-83700000D03*
X89550000Y-83200000D03*
X89550000Y-82700000D03*
X89550000Y-82200000D03*
X89550000Y-81700000D03*
X89550000Y-81200000D03*
X89550000Y-80700000D03*
D69*
X87875000Y-79025000D03*
X87375000Y-79025000D03*
X86875000Y-79025000D03*
X86375000Y-79025000D03*
X85875000Y-79025000D03*
X85375000Y-79025000D03*
X84875000Y-79025000D03*
X84375000Y-79025000D03*
X83875000Y-79025000D03*
X83375000Y-79025000D03*
X82875000Y-79025000D03*
X82375000Y-79025000D03*
X81875000Y-79025000D03*
X81375000Y-79025000D03*
X80875000Y-79025000D03*
X80375000Y-79025000D03*
X79875000Y-79025000D03*
X79375000Y-79025000D03*
X78875000Y-79025000D03*
X78375000Y-79025000D03*
X77875000Y-79025000D03*
X77375000Y-79025000D03*
X76875000Y-79025000D03*
X76375000Y-79025000D03*
X75875000Y-79025000D03*
D70*
X74200000Y-80700000D03*
X74200000Y-81200000D03*
X74200000Y-81700000D03*
X74200000Y-82200000D03*
X74200000Y-82700000D03*
X74200000Y-83200000D03*
X74200000Y-83700000D03*
X74200000Y-84200000D03*
X74200000Y-84700000D03*
X74200000Y-85200000D03*
X74200000Y-85700000D03*
X74200000Y-86200000D03*
X74200000Y-86700000D03*
X74200000Y-87200000D03*
X74200000Y-87700000D03*
X74200000Y-88200000D03*
X74200000Y-88700000D03*
X74200000Y-89200000D03*
X74200000Y-89700000D03*
X74200000Y-90200000D03*
X74200000Y-90700000D03*
X74200000Y-91200000D03*
X74200000Y-91700000D03*
X74200000Y-92200000D03*
X74200000Y-92700000D03*
%TD*%
D18*
%TO.C,R6*%
X60062500Y-106475000D03*
X61712500Y-106475000D03*
%TD*%
D37*
%TO.C,D6*%
X111000000Y-90550000D03*
X111000000Y-87250000D03*
%TD*%
D18*
%TO.C,R57*%
X87375001Y-114750000D03*
X89025001Y-114750000D03*
%TD*%
D21*
%TO.C,R10*%
X118500000Y-76100000D03*
X118500000Y-77750000D03*
%TD*%
D56*
%TO.C,JP5*%
X121000000Y-89000000D03*
D50*
X122300000Y-89000000D03*
D57*
X123600000Y-89000000D03*
%TD*%
D17*
%TO.C,T_PC2*%
X69000000Y-100300000D03*
%TD*%
D30*
%TO.C,C62*%
X107800000Y-117400000D03*
X113900000Y-117400000D03*
%TD*%
D29*
%TO.C,C54*%
X103750000Y-97800000D03*
X97650000Y-97800000D03*
%TD*%
D18*
%TO.C,R54*%
X93200000Y-103750001D03*
X94850000Y-103750001D03*
%TD*%
D16*
%TO.C,R24*%
X120000000Y-104485000D03*
X120000000Y-102835000D03*
%TD*%
D71*
%TO.C,F1*%
X55000000Y-64800000D03*
X57800000Y-64800000D03*
%TD*%
D60*
%TO.C,C22*%
X63400000Y-93500000D03*
X63400000Y-91600000D03*
%TD*%
D28*
%TO.C,C76*%
X113000000Y-110435000D03*
X113000000Y-108885000D03*
%TD*%
D13*
%TO.C,C50*%
X117775000Y-89000000D03*
X116225000Y-89000000D03*
%TD*%
D35*
%TO.C,Q1*%
X106112500Y-69800000D03*
X106112500Y-71700000D03*
X108387500Y-70750000D03*
%TD*%
M02*
