%TF.GenerationSoftware,KiCad,Pcbnew,8.0.3*%
%TF.CreationDate,2024-09-23T16:56:09+02:00*%
%TF.ProjectId,USAN_r0,5553414e-5f72-4302-9e6b-696361645f70,rev?*%
%TF.SameCoordinates,Original*%
%TF.FileFunction,Legend,Bot*%
%TF.FilePolarity,Positive*%
%FSLAX46Y46*%
G04 Gerber Fmt 4.6, Leading zero omitted, Abs format (unit mm)*
G04 Created by KiCad (PCBNEW 8.0.3) date 2024-09-23 16:56:09*
%MOMM*%
%LPD*%
G01*
G04 APERTURE LIST*
%ADD10C,0.160000*%
%ADD11C,0.150000*%
%ADD12C,0.120000*%
%ADD13C,0.200000*%
%ADD14C,0.000000*%
G04 APERTURE END LIST*
D10*
X63658504Y-74050000D02*
X99408504Y-74050000D01*
X60106641Y-113419299D02*
X60106641Y-114228822D01*
X60106641Y-114228822D02*
X60059022Y-114324060D01*
X60059022Y-114324060D02*
X60011403Y-114371680D01*
X60011403Y-114371680D02*
X59916165Y-114419299D01*
X59916165Y-114419299D02*
X59725689Y-114419299D01*
X59725689Y-114419299D02*
X59630451Y-114371680D01*
X59630451Y-114371680D02*
X59582832Y-114324060D01*
X59582832Y-114324060D02*
X59535213Y-114228822D01*
X59535213Y-114228822D02*
X59535213Y-113419299D01*
X59106641Y-114371680D02*
X58963784Y-114419299D01*
X58963784Y-114419299D02*
X58725689Y-114419299D01*
X58725689Y-114419299D02*
X58630451Y-114371680D01*
X58630451Y-114371680D02*
X58582832Y-114324060D01*
X58582832Y-114324060D02*
X58535213Y-114228822D01*
X58535213Y-114228822D02*
X58535213Y-114133584D01*
X58535213Y-114133584D02*
X58582832Y-114038346D01*
X58582832Y-114038346D02*
X58630451Y-113990727D01*
X58630451Y-113990727D02*
X58725689Y-113943108D01*
X58725689Y-113943108D02*
X58916165Y-113895489D01*
X58916165Y-113895489D02*
X59011403Y-113847870D01*
X59011403Y-113847870D02*
X59059022Y-113800251D01*
X59059022Y-113800251D02*
X59106641Y-113705013D01*
X59106641Y-113705013D02*
X59106641Y-113609775D01*
X59106641Y-113609775D02*
X59059022Y-113514537D01*
X59059022Y-113514537D02*
X59011403Y-113466918D01*
X59011403Y-113466918D02*
X58916165Y-113419299D01*
X58916165Y-113419299D02*
X58678070Y-113419299D01*
X58678070Y-113419299D02*
X58535213Y-113466918D01*
X57773308Y-113895489D02*
X57630451Y-113943108D01*
X57630451Y-113943108D02*
X57582832Y-113990727D01*
X57582832Y-113990727D02*
X57535213Y-114085965D01*
X57535213Y-114085965D02*
X57535213Y-114228822D01*
X57535213Y-114228822D02*
X57582832Y-114324060D01*
X57582832Y-114324060D02*
X57630451Y-114371680D01*
X57630451Y-114371680D02*
X57725689Y-114419299D01*
X57725689Y-114419299D02*
X58106641Y-114419299D01*
X58106641Y-114419299D02*
X58106641Y-113419299D01*
X58106641Y-113419299D02*
X57773308Y-113419299D01*
X57773308Y-113419299D02*
X57678070Y-113466918D01*
X57678070Y-113466918D02*
X57630451Y-113514537D01*
X57630451Y-113514537D02*
X57582832Y-113609775D01*
X57582832Y-113609775D02*
X57582832Y-113705013D01*
X57582832Y-113705013D02*
X57630451Y-113800251D01*
X57630451Y-113800251D02*
X57678070Y-113847870D01*
X57678070Y-113847870D02*
X57773308Y-113895489D01*
X57773308Y-113895489D02*
X58106641Y-113895489D01*
X57344737Y-114514537D02*
X56582832Y-114514537D01*
X56344736Y-114419299D02*
X56344736Y-113419299D01*
X55868546Y-114419299D02*
X55868546Y-113419299D01*
X55868546Y-113419299D02*
X55630451Y-113419299D01*
X55630451Y-113419299D02*
X55487594Y-113466918D01*
X55487594Y-113466918D02*
X55392356Y-113562156D01*
X55392356Y-113562156D02*
X55344737Y-113657394D01*
X55344737Y-113657394D02*
X55297118Y-113847870D01*
X55297118Y-113847870D02*
X55297118Y-113990727D01*
X55297118Y-113990727D02*
X55344737Y-114181203D01*
X55344737Y-114181203D02*
X55392356Y-114276441D01*
X55392356Y-114276441D02*
X55487594Y-114371680D01*
X55487594Y-114371680D02*
X55630451Y-114419299D01*
X55630451Y-114419299D02*
X55868546Y-114419299D01*
X59832832Y-66001918D02*
X59928070Y-65954299D01*
X59928070Y-65954299D02*
X60070927Y-65954299D01*
X60070927Y-65954299D02*
X60213784Y-66001918D01*
X60213784Y-66001918D02*
X60309022Y-66097156D01*
X60309022Y-66097156D02*
X60356641Y-66192394D01*
X60356641Y-66192394D02*
X60404260Y-66382870D01*
X60404260Y-66382870D02*
X60404260Y-66525727D01*
X60404260Y-66525727D02*
X60356641Y-66716203D01*
X60356641Y-66716203D02*
X60309022Y-66811441D01*
X60309022Y-66811441D02*
X60213784Y-66906680D01*
X60213784Y-66906680D02*
X60070927Y-66954299D01*
X60070927Y-66954299D02*
X59975689Y-66954299D01*
X59975689Y-66954299D02*
X59832832Y-66906680D01*
X59832832Y-66906680D02*
X59785213Y-66859060D01*
X59785213Y-66859060D02*
X59785213Y-66525727D01*
X59785213Y-66525727D02*
X59975689Y-66525727D01*
X59356641Y-66954299D02*
X59356641Y-65954299D01*
X59356641Y-65954299D02*
X58785213Y-66954299D01*
X58785213Y-66954299D02*
X58785213Y-65954299D01*
X58309022Y-66954299D02*
X58309022Y-65954299D01*
X58309022Y-65954299D02*
X58070927Y-65954299D01*
X58070927Y-65954299D02*
X57928070Y-66001918D01*
X57928070Y-66001918D02*
X57832832Y-66097156D01*
X57832832Y-66097156D02*
X57785213Y-66192394D01*
X57785213Y-66192394D02*
X57737594Y-66382870D01*
X57737594Y-66382870D02*
X57737594Y-66525727D01*
X57737594Y-66525727D02*
X57785213Y-66716203D01*
X57785213Y-66716203D02*
X57832832Y-66811441D01*
X57832832Y-66811441D02*
X57928070Y-66906680D01*
X57928070Y-66906680D02*
X58070927Y-66954299D01*
X58070927Y-66954299D02*
X58309022Y-66954299D01*
X57547118Y-67049537D02*
X56785213Y-67049537D01*
X56261403Y-65954299D02*
X56261403Y-66668584D01*
X56261403Y-66668584D02*
X56309022Y-66811441D01*
X56309022Y-66811441D02*
X56404260Y-66906680D01*
X56404260Y-66906680D02*
X56547117Y-66954299D01*
X56547117Y-66954299D02*
X56642355Y-66954299D01*
X55785212Y-66954299D02*
X55785212Y-65954299D01*
X55785212Y-65954299D02*
X55451879Y-66668584D01*
X55451879Y-66668584D02*
X55118546Y-65954299D01*
X55118546Y-65954299D02*
X55118546Y-66954299D01*
X54642355Y-66954299D02*
X54642355Y-65954299D01*
X54642355Y-65954299D02*
X54261403Y-65954299D01*
X54261403Y-65954299D02*
X54166165Y-66001918D01*
X54166165Y-66001918D02*
X54118546Y-66049537D01*
X54118546Y-66049537D02*
X54070927Y-66144775D01*
X54070927Y-66144775D02*
X54070927Y-66287632D01*
X54070927Y-66287632D02*
X54118546Y-66382870D01*
X54118546Y-66382870D02*
X54166165Y-66430489D01*
X54166165Y-66430489D02*
X54261403Y-66478108D01*
X54261403Y-66478108D02*
X54642355Y-66478108D01*
X86256641Y-56888346D02*
X85494737Y-56888346D01*
X85875689Y-57269299D02*
X85875689Y-56507394D01*
X84542356Y-56269299D02*
X85018546Y-56269299D01*
X85018546Y-56269299D02*
X85066165Y-56745489D01*
X85066165Y-56745489D02*
X85018546Y-56697870D01*
X85018546Y-56697870D02*
X84923308Y-56650251D01*
X84923308Y-56650251D02*
X84685213Y-56650251D01*
X84685213Y-56650251D02*
X84589975Y-56697870D01*
X84589975Y-56697870D02*
X84542356Y-56745489D01*
X84542356Y-56745489D02*
X84494737Y-56840727D01*
X84494737Y-56840727D02*
X84494737Y-57078822D01*
X84494737Y-57078822D02*
X84542356Y-57174060D01*
X84542356Y-57174060D02*
X84589975Y-57221680D01*
X84589975Y-57221680D02*
X84685213Y-57269299D01*
X84685213Y-57269299D02*
X84923308Y-57269299D01*
X84923308Y-57269299D02*
X85018546Y-57221680D01*
X85018546Y-57221680D02*
X85066165Y-57174060D01*
X84209022Y-56269299D02*
X83875689Y-57269299D01*
X83875689Y-57269299D02*
X83542356Y-56269299D01*
X87556641Y-67788346D02*
X86794737Y-67788346D01*
X85842356Y-67169299D02*
X86318546Y-67169299D01*
X86318546Y-67169299D02*
X86366165Y-67645489D01*
X86366165Y-67645489D02*
X86318546Y-67597870D01*
X86318546Y-67597870D02*
X86223308Y-67550251D01*
X86223308Y-67550251D02*
X85985213Y-67550251D01*
X85985213Y-67550251D02*
X85889975Y-67597870D01*
X85889975Y-67597870D02*
X85842356Y-67645489D01*
X85842356Y-67645489D02*
X85794737Y-67740727D01*
X85794737Y-67740727D02*
X85794737Y-67978822D01*
X85794737Y-67978822D02*
X85842356Y-68074060D01*
X85842356Y-68074060D02*
X85889975Y-68121680D01*
X85889975Y-68121680D02*
X85985213Y-68169299D01*
X85985213Y-68169299D02*
X86223308Y-68169299D01*
X86223308Y-68169299D02*
X86318546Y-68121680D01*
X86318546Y-68121680D02*
X86366165Y-68074060D01*
X85509022Y-67169299D02*
X85175689Y-68169299D01*
X85175689Y-68169299D02*
X84842356Y-67169299D01*
X73506641Y-56788346D02*
X72744737Y-56788346D01*
X73125689Y-57169299D02*
X73125689Y-56407394D01*
X71744737Y-57169299D02*
X72316165Y-57169299D01*
X72030451Y-57169299D02*
X72030451Y-56169299D01*
X72030451Y-56169299D02*
X72125689Y-56312156D01*
X72125689Y-56312156D02*
X72220927Y-56407394D01*
X72220927Y-56407394D02*
X72316165Y-56455013D01*
X71363784Y-56264537D02*
X71316165Y-56216918D01*
X71316165Y-56216918D02*
X71220927Y-56169299D01*
X71220927Y-56169299D02*
X70982832Y-56169299D01*
X70982832Y-56169299D02*
X70887594Y-56216918D01*
X70887594Y-56216918D02*
X70839975Y-56264537D01*
X70839975Y-56264537D02*
X70792356Y-56359775D01*
X70792356Y-56359775D02*
X70792356Y-56455013D01*
X70792356Y-56455013D02*
X70839975Y-56597870D01*
X70839975Y-56597870D02*
X71411403Y-57169299D01*
X71411403Y-57169299D02*
X70792356Y-57169299D01*
X70506641Y-56169299D02*
X70173308Y-57169299D01*
X70173308Y-57169299D02*
X69839975Y-56169299D01*
X120180451Y-113269299D02*
X120656641Y-113269299D01*
X120656641Y-113269299D02*
X120656641Y-112269299D01*
X119989974Y-112269299D02*
X119656641Y-113269299D01*
X119656641Y-113269299D02*
X119323308Y-112269299D01*
X119228070Y-113364537D02*
X118466165Y-113364537D01*
X117704260Y-113269299D02*
X118275688Y-113269299D01*
X117989974Y-113269299D02*
X117989974Y-112269299D01*
X117989974Y-112269299D02*
X118085212Y-112412156D01*
X118085212Y-112412156D02*
X118180450Y-112507394D01*
X118180450Y-112507394D02*
X118275688Y-112555013D01*
X65380451Y-117969299D02*
X65856641Y-117969299D01*
X65856641Y-117969299D02*
X65856641Y-116969299D01*
X65189974Y-116969299D02*
X64856641Y-117969299D01*
X64856641Y-117969299D02*
X64523308Y-116969299D01*
X64428070Y-118064537D02*
X63666165Y-118064537D01*
X63475688Y-117064537D02*
X63428069Y-117016918D01*
X63428069Y-117016918D02*
X63332831Y-116969299D01*
X63332831Y-116969299D02*
X63094736Y-116969299D01*
X63094736Y-116969299D02*
X62999498Y-117016918D01*
X62999498Y-117016918D02*
X62951879Y-117064537D01*
X62951879Y-117064537D02*
X62904260Y-117159775D01*
X62904260Y-117159775D02*
X62904260Y-117255013D01*
X62904260Y-117255013D02*
X62951879Y-117397870D01*
X62951879Y-117397870D02*
X63523307Y-117969299D01*
X63523307Y-117969299D02*
X62904260Y-117969299D01*
X64199498Y-53869299D02*
X63866165Y-54869299D01*
X63866165Y-54869299D02*
X63532832Y-53869299D01*
X63437594Y-54964537D02*
X62675689Y-54964537D01*
X62437593Y-54869299D02*
X62437593Y-54202632D01*
X62437593Y-53869299D02*
X62485212Y-53916918D01*
X62485212Y-53916918D02*
X62437593Y-53964537D01*
X62437593Y-53964537D02*
X62389974Y-53916918D01*
X62389974Y-53916918D02*
X62437593Y-53869299D01*
X62437593Y-53869299D02*
X62437593Y-53964537D01*
X61961403Y-54202632D02*
X61961403Y-54869299D01*
X61961403Y-54297870D02*
X61913784Y-54250251D01*
X61913784Y-54250251D02*
X61818546Y-54202632D01*
X61818546Y-54202632D02*
X61675689Y-54202632D01*
X61675689Y-54202632D02*
X61580451Y-54250251D01*
X61580451Y-54250251D02*
X61532832Y-54345489D01*
X61532832Y-54345489D02*
X61532832Y-54869299D01*
X120799498Y-69469299D02*
X120466165Y-70469299D01*
X120466165Y-70469299D02*
X120132832Y-69469299D01*
X120037594Y-70564537D02*
X119275689Y-70564537D01*
X118609022Y-70469299D02*
X118609022Y-69469299D01*
X118609022Y-70421680D02*
X118704260Y-70469299D01*
X118704260Y-70469299D02*
X118894736Y-70469299D01*
X118894736Y-70469299D02*
X118989974Y-70421680D01*
X118989974Y-70421680D02*
X119037593Y-70374060D01*
X119037593Y-70374060D02*
X119085212Y-70278822D01*
X119085212Y-70278822D02*
X119085212Y-69993108D01*
X119085212Y-69993108D02*
X119037593Y-69897870D01*
X119037593Y-69897870D02*
X118989974Y-69850251D01*
X118989974Y-69850251D02*
X118894736Y-69802632D01*
X118894736Y-69802632D02*
X118704260Y-69802632D01*
X118704260Y-69802632D02*
X118609022Y-69850251D01*
X118132831Y-70469299D02*
X118132831Y-69802632D01*
X118132831Y-69993108D02*
X118085212Y-69897870D01*
X118085212Y-69897870D02*
X118037593Y-69850251D01*
X118037593Y-69850251D02*
X117942355Y-69802632D01*
X117942355Y-69802632D02*
X117847117Y-69802632D01*
X117513783Y-70469299D02*
X117513783Y-69802632D01*
X117513783Y-69469299D02*
X117561402Y-69516918D01*
X117561402Y-69516918D02*
X117513783Y-69564537D01*
X117513783Y-69564537D02*
X117466164Y-69516918D01*
X117466164Y-69516918D02*
X117513783Y-69469299D01*
X117513783Y-69469299D02*
X117513783Y-69564537D01*
X117132831Y-69802632D02*
X116894736Y-70469299D01*
X116894736Y-70469299D02*
X116656641Y-69802632D01*
X115894736Y-70421680D02*
X115989974Y-70469299D01*
X115989974Y-70469299D02*
X116180450Y-70469299D01*
X116180450Y-70469299D02*
X116275688Y-70421680D01*
X116275688Y-70421680D02*
X116323307Y-70326441D01*
X116323307Y-70326441D02*
X116323307Y-69945489D01*
X116323307Y-69945489D02*
X116275688Y-69850251D01*
X116275688Y-69850251D02*
X116180450Y-69802632D01*
X116180450Y-69802632D02*
X115989974Y-69802632D01*
X115989974Y-69802632D02*
X115894736Y-69850251D01*
X115894736Y-69850251D02*
X115847117Y-69945489D01*
X115847117Y-69945489D02*
X115847117Y-70040727D01*
X115847117Y-70040727D02*
X116323307Y-70135965D01*
X84980451Y-119219299D02*
X85456641Y-119219299D01*
X85456641Y-119219299D02*
X85456641Y-118219299D01*
X84789974Y-118219299D02*
X84456641Y-119219299D01*
X84456641Y-119219299D02*
X84123308Y-118219299D01*
X84028070Y-119314537D02*
X83266165Y-119314537D01*
X83123307Y-118219299D02*
X82504260Y-118219299D01*
X82504260Y-118219299D02*
X82837593Y-118600251D01*
X82837593Y-118600251D02*
X82694736Y-118600251D01*
X82694736Y-118600251D02*
X82599498Y-118647870D01*
X82599498Y-118647870D02*
X82551879Y-118695489D01*
X82551879Y-118695489D02*
X82504260Y-118790727D01*
X82504260Y-118790727D02*
X82504260Y-119028822D01*
X82504260Y-119028822D02*
X82551879Y-119124060D01*
X82551879Y-119124060D02*
X82599498Y-119171680D01*
X82599498Y-119171680D02*
X82694736Y-119219299D01*
X82694736Y-119219299D02*
X82980450Y-119219299D01*
X82980450Y-119219299D02*
X83075688Y-119171680D01*
X83075688Y-119171680D02*
X83123307Y-119124060D01*
X117080451Y-91869299D02*
X117556641Y-91869299D01*
X117556641Y-91869299D02*
X117556641Y-90869299D01*
X116889974Y-90869299D02*
X116556641Y-91869299D01*
X116556641Y-91869299D02*
X116223308Y-90869299D01*
X116128070Y-91964537D02*
X115366165Y-91964537D01*
X114937593Y-90869299D02*
X114842355Y-90869299D01*
X114842355Y-90869299D02*
X114747117Y-90916918D01*
X114747117Y-90916918D02*
X114699498Y-90964537D01*
X114699498Y-90964537D02*
X114651879Y-91059775D01*
X114651879Y-91059775D02*
X114604260Y-91250251D01*
X114604260Y-91250251D02*
X114604260Y-91488346D01*
X114604260Y-91488346D02*
X114651879Y-91678822D01*
X114651879Y-91678822D02*
X114699498Y-91774060D01*
X114699498Y-91774060D02*
X114747117Y-91821680D01*
X114747117Y-91821680D02*
X114842355Y-91869299D01*
X114842355Y-91869299D02*
X114937593Y-91869299D01*
X114937593Y-91869299D02*
X115032831Y-91821680D01*
X115032831Y-91821680D02*
X115080450Y-91774060D01*
X115080450Y-91774060D02*
X115128069Y-91678822D01*
X115128069Y-91678822D02*
X115175688Y-91488346D01*
X115175688Y-91488346D02*
X115175688Y-91250251D01*
X115175688Y-91250251D02*
X115128069Y-91059775D01*
X115128069Y-91059775D02*
X115080450Y-90964537D01*
X115080450Y-90964537D02*
X115032831Y-90916918D01*
X115032831Y-90916918D02*
X114937593Y-90869299D01*
X109151879Y-56269299D02*
X108532832Y-56269299D01*
X108532832Y-56269299D02*
X108866165Y-56650251D01*
X108866165Y-56650251D02*
X108723308Y-56650251D01*
X108723308Y-56650251D02*
X108628070Y-56697870D01*
X108628070Y-56697870D02*
X108580451Y-56745489D01*
X108580451Y-56745489D02*
X108532832Y-56840727D01*
X108532832Y-56840727D02*
X108532832Y-57078822D01*
X108532832Y-57078822D02*
X108580451Y-57174060D01*
X108580451Y-57174060D02*
X108628070Y-57221680D01*
X108628070Y-57221680D02*
X108723308Y-57269299D01*
X108723308Y-57269299D02*
X109009022Y-57269299D01*
X109009022Y-57269299D02*
X109104260Y-57221680D01*
X109104260Y-57221680D02*
X109151879Y-57174060D01*
X108247117Y-56269299D02*
X107913784Y-57269299D01*
X107913784Y-57269299D02*
X107580451Y-56269299D01*
X107342355Y-56269299D02*
X106723308Y-56269299D01*
X106723308Y-56269299D02*
X107056641Y-56650251D01*
X107056641Y-56650251D02*
X106913784Y-56650251D01*
X106913784Y-56650251D02*
X106818546Y-56697870D01*
X106818546Y-56697870D02*
X106770927Y-56745489D01*
X106770927Y-56745489D02*
X106723308Y-56840727D01*
X106723308Y-56840727D02*
X106723308Y-57078822D01*
X106723308Y-57078822D02*
X106770927Y-57174060D01*
X106770927Y-57174060D02*
X106818546Y-57221680D01*
X106818546Y-57221680D02*
X106913784Y-57269299D01*
X106913784Y-57269299D02*
X107199498Y-57269299D01*
X107199498Y-57269299D02*
X107294736Y-57221680D01*
X107294736Y-57221680D02*
X107342355Y-57174060D01*
X69606641Y-67638346D02*
X68844737Y-67638346D01*
X67844737Y-68019299D02*
X68416165Y-68019299D01*
X68130451Y-68019299D02*
X68130451Y-67019299D01*
X68130451Y-67019299D02*
X68225689Y-67162156D01*
X68225689Y-67162156D02*
X68320927Y-67257394D01*
X68320927Y-67257394D02*
X68416165Y-67305013D01*
X67463784Y-67114537D02*
X67416165Y-67066918D01*
X67416165Y-67066918D02*
X67320927Y-67019299D01*
X67320927Y-67019299D02*
X67082832Y-67019299D01*
X67082832Y-67019299D02*
X66987594Y-67066918D01*
X66987594Y-67066918D02*
X66939975Y-67114537D01*
X66939975Y-67114537D02*
X66892356Y-67209775D01*
X66892356Y-67209775D02*
X66892356Y-67305013D01*
X66892356Y-67305013D02*
X66939975Y-67447870D01*
X66939975Y-67447870D02*
X67511403Y-68019299D01*
X67511403Y-68019299D02*
X66892356Y-68019299D01*
X66606641Y-67019299D02*
X66273308Y-68019299D01*
X66273308Y-68019299D02*
X65939975Y-67019299D01*
X66032832Y-61716918D02*
X66128070Y-61669299D01*
X66128070Y-61669299D02*
X66270927Y-61669299D01*
X66270927Y-61669299D02*
X66413784Y-61716918D01*
X66413784Y-61716918D02*
X66509022Y-61812156D01*
X66509022Y-61812156D02*
X66556641Y-61907394D01*
X66556641Y-61907394D02*
X66604260Y-62097870D01*
X66604260Y-62097870D02*
X66604260Y-62240727D01*
X66604260Y-62240727D02*
X66556641Y-62431203D01*
X66556641Y-62431203D02*
X66509022Y-62526441D01*
X66509022Y-62526441D02*
X66413784Y-62621680D01*
X66413784Y-62621680D02*
X66270927Y-62669299D01*
X66270927Y-62669299D02*
X66175689Y-62669299D01*
X66175689Y-62669299D02*
X66032832Y-62621680D01*
X66032832Y-62621680D02*
X65985213Y-62574060D01*
X65985213Y-62574060D02*
X65985213Y-62240727D01*
X65985213Y-62240727D02*
X66175689Y-62240727D01*
X65556641Y-62669299D02*
X65556641Y-61669299D01*
X65556641Y-61669299D02*
X64985213Y-62669299D01*
X64985213Y-62669299D02*
X64985213Y-61669299D01*
X64509022Y-62669299D02*
X64509022Y-61669299D01*
X64509022Y-61669299D02*
X64270927Y-61669299D01*
X64270927Y-61669299D02*
X64128070Y-61716918D01*
X64128070Y-61716918D02*
X64032832Y-61812156D01*
X64032832Y-61812156D02*
X63985213Y-61907394D01*
X63985213Y-61907394D02*
X63937594Y-62097870D01*
X63937594Y-62097870D02*
X63937594Y-62240727D01*
X63937594Y-62240727D02*
X63985213Y-62431203D01*
X63985213Y-62431203D02*
X64032832Y-62526441D01*
X64032832Y-62526441D02*
X64128070Y-62621680D01*
X64128070Y-62621680D02*
X64270927Y-62669299D01*
X64270927Y-62669299D02*
X64509022Y-62669299D01*
X98315145Y-75669131D02*
X98315145Y-74669131D01*
X97838955Y-75002464D02*
X97838955Y-75669131D01*
X97838955Y-75097702D02*
X97791336Y-75050083D01*
X97791336Y-75050083D02*
X97696098Y-75002464D01*
X97696098Y-75002464D02*
X97553241Y-75002464D01*
X97553241Y-75002464D02*
X97458003Y-75050083D01*
X97458003Y-75050083D02*
X97410384Y-75145321D01*
X97410384Y-75145321D02*
X97410384Y-75669131D01*
X96172288Y-75669131D02*
X96172288Y-74669131D01*
X95600860Y-75669131D02*
X96029431Y-75097702D01*
X95600860Y-74669131D02*
X96172288Y-75240559D01*
X95029431Y-75669131D02*
X95124669Y-75621512D01*
X95124669Y-75621512D02*
X95172288Y-75573892D01*
X95172288Y-75573892D02*
X95219907Y-75478654D01*
X95219907Y-75478654D02*
X95219907Y-75192940D01*
X95219907Y-75192940D02*
X95172288Y-75097702D01*
X95172288Y-75097702D02*
X95124669Y-75050083D01*
X95124669Y-75050083D02*
X95029431Y-75002464D01*
X95029431Y-75002464D02*
X94886574Y-75002464D01*
X94886574Y-75002464D02*
X94791336Y-75050083D01*
X94791336Y-75050083D02*
X94743717Y-75097702D01*
X94743717Y-75097702D02*
X94696098Y-75192940D01*
X94696098Y-75192940D02*
X94696098Y-75478654D01*
X94696098Y-75478654D02*
X94743717Y-75573892D01*
X94743717Y-75573892D02*
X94791336Y-75621512D01*
X94791336Y-75621512D02*
X94886574Y-75669131D01*
X94886574Y-75669131D02*
X95029431Y-75669131D01*
X94124669Y-75669131D02*
X94219907Y-75621512D01*
X94219907Y-75621512D02*
X94267526Y-75573892D01*
X94267526Y-75573892D02*
X94315145Y-75478654D01*
X94315145Y-75478654D02*
X94315145Y-75192940D01*
X94315145Y-75192940D02*
X94267526Y-75097702D01*
X94267526Y-75097702D02*
X94219907Y-75050083D01*
X94219907Y-75050083D02*
X94124669Y-75002464D01*
X94124669Y-75002464D02*
X93981812Y-75002464D01*
X93981812Y-75002464D02*
X93886574Y-75050083D01*
X93886574Y-75050083D02*
X93838955Y-75097702D01*
X93838955Y-75097702D02*
X93791336Y-75192940D01*
X93791336Y-75192940D02*
X93791336Y-75478654D01*
X93791336Y-75478654D02*
X93838955Y-75573892D01*
X93838955Y-75573892D02*
X93886574Y-75621512D01*
X93886574Y-75621512D02*
X93981812Y-75669131D01*
X93981812Y-75669131D02*
X94124669Y-75669131D01*
X93362764Y-75002464D02*
X93362764Y-76002464D01*
X93362764Y-75050083D02*
X93267526Y-75002464D01*
X93267526Y-75002464D02*
X93077050Y-75002464D01*
X93077050Y-75002464D02*
X92981812Y-75050083D01*
X92981812Y-75050083D02*
X92934193Y-75097702D01*
X92934193Y-75097702D02*
X92886574Y-75192940D01*
X92886574Y-75192940D02*
X92886574Y-75478654D01*
X92886574Y-75478654D02*
X92934193Y-75573892D01*
X92934193Y-75573892D02*
X92981812Y-75621512D01*
X92981812Y-75621512D02*
X93077050Y-75669131D01*
X93077050Y-75669131D02*
X93267526Y-75669131D01*
X93267526Y-75669131D02*
X93362764Y-75621512D01*
X92077050Y-75621512D02*
X92172288Y-75669131D01*
X92172288Y-75669131D02*
X92362764Y-75669131D01*
X92362764Y-75669131D02*
X92458002Y-75621512D01*
X92458002Y-75621512D02*
X92505621Y-75526273D01*
X92505621Y-75526273D02*
X92505621Y-75145321D01*
X92505621Y-75145321D02*
X92458002Y-75050083D01*
X92458002Y-75050083D02*
X92362764Y-75002464D01*
X92362764Y-75002464D02*
X92172288Y-75002464D01*
X92172288Y-75002464D02*
X92077050Y-75050083D01*
X92077050Y-75050083D02*
X92029431Y-75145321D01*
X92029431Y-75145321D02*
X92029431Y-75240559D01*
X92029431Y-75240559D02*
X92505621Y-75335797D01*
X91600859Y-75669131D02*
X91600859Y-75002464D01*
X91600859Y-75192940D02*
X91553240Y-75097702D01*
X91553240Y-75097702D02*
X91505621Y-75050083D01*
X91505621Y-75050083D02*
X91410383Y-75002464D01*
X91410383Y-75002464D02*
X91315145Y-75002464D01*
X90553240Y-75669131D02*
X90553240Y-75145321D01*
X90553240Y-75145321D02*
X90600859Y-75050083D01*
X90600859Y-75050083D02*
X90696097Y-75002464D01*
X90696097Y-75002464D02*
X90886573Y-75002464D01*
X90886573Y-75002464D02*
X90981811Y-75050083D01*
X90553240Y-75621512D02*
X90648478Y-75669131D01*
X90648478Y-75669131D02*
X90886573Y-75669131D01*
X90886573Y-75669131D02*
X90981811Y-75621512D01*
X90981811Y-75621512D02*
X91029430Y-75526273D01*
X91029430Y-75526273D02*
X91029430Y-75431035D01*
X91029430Y-75431035D02*
X90981811Y-75335797D01*
X90981811Y-75335797D02*
X90886573Y-75288178D01*
X90886573Y-75288178D02*
X90648478Y-75288178D01*
X90648478Y-75288178D02*
X90553240Y-75240559D01*
X90219906Y-75002464D02*
X89838954Y-75002464D01*
X90077049Y-74669131D02*
X90077049Y-75526273D01*
X90077049Y-75526273D02*
X90029430Y-75621512D01*
X90029430Y-75621512D02*
X89934192Y-75669131D01*
X89934192Y-75669131D02*
X89838954Y-75669131D01*
X89505620Y-75669131D02*
X89505620Y-75002464D01*
X89505620Y-74669131D02*
X89553239Y-74716750D01*
X89553239Y-74716750D02*
X89505620Y-74764369D01*
X89505620Y-74764369D02*
X89458001Y-74716750D01*
X89458001Y-74716750D02*
X89505620Y-74669131D01*
X89505620Y-74669131D02*
X89505620Y-74764369D01*
X88886573Y-75669131D02*
X88981811Y-75621512D01*
X88981811Y-75621512D02*
X89029430Y-75573892D01*
X89029430Y-75573892D02*
X89077049Y-75478654D01*
X89077049Y-75478654D02*
X89077049Y-75192940D01*
X89077049Y-75192940D02*
X89029430Y-75097702D01*
X89029430Y-75097702D02*
X88981811Y-75050083D01*
X88981811Y-75050083D02*
X88886573Y-75002464D01*
X88886573Y-75002464D02*
X88743716Y-75002464D01*
X88743716Y-75002464D02*
X88648478Y-75050083D01*
X88648478Y-75050083D02*
X88600859Y-75097702D01*
X88600859Y-75097702D02*
X88553240Y-75192940D01*
X88553240Y-75192940D02*
X88553240Y-75478654D01*
X88553240Y-75478654D02*
X88600859Y-75573892D01*
X88600859Y-75573892D02*
X88648478Y-75621512D01*
X88648478Y-75621512D02*
X88743716Y-75669131D01*
X88743716Y-75669131D02*
X88886573Y-75669131D01*
X88124668Y-75002464D02*
X88124668Y-75669131D01*
X88124668Y-75097702D02*
X88077049Y-75050083D01*
X88077049Y-75050083D02*
X87981811Y-75002464D01*
X87981811Y-75002464D02*
X87838954Y-75002464D01*
X87838954Y-75002464D02*
X87743716Y-75050083D01*
X87743716Y-75050083D02*
X87696097Y-75145321D01*
X87696097Y-75145321D02*
X87696097Y-75669131D01*
X86553239Y-75002464D02*
X86315144Y-75669131D01*
X86315144Y-75669131D02*
X86077049Y-75002464D01*
X85553239Y-75669131D02*
X85648477Y-75621512D01*
X85648477Y-75621512D02*
X85696096Y-75573892D01*
X85696096Y-75573892D02*
X85743715Y-75478654D01*
X85743715Y-75478654D02*
X85743715Y-75192940D01*
X85743715Y-75192940D02*
X85696096Y-75097702D01*
X85696096Y-75097702D02*
X85648477Y-75050083D01*
X85648477Y-75050083D02*
X85553239Y-75002464D01*
X85553239Y-75002464D02*
X85410382Y-75002464D01*
X85410382Y-75002464D02*
X85315144Y-75050083D01*
X85315144Y-75050083D02*
X85267525Y-75097702D01*
X85267525Y-75097702D02*
X85219906Y-75192940D01*
X85219906Y-75192940D02*
X85219906Y-75478654D01*
X85219906Y-75478654D02*
X85267525Y-75573892D01*
X85267525Y-75573892D02*
X85315144Y-75621512D01*
X85315144Y-75621512D02*
X85410382Y-75669131D01*
X85410382Y-75669131D02*
X85553239Y-75669131D01*
X84791334Y-75002464D02*
X84791334Y-75669131D01*
X84791334Y-75097702D02*
X84743715Y-75050083D01*
X84743715Y-75050083D02*
X84648477Y-75002464D01*
X84648477Y-75002464D02*
X84505620Y-75002464D01*
X84505620Y-75002464D02*
X84410382Y-75050083D01*
X84410382Y-75050083D02*
X84362763Y-75145321D01*
X84362763Y-75145321D02*
X84362763Y-75669131D01*
X83886572Y-75573892D02*
X83838953Y-75621512D01*
X83838953Y-75621512D02*
X83886572Y-75669131D01*
X83886572Y-75669131D02*
X83934191Y-75621512D01*
X83934191Y-75621512D02*
X83886572Y-75573892D01*
X83886572Y-75573892D02*
X83886572Y-75669131D01*
X83886572Y-75050083D02*
X83838953Y-75097702D01*
X83838953Y-75097702D02*
X83886572Y-75145321D01*
X83886572Y-75145321D02*
X83934191Y-75097702D01*
X83934191Y-75097702D02*
X83886572Y-75050083D01*
X83886572Y-75050083D02*
X83886572Y-75145321D01*
X97981812Y-78365209D02*
X98315145Y-78365209D01*
X98315145Y-78889019D02*
X98315145Y-77889019D01*
X98315145Y-77889019D02*
X97838955Y-77889019D01*
X97458002Y-78889019D02*
X97458002Y-77889019D01*
X97458002Y-78365209D02*
X96886574Y-78365209D01*
X96886574Y-78889019D02*
X96886574Y-77889019D01*
X95696097Y-78603304D02*
X95219907Y-78603304D01*
X95791335Y-78889019D02*
X95458002Y-77889019D01*
X95458002Y-77889019D02*
X95124669Y-78889019D01*
X94362764Y-78889019D02*
X94362764Y-78365209D01*
X94362764Y-78365209D02*
X94410383Y-78269971D01*
X94410383Y-78269971D02*
X94505621Y-78222352D01*
X94505621Y-78222352D02*
X94696097Y-78222352D01*
X94696097Y-78222352D02*
X94791335Y-78269971D01*
X94362764Y-78841400D02*
X94458002Y-78889019D01*
X94458002Y-78889019D02*
X94696097Y-78889019D01*
X94696097Y-78889019D02*
X94791335Y-78841400D01*
X94791335Y-78841400D02*
X94838954Y-78746161D01*
X94838954Y-78746161D02*
X94838954Y-78650923D01*
X94838954Y-78650923D02*
X94791335Y-78555685D01*
X94791335Y-78555685D02*
X94696097Y-78508066D01*
X94696097Y-78508066D02*
X94458002Y-78508066D01*
X94458002Y-78508066D02*
X94362764Y-78460447D01*
X93458002Y-78841400D02*
X93553240Y-78889019D01*
X93553240Y-78889019D02*
X93743716Y-78889019D01*
X93743716Y-78889019D02*
X93838954Y-78841400D01*
X93838954Y-78841400D02*
X93886573Y-78793780D01*
X93886573Y-78793780D02*
X93934192Y-78698542D01*
X93934192Y-78698542D02*
X93934192Y-78412828D01*
X93934192Y-78412828D02*
X93886573Y-78317590D01*
X93886573Y-78317590D02*
X93838954Y-78269971D01*
X93838954Y-78269971D02*
X93743716Y-78222352D01*
X93743716Y-78222352D02*
X93553240Y-78222352D01*
X93553240Y-78222352D02*
X93458002Y-78269971D01*
X93029430Y-78889019D02*
X93029430Y-77889019D01*
X92600859Y-78889019D02*
X92600859Y-78365209D01*
X92600859Y-78365209D02*
X92648478Y-78269971D01*
X92648478Y-78269971D02*
X92743716Y-78222352D01*
X92743716Y-78222352D02*
X92886573Y-78222352D01*
X92886573Y-78222352D02*
X92981811Y-78269971D01*
X92981811Y-78269971D02*
X93029430Y-78317590D01*
X91743716Y-78841400D02*
X91838954Y-78889019D01*
X91838954Y-78889019D02*
X92029430Y-78889019D01*
X92029430Y-78889019D02*
X92124668Y-78841400D01*
X92124668Y-78841400D02*
X92172287Y-78746161D01*
X92172287Y-78746161D02*
X92172287Y-78365209D01*
X92172287Y-78365209D02*
X92124668Y-78269971D01*
X92124668Y-78269971D02*
X92029430Y-78222352D01*
X92029430Y-78222352D02*
X91838954Y-78222352D01*
X91838954Y-78222352D02*
X91743716Y-78269971D01*
X91743716Y-78269971D02*
X91696097Y-78365209D01*
X91696097Y-78365209D02*
X91696097Y-78460447D01*
X91696097Y-78460447D02*
X92172287Y-78555685D01*
X91267525Y-78222352D02*
X91267525Y-78889019D01*
X91267525Y-78317590D02*
X91219906Y-78269971D01*
X91219906Y-78269971D02*
X91124668Y-78222352D01*
X91124668Y-78222352D02*
X90981811Y-78222352D01*
X90981811Y-78222352D02*
X90886573Y-78269971D01*
X90886573Y-78269971D02*
X90838954Y-78365209D01*
X90838954Y-78365209D02*
X90838954Y-78889019D01*
X97981812Y-79975153D02*
X98315145Y-79975153D01*
X98315145Y-80498963D02*
X98315145Y-79498963D01*
X98315145Y-79498963D02*
X97838955Y-79498963D01*
X97029431Y-80498963D02*
X97029431Y-79975153D01*
X97029431Y-79975153D02*
X97077050Y-79879915D01*
X97077050Y-79879915D02*
X97172288Y-79832296D01*
X97172288Y-79832296D02*
X97362764Y-79832296D01*
X97362764Y-79832296D02*
X97458002Y-79879915D01*
X97029431Y-80451344D02*
X97124669Y-80498963D01*
X97124669Y-80498963D02*
X97362764Y-80498963D01*
X97362764Y-80498963D02*
X97458002Y-80451344D01*
X97458002Y-80451344D02*
X97505621Y-80356105D01*
X97505621Y-80356105D02*
X97505621Y-80260867D01*
X97505621Y-80260867D02*
X97458002Y-80165629D01*
X97458002Y-80165629D02*
X97362764Y-80118010D01*
X97362764Y-80118010D02*
X97124669Y-80118010D01*
X97124669Y-80118010D02*
X97029431Y-80070391D01*
X96124669Y-80451344D02*
X96219907Y-80498963D01*
X96219907Y-80498963D02*
X96410383Y-80498963D01*
X96410383Y-80498963D02*
X96505621Y-80451344D01*
X96505621Y-80451344D02*
X96553240Y-80403724D01*
X96553240Y-80403724D02*
X96600859Y-80308486D01*
X96600859Y-80308486D02*
X96600859Y-80022772D01*
X96600859Y-80022772D02*
X96553240Y-79927534D01*
X96553240Y-79927534D02*
X96505621Y-79879915D01*
X96505621Y-79879915D02*
X96410383Y-79832296D01*
X96410383Y-79832296D02*
X96219907Y-79832296D01*
X96219907Y-79832296D02*
X96124669Y-79879915D01*
X95696097Y-80498963D02*
X95696097Y-79498963D01*
X95267526Y-80498963D02*
X95267526Y-79975153D01*
X95267526Y-79975153D02*
X95315145Y-79879915D01*
X95315145Y-79879915D02*
X95410383Y-79832296D01*
X95410383Y-79832296D02*
X95553240Y-79832296D01*
X95553240Y-79832296D02*
X95648478Y-79879915D01*
X95648478Y-79879915D02*
X95696097Y-79927534D01*
X94791335Y-80498963D02*
X94791335Y-79498963D01*
X94791335Y-79879915D02*
X94696097Y-79832296D01*
X94696097Y-79832296D02*
X94505621Y-79832296D01*
X94505621Y-79832296D02*
X94410383Y-79879915D01*
X94410383Y-79879915D02*
X94362764Y-79927534D01*
X94362764Y-79927534D02*
X94315145Y-80022772D01*
X94315145Y-80022772D02*
X94315145Y-80308486D01*
X94315145Y-80308486D02*
X94362764Y-80403724D01*
X94362764Y-80403724D02*
X94410383Y-80451344D01*
X94410383Y-80451344D02*
X94505621Y-80498963D01*
X94505621Y-80498963D02*
X94696097Y-80498963D01*
X94696097Y-80498963D02*
X94791335Y-80451344D01*
X93505621Y-80451344D02*
X93600859Y-80498963D01*
X93600859Y-80498963D02*
X93791335Y-80498963D01*
X93791335Y-80498963D02*
X93886573Y-80451344D01*
X93886573Y-80451344D02*
X93934192Y-80356105D01*
X93934192Y-80356105D02*
X93934192Y-79975153D01*
X93934192Y-79975153D02*
X93886573Y-79879915D01*
X93886573Y-79879915D02*
X93791335Y-79832296D01*
X93791335Y-79832296D02*
X93600859Y-79832296D01*
X93600859Y-79832296D02*
X93505621Y-79879915D01*
X93505621Y-79879915D02*
X93458002Y-79975153D01*
X93458002Y-79975153D02*
X93458002Y-80070391D01*
X93458002Y-80070391D02*
X93934192Y-80165629D01*
X93029430Y-80498963D02*
X93029430Y-79832296D01*
X93029430Y-80022772D02*
X92981811Y-79927534D01*
X92981811Y-79927534D02*
X92934192Y-79879915D01*
X92934192Y-79879915D02*
X92838954Y-79832296D01*
X92838954Y-79832296D02*
X92743716Y-79832296D01*
X92029430Y-80451344D02*
X92124668Y-80498963D01*
X92124668Y-80498963D02*
X92315144Y-80498963D01*
X92315144Y-80498963D02*
X92410382Y-80451344D01*
X92410382Y-80451344D02*
X92458001Y-80356105D01*
X92458001Y-80356105D02*
X92458001Y-79975153D01*
X92458001Y-79975153D02*
X92410382Y-79879915D01*
X92410382Y-79879915D02*
X92315144Y-79832296D01*
X92315144Y-79832296D02*
X92124668Y-79832296D01*
X92124668Y-79832296D02*
X92029430Y-79879915D01*
X92029430Y-79879915D02*
X91981811Y-79975153D01*
X91981811Y-79975153D02*
X91981811Y-80070391D01*
X91981811Y-80070391D02*
X92458001Y-80165629D01*
X91553239Y-80498963D02*
X91553239Y-79832296D01*
X91553239Y-79498963D02*
X91600858Y-79546582D01*
X91600858Y-79546582D02*
X91553239Y-79594201D01*
X91553239Y-79594201D02*
X91505620Y-79546582D01*
X91505620Y-79546582D02*
X91553239Y-79498963D01*
X91553239Y-79498963D02*
X91553239Y-79594201D01*
X90648478Y-80451344D02*
X90743716Y-80498963D01*
X90743716Y-80498963D02*
X90934192Y-80498963D01*
X90934192Y-80498963D02*
X91029430Y-80451344D01*
X91029430Y-80451344D02*
X91077049Y-80403724D01*
X91077049Y-80403724D02*
X91124668Y-80308486D01*
X91124668Y-80308486D02*
X91124668Y-80022772D01*
X91124668Y-80022772D02*
X91077049Y-79927534D01*
X91077049Y-79927534D02*
X91029430Y-79879915D01*
X91029430Y-79879915D02*
X90934192Y-79832296D01*
X90934192Y-79832296D02*
X90743716Y-79832296D01*
X90743716Y-79832296D02*
X90648478Y-79879915D01*
X90219906Y-80498963D02*
X90219906Y-79498963D01*
X89791335Y-80498963D02*
X89791335Y-79975153D01*
X89791335Y-79975153D02*
X89838954Y-79879915D01*
X89838954Y-79879915D02*
X89934192Y-79832296D01*
X89934192Y-79832296D02*
X90077049Y-79832296D01*
X90077049Y-79832296D02*
X90172287Y-79879915D01*
X90172287Y-79879915D02*
X90219906Y-79927534D01*
X88077049Y-80498963D02*
X88553239Y-80498963D01*
X88553239Y-80498963D02*
X88553239Y-79498963D01*
X87315144Y-79832296D02*
X87315144Y-80498963D01*
X87743715Y-79832296D02*
X87743715Y-80356105D01*
X87743715Y-80356105D02*
X87696096Y-80451344D01*
X87696096Y-80451344D02*
X87600858Y-80498963D01*
X87600858Y-80498963D02*
X87458001Y-80498963D01*
X87458001Y-80498963D02*
X87362763Y-80451344D01*
X87362763Y-80451344D02*
X87315144Y-80403724D01*
X86981810Y-79832296D02*
X86600858Y-79832296D01*
X86838953Y-80498963D02*
X86838953Y-79641820D01*
X86838953Y-79641820D02*
X86791334Y-79546582D01*
X86791334Y-79546582D02*
X86696096Y-79498963D01*
X86696096Y-79498963D02*
X86600858Y-79498963D01*
X86410381Y-79832296D02*
X86029429Y-79832296D01*
X86267524Y-79498963D02*
X86267524Y-80356105D01*
X86267524Y-80356105D02*
X86219905Y-80451344D01*
X86219905Y-80451344D02*
X86124667Y-80498963D01*
X86124667Y-80498963D02*
X86029429Y-80498963D01*
X85696095Y-80118010D02*
X84934191Y-80118010D01*
X83267524Y-79832296D02*
X83267524Y-80498963D01*
X83696095Y-79832296D02*
X83696095Y-80356105D01*
X83696095Y-80356105D02*
X83648476Y-80451344D01*
X83648476Y-80451344D02*
X83553238Y-80498963D01*
X83553238Y-80498963D02*
X83410381Y-80498963D01*
X83410381Y-80498963D02*
X83315143Y-80451344D01*
X83315143Y-80451344D02*
X83267524Y-80403724D01*
X82791333Y-79832296D02*
X82791333Y-80498963D01*
X82791333Y-79927534D02*
X82743714Y-79879915D01*
X82743714Y-79879915D02*
X82648476Y-79832296D01*
X82648476Y-79832296D02*
X82505619Y-79832296D01*
X82505619Y-79832296D02*
X82410381Y-79879915D01*
X82410381Y-79879915D02*
X82362762Y-79975153D01*
X82362762Y-79975153D02*
X82362762Y-80498963D01*
X81458000Y-80498963D02*
X81458000Y-79498963D01*
X81458000Y-80451344D02*
X81553238Y-80498963D01*
X81553238Y-80498963D02*
X81743714Y-80498963D01*
X81743714Y-80498963D02*
X81838952Y-80451344D01*
X81838952Y-80451344D02*
X81886571Y-80403724D01*
X81886571Y-80403724D02*
X81934190Y-80308486D01*
X81934190Y-80308486D02*
X81934190Y-80022772D01*
X81934190Y-80022772D02*
X81886571Y-79927534D01*
X81886571Y-79927534D02*
X81838952Y-79879915D01*
X81838952Y-79879915D02*
X81743714Y-79832296D01*
X81743714Y-79832296D02*
X81553238Y-79832296D01*
X81553238Y-79832296D02*
X81458000Y-79879915D01*
X79648476Y-80498963D02*
X79981809Y-80022772D01*
X80219904Y-80498963D02*
X80219904Y-79498963D01*
X80219904Y-79498963D02*
X79838952Y-79498963D01*
X79838952Y-79498963D02*
X79743714Y-79546582D01*
X79743714Y-79546582D02*
X79696095Y-79594201D01*
X79696095Y-79594201D02*
X79648476Y-79689439D01*
X79648476Y-79689439D02*
X79648476Y-79832296D01*
X79648476Y-79832296D02*
X79696095Y-79927534D01*
X79696095Y-79927534D02*
X79743714Y-79975153D01*
X79743714Y-79975153D02*
X79838952Y-80022772D01*
X79838952Y-80022772D02*
X80219904Y-80022772D01*
X78791333Y-80498963D02*
X78791333Y-79975153D01*
X78791333Y-79975153D02*
X78838952Y-79879915D01*
X78838952Y-79879915D02*
X78934190Y-79832296D01*
X78934190Y-79832296D02*
X79124666Y-79832296D01*
X79124666Y-79832296D02*
X79219904Y-79879915D01*
X78791333Y-80451344D02*
X78886571Y-80498963D01*
X78886571Y-80498963D02*
X79124666Y-80498963D01*
X79124666Y-80498963D02*
X79219904Y-80451344D01*
X79219904Y-80451344D02*
X79267523Y-80356105D01*
X79267523Y-80356105D02*
X79267523Y-80260867D01*
X79267523Y-80260867D02*
X79219904Y-80165629D01*
X79219904Y-80165629D02*
X79124666Y-80118010D01*
X79124666Y-80118010D02*
X78886571Y-80118010D01*
X78886571Y-80118010D02*
X78791333Y-80070391D01*
X77886571Y-79832296D02*
X77886571Y-80498963D01*
X78315142Y-79832296D02*
X78315142Y-80356105D01*
X78315142Y-80356105D02*
X78267523Y-80451344D01*
X78267523Y-80451344D02*
X78172285Y-80498963D01*
X78172285Y-80498963D02*
X78029428Y-80498963D01*
X78029428Y-80498963D02*
X77934190Y-80451344D01*
X77934190Y-80451344D02*
X77886571Y-80403724D01*
X77410380Y-80498963D02*
X77410380Y-79832296D01*
X77410380Y-79927534D02*
X77362761Y-79879915D01*
X77362761Y-79879915D02*
X77267523Y-79832296D01*
X77267523Y-79832296D02*
X77124666Y-79832296D01*
X77124666Y-79832296D02*
X77029428Y-79879915D01*
X77029428Y-79879915D02*
X76981809Y-79975153D01*
X76981809Y-79975153D02*
X76981809Y-80498963D01*
X76981809Y-79975153D02*
X76934190Y-79879915D01*
X76934190Y-79879915D02*
X76838952Y-79832296D01*
X76838952Y-79832296D02*
X76696095Y-79832296D01*
X76696095Y-79832296D02*
X76600856Y-79879915D01*
X76600856Y-79879915D02*
X76553237Y-79975153D01*
X76553237Y-79975153D02*
X76553237Y-80498963D01*
X76219904Y-79832296D02*
X75838952Y-79832296D01*
X76077047Y-80498963D02*
X76077047Y-79641820D01*
X76077047Y-79641820D02*
X76029428Y-79546582D01*
X76029428Y-79546582D02*
X75934190Y-79498963D01*
X75934190Y-79498963D02*
X75838952Y-79498963D01*
X75077047Y-80498963D02*
X75077047Y-79975153D01*
X75077047Y-79975153D02*
X75124666Y-79879915D01*
X75124666Y-79879915D02*
X75219904Y-79832296D01*
X75219904Y-79832296D02*
X75410380Y-79832296D01*
X75410380Y-79832296D02*
X75505618Y-79879915D01*
X75077047Y-80451344D02*
X75172285Y-80498963D01*
X75172285Y-80498963D02*
X75410380Y-80498963D01*
X75410380Y-80498963D02*
X75505618Y-80451344D01*
X75505618Y-80451344D02*
X75553237Y-80356105D01*
X75553237Y-80356105D02*
X75553237Y-80260867D01*
X75553237Y-80260867D02*
X75505618Y-80165629D01*
X75505618Y-80165629D02*
X75410380Y-80118010D01*
X75410380Y-80118010D02*
X75172285Y-80118010D01*
X75172285Y-80118010D02*
X75077047Y-80070391D01*
X74600856Y-80498963D02*
X74600856Y-79498963D01*
X74172285Y-80498963D02*
X74172285Y-79975153D01*
X74172285Y-79975153D02*
X74219904Y-79879915D01*
X74219904Y-79879915D02*
X74315142Y-79832296D01*
X74315142Y-79832296D02*
X74457999Y-79832296D01*
X74457999Y-79832296D02*
X74553237Y-79879915D01*
X74553237Y-79879915D02*
X74600856Y-79927534D01*
X73696094Y-80498963D02*
X73696094Y-79832296D01*
X73696094Y-80022772D02*
X73648475Y-79927534D01*
X73648475Y-79927534D02*
X73600856Y-79879915D01*
X73600856Y-79879915D02*
X73505618Y-79832296D01*
X73505618Y-79832296D02*
X73410380Y-79832296D01*
X73219903Y-79832296D02*
X72838951Y-79832296D01*
X73077046Y-79498963D02*
X73077046Y-80356105D01*
X73077046Y-80356105D02*
X73029427Y-80451344D01*
X73029427Y-80451344D02*
X72934189Y-80498963D01*
X72934189Y-80498963D02*
X72838951Y-80498963D01*
X72648474Y-79832296D02*
X72267522Y-79832296D01*
X72505617Y-79498963D02*
X72505617Y-80356105D01*
X72505617Y-80356105D02*
X72457998Y-80451344D01*
X72457998Y-80451344D02*
X72362760Y-80498963D01*
X72362760Y-80498963D02*
X72267522Y-80498963D01*
X71553236Y-80451344D02*
X71648474Y-80498963D01*
X71648474Y-80498963D02*
X71838950Y-80498963D01*
X71838950Y-80498963D02*
X71934188Y-80451344D01*
X71934188Y-80451344D02*
X71981807Y-80356105D01*
X71981807Y-80356105D02*
X71981807Y-79975153D01*
X71981807Y-79975153D02*
X71934188Y-79879915D01*
X71934188Y-79879915D02*
X71838950Y-79832296D01*
X71838950Y-79832296D02*
X71648474Y-79832296D01*
X71648474Y-79832296D02*
X71553236Y-79879915D01*
X71553236Y-79879915D02*
X71505617Y-79975153D01*
X71505617Y-79975153D02*
X71505617Y-80070391D01*
X71505617Y-80070391D02*
X71981807Y-80165629D01*
X70648474Y-80451344D02*
X70743712Y-80498963D01*
X70743712Y-80498963D02*
X70934188Y-80498963D01*
X70934188Y-80498963D02*
X71029426Y-80451344D01*
X71029426Y-80451344D02*
X71077045Y-80403724D01*
X71077045Y-80403724D02*
X71124664Y-80308486D01*
X71124664Y-80308486D02*
X71124664Y-80022772D01*
X71124664Y-80022772D02*
X71077045Y-79927534D01*
X71077045Y-79927534D02*
X71029426Y-79879915D01*
X71029426Y-79879915D02*
X70934188Y-79832296D01*
X70934188Y-79832296D02*
X70743712Y-79832296D01*
X70743712Y-79832296D02*
X70648474Y-79879915D01*
X70219902Y-80498963D02*
X70219902Y-79498963D01*
X69791331Y-80498963D02*
X69791331Y-79975153D01*
X69791331Y-79975153D02*
X69838950Y-79879915D01*
X69838950Y-79879915D02*
X69934188Y-79832296D01*
X69934188Y-79832296D02*
X70077045Y-79832296D01*
X70077045Y-79832296D02*
X70172283Y-79879915D01*
X70172283Y-79879915D02*
X70219902Y-79927534D01*
X69315140Y-79832296D02*
X69315140Y-80498963D01*
X69315140Y-79927534D02*
X69267521Y-79879915D01*
X69267521Y-79879915D02*
X69172283Y-79832296D01*
X69172283Y-79832296D02*
X69029426Y-79832296D01*
X69029426Y-79832296D02*
X68934188Y-79879915D01*
X68934188Y-79879915D02*
X68886569Y-79975153D01*
X68886569Y-79975153D02*
X68886569Y-80498963D01*
X68410378Y-80498963D02*
X68410378Y-79832296D01*
X68410378Y-79498963D02*
X68457997Y-79546582D01*
X68457997Y-79546582D02*
X68410378Y-79594201D01*
X68410378Y-79594201D02*
X68362759Y-79546582D01*
X68362759Y-79546582D02*
X68410378Y-79498963D01*
X68410378Y-79498963D02*
X68410378Y-79594201D01*
X67934188Y-80498963D02*
X67934188Y-79498963D01*
X67838950Y-80118010D02*
X67553236Y-80498963D01*
X67553236Y-79832296D02*
X67934188Y-80213248D01*
X67124664Y-80403724D02*
X67077045Y-80451344D01*
X67077045Y-80451344D02*
X67124664Y-80498963D01*
X67124664Y-80498963D02*
X67172283Y-80451344D01*
X67172283Y-80451344D02*
X67124664Y-80403724D01*
X67124664Y-80403724D02*
X67124664Y-80498963D01*
X67124664Y-79879915D02*
X67077045Y-79927534D01*
X67077045Y-79927534D02*
X67124664Y-79975153D01*
X67124664Y-79975153D02*
X67172283Y-79927534D01*
X67172283Y-79927534D02*
X67124664Y-79879915D01*
X67124664Y-79879915D02*
X67124664Y-79975153D01*
X98315145Y-82108907D02*
X98315145Y-81108907D01*
X98315145Y-81108907D02*
X97934193Y-81108907D01*
X97934193Y-81108907D02*
X97838955Y-81156526D01*
X97838955Y-81156526D02*
X97791336Y-81204145D01*
X97791336Y-81204145D02*
X97743717Y-81299383D01*
X97743717Y-81299383D02*
X97743717Y-81442240D01*
X97743717Y-81442240D02*
X97791336Y-81537478D01*
X97791336Y-81537478D02*
X97838955Y-81585097D01*
X97838955Y-81585097D02*
X97934193Y-81632716D01*
X97934193Y-81632716D02*
X98315145Y-81632716D01*
X97315145Y-82108907D02*
X97315145Y-81108907D01*
X96886574Y-82108907D02*
X96886574Y-81585097D01*
X96886574Y-81585097D02*
X96934193Y-81489859D01*
X96934193Y-81489859D02*
X97029431Y-81442240D01*
X97029431Y-81442240D02*
X97172288Y-81442240D01*
X97172288Y-81442240D02*
X97267526Y-81489859D01*
X97267526Y-81489859D02*
X97315145Y-81537478D01*
X96410383Y-82013668D02*
X96362764Y-82061288D01*
X96362764Y-82061288D02*
X96410383Y-82108907D01*
X96410383Y-82108907D02*
X96458002Y-82061288D01*
X96458002Y-82061288D02*
X96410383Y-82013668D01*
X96410383Y-82013668D02*
X96410383Y-82108907D01*
X95172288Y-82108907D02*
X95172288Y-81108907D01*
X95172288Y-81585097D02*
X94600860Y-81585097D01*
X94600860Y-82108907D02*
X94600860Y-81108907D01*
X93696098Y-82108907D02*
X93696098Y-81585097D01*
X93696098Y-81585097D02*
X93743717Y-81489859D01*
X93743717Y-81489859D02*
X93838955Y-81442240D01*
X93838955Y-81442240D02*
X94029431Y-81442240D01*
X94029431Y-81442240D02*
X94124669Y-81489859D01*
X93696098Y-82061288D02*
X93791336Y-82108907D01*
X93791336Y-82108907D02*
X94029431Y-82108907D01*
X94029431Y-82108907D02*
X94124669Y-82061288D01*
X94124669Y-82061288D02*
X94172288Y-81966049D01*
X94172288Y-81966049D02*
X94172288Y-81870811D01*
X94172288Y-81870811D02*
X94124669Y-81775573D01*
X94124669Y-81775573D02*
X94029431Y-81727954D01*
X94029431Y-81727954D02*
X93791336Y-81727954D01*
X93791336Y-81727954D02*
X93696098Y-81680335D01*
X93219907Y-82108907D02*
X93219907Y-81442240D01*
X93219907Y-81632716D02*
X93172288Y-81537478D01*
X93172288Y-81537478D02*
X93124669Y-81489859D01*
X93124669Y-81489859D02*
X93029431Y-81442240D01*
X93029431Y-81442240D02*
X92934193Y-81442240D01*
X92743716Y-81442240D02*
X92362764Y-81442240D01*
X92600859Y-81108907D02*
X92600859Y-81966049D01*
X92600859Y-81966049D02*
X92553240Y-82061288D01*
X92553240Y-82061288D02*
X92458002Y-82108907D01*
X92458002Y-82108907D02*
X92362764Y-82108907D01*
X92029430Y-82108907D02*
X92029430Y-81442240D01*
X92029430Y-81537478D02*
X91981811Y-81489859D01*
X91981811Y-81489859D02*
X91886573Y-81442240D01*
X91886573Y-81442240D02*
X91743716Y-81442240D01*
X91743716Y-81442240D02*
X91648478Y-81489859D01*
X91648478Y-81489859D02*
X91600859Y-81585097D01*
X91600859Y-81585097D02*
X91600859Y-82108907D01*
X91600859Y-81585097D02*
X91553240Y-81489859D01*
X91553240Y-81489859D02*
X91458002Y-81442240D01*
X91458002Y-81442240D02*
X91315145Y-81442240D01*
X91315145Y-81442240D02*
X91219906Y-81489859D01*
X91219906Y-81489859D02*
X91172287Y-81585097D01*
X91172287Y-81585097D02*
X91172287Y-82108907D01*
X90267526Y-82108907D02*
X90267526Y-81585097D01*
X90267526Y-81585097D02*
X90315145Y-81489859D01*
X90315145Y-81489859D02*
X90410383Y-81442240D01*
X90410383Y-81442240D02*
X90600859Y-81442240D01*
X90600859Y-81442240D02*
X90696097Y-81489859D01*
X90267526Y-82061288D02*
X90362764Y-82108907D01*
X90362764Y-82108907D02*
X90600859Y-82108907D01*
X90600859Y-82108907D02*
X90696097Y-82061288D01*
X90696097Y-82061288D02*
X90743716Y-81966049D01*
X90743716Y-81966049D02*
X90743716Y-81870811D01*
X90743716Y-81870811D02*
X90696097Y-81775573D01*
X90696097Y-81775573D02*
X90600859Y-81727954D01*
X90600859Y-81727954D02*
X90362764Y-81727954D01*
X90362764Y-81727954D02*
X90267526Y-81680335D01*
X89791335Y-81442240D02*
X89791335Y-82108907D01*
X89791335Y-81537478D02*
X89743716Y-81489859D01*
X89743716Y-81489859D02*
X89648478Y-81442240D01*
X89648478Y-81442240D02*
X89505621Y-81442240D01*
X89505621Y-81442240D02*
X89410383Y-81489859D01*
X89410383Y-81489859D02*
X89362764Y-81585097D01*
X89362764Y-81585097D02*
X89362764Y-82108907D01*
X88886573Y-81442240D02*
X88886573Y-82108907D01*
X88886573Y-81537478D02*
X88838954Y-81489859D01*
X88838954Y-81489859D02*
X88743716Y-81442240D01*
X88743716Y-81442240D02*
X88600859Y-81442240D01*
X88600859Y-81442240D02*
X88505621Y-81489859D01*
X88505621Y-81489859D02*
X88458002Y-81585097D01*
X88458002Y-81585097D02*
X88458002Y-82108907D01*
X98458002Y-82718851D02*
X97886574Y-82718851D01*
X98172288Y-83718851D02*
X98172288Y-82718851D01*
X97553240Y-83623612D02*
X97505621Y-83671232D01*
X97505621Y-83671232D02*
X97553240Y-83718851D01*
X97553240Y-83718851D02*
X97600859Y-83671232D01*
X97600859Y-83671232D02*
X97553240Y-83623612D01*
X97553240Y-83623612D02*
X97553240Y-83718851D01*
X96410383Y-82718851D02*
X96172288Y-83718851D01*
X96172288Y-83718851D02*
X95981812Y-83004565D01*
X95981812Y-83004565D02*
X95791336Y-83718851D01*
X95791336Y-83718851D02*
X95553241Y-82718851D01*
X94791336Y-83671232D02*
X94886574Y-83718851D01*
X94886574Y-83718851D02*
X95077050Y-83718851D01*
X95077050Y-83718851D02*
X95172288Y-83671232D01*
X95172288Y-83671232D02*
X95219907Y-83575993D01*
X95219907Y-83575993D02*
X95219907Y-83195041D01*
X95219907Y-83195041D02*
X95172288Y-83099803D01*
X95172288Y-83099803D02*
X95077050Y-83052184D01*
X95077050Y-83052184D02*
X94886574Y-83052184D01*
X94886574Y-83052184D02*
X94791336Y-83099803D01*
X94791336Y-83099803D02*
X94743717Y-83195041D01*
X94743717Y-83195041D02*
X94743717Y-83290279D01*
X94743717Y-83290279D02*
X95219907Y-83385517D01*
X94315145Y-83718851D02*
X94315145Y-83052184D01*
X94315145Y-82718851D02*
X94362764Y-82766470D01*
X94362764Y-82766470D02*
X94315145Y-82814089D01*
X94315145Y-82814089D02*
X94267526Y-82766470D01*
X94267526Y-82766470D02*
X94315145Y-82718851D01*
X94315145Y-82718851D02*
X94315145Y-82814089D01*
X93886574Y-83671232D02*
X93791336Y-83718851D01*
X93791336Y-83718851D02*
X93600860Y-83718851D01*
X93600860Y-83718851D02*
X93505622Y-83671232D01*
X93505622Y-83671232D02*
X93458003Y-83575993D01*
X93458003Y-83575993D02*
X93458003Y-83528374D01*
X93458003Y-83528374D02*
X93505622Y-83433136D01*
X93505622Y-83433136D02*
X93600860Y-83385517D01*
X93600860Y-83385517D02*
X93743717Y-83385517D01*
X93743717Y-83385517D02*
X93838955Y-83337898D01*
X93838955Y-83337898D02*
X93886574Y-83242660D01*
X93886574Y-83242660D02*
X93886574Y-83195041D01*
X93886574Y-83195041D02*
X93838955Y-83099803D01*
X93838955Y-83099803D02*
X93743717Y-83052184D01*
X93743717Y-83052184D02*
X93600860Y-83052184D01*
X93600860Y-83052184D02*
X93505622Y-83099803D01*
X92648479Y-83671232D02*
X92743717Y-83718851D01*
X92743717Y-83718851D02*
X92934193Y-83718851D01*
X92934193Y-83718851D02*
X93029431Y-83671232D01*
X93029431Y-83671232D02*
X93077050Y-83575993D01*
X93077050Y-83575993D02*
X93077050Y-83195041D01*
X93077050Y-83195041D02*
X93029431Y-83099803D01*
X93029431Y-83099803D02*
X92934193Y-83052184D01*
X92934193Y-83052184D02*
X92743717Y-83052184D01*
X92743717Y-83052184D02*
X92648479Y-83099803D01*
X92648479Y-83099803D02*
X92600860Y-83195041D01*
X92600860Y-83195041D02*
X92600860Y-83290279D01*
X92600860Y-83290279D02*
X93077050Y-83385517D01*
X98315145Y-86938739D02*
X98315145Y-85938739D01*
X98315145Y-85938739D02*
X98077050Y-85938739D01*
X98077050Y-85938739D02*
X97934193Y-85986358D01*
X97934193Y-85986358D02*
X97838955Y-86081596D01*
X97838955Y-86081596D02*
X97791336Y-86176834D01*
X97791336Y-86176834D02*
X97743717Y-86367310D01*
X97743717Y-86367310D02*
X97743717Y-86510167D01*
X97743717Y-86510167D02*
X97791336Y-86700643D01*
X97791336Y-86700643D02*
X97838955Y-86795881D01*
X97838955Y-86795881D02*
X97934193Y-86891120D01*
X97934193Y-86891120D02*
X98077050Y-86938739D01*
X98077050Y-86938739D02*
X98315145Y-86938739D01*
X96838955Y-86938739D02*
X97315145Y-86938739D01*
X97315145Y-86938739D02*
X97315145Y-85938739D01*
X95934193Y-86938739D02*
X96267526Y-86462548D01*
X96505621Y-86938739D02*
X96505621Y-85938739D01*
X96505621Y-85938739D02*
X96124669Y-85938739D01*
X96124669Y-85938739D02*
X96029431Y-85986358D01*
X96029431Y-85986358D02*
X95981812Y-86033977D01*
X95981812Y-86033977D02*
X95934193Y-86129215D01*
X95934193Y-86129215D02*
X95934193Y-86272072D01*
X95934193Y-86272072D02*
X95981812Y-86367310D01*
X95981812Y-86367310D02*
X96029431Y-86414929D01*
X96029431Y-86414929D02*
X96124669Y-86462548D01*
X96124669Y-86462548D02*
X96505621Y-86462548D01*
X94219907Y-85986358D02*
X94315145Y-85938739D01*
X94315145Y-85938739D02*
X94458002Y-85938739D01*
X94458002Y-85938739D02*
X94600859Y-85986358D01*
X94600859Y-85986358D02*
X94696097Y-86081596D01*
X94696097Y-86081596D02*
X94743716Y-86176834D01*
X94743716Y-86176834D02*
X94791335Y-86367310D01*
X94791335Y-86367310D02*
X94791335Y-86510167D01*
X94791335Y-86510167D02*
X94743716Y-86700643D01*
X94743716Y-86700643D02*
X94696097Y-86795881D01*
X94696097Y-86795881D02*
X94600859Y-86891120D01*
X94600859Y-86891120D02*
X94458002Y-86938739D01*
X94458002Y-86938739D02*
X94362764Y-86938739D01*
X94362764Y-86938739D02*
X94219907Y-86891120D01*
X94219907Y-86891120D02*
X94172288Y-86843500D01*
X94172288Y-86843500D02*
X94172288Y-86510167D01*
X94172288Y-86510167D02*
X94362764Y-86510167D01*
X93600859Y-86938739D02*
X93696097Y-86891120D01*
X93696097Y-86891120D02*
X93743716Y-86843500D01*
X93743716Y-86843500D02*
X93791335Y-86748262D01*
X93791335Y-86748262D02*
X93791335Y-86462548D01*
X93791335Y-86462548D02*
X93743716Y-86367310D01*
X93743716Y-86367310D02*
X93696097Y-86319691D01*
X93696097Y-86319691D02*
X93600859Y-86272072D01*
X93600859Y-86272072D02*
X93458002Y-86272072D01*
X93458002Y-86272072D02*
X93362764Y-86319691D01*
X93362764Y-86319691D02*
X93315145Y-86367310D01*
X93315145Y-86367310D02*
X93267526Y-86462548D01*
X93267526Y-86462548D02*
X93267526Y-86748262D01*
X93267526Y-86748262D02*
X93315145Y-86843500D01*
X93315145Y-86843500D02*
X93362764Y-86891120D01*
X93362764Y-86891120D02*
X93458002Y-86938739D01*
X93458002Y-86938739D02*
X93600859Y-86938739D01*
X93696097Y-85938739D02*
X93648478Y-85986358D01*
X93648478Y-85986358D02*
X93696097Y-86033977D01*
X93696097Y-86033977D02*
X93743716Y-85986358D01*
X93743716Y-85986358D02*
X93696097Y-85938739D01*
X93696097Y-85938739D02*
X93696097Y-86033977D01*
X93315145Y-85938739D02*
X93267526Y-85986358D01*
X93267526Y-85986358D02*
X93315145Y-86033977D01*
X93315145Y-86033977D02*
X93362764Y-85986358D01*
X93362764Y-85986358D02*
X93315145Y-85938739D01*
X93315145Y-85938739D02*
X93315145Y-86033977D01*
X92981811Y-86272072D02*
X92600859Y-86272072D01*
X92838954Y-85938739D02*
X92838954Y-86795881D01*
X92838954Y-86795881D02*
X92791335Y-86891120D01*
X92791335Y-86891120D02*
X92696097Y-86938739D01*
X92696097Y-86938739D02*
X92600859Y-86938739D01*
X92410382Y-86272072D02*
X92029430Y-86272072D01*
X92267525Y-85938739D02*
X92267525Y-86795881D01*
X92267525Y-86795881D02*
X92219906Y-86891120D01*
X92219906Y-86891120D02*
X92124668Y-86938739D01*
X92124668Y-86938739D02*
X92029430Y-86938739D01*
X91696096Y-86938739D02*
X91696096Y-86272072D01*
X91696096Y-85938739D02*
X91743715Y-85986358D01*
X91743715Y-85986358D02*
X91696096Y-86033977D01*
X91696096Y-86033977D02*
X91648477Y-85986358D01*
X91648477Y-85986358D02*
X91696096Y-85938739D01*
X91696096Y-85938739D02*
X91696096Y-86033977D01*
X91219906Y-86272072D02*
X91219906Y-86938739D01*
X91219906Y-86367310D02*
X91172287Y-86319691D01*
X91172287Y-86319691D02*
X91077049Y-86272072D01*
X91077049Y-86272072D02*
X90934192Y-86272072D01*
X90934192Y-86272072D02*
X90838954Y-86319691D01*
X90838954Y-86319691D02*
X90791335Y-86414929D01*
X90791335Y-86414929D02*
X90791335Y-86938739D01*
X89886573Y-86272072D02*
X89886573Y-87081596D01*
X89886573Y-87081596D02*
X89934192Y-87176834D01*
X89934192Y-87176834D02*
X89981811Y-87224453D01*
X89981811Y-87224453D02*
X90077049Y-87272072D01*
X90077049Y-87272072D02*
X90219906Y-87272072D01*
X90219906Y-87272072D02*
X90315144Y-87224453D01*
X89886573Y-86891120D02*
X89981811Y-86938739D01*
X89981811Y-86938739D02*
X90172287Y-86938739D01*
X90172287Y-86938739D02*
X90267525Y-86891120D01*
X90267525Y-86891120D02*
X90315144Y-86843500D01*
X90315144Y-86843500D02*
X90362763Y-86748262D01*
X90362763Y-86748262D02*
X90362763Y-86462548D01*
X90362763Y-86462548D02*
X90315144Y-86367310D01*
X90315144Y-86367310D02*
X90267525Y-86319691D01*
X90267525Y-86319691D02*
X90172287Y-86272072D01*
X90172287Y-86272072D02*
X89981811Y-86272072D01*
X89981811Y-86272072D02*
X89886573Y-86319691D01*
X89029430Y-86891120D02*
X89124668Y-86938739D01*
X89124668Y-86938739D02*
X89315144Y-86938739D01*
X89315144Y-86938739D02*
X89410382Y-86891120D01*
X89410382Y-86891120D02*
X89458001Y-86795881D01*
X89458001Y-86795881D02*
X89458001Y-86414929D01*
X89458001Y-86414929D02*
X89410382Y-86319691D01*
X89410382Y-86319691D02*
X89315144Y-86272072D01*
X89315144Y-86272072D02*
X89124668Y-86272072D01*
X89124668Y-86272072D02*
X89029430Y-86319691D01*
X89029430Y-86319691D02*
X88981811Y-86414929D01*
X88981811Y-86414929D02*
X88981811Y-86510167D01*
X88981811Y-86510167D02*
X89458001Y-86605405D01*
X88553239Y-86272072D02*
X88553239Y-86938739D01*
X88553239Y-86367310D02*
X88505620Y-86319691D01*
X88505620Y-86319691D02*
X88410382Y-86272072D01*
X88410382Y-86272072D02*
X88267525Y-86272072D01*
X88267525Y-86272072D02*
X88172287Y-86319691D01*
X88172287Y-86319691D02*
X88124668Y-86414929D01*
X88124668Y-86414929D02*
X88124668Y-86938739D01*
X98315145Y-88548683D02*
X98315145Y-87548683D01*
X97838955Y-87882016D02*
X97838955Y-88548683D01*
X97838955Y-87977254D02*
X97791336Y-87929635D01*
X97791336Y-87929635D02*
X97696098Y-87882016D01*
X97696098Y-87882016D02*
X97553241Y-87882016D01*
X97553241Y-87882016D02*
X97458003Y-87929635D01*
X97458003Y-87929635D02*
X97410384Y-88024873D01*
X97410384Y-88024873D02*
X97410384Y-88548683D01*
X96981812Y-88501064D02*
X96886574Y-88548683D01*
X96886574Y-88548683D02*
X96696098Y-88548683D01*
X96696098Y-88548683D02*
X96600860Y-88501064D01*
X96600860Y-88501064D02*
X96553241Y-88405825D01*
X96553241Y-88405825D02*
X96553241Y-88358206D01*
X96553241Y-88358206D02*
X96600860Y-88262968D01*
X96600860Y-88262968D02*
X96696098Y-88215349D01*
X96696098Y-88215349D02*
X96838955Y-88215349D01*
X96838955Y-88215349D02*
X96934193Y-88167730D01*
X96934193Y-88167730D02*
X96981812Y-88072492D01*
X96981812Y-88072492D02*
X96981812Y-88024873D01*
X96981812Y-88024873D02*
X96934193Y-87929635D01*
X96934193Y-87929635D02*
X96838955Y-87882016D01*
X96838955Y-87882016D02*
X96696098Y-87882016D01*
X96696098Y-87882016D02*
X96600860Y-87929635D01*
X96267526Y-87882016D02*
X95886574Y-87882016D01*
X96124669Y-87548683D02*
X96124669Y-88405825D01*
X96124669Y-88405825D02*
X96077050Y-88501064D01*
X96077050Y-88501064D02*
X95981812Y-88548683D01*
X95981812Y-88548683D02*
X95886574Y-88548683D01*
X95553240Y-88548683D02*
X95553240Y-87882016D01*
X95553240Y-87548683D02*
X95600859Y-87596302D01*
X95600859Y-87596302D02*
X95553240Y-87643921D01*
X95553240Y-87643921D02*
X95505621Y-87596302D01*
X95505621Y-87596302D02*
X95553240Y-87548683D01*
X95553240Y-87548683D02*
X95553240Y-87643921D01*
X95219907Y-87882016D02*
X94838955Y-87882016D01*
X95077050Y-87548683D02*
X95077050Y-88405825D01*
X95077050Y-88405825D02*
X95029431Y-88501064D01*
X95029431Y-88501064D02*
X94934193Y-88548683D01*
X94934193Y-88548683D02*
X94838955Y-88548683D01*
X94077050Y-87882016D02*
X94077050Y-88548683D01*
X94505621Y-87882016D02*
X94505621Y-88405825D01*
X94505621Y-88405825D02*
X94458002Y-88501064D01*
X94458002Y-88501064D02*
X94362764Y-88548683D01*
X94362764Y-88548683D02*
X94219907Y-88548683D01*
X94219907Y-88548683D02*
X94124669Y-88501064D01*
X94124669Y-88501064D02*
X94077050Y-88453444D01*
X93743716Y-87882016D02*
X93362764Y-87882016D01*
X93600859Y-87548683D02*
X93600859Y-88405825D01*
X93600859Y-88405825D02*
X93553240Y-88501064D01*
X93553240Y-88501064D02*
X93458002Y-88548683D01*
X93458002Y-88548683D02*
X93362764Y-88548683D01*
X92315144Y-88262968D02*
X91838954Y-88262968D01*
X92410382Y-88548683D02*
X92077049Y-87548683D01*
X92077049Y-87548683D02*
X91743716Y-88548683D01*
X91458001Y-88501064D02*
X91315144Y-88548683D01*
X91315144Y-88548683D02*
X91077049Y-88548683D01*
X91077049Y-88548683D02*
X90981811Y-88501064D01*
X90981811Y-88501064D02*
X90934192Y-88453444D01*
X90934192Y-88453444D02*
X90886573Y-88358206D01*
X90886573Y-88358206D02*
X90886573Y-88262968D01*
X90886573Y-88262968D02*
X90934192Y-88167730D01*
X90934192Y-88167730D02*
X90981811Y-88120111D01*
X90981811Y-88120111D02*
X91077049Y-88072492D01*
X91077049Y-88072492D02*
X91267525Y-88024873D01*
X91267525Y-88024873D02*
X91362763Y-87977254D01*
X91362763Y-87977254D02*
X91410382Y-87929635D01*
X91410382Y-87929635D02*
X91458001Y-87834397D01*
X91458001Y-87834397D02*
X91458001Y-87739159D01*
X91458001Y-87739159D02*
X91410382Y-87643921D01*
X91410382Y-87643921D02*
X91362763Y-87596302D01*
X91362763Y-87596302D02*
X91267525Y-87548683D01*
X91267525Y-87548683D02*
X91029430Y-87548683D01*
X91029430Y-87548683D02*
X90886573Y-87596302D01*
X90410382Y-88501064D02*
X90410382Y-88548683D01*
X90410382Y-88548683D02*
X90458001Y-88643921D01*
X90458001Y-88643921D02*
X90505620Y-88691540D01*
X89267525Y-88262968D02*
X88791335Y-88262968D01*
X89362763Y-88548683D02*
X89029430Y-87548683D01*
X89029430Y-87548683D02*
X88696097Y-88548683D01*
X88362763Y-88548683D02*
X88362763Y-87548683D01*
X88362763Y-87929635D02*
X88267525Y-87882016D01*
X88267525Y-87882016D02*
X88077049Y-87882016D01*
X88077049Y-87882016D02*
X87981811Y-87929635D01*
X87981811Y-87929635D02*
X87934192Y-87977254D01*
X87934192Y-87977254D02*
X87886573Y-88072492D01*
X87886573Y-88072492D02*
X87886573Y-88358206D01*
X87886573Y-88358206D02*
X87934192Y-88453444D01*
X87934192Y-88453444D02*
X87981811Y-88501064D01*
X87981811Y-88501064D02*
X88077049Y-88548683D01*
X88077049Y-88548683D02*
X88267525Y-88548683D01*
X88267525Y-88548683D02*
X88362763Y-88501064D01*
X87600858Y-87882016D02*
X87219906Y-87882016D01*
X87458001Y-87548683D02*
X87458001Y-88405825D01*
X87458001Y-88405825D02*
X87410382Y-88501064D01*
X87410382Y-88501064D02*
X87315144Y-88548683D01*
X87315144Y-88548683D02*
X87219906Y-88548683D01*
X86505620Y-88501064D02*
X86600858Y-88548683D01*
X86600858Y-88548683D02*
X86791334Y-88548683D01*
X86791334Y-88548683D02*
X86886572Y-88501064D01*
X86886572Y-88501064D02*
X86934191Y-88405825D01*
X86934191Y-88405825D02*
X86934191Y-88024873D01*
X86934191Y-88024873D02*
X86886572Y-87929635D01*
X86886572Y-87929635D02*
X86791334Y-87882016D01*
X86791334Y-87882016D02*
X86600858Y-87882016D01*
X86600858Y-87882016D02*
X86505620Y-87929635D01*
X86505620Y-87929635D02*
X86458001Y-88024873D01*
X86458001Y-88024873D02*
X86458001Y-88120111D01*
X86458001Y-88120111D02*
X86934191Y-88215349D01*
X86029429Y-88548683D02*
X86029429Y-87882016D01*
X86029429Y-87548683D02*
X86077048Y-87596302D01*
X86077048Y-87596302D02*
X86029429Y-87643921D01*
X86029429Y-87643921D02*
X85981810Y-87596302D01*
X85981810Y-87596302D02*
X86029429Y-87548683D01*
X86029429Y-87548683D02*
X86029429Y-87643921D01*
X85410382Y-88548683D02*
X85505620Y-88501064D01*
X85505620Y-88501064D02*
X85553239Y-88405825D01*
X85553239Y-88405825D02*
X85553239Y-87548683D01*
X84600858Y-87882016D02*
X84600858Y-88548683D01*
X85029429Y-87882016D02*
X85029429Y-88405825D01*
X85029429Y-88405825D02*
X84981810Y-88501064D01*
X84981810Y-88501064D02*
X84886572Y-88548683D01*
X84886572Y-88548683D02*
X84743715Y-88548683D01*
X84743715Y-88548683D02*
X84648477Y-88501064D01*
X84648477Y-88501064D02*
X84600858Y-88453444D01*
X84124667Y-87882016D02*
X84124667Y-88548683D01*
X84124667Y-87977254D02*
X84077048Y-87929635D01*
X84077048Y-87929635D02*
X83981810Y-87882016D01*
X83981810Y-87882016D02*
X83838953Y-87882016D01*
X83838953Y-87882016D02*
X83743715Y-87929635D01*
X83743715Y-87929635D02*
X83696096Y-88024873D01*
X83696096Y-88024873D02*
X83696096Y-88548683D01*
X82791334Y-87882016D02*
X82791334Y-88691540D01*
X82791334Y-88691540D02*
X82838953Y-88786778D01*
X82838953Y-88786778D02*
X82886572Y-88834397D01*
X82886572Y-88834397D02*
X82981810Y-88882016D01*
X82981810Y-88882016D02*
X83124667Y-88882016D01*
X83124667Y-88882016D02*
X83219905Y-88834397D01*
X82791334Y-88501064D02*
X82886572Y-88548683D01*
X82886572Y-88548683D02*
X83077048Y-88548683D01*
X83077048Y-88548683D02*
X83172286Y-88501064D01*
X83172286Y-88501064D02*
X83219905Y-88453444D01*
X83219905Y-88453444D02*
X83267524Y-88358206D01*
X83267524Y-88358206D02*
X83267524Y-88072492D01*
X83267524Y-88072492D02*
X83219905Y-87977254D01*
X83219905Y-87977254D02*
X83172286Y-87929635D01*
X83172286Y-87929635D02*
X83077048Y-87882016D01*
X83077048Y-87882016D02*
X82886572Y-87882016D01*
X82886572Y-87882016D02*
X82791334Y-87929635D01*
X81553238Y-88548683D02*
X81553238Y-87548683D01*
X81553238Y-88024873D02*
X80981810Y-88024873D01*
X80981810Y-88548683D02*
X80981810Y-87548683D01*
X80505619Y-88024873D02*
X80172286Y-88024873D01*
X80029429Y-88548683D02*
X80505619Y-88548683D01*
X80505619Y-88548683D02*
X80505619Y-87548683D01*
X80505619Y-87548683D02*
X80029429Y-87548683D01*
X79124667Y-88548683D02*
X79600857Y-88548683D01*
X79600857Y-88548683D02*
X79600857Y-87548683D01*
X78791333Y-88453444D02*
X78743714Y-88501064D01*
X78743714Y-88501064D02*
X78791333Y-88548683D01*
X78791333Y-88548683D02*
X78838952Y-88501064D01*
X78838952Y-88501064D02*
X78791333Y-88453444D01*
X78791333Y-88453444D02*
X78791333Y-88548683D01*
X78791333Y-87929635D02*
X78743714Y-87977254D01*
X78743714Y-87977254D02*
X78791333Y-88024873D01*
X78791333Y-88024873D02*
X78838952Y-87977254D01*
X78838952Y-87977254D02*
X78791333Y-87929635D01*
X78791333Y-87929635D02*
X78791333Y-88024873D01*
X98029431Y-89158627D02*
X98029431Y-89872912D01*
X98029431Y-89872912D02*
X98077050Y-90015769D01*
X98077050Y-90015769D02*
X98172288Y-90111008D01*
X98172288Y-90111008D02*
X98315145Y-90158627D01*
X98315145Y-90158627D02*
X98410383Y-90158627D01*
X97553240Y-90063388D02*
X97505621Y-90111008D01*
X97505621Y-90111008D02*
X97553240Y-90158627D01*
X97553240Y-90158627D02*
X97600859Y-90111008D01*
X97600859Y-90111008D02*
X97553240Y-90063388D01*
X97553240Y-90063388D02*
X97553240Y-90158627D01*
X95981812Y-89634817D02*
X95838955Y-89682436D01*
X95838955Y-89682436D02*
X95791336Y-89730055D01*
X95791336Y-89730055D02*
X95743717Y-89825293D01*
X95743717Y-89825293D02*
X95743717Y-89968150D01*
X95743717Y-89968150D02*
X95791336Y-90063388D01*
X95791336Y-90063388D02*
X95838955Y-90111008D01*
X95838955Y-90111008D02*
X95934193Y-90158627D01*
X95934193Y-90158627D02*
X96315145Y-90158627D01*
X96315145Y-90158627D02*
X96315145Y-89158627D01*
X96315145Y-89158627D02*
X95981812Y-89158627D01*
X95981812Y-89158627D02*
X95886574Y-89206246D01*
X95886574Y-89206246D02*
X95838955Y-89253865D01*
X95838955Y-89253865D02*
X95791336Y-89349103D01*
X95791336Y-89349103D02*
X95791336Y-89444341D01*
X95791336Y-89444341D02*
X95838955Y-89539579D01*
X95838955Y-89539579D02*
X95886574Y-89587198D01*
X95886574Y-89587198D02*
X95981812Y-89634817D01*
X95981812Y-89634817D02*
X96315145Y-89634817D01*
X95315145Y-90158627D02*
X95315145Y-89491960D01*
X95315145Y-89682436D02*
X95267526Y-89587198D01*
X95267526Y-89587198D02*
X95219907Y-89539579D01*
X95219907Y-89539579D02*
X95124669Y-89491960D01*
X95124669Y-89491960D02*
X95029431Y-89491960D01*
X94267526Y-90158627D02*
X94267526Y-89634817D01*
X94267526Y-89634817D02*
X94315145Y-89539579D01*
X94315145Y-89539579D02*
X94410383Y-89491960D01*
X94410383Y-89491960D02*
X94600859Y-89491960D01*
X94600859Y-89491960D02*
X94696097Y-89539579D01*
X94267526Y-90111008D02*
X94362764Y-90158627D01*
X94362764Y-90158627D02*
X94600859Y-90158627D01*
X94600859Y-90158627D02*
X94696097Y-90111008D01*
X94696097Y-90111008D02*
X94743716Y-90015769D01*
X94743716Y-90015769D02*
X94743716Y-89920531D01*
X94743716Y-89920531D02*
X94696097Y-89825293D01*
X94696097Y-89825293D02*
X94600859Y-89777674D01*
X94600859Y-89777674D02*
X94362764Y-89777674D01*
X94362764Y-89777674D02*
X94267526Y-89730055D01*
X93362764Y-89491960D02*
X93362764Y-90158627D01*
X93791335Y-89491960D02*
X93791335Y-90015769D01*
X93791335Y-90015769D02*
X93743716Y-90111008D01*
X93743716Y-90111008D02*
X93648478Y-90158627D01*
X93648478Y-90158627D02*
X93505621Y-90158627D01*
X93505621Y-90158627D02*
X93410383Y-90111008D01*
X93410383Y-90111008D02*
X93362764Y-90063388D01*
X92886573Y-90158627D02*
X92886573Y-89158627D01*
X92791335Y-89777674D02*
X92505621Y-90158627D01*
X92505621Y-89491960D02*
X92886573Y-89872912D01*
X92077049Y-90158627D02*
X92077049Y-89491960D01*
X92077049Y-89587198D02*
X92029430Y-89539579D01*
X92029430Y-89539579D02*
X91934192Y-89491960D01*
X91934192Y-89491960D02*
X91791335Y-89491960D01*
X91791335Y-89491960D02*
X91696097Y-89539579D01*
X91696097Y-89539579D02*
X91648478Y-89634817D01*
X91648478Y-89634817D02*
X91648478Y-90158627D01*
X91648478Y-89634817D02*
X91600859Y-89539579D01*
X91600859Y-89539579D02*
X91505621Y-89491960D01*
X91505621Y-89491960D02*
X91362764Y-89491960D01*
X91362764Y-89491960D02*
X91267525Y-89539579D01*
X91267525Y-89539579D02*
X91219906Y-89634817D01*
X91219906Y-89634817D02*
X91219906Y-90158627D01*
X90315145Y-90158627D02*
X90315145Y-89634817D01*
X90315145Y-89634817D02*
X90362764Y-89539579D01*
X90362764Y-89539579D02*
X90458002Y-89491960D01*
X90458002Y-89491960D02*
X90648478Y-89491960D01*
X90648478Y-89491960D02*
X90743716Y-89539579D01*
X90315145Y-90111008D02*
X90410383Y-90158627D01*
X90410383Y-90158627D02*
X90648478Y-90158627D01*
X90648478Y-90158627D02*
X90743716Y-90111008D01*
X90743716Y-90111008D02*
X90791335Y-90015769D01*
X90791335Y-90015769D02*
X90791335Y-89920531D01*
X90791335Y-89920531D02*
X90743716Y-89825293D01*
X90743716Y-89825293D02*
X90648478Y-89777674D01*
X90648478Y-89777674D02*
X90410383Y-89777674D01*
X90410383Y-89777674D02*
X90315145Y-89730055D01*
X89838954Y-89491960D02*
X89838954Y-90158627D01*
X89838954Y-89587198D02*
X89791335Y-89539579D01*
X89791335Y-89539579D02*
X89696097Y-89491960D01*
X89696097Y-89491960D02*
X89553240Y-89491960D01*
X89553240Y-89491960D02*
X89458002Y-89539579D01*
X89458002Y-89539579D02*
X89410383Y-89634817D01*
X89410383Y-89634817D02*
X89410383Y-90158627D01*
X88934192Y-89491960D02*
X88934192Y-90158627D01*
X88934192Y-89587198D02*
X88886573Y-89539579D01*
X88886573Y-89539579D02*
X88791335Y-89491960D01*
X88791335Y-89491960D02*
X88648478Y-89491960D01*
X88648478Y-89491960D02*
X88553240Y-89539579D01*
X88553240Y-89539579D02*
X88505621Y-89634817D01*
X88505621Y-89634817D02*
X88505621Y-90158627D01*
X90553241Y-92378515D02*
X90553241Y-93188038D01*
X90553241Y-93188038D02*
X90505622Y-93283276D01*
X90505622Y-93283276D02*
X90458003Y-93330896D01*
X90458003Y-93330896D02*
X90362765Y-93378515D01*
X90362765Y-93378515D02*
X90172289Y-93378515D01*
X90172289Y-93378515D02*
X90077051Y-93330896D01*
X90077051Y-93330896D02*
X90029432Y-93283276D01*
X90029432Y-93283276D02*
X89981813Y-93188038D01*
X89981813Y-93188038D02*
X89981813Y-92378515D01*
X89362765Y-93378515D02*
X89458003Y-93330896D01*
X89458003Y-93330896D02*
X89505622Y-93235657D01*
X89505622Y-93235657D02*
X89505622Y-92378515D01*
X89124669Y-92711848D02*
X88743717Y-92711848D01*
X88981812Y-92378515D02*
X88981812Y-93235657D01*
X88981812Y-93235657D02*
X88934193Y-93330896D01*
X88934193Y-93330896D02*
X88838955Y-93378515D01*
X88838955Y-93378515D02*
X88743717Y-93378515D01*
X88410383Y-93378515D02*
X88410383Y-92711848D01*
X88410383Y-92902324D02*
X88362764Y-92807086D01*
X88362764Y-92807086D02*
X88315145Y-92759467D01*
X88315145Y-92759467D02*
X88219907Y-92711848D01*
X88219907Y-92711848D02*
X88124669Y-92711848D01*
X87362764Y-93378515D02*
X87362764Y-92854705D01*
X87362764Y-92854705D02*
X87410383Y-92759467D01*
X87410383Y-92759467D02*
X87505621Y-92711848D01*
X87505621Y-92711848D02*
X87696097Y-92711848D01*
X87696097Y-92711848D02*
X87791335Y-92759467D01*
X87362764Y-93330896D02*
X87458002Y-93378515D01*
X87458002Y-93378515D02*
X87696097Y-93378515D01*
X87696097Y-93378515D02*
X87791335Y-93330896D01*
X87791335Y-93330896D02*
X87838954Y-93235657D01*
X87838954Y-93235657D02*
X87838954Y-93140419D01*
X87838954Y-93140419D02*
X87791335Y-93045181D01*
X87791335Y-93045181D02*
X87696097Y-92997562D01*
X87696097Y-92997562D02*
X87458002Y-92997562D01*
X87458002Y-92997562D02*
X87362764Y-92949943D01*
X86934192Y-93330896D02*
X86838954Y-93378515D01*
X86838954Y-93378515D02*
X86648478Y-93378515D01*
X86648478Y-93378515D02*
X86553240Y-93330896D01*
X86553240Y-93330896D02*
X86505621Y-93235657D01*
X86505621Y-93235657D02*
X86505621Y-93188038D01*
X86505621Y-93188038D02*
X86553240Y-93092800D01*
X86553240Y-93092800D02*
X86648478Y-93045181D01*
X86648478Y-93045181D02*
X86791335Y-93045181D01*
X86791335Y-93045181D02*
X86886573Y-92997562D01*
X86886573Y-92997562D02*
X86934192Y-92902324D01*
X86934192Y-92902324D02*
X86934192Y-92854705D01*
X86934192Y-92854705D02*
X86886573Y-92759467D01*
X86886573Y-92759467D02*
X86791335Y-92711848D01*
X86791335Y-92711848D02*
X86648478Y-92711848D01*
X86648478Y-92711848D02*
X86553240Y-92759467D01*
X85648478Y-93330896D02*
X85743716Y-93378515D01*
X85743716Y-93378515D02*
X85934192Y-93378515D01*
X85934192Y-93378515D02*
X86029430Y-93330896D01*
X86029430Y-93330896D02*
X86077049Y-93283276D01*
X86077049Y-93283276D02*
X86124668Y-93188038D01*
X86124668Y-93188038D02*
X86124668Y-92902324D01*
X86124668Y-92902324D02*
X86077049Y-92807086D01*
X86077049Y-92807086D02*
X86029430Y-92759467D01*
X86029430Y-92759467D02*
X85934192Y-92711848D01*
X85934192Y-92711848D02*
X85743716Y-92711848D01*
X85743716Y-92711848D02*
X85648478Y-92759467D01*
X85219906Y-93378515D02*
X85219906Y-92378515D01*
X84791335Y-93378515D02*
X84791335Y-92854705D01*
X84791335Y-92854705D02*
X84838954Y-92759467D01*
X84838954Y-92759467D02*
X84934192Y-92711848D01*
X84934192Y-92711848D02*
X85077049Y-92711848D01*
X85077049Y-92711848D02*
X85172287Y-92759467D01*
X85172287Y-92759467D02*
X85219906Y-92807086D01*
X83886573Y-93378515D02*
X83886573Y-92854705D01*
X83886573Y-92854705D02*
X83934192Y-92759467D01*
X83934192Y-92759467D02*
X84029430Y-92711848D01*
X84029430Y-92711848D02*
X84219906Y-92711848D01*
X84219906Y-92711848D02*
X84315144Y-92759467D01*
X83886573Y-93330896D02*
X83981811Y-93378515D01*
X83981811Y-93378515D02*
X84219906Y-93378515D01*
X84219906Y-93378515D02*
X84315144Y-93330896D01*
X84315144Y-93330896D02*
X84362763Y-93235657D01*
X84362763Y-93235657D02*
X84362763Y-93140419D01*
X84362763Y-93140419D02*
X84315144Y-93045181D01*
X84315144Y-93045181D02*
X84219906Y-92997562D01*
X84219906Y-92997562D02*
X83981811Y-92997562D01*
X83981811Y-92997562D02*
X83886573Y-92949943D01*
X83267525Y-93378515D02*
X83362763Y-93330896D01*
X83362763Y-93330896D02*
X83410382Y-93235657D01*
X83410382Y-93235657D02*
X83410382Y-92378515D01*
X82743715Y-93378515D02*
X82838953Y-93330896D01*
X82838953Y-93330896D02*
X82886572Y-93235657D01*
X82886572Y-93235657D02*
X82886572Y-92378515D01*
X82362762Y-92997562D02*
X81600858Y-92997562D01*
X81172286Y-93092800D02*
X80696096Y-93092800D01*
X81267524Y-93378515D02*
X80934191Y-92378515D01*
X80934191Y-92378515D02*
X80600858Y-93378515D01*
X80267524Y-92711848D02*
X80267524Y-93378515D01*
X80267524Y-92807086D02*
X80219905Y-92759467D01*
X80219905Y-92759467D02*
X80124667Y-92711848D01*
X80124667Y-92711848D02*
X79981810Y-92711848D01*
X79981810Y-92711848D02*
X79886572Y-92759467D01*
X79886572Y-92759467D02*
X79838953Y-92854705D01*
X79838953Y-92854705D02*
X79838953Y-93378515D01*
X78981810Y-93330896D02*
X79077048Y-93378515D01*
X79077048Y-93378515D02*
X79267524Y-93378515D01*
X79267524Y-93378515D02*
X79362762Y-93330896D01*
X79362762Y-93330896D02*
X79410381Y-93235657D01*
X79410381Y-93235657D02*
X79410381Y-92854705D01*
X79410381Y-92854705D02*
X79362762Y-92759467D01*
X79362762Y-92759467D02*
X79267524Y-92711848D01*
X79267524Y-92711848D02*
X79077048Y-92711848D01*
X79077048Y-92711848D02*
X78981810Y-92759467D01*
X78981810Y-92759467D02*
X78934191Y-92854705D01*
X78934191Y-92854705D02*
X78934191Y-92949943D01*
X78934191Y-92949943D02*
X79410381Y-93045181D01*
X78505619Y-93378515D02*
X78505619Y-92711848D01*
X78505619Y-92807086D02*
X78458000Y-92759467D01*
X78458000Y-92759467D02*
X78362762Y-92711848D01*
X78362762Y-92711848D02*
X78219905Y-92711848D01*
X78219905Y-92711848D02*
X78124667Y-92759467D01*
X78124667Y-92759467D02*
X78077048Y-92854705D01*
X78077048Y-92854705D02*
X78077048Y-93378515D01*
X78077048Y-92854705D02*
X78029429Y-92759467D01*
X78029429Y-92759467D02*
X77934191Y-92711848D01*
X77934191Y-92711848D02*
X77791334Y-92711848D01*
X77791334Y-92711848D02*
X77696095Y-92759467D01*
X77696095Y-92759467D02*
X77648476Y-92854705D01*
X77648476Y-92854705D02*
X77648476Y-93378515D01*
X77029429Y-93378515D02*
X77124667Y-93330896D01*
X77124667Y-93330896D02*
X77172286Y-93283276D01*
X77172286Y-93283276D02*
X77219905Y-93188038D01*
X77219905Y-93188038D02*
X77219905Y-92902324D01*
X77219905Y-92902324D02*
X77172286Y-92807086D01*
X77172286Y-92807086D02*
X77124667Y-92759467D01*
X77124667Y-92759467D02*
X77029429Y-92711848D01*
X77029429Y-92711848D02*
X76886572Y-92711848D01*
X76886572Y-92711848D02*
X76791334Y-92759467D01*
X76791334Y-92759467D02*
X76743715Y-92807086D01*
X76743715Y-92807086D02*
X76696096Y-92902324D01*
X76696096Y-92902324D02*
X76696096Y-93188038D01*
X76696096Y-93188038D02*
X76743715Y-93283276D01*
X76743715Y-93283276D02*
X76791334Y-93330896D01*
X76791334Y-93330896D02*
X76886572Y-93378515D01*
X76886572Y-93378515D02*
X77029429Y-93378515D01*
X76267524Y-93378515D02*
X76267524Y-92711848D01*
X76267524Y-92807086D02*
X76219905Y-92759467D01*
X76219905Y-92759467D02*
X76124667Y-92711848D01*
X76124667Y-92711848D02*
X75981810Y-92711848D01*
X75981810Y-92711848D02*
X75886572Y-92759467D01*
X75886572Y-92759467D02*
X75838953Y-92854705D01*
X75838953Y-92854705D02*
X75838953Y-93378515D01*
X75838953Y-92854705D02*
X75791334Y-92759467D01*
X75791334Y-92759467D02*
X75696096Y-92711848D01*
X75696096Y-92711848D02*
X75553239Y-92711848D01*
X75553239Y-92711848D02*
X75458000Y-92759467D01*
X75458000Y-92759467D02*
X75410381Y-92854705D01*
X75410381Y-92854705D02*
X75410381Y-93378515D01*
X74553239Y-93330896D02*
X74648477Y-93378515D01*
X74648477Y-93378515D02*
X74838953Y-93378515D01*
X74838953Y-93378515D02*
X74934191Y-93330896D01*
X74934191Y-93330896D02*
X74981810Y-93235657D01*
X74981810Y-93235657D02*
X74981810Y-92854705D01*
X74981810Y-92854705D02*
X74934191Y-92759467D01*
X74934191Y-92759467D02*
X74838953Y-92711848D01*
X74838953Y-92711848D02*
X74648477Y-92711848D01*
X74648477Y-92711848D02*
X74553239Y-92759467D01*
X74553239Y-92759467D02*
X74505620Y-92854705D01*
X74505620Y-92854705D02*
X74505620Y-92949943D01*
X74505620Y-92949943D02*
X74981810Y-93045181D01*
X74219905Y-92711848D02*
X73838953Y-92711848D01*
X74077048Y-92378515D02*
X74077048Y-93235657D01*
X74077048Y-93235657D02*
X74029429Y-93330896D01*
X74029429Y-93330896D02*
X73934191Y-93378515D01*
X73934191Y-93378515D02*
X73838953Y-93378515D01*
X73124667Y-93330896D02*
X73219905Y-93378515D01*
X73219905Y-93378515D02*
X73410381Y-93378515D01*
X73410381Y-93378515D02*
X73505619Y-93330896D01*
X73505619Y-93330896D02*
X73553238Y-93235657D01*
X73553238Y-93235657D02*
X73553238Y-92854705D01*
X73553238Y-92854705D02*
X73505619Y-92759467D01*
X73505619Y-92759467D02*
X73410381Y-92711848D01*
X73410381Y-92711848D02*
X73219905Y-92711848D01*
X73219905Y-92711848D02*
X73124667Y-92759467D01*
X73124667Y-92759467D02*
X73077048Y-92854705D01*
X73077048Y-92854705D02*
X73077048Y-92949943D01*
X73077048Y-92949943D02*
X73553238Y-93045181D01*
X72648476Y-93378515D02*
X72648476Y-92711848D01*
X72648476Y-92902324D02*
X72600857Y-92807086D01*
X72600857Y-92807086D02*
X72553238Y-92759467D01*
X72553238Y-92759467D02*
X72458000Y-92711848D01*
X72458000Y-92711848D02*
X72362762Y-92711848D01*
X89172288Y-93988459D02*
X88838955Y-94988459D01*
X88838955Y-94988459D02*
X88505622Y-93988459D01*
X87791336Y-94940840D02*
X87886574Y-94988459D01*
X87886574Y-94988459D02*
X88077050Y-94988459D01*
X88077050Y-94988459D02*
X88172288Y-94940840D01*
X88172288Y-94940840D02*
X88219907Y-94845601D01*
X88219907Y-94845601D02*
X88219907Y-94464649D01*
X88219907Y-94464649D02*
X88172288Y-94369411D01*
X88172288Y-94369411D02*
X88077050Y-94321792D01*
X88077050Y-94321792D02*
X87886574Y-94321792D01*
X87886574Y-94321792D02*
X87791336Y-94369411D01*
X87791336Y-94369411D02*
X87743717Y-94464649D01*
X87743717Y-94464649D02*
X87743717Y-94559887D01*
X87743717Y-94559887D02*
X88219907Y-94655125D01*
X87315145Y-94988459D02*
X87315145Y-94321792D01*
X87315145Y-94512268D02*
X87267526Y-94417030D01*
X87267526Y-94417030D02*
X87219907Y-94369411D01*
X87219907Y-94369411D02*
X87124669Y-94321792D01*
X87124669Y-94321792D02*
X87029431Y-94321792D01*
X86743716Y-94940840D02*
X86648478Y-94988459D01*
X86648478Y-94988459D02*
X86458002Y-94988459D01*
X86458002Y-94988459D02*
X86362764Y-94940840D01*
X86362764Y-94940840D02*
X86315145Y-94845601D01*
X86315145Y-94845601D02*
X86315145Y-94797982D01*
X86315145Y-94797982D02*
X86362764Y-94702744D01*
X86362764Y-94702744D02*
X86458002Y-94655125D01*
X86458002Y-94655125D02*
X86600859Y-94655125D01*
X86600859Y-94655125D02*
X86696097Y-94607506D01*
X86696097Y-94607506D02*
X86743716Y-94512268D01*
X86743716Y-94512268D02*
X86743716Y-94464649D01*
X86743716Y-94464649D02*
X86696097Y-94369411D01*
X86696097Y-94369411D02*
X86600859Y-94321792D01*
X86600859Y-94321792D02*
X86458002Y-94321792D01*
X86458002Y-94321792D02*
X86362764Y-94369411D01*
X85886573Y-94988459D02*
X85886573Y-94321792D01*
X85886573Y-93988459D02*
X85934192Y-94036078D01*
X85934192Y-94036078D02*
X85886573Y-94083697D01*
X85886573Y-94083697D02*
X85838954Y-94036078D01*
X85838954Y-94036078D02*
X85886573Y-93988459D01*
X85886573Y-93988459D02*
X85886573Y-94083697D01*
X85267526Y-94988459D02*
X85362764Y-94940840D01*
X85362764Y-94940840D02*
X85410383Y-94893220D01*
X85410383Y-94893220D02*
X85458002Y-94797982D01*
X85458002Y-94797982D02*
X85458002Y-94512268D01*
X85458002Y-94512268D02*
X85410383Y-94417030D01*
X85410383Y-94417030D02*
X85362764Y-94369411D01*
X85362764Y-94369411D02*
X85267526Y-94321792D01*
X85267526Y-94321792D02*
X85124669Y-94321792D01*
X85124669Y-94321792D02*
X85029431Y-94369411D01*
X85029431Y-94369411D02*
X84981812Y-94417030D01*
X84981812Y-94417030D02*
X84934193Y-94512268D01*
X84934193Y-94512268D02*
X84934193Y-94797982D01*
X84934193Y-94797982D02*
X84981812Y-94893220D01*
X84981812Y-94893220D02*
X85029431Y-94940840D01*
X85029431Y-94940840D02*
X85124669Y-94988459D01*
X85124669Y-94988459D02*
X85267526Y-94988459D01*
X84505621Y-94321792D02*
X84505621Y-94988459D01*
X84505621Y-94417030D02*
X84458002Y-94369411D01*
X84458002Y-94369411D02*
X84362764Y-94321792D01*
X84362764Y-94321792D02*
X84219907Y-94321792D01*
X84219907Y-94321792D02*
X84124669Y-94369411D01*
X84124669Y-94369411D02*
X84077050Y-94464649D01*
X84077050Y-94464649D02*
X84077050Y-94988459D01*
X82315145Y-94988459D02*
X82886573Y-94988459D01*
X82600859Y-94988459D02*
X82600859Y-93988459D01*
X82600859Y-93988459D02*
X82696097Y-94131316D01*
X82696097Y-94131316D02*
X82791335Y-94226554D01*
X82791335Y-94226554D02*
X82886573Y-94274173D01*
X81838954Y-94940840D02*
X81838954Y-94988459D01*
X81838954Y-94988459D02*
X81886573Y-95083697D01*
X81886573Y-95083697D02*
X81934192Y-95131316D01*
X80124669Y-94988459D02*
X80696097Y-94988459D01*
X80410383Y-94988459D02*
X80410383Y-93988459D01*
X80410383Y-93988459D02*
X80505621Y-94131316D01*
X80505621Y-94131316D02*
X80600859Y-94226554D01*
X80600859Y-94226554D02*
X80696097Y-94274173D01*
X79743716Y-94083697D02*
X79696097Y-94036078D01*
X79696097Y-94036078D02*
X79600859Y-93988459D01*
X79600859Y-93988459D02*
X79362764Y-93988459D01*
X79362764Y-93988459D02*
X79267526Y-94036078D01*
X79267526Y-94036078D02*
X79219907Y-94083697D01*
X79219907Y-94083697D02*
X79172288Y-94178935D01*
X79172288Y-94178935D02*
X79172288Y-94274173D01*
X79172288Y-94274173D02*
X79219907Y-94417030D01*
X79219907Y-94417030D02*
X79791335Y-94988459D01*
X79791335Y-94988459D02*
X79172288Y-94988459D01*
X78743716Y-94893220D02*
X78696097Y-94940840D01*
X78696097Y-94940840D02*
X78743716Y-94988459D01*
X78743716Y-94988459D02*
X78791335Y-94940840D01*
X78791335Y-94940840D02*
X78743716Y-94893220D01*
X78743716Y-94893220D02*
X78743716Y-94988459D01*
X77838955Y-94321792D02*
X77838955Y-94988459D01*
X78077050Y-93940840D02*
X78315145Y-94655125D01*
X78315145Y-94655125D02*
X77696098Y-94655125D01*
X77315145Y-94893220D02*
X77267526Y-94940840D01*
X77267526Y-94940840D02*
X77315145Y-94988459D01*
X77315145Y-94988459D02*
X77362764Y-94940840D01*
X77362764Y-94940840D02*
X77315145Y-94893220D01*
X77315145Y-94893220D02*
X77315145Y-94988459D01*
X76886574Y-94083697D02*
X76838955Y-94036078D01*
X76838955Y-94036078D02*
X76743717Y-93988459D01*
X76743717Y-93988459D02*
X76505622Y-93988459D01*
X76505622Y-93988459D02*
X76410384Y-94036078D01*
X76410384Y-94036078D02*
X76362765Y-94083697D01*
X76362765Y-94083697D02*
X76315146Y-94178935D01*
X76315146Y-94178935D02*
X76315146Y-94274173D01*
X76315146Y-94274173D02*
X76362765Y-94417030D01*
X76362765Y-94417030D02*
X76934193Y-94988459D01*
X76934193Y-94988459D02*
X76315146Y-94988459D01*
X75696098Y-93988459D02*
X75600860Y-93988459D01*
X75600860Y-93988459D02*
X75505622Y-94036078D01*
X75505622Y-94036078D02*
X75458003Y-94083697D01*
X75458003Y-94083697D02*
X75410384Y-94178935D01*
X75410384Y-94178935D02*
X75362765Y-94369411D01*
X75362765Y-94369411D02*
X75362765Y-94607506D01*
X75362765Y-94607506D02*
X75410384Y-94797982D01*
X75410384Y-94797982D02*
X75458003Y-94893220D01*
X75458003Y-94893220D02*
X75505622Y-94940840D01*
X75505622Y-94940840D02*
X75600860Y-94988459D01*
X75600860Y-94988459D02*
X75696098Y-94988459D01*
X75696098Y-94988459D02*
X75791336Y-94940840D01*
X75791336Y-94940840D02*
X75838955Y-94893220D01*
X75838955Y-94893220D02*
X75886574Y-94797982D01*
X75886574Y-94797982D02*
X75934193Y-94607506D01*
X75934193Y-94607506D02*
X75934193Y-94369411D01*
X75934193Y-94369411D02*
X75886574Y-94178935D01*
X75886574Y-94178935D02*
X75838955Y-94083697D01*
X75838955Y-94083697D02*
X75791336Y-94036078D01*
X75791336Y-94036078D02*
X75696098Y-93988459D01*
X74981812Y-94083697D02*
X74934193Y-94036078D01*
X74934193Y-94036078D02*
X74838955Y-93988459D01*
X74838955Y-93988459D02*
X74600860Y-93988459D01*
X74600860Y-93988459D02*
X74505622Y-94036078D01*
X74505622Y-94036078D02*
X74458003Y-94083697D01*
X74458003Y-94083697D02*
X74410384Y-94178935D01*
X74410384Y-94178935D02*
X74410384Y-94274173D01*
X74410384Y-94274173D02*
X74458003Y-94417030D01*
X74458003Y-94417030D02*
X75029431Y-94988459D01*
X75029431Y-94988459D02*
X74410384Y-94988459D01*
X73553241Y-94321792D02*
X73553241Y-94988459D01*
X73791336Y-93940840D02*
X74029431Y-94655125D01*
X74029431Y-94655125D02*
X73410384Y-94655125D01*
X63658504Y-69050000D02*
X99408504Y-69050000D01*
X99408504Y-96150000D01*
X63658504Y-96150000D01*
X63658504Y-69050000D01*
D11*
X79614285Y-65404819D02*
X79614285Y-64404819D01*
X79614285Y-64404819D02*
X79376190Y-64404819D01*
X79376190Y-64404819D02*
X79233333Y-64452438D01*
X79233333Y-64452438D02*
X79138095Y-64547676D01*
X79138095Y-64547676D02*
X79090476Y-64642914D01*
X79090476Y-64642914D02*
X79042857Y-64833390D01*
X79042857Y-64833390D02*
X79042857Y-64976247D01*
X79042857Y-64976247D02*
X79090476Y-65166723D01*
X79090476Y-65166723D02*
X79138095Y-65261961D01*
X79138095Y-65261961D02*
X79233333Y-65357200D01*
X79233333Y-65357200D02*
X79376190Y-65404819D01*
X79376190Y-65404819D02*
X79614285Y-65404819D01*
X78661904Y-64500057D02*
X78614285Y-64452438D01*
X78614285Y-64452438D02*
X78519047Y-64404819D01*
X78519047Y-64404819D02*
X78280952Y-64404819D01*
X78280952Y-64404819D02*
X78185714Y-64452438D01*
X78185714Y-64452438D02*
X78138095Y-64500057D01*
X78138095Y-64500057D02*
X78090476Y-64595295D01*
X78090476Y-64595295D02*
X78090476Y-64690533D01*
X78090476Y-64690533D02*
X78138095Y-64833390D01*
X78138095Y-64833390D02*
X78709523Y-65404819D01*
X78709523Y-65404819D02*
X78090476Y-65404819D01*
X77185714Y-64404819D02*
X77661904Y-64404819D01*
X77661904Y-64404819D02*
X77709523Y-64881009D01*
X77709523Y-64881009D02*
X77661904Y-64833390D01*
X77661904Y-64833390D02*
X77566666Y-64785771D01*
X77566666Y-64785771D02*
X77328571Y-64785771D01*
X77328571Y-64785771D02*
X77233333Y-64833390D01*
X77233333Y-64833390D02*
X77185714Y-64881009D01*
X77185714Y-64881009D02*
X77138095Y-64976247D01*
X77138095Y-64976247D02*
X77138095Y-65214342D01*
X77138095Y-65214342D02*
X77185714Y-65309580D01*
X77185714Y-65309580D02*
X77233333Y-65357200D01*
X77233333Y-65357200D02*
X77328571Y-65404819D01*
X77328571Y-65404819D02*
X77566666Y-65404819D01*
X77566666Y-65404819D02*
X77661904Y-65357200D01*
X77661904Y-65357200D02*
X77709523Y-65309580D01*
D12*
%TO.C,T_GND1*%
X66450000Y-64400000D02*
G75*
G02*
X64550000Y-64400000I-950000J0D01*
G01*
X64550000Y-64400000D02*
G75*
G02*
X66450000Y-64400000I950000J0D01*
G01*
%TO.C,L1*%
X77850378Y-55940000D02*
X78649622Y-55940000D01*
X77850378Y-57060000D02*
X78649622Y-57060000D01*
%TO.C,C66*%
X74711252Y-67265000D02*
X74188748Y-67265000D01*
X74711252Y-68735000D02*
X74188748Y-68735000D01*
%TO.C,C74*%
X72609420Y-58240000D02*
X72890580Y-58240000D01*
X72609420Y-59260000D02*
X72890580Y-59260000D01*
%TO.C,R64*%
X75477501Y-109412258D02*
X75477501Y-108937742D01*
X76522501Y-109412258D02*
X76522501Y-108937742D01*
%TO.C,C67*%
X92511252Y-67015000D02*
X91988748Y-67015000D01*
X92511252Y-68485000D02*
X91988748Y-68485000D01*
D13*
%TO.C,IC5*%
X53949500Y-92655000D02*
X57149500Y-92655000D01*
X53949500Y-97555000D02*
X53949500Y-92655000D01*
X57149500Y-92655000D02*
X57149500Y-97555000D01*
X57149500Y-97555000D02*
X53949500Y-97555000D01*
X57499500Y-92525000D02*
X59024500Y-92525000D01*
D12*
%TO.C,R25*%
X104977499Y-94822259D02*
X104977499Y-94347743D01*
X106022499Y-94822259D02*
X106022499Y-94347743D01*
%TO.C,C2*%
X80665000Y-55388748D02*
X80665000Y-55911252D01*
X82135000Y-55388748D02*
X82135000Y-55911252D01*
%TO.C,T_12V1*%
X75950000Y-56750000D02*
G75*
G02*
X74050000Y-56750000I-950000J0D01*
G01*
X74050000Y-56750000D02*
G75*
G02*
X75950000Y-56750000I950000J0D01*
G01*
%TO.C,R49*%
X105327500Y-108162258D02*
X105327500Y-107687742D01*
X106372500Y-108162258D02*
X106372500Y-107687742D01*
%TO.C,C3*%
X78511252Y-57765000D02*
X77988748Y-57765000D01*
X78511252Y-59235000D02*
X77988748Y-59235000D01*
%TO.C,U5*%
X71025001Y-118805000D02*
X72975001Y-118805000D01*
X71025001Y-123925000D02*
X72975001Y-123925000D01*
X74925001Y-118805000D02*
X72975001Y-118805000D01*
X74925001Y-123925000D02*
X72975001Y-123925000D01*
X75675001Y-118900000D02*
X75435001Y-118570000D01*
X75915001Y-118570000D01*
X75675001Y-118900000D01*
G36*
X75675001Y-118900000D02*
G01*
X75435001Y-118570000D01*
X75915001Y-118570000D01*
X75675001Y-118900000D01*
G37*
%TO.C,R77*%
X84087742Y-103727499D02*
X84562258Y-103727499D01*
X84087742Y-104772499D02*
X84562258Y-104772499D01*
%TO.C,C7*%
X100750000Y-54310000D02*
X100750000Y-54810000D01*
X101000000Y-54560000D02*
X100500000Y-54560000D01*
X101240000Y-51940000D02*
X101240000Y-51804437D01*
X101240000Y-54060000D02*
X101240000Y-54195563D01*
X102304437Y-50740000D02*
X101240000Y-51804437D01*
X102304437Y-55260000D02*
X101240000Y-54195563D01*
X105760000Y-50740000D02*
X102304437Y-50740000D01*
X105760000Y-51940000D02*
X105760000Y-50740000D01*
X105760000Y-54060000D02*
X105760000Y-55260000D01*
X105760000Y-55260000D02*
X102304437Y-55260000D01*
%TO.C,R59*%
X94427501Y-116487258D02*
X94427501Y-116012742D01*
X95472501Y-116487258D02*
X95472501Y-116012742D01*
%TO.C,C4*%
X87200000Y-54310000D02*
X87200000Y-54810000D01*
X87450000Y-54560000D02*
X86950000Y-54560000D01*
X87690000Y-51940000D02*
X87690000Y-51804437D01*
X87690000Y-54060000D02*
X87690000Y-54195563D01*
X88754437Y-50740000D02*
X87690000Y-51804437D01*
X88754437Y-55260000D02*
X87690000Y-54195563D01*
X92210000Y-50740000D02*
X88754437Y-50740000D01*
X92210000Y-51940000D02*
X92210000Y-50740000D01*
X92210000Y-54060000D02*
X92210000Y-55260000D01*
X92210000Y-55260000D02*
X88754437Y-55260000D01*
%TO.C,C72*%
X92140580Y-65490000D02*
X91859420Y-65490000D01*
X92140580Y-66510000D02*
X91859420Y-66510000D01*
%TO.C,Q9*%
X73395001Y-112000000D02*
X73395001Y-112800000D01*
X73395001Y-113600000D02*
X73395001Y-112800000D01*
X76515001Y-112000000D02*
X76515001Y-112800000D01*
X76515001Y-113600000D02*
X76515001Y-112800000D01*
X76795001Y-114340000D02*
X76465001Y-114100000D01*
X76795001Y-113860000D01*
X76795001Y-114340000D01*
G36*
X76795001Y-114340000D02*
G01*
X76465001Y-114100000D01*
X76795001Y-113860000D01*
X76795001Y-114340000D01*
G37*
%TO.C,T_V_ADJ1*%
X119750000Y-68200000D02*
G75*
G02*
X117850000Y-68200000I-950000J0D01*
G01*
X117850000Y-68200000D02*
G75*
G02*
X119750000Y-68200000I950000J0D01*
G01*
%TO.C,T_-5V1*%
X90200000Y-67750000D02*
G75*
G02*
X88300000Y-67750000I-950000J0D01*
G01*
X88300000Y-67750000D02*
G75*
G02*
X90200000Y-67750000I950000J0D01*
G01*
%TO.C,D9*%
X110600000Y-108410000D02*
X114610000Y-108410000D01*
X110600000Y-110410000D02*
X114610000Y-110410000D01*
X114610000Y-110410000D02*
X114610000Y-108410000D01*
%TO.C,R50*%
X95927501Y-119087742D02*
X95927501Y-119562258D01*
X96972501Y-119087742D02*
X96972501Y-119562258D01*
%TO.C,C5*%
X94265000Y-55338748D02*
X94265000Y-55861252D01*
X95735000Y-55338748D02*
X95735000Y-55861252D01*
%TO.C,C10*%
X67490000Y-61754437D02*
X68554437Y-60690000D01*
X67490000Y-65210000D02*
X67490000Y-61754437D01*
X68190000Y-60450000D02*
X68190000Y-59950000D01*
X68440000Y-60200000D02*
X67940000Y-60200000D01*
X68690000Y-60690000D02*
X68554437Y-60690000D01*
X68690000Y-65210000D02*
X67490000Y-65210000D01*
X70810000Y-60690000D02*
X70945563Y-60690000D01*
X70810000Y-65210000D02*
X72010000Y-65210000D01*
X72010000Y-61754437D02*
X70945563Y-60690000D01*
X72010000Y-65210000D02*
X72010000Y-61754437D01*
%TO.C,C57*%
X122365580Y-100900000D02*
X122084420Y-100900000D01*
X122365580Y-101920000D02*
X122084420Y-101920000D01*
%TO.C,R75*%
X103727500Y-74912258D02*
X103727500Y-74437742D01*
X104772500Y-74912258D02*
X104772500Y-74437742D01*
%TO.C,D16*%
X89950001Y-114150000D02*
X89950001Y-110140000D01*
X91950001Y-110140000D02*
X89950001Y-110140000D01*
X91950001Y-114150000D02*
X91950001Y-110140000D01*
%TO.C,C8*%
X104938748Y-61465000D02*
X105461252Y-61465000D01*
X104938748Y-62935000D02*
X105461252Y-62935000D01*
%TO.C,R18*%
X109412258Y-82477500D02*
X108937742Y-82477500D01*
X109412258Y-83522500D02*
X108937742Y-83522500D01*
%TO.C,U4*%
X118555000Y-103985000D02*
X118555000Y-105935000D01*
X118555000Y-107885000D02*
X118555000Y-105935000D01*
X123675000Y-103985000D02*
X123675000Y-105935000D01*
X123675000Y-107885000D02*
X123675000Y-105935000D01*
X118650000Y-103235000D02*
X118320000Y-103475000D01*
X118320000Y-102995000D01*
X118650000Y-103235000D01*
G36*
X118650000Y-103235000D02*
G01*
X118320000Y-103475000D01*
X118320000Y-102995000D01*
X118650000Y-103235000D01*
G37*
%TO.C,C11*%
X80490000Y-61804437D02*
X81554437Y-60740000D01*
X80490000Y-65260000D02*
X80490000Y-61804437D01*
X81190000Y-60500000D02*
X81190000Y-60000000D01*
X81440000Y-60250000D02*
X80940000Y-60250000D01*
X81690000Y-60740000D02*
X81554437Y-60740000D01*
X81690000Y-65260000D02*
X80490000Y-65260000D01*
X83810000Y-60740000D02*
X83945563Y-60740000D01*
X83810000Y-65260000D02*
X85010000Y-65260000D01*
X85010000Y-61804437D02*
X83945563Y-60740000D01*
X85010000Y-65260000D02*
X85010000Y-61804437D01*
%TO.C,C53*%
X53152500Y-107540580D02*
X53152500Y-107259420D01*
X54172500Y-107540580D02*
X54172500Y-107259420D01*
D14*
%TO.C,G\u002A\u002A\u002A*%
G36*
X73356009Y-73417703D02*
G01*
X73412193Y-73495675D01*
X73380569Y-73558911D01*
X73250616Y-73592621D01*
X73145222Y-73573647D01*
X73089038Y-73495675D01*
X73120663Y-73432439D01*
X73250616Y-73398728D01*
X73356009Y-73417703D01*
G37*
G36*
X76804989Y-72888353D02*
G01*
X76870496Y-72953677D01*
X76857425Y-73034243D01*
X76837302Y-73051790D01*
X76748069Y-73067762D01*
X76708377Y-72978626D01*
X76715219Y-72934086D01*
X76769193Y-72881680D01*
X76804989Y-72888353D01*
G37*
G36*
X77063513Y-72888353D02*
G01*
X77129020Y-72953677D01*
X77115949Y-73034243D01*
X77095826Y-73051790D01*
X77006593Y-73067762D01*
X76966901Y-72978626D01*
X76973743Y-72934086D01*
X77027717Y-72881680D01*
X77063513Y-72888353D01*
G37*
G36*
X68736945Y-71680588D02*
G01*
X68797084Y-71718285D01*
X68819841Y-71820632D01*
X68823389Y-72019933D01*
X68815720Y-72217488D01*
X68785700Y-72331895D01*
X68726443Y-72364632D01*
X68716196Y-72364076D01*
X68650135Y-72304504D01*
X68629496Y-72136394D01*
X68605875Y-71964462D01*
X68532550Y-71870955D01*
X68485474Y-71847753D01*
X68434811Y-71772457D01*
X68487907Y-71704676D01*
X68629496Y-71675234D01*
X68736945Y-71680588D01*
G37*
G36*
X64809408Y-73178981D02*
G01*
X64880920Y-73220769D01*
X64915539Y-73322471D01*
X64932747Y-73518753D01*
X64933616Y-73533931D01*
X64936190Y-73728665D01*
X64911220Y-73825151D01*
X64851958Y-73851146D01*
X64835179Y-73849816D01*
X64771111Y-73788801D01*
X64751634Y-73622908D01*
X64728012Y-73450976D01*
X64654687Y-73357469D01*
X64605335Y-73332596D01*
X64553469Y-73254106D01*
X64602180Y-73186615D01*
X64735476Y-73167691D01*
X64809408Y-73178981D01*
G37*
G36*
X75607684Y-72952907D02*
G01*
X75648078Y-73012240D01*
X75668579Y-73152922D01*
X75674280Y-73398728D01*
X75674280Y-73851146D01*
X75415756Y-73851146D01*
X75341432Y-73849386D01*
X75199921Y-73821609D01*
X75157232Y-73754199D01*
X75188856Y-73690963D01*
X75318809Y-73657252D01*
X75399504Y-73651429D01*
X75454024Y-73611372D01*
X75476192Y-73505367D01*
X75480387Y-73301782D01*
X75488769Y-73090207D01*
X75518869Y-72978224D01*
X75577333Y-72946311D01*
X75607684Y-72952907D01*
G37*
G36*
X80196488Y-72952907D02*
G01*
X80236882Y-73012240D01*
X80257383Y-73152922D01*
X80263084Y-73398728D01*
X80263084Y-73851146D01*
X80004560Y-73851146D01*
X79930236Y-73849386D01*
X79788725Y-73821609D01*
X79746036Y-73754199D01*
X79777660Y-73690963D01*
X79907613Y-73657252D01*
X79988308Y-73651429D01*
X80042828Y-73611372D01*
X80064997Y-73505367D01*
X80069191Y-73301782D01*
X80077573Y-73090207D01*
X80107673Y-72978224D01*
X80166137Y-72946311D01*
X80196488Y-72952907D01*
G37*
G36*
X74085509Y-71672775D02*
G01*
X74223177Y-71781262D01*
X74306048Y-71948467D01*
X74317141Y-72131401D01*
X74239471Y-72287074D01*
X74232083Y-72293831D01*
X74121905Y-72343360D01*
X73978110Y-72363036D01*
X73853275Y-72350776D01*
X73799980Y-72304496D01*
X73831753Y-72262572D01*
X73945399Y-72223707D01*
X74056423Y-72171186D01*
X74116546Y-72060654D01*
X74099864Y-71943102D01*
X73998986Y-71867647D01*
X73949771Y-71849267D01*
X73873667Y-71771633D01*
X73886124Y-71690931D01*
X73989256Y-71653690D01*
X74085509Y-71672775D01*
G37*
G36*
X76411820Y-73171891D02*
G01*
X76439228Y-73301007D01*
X76449852Y-73495675D01*
X76446428Y-73619842D01*
X76422114Y-73787923D01*
X76381812Y-73842917D01*
X76334279Y-73779568D01*
X76288275Y-73592621D01*
X76282259Y-73560057D01*
X76226803Y-73394630D01*
X76153332Y-73334097D01*
X76110886Y-73322902D01*
X76062066Y-73237151D01*
X76070179Y-73181646D01*
X76132971Y-73145174D01*
X76243033Y-73217761D01*
X76301514Y-73262726D01*
X76320590Y-73217761D01*
X76324605Y-73190918D01*
X76385221Y-73140204D01*
X76411820Y-73171891D01*
G37*
G36*
X75334254Y-71650694D02*
G01*
X75372355Y-71734883D01*
X75349801Y-71816086D01*
X75310589Y-71873308D01*
X75286494Y-72007689D01*
X75279138Y-72115479D01*
X75247263Y-72262399D01*
X75188262Y-72326500D01*
X75053370Y-72364632D01*
X74930140Y-72338887D01*
X74905259Y-72277910D01*
X74995654Y-72211997D01*
X74997750Y-72211152D01*
X75061271Y-72135608D01*
X75090773Y-72012713D01*
X75081318Y-71898145D01*
X75027969Y-71847583D01*
X74974522Y-71821974D01*
X74976693Y-71732612D01*
X75055668Y-71616758D01*
X75133310Y-71551656D01*
X75235445Y-71540171D01*
X75334254Y-71650694D01*
G37*
G36*
X68196899Y-73229420D02*
G01*
X68241710Y-73431044D01*
X68247822Y-73472867D01*
X68297008Y-73646942D01*
X68357765Y-73703557D01*
X68413556Y-73640687D01*
X68447845Y-73456305D01*
X68461834Y-73336845D01*
X68508043Y-73185892D01*
X68563453Y-73153362D01*
X68609970Y-73240163D01*
X68629496Y-73447202D01*
X68627241Y-73555767D01*
X68613196Y-73721631D01*
X68590551Y-73803916D01*
X68579209Y-73810966D01*
X68470596Y-73832469D01*
X68299712Y-73839384D01*
X68047817Y-73835908D01*
X68047817Y-73482670D01*
X68053871Y-73345834D01*
X68088412Y-73190693D01*
X68140943Y-73150596D01*
X68196899Y-73229420D01*
G37*
G36*
X69280169Y-71625322D02*
G01*
X69357047Y-71719609D01*
X69341965Y-71807277D01*
X69299552Y-71889016D01*
X69275807Y-72041476D01*
X69257971Y-72166219D01*
X69198249Y-72287074D01*
X69166577Y-72312541D01*
X69049194Y-72357558D01*
X68937656Y-72356877D01*
X68888020Y-72306915D01*
X68899442Y-72275437D01*
X68984967Y-72211997D01*
X68987063Y-72211152D01*
X69050584Y-72135608D01*
X69080086Y-72012713D01*
X69070631Y-71898145D01*
X69017282Y-71847583D01*
X68962050Y-71819774D01*
X68968457Y-71728576D01*
X69052433Y-71609307D01*
X69101955Y-71564628D01*
X69177228Y-71549101D01*
X69280169Y-71625322D01*
G37*
G36*
X75629783Y-71742834D02*
G01*
X75674280Y-71944530D01*
X75680392Y-71986353D01*
X75729578Y-72160428D01*
X75790335Y-72217043D01*
X75846126Y-72154173D01*
X75880415Y-71969791D01*
X75894404Y-71850331D01*
X75940613Y-71699378D01*
X75996023Y-71666848D01*
X76042539Y-71753649D01*
X76062066Y-71960688D01*
X76059597Y-72068934D01*
X76044063Y-72236658D01*
X76018979Y-72321544D01*
X76008263Y-72328760D01*
X75898933Y-72354306D01*
X75728139Y-72364632D01*
X75480387Y-72364632D01*
X75480387Y-72003775D01*
X75487282Y-71855956D01*
X75522257Y-71702833D01*
X75574433Y-71663697D01*
X75629783Y-71742834D01*
G37*
G36*
X67898666Y-71704528D02*
G01*
X67918555Y-71835230D01*
X67922694Y-71899386D01*
X67960586Y-72048184D01*
X68022106Y-72163110D01*
X68087588Y-72214013D01*
X68137369Y-72170738D01*
X68165062Y-72057324D01*
X68190458Y-71884883D01*
X68229764Y-71720650D01*
X68290803Y-71665641D01*
X68346577Y-71726741D01*
X68370972Y-71901542D01*
X68370463Y-71944523D01*
X68357342Y-72133186D01*
X68332020Y-72261674D01*
X68327876Y-72271188D01*
X68235710Y-72338657D01*
X68041180Y-72353311D01*
X67789293Y-72343441D01*
X67789293Y-71998566D01*
X67794597Y-71862111D01*
X67818066Y-71712030D01*
X67853924Y-71653690D01*
X67898666Y-71704528D01*
G37*
G36*
X72582331Y-73144905D02*
G01*
X72613149Y-73228969D01*
X72631879Y-73383073D01*
X72636735Y-73561045D01*
X72625929Y-73716717D01*
X72597676Y-73803916D01*
X72586334Y-73810966D01*
X72477721Y-73832469D01*
X72306836Y-73839384D01*
X72054941Y-73835908D01*
X72054941Y-73482670D01*
X72060996Y-73345834D01*
X72095536Y-73190693D01*
X72148068Y-73150596D01*
X72204023Y-73229420D01*
X72248835Y-73431044D01*
X72251612Y-73451126D01*
X72300447Y-73631026D01*
X72365953Y-73695620D01*
X72432528Y-73653713D01*
X72484570Y-73514113D01*
X72506476Y-73285624D01*
X72521202Y-73195006D01*
X72571990Y-73140204D01*
X72582331Y-73144905D01*
G37*
G36*
X74667767Y-71679043D02*
G01*
X74775712Y-71738611D01*
X74837754Y-71859528D01*
X74815630Y-71987327D01*
X74704814Y-72073792D01*
X74629019Y-72110817D01*
X74575552Y-72182632D01*
X74601938Y-72216669D01*
X74704814Y-72216643D01*
X74786571Y-72210227D01*
X74834076Y-72273736D01*
X74786777Y-72342190D01*
X74656885Y-72363407D01*
X74483892Y-72325401D01*
X74450099Y-72307998D01*
X74386683Y-72205374D01*
X74413336Y-72076913D01*
X74524684Y-71969479D01*
X74667710Y-71892935D01*
X74513728Y-71835973D01*
X74510559Y-71834786D01*
X74417143Y-71769806D01*
X74427559Y-71706546D01*
X74518777Y-71668471D01*
X74667767Y-71679043D01*
G37*
G36*
X74620294Y-73191042D02*
G01*
X74640183Y-73321744D01*
X74644323Y-73385900D01*
X74682214Y-73534698D01*
X74743734Y-73649624D01*
X74809217Y-73700527D01*
X74858997Y-73657252D01*
X74886690Y-73543838D01*
X74912086Y-73371397D01*
X74951392Y-73207164D01*
X75012432Y-73152155D01*
X75068206Y-73213255D01*
X75092600Y-73388056D01*
X75092092Y-73431037D01*
X75078970Y-73619700D01*
X75053648Y-73748188D01*
X75049505Y-73757702D01*
X74957339Y-73825171D01*
X74762809Y-73839825D01*
X74510921Y-73829955D01*
X74510921Y-73485080D01*
X74516226Y-73348625D01*
X74539694Y-73198544D01*
X74575552Y-73140204D01*
X74620294Y-73191042D01*
G37*
G36*
X76753119Y-73191042D02*
G01*
X76773008Y-73321744D01*
X76777147Y-73385900D01*
X76815039Y-73534698D01*
X76876559Y-73649624D01*
X76942041Y-73700527D01*
X76991821Y-73657252D01*
X77019515Y-73543838D01*
X77044911Y-73371397D01*
X77084217Y-73207164D01*
X77145256Y-73152155D01*
X77201030Y-73213255D01*
X77225425Y-73388056D01*
X77224916Y-73431037D01*
X77211794Y-73619700D01*
X77186473Y-73748188D01*
X77182329Y-73757702D01*
X77090163Y-73825171D01*
X76895633Y-73839825D01*
X76643746Y-73829955D01*
X76643746Y-73485080D01*
X76649050Y-73348625D01*
X76672519Y-73198544D01*
X76708377Y-73140204D01*
X76753119Y-73191042D01*
G37*
G36*
X70051379Y-72015888D02*
G01*
X70043441Y-72218734D01*
X70013388Y-72332211D01*
X69954433Y-72364632D01*
X69924316Y-72359034D01*
X69872922Y-72282907D01*
X69857486Y-72101368D01*
X69850826Y-71952466D01*
X69817737Y-71868619D01*
X69744382Y-71859539D01*
X69731487Y-71862656D01*
X69649694Y-71941470D01*
X69610979Y-72126808D01*
X69596370Y-72232077D01*
X69551763Y-72339873D01*
X69500306Y-72337916D01*
X69460382Y-72235789D01*
X69450376Y-72043077D01*
X69454686Y-71974593D01*
X69474766Y-71812852D01*
X69500552Y-71730556D01*
X69512892Y-71722984D01*
X69622467Y-71697174D01*
X69794559Y-71680258D01*
X70051379Y-71667145D01*
X70051379Y-72015888D01*
G37*
G36*
X66638109Y-72915700D02*
G01*
X66736143Y-73016082D01*
X66815575Y-73143892D01*
X66852370Y-73259290D01*
X66822491Y-73322437D01*
X66809253Y-73331802D01*
X66770701Y-73431660D01*
X66755196Y-73598007D01*
X66753766Y-73663728D01*
X66726314Y-73807535D01*
X66658249Y-73851146D01*
X66630378Y-73846454D01*
X66577311Y-73772381D01*
X66561303Y-73592621D01*
X66559655Y-73534671D01*
X66537144Y-73391435D01*
X66496672Y-73334097D01*
X66489099Y-73333687D01*
X66437005Y-73282052D01*
X66446444Y-73187691D01*
X66512829Y-73113274D01*
X66560360Y-73080317D01*
X66512829Y-73037872D01*
X66446620Y-72987403D01*
X66449319Y-72915216D01*
X66556569Y-72881680D01*
X66638109Y-72915700D01*
G37*
G36*
X71786587Y-73179332D02*
G01*
X71863847Y-73222009D01*
X71897440Y-73323310D01*
X71912899Y-73518448D01*
X71916674Y-73718375D01*
X71893191Y-73822355D01*
X71836012Y-73851146D01*
X71835690Y-73851145D01*
X71758453Y-73790902D01*
X71719530Y-73609317D01*
X71717737Y-73589619D01*
X71674716Y-73414918D01*
X71586366Y-73346053D01*
X71521852Y-73349329D01*
X71483135Y-73419010D01*
X71473262Y-73587882D01*
X71471201Y-73669667D01*
X71443167Y-73809227D01*
X71376315Y-73851146D01*
X71364555Y-73850407D01*
X71299600Y-73789671D01*
X71279369Y-73620688D01*
X71286515Y-73466719D01*
X71341173Y-73271435D01*
X71459720Y-73174557D01*
X71654072Y-73161481D01*
X71786587Y-73179332D01*
G37*
G36*
X72147127Y-71673874D02*
G01*
X72273787Y-71752507D01*
X72335913Y-71856943D01*
X72311009Y-71985924D01*
X72178233Y-72075687D01*
X72135905Y-72092519D01*
X72061992Y-72159555D01*
X72078684Y-72214908D01*
X72184204Y-72216643D01*
X72267651Y-72210460D01*
X72313466Y-72278029D01*
X72312255Y-72291727D01*
X72251037Y-72349379D01*
X72130812Y-72351432D01*
X71998216Y-72304826D01*
X71899883Y-72216498D01*
X71875776Y-72169057D01*
X71883595Y-72079163D01*
X71990310Y-71975568D01*
X72060559Y-71918131D01*
X72098547Y-71863840D01*
X72038784Y-71849020D01*
X71978663Y-71833325D01*
X71925679Y-71750637D01*
X71935985Y-71708315D01*
X72019039Y-71659060D01*
X72147127Y-71673874D01*
G37*
G36*
X64400779Y-73103272D02*
G01*
X64468080Y-73193109D01*
X64488522Y-73292189D01*
X64428478Y-73334097D01*
X64422338Y-73335069D01*
X64380832Y-73404353D01*
X64363847Y-73549534D01*
X64363772Y-73562331D01*
X64350335Y-73719362D01*
X64320760Y-73808058D01*
X64306777Y-73819515D01*
X64202892Y-73849729D01*
X64092227Y-73837039D01*
X64040692Y-73786514D01*
X64042570Y-73771066D01*
X64105323Y-73721883D01*
X64106127Y-73721869D01*
X64151233Y-73664129D01*
X64169954Y-73527990D01*
X64169949Y-73525578D01*
X64150703Y-73390260D01*
X64105323Y-73334097D01*
X64051876Y-73308488D01*
X64054047Y-73219126D01*
X64133022Y-73103272D01*
X64197916Y-73045004D01*
X64291565Y-73020689D01*
X64400779Y-73103272D01*
G37*
G36*
X77613211Y-71912214D02*
G01*
X77613211Y-72364632D01*
X77394163Y-72364632D01*
X77328289Y-72361535D01*
X77095130Y-72289386D01*
X76938199Y-72136589D01*
X76887348Y-71947717D01*
X77106776Y-71947717D01*
X77107566Y-71954397D01*
X77157487Y-72101902D01*
X77273898Y-72159076D01*
X77313830Y-72163483D01*
X77383562Y-72146992D01*
X77413161Y-72064471D01*
X77419318Y-71884394D01*
X77415736Y-71748524D01*
X77388241Y-71622510D01*
X77321172Y-71602040D01*
X77199918Y-71673035D01*
X77131215Y-71754731D01*
X77106776Y-71947717D01*
X76887348Y-71947717D01*
X76880726Y-71923120D01*
X76882141Y-71879547D01*
X76951152Y-71653563D01*
X77115773Y-71510041D01*
X77364704Y-71459797D01*
X77613211Y-71459797D01*
X77613211Y-71884394D01*
X77613211Y-71912214D01*
G37*
G36*
X81167919Y-73398728D02*
G01*
X81167919Y-73851146D01*
X80956091Y-73851146D01*
X80904491Y-73849732D01*
X80660607Y-73788754D01*
X80509068Y-73642218D01*
X80461109Y-73434231D01*
X80661483Y-73434231D01*
X80662273Y-73440911D01*
X80712194Y-73588416D01*
X80828606Y-73645590D01*
X80868537Y-73649997D01*
X80938269Y-73633506D01*
X80967868Y-73550985D01*
X80974025Y-73370908D01*
X80970443Y-73235038D01*
X80942948Y-73109024D01*
X80875880Y-73088554D01*
X80754625Y-73159549D01*
X80685923Y-73241245D01*
X80661483Y-73434231D01*
X80461109Y-73434231D01*
X80456977Y-73416310D01*
X80458827Y-73358142D01*
X80521797Y-73128700D01*
X80675007Y-72991746D01*
X80919411Y-72946311D01*
X81167919Y-72946311D01*
X81167919Y-73370908D01*
X81167919Y-73398728D01*
G37*
G36*
X71204709Y-71462763D02*
G01*
X71350865Y-71485884D01*
X71408631Y-71524428D01*
X71408569Y-71526061D01*
X71349108Y-71570610D01*
X71211633Y-71589059D01*
X71014635Y-71589059D01*
X71211633Y-71875386D01*
X71284525Y-71988571D01*
X71373781Y-72155076D01*
X71408631Y-72263172D01*
X71394213Y-72311681D01*
X71306898Y-72352896D01*
X71117791Y-72364632D01*
X70994435Y-72360690D01*
X70865014Y-72331584D01*
X70826952Y-72267685D01*
X70858576Y-72204449D01*
X70988529Y-72170738D01*
X71094658Y-72161891D01*
X71150107Y-72134994D01*
X71143772Y-72115778D01*
X71086345Y-72012758D01*
X70988529Y-71861467D01*
X70960702Y-71820015D01*
X70854376Y-71635443D01*
X70841256Y-71525872D01*
X70927132Y-71473318D01*
X71117791Y-71459797D01*
X71204709Y-71462763D01*
G37*
G36*
X77507865Y-72901526D02*
G01*
X77594484Y-73010942D01*
X77625037Y-73086417D01*
X77685380Y-73140204D01*
X77711580Y-73151084D01*
X77742473Y-73237151D01*
X77735182Y-73281749D01*
X77677842Y-73334097D01*
X77663355Y-73340689D01*
X77627546Y-73430733D01*
X77613211Y-73592621D01*
X77611452Y-73666945D01*
X77583675Y-73808456D01*
X77516265Y-73851146D01*
X77491095Y-73847411D01*
X77436020Y-73775732D01*
X77419318Y-73598007D01*
X77418426Y-73557967D01*
X77392063Y-73395698D01*
X77338529Y-73317678D01*
X77335363Y-73316579D01*
X77295964Y-73269854D01*
X77354687Y-73172520D01*
X77358494Y-73167859D01*
X77413672Y-73072831D01*
X77370845Y-73027361D01*
X77296736Y-72975583D01*
X77314022Y-72911854D01*
X77425369Y-72881680D01*
X77507865Y-72901526D01*
G37*
G36*
X65597763Y-72893623D02*
G01*
X65633450Y-72962872D01*
X65651482Y-73114495D01*
X65656468Y-73371799D01*
X65655706Y-73481587D01*
X65644933Y-73700670D01*
X65619203Y-73813178D01*
X65575679Y-73835378D01*
X65563625Y-73828928D01*
X65507875Y-73733579D01*
X65474831Y-73571468D01*
X65468099Y-73513756D01*
X65418875Y-73361627D01*
X65352333Y-73325796D01*
X65293819Y-73403661D01*
X65268682Y-73592621D01*
X65266922Y-73666945D01*
X65239145Y-73808456D01*
X65171735Y-73851146D01*
X65133452Y-73841254D01*
X65088176Y-73757033D01*
X65074789Y-73568220D01*
X65078234Y-73483177D01*
X65127876Y-73277378D01*
X65227326Y-73165258D01*
X65364805Y-73163261D01*
X65365438Y-73163502D01*
X65440454Y-73155737D01*
X65462575Y-73041229D01*
X65481482Y-72937753D01*
X65559522Y-72881680D01*
X65597763Y-72893623D01*
G37*
G36*
X71203710Y-73531770D02*
G01*
X71148123Y-73725589D01*
X71122822Y-73764058D01*
X71016048Y-73828154D01*
X70824968Y-73840007D01*
X70568427Y-73829955D01*
X70568427Y-73506848D01*
X70774185Y-73506848D01*
X70786319Y-73572174D01*
X70845602Y-73683821D01*
X70921927Y-73695965D01*
X70987216Y-73596757D01*
X71004749Y-73513676D01*
X70972178Y-73382257D01*
X70851160Y-73334097D01*
X70784301Y-73370726D01*
X70774185Y-73506848D01*
X70568427Y-73506848D01*
X70568427Y-73355817D01*
X70570376Y-73184129D01*
X70583687Y-73000428D01*
X70613751Y-72907449D01*
X70665374Y-72881680D01*
X70727509Y-72911797D01*
X70762321Y-73037207D01*
X70762509Y-73053498D01*
X70790336Y-73155753D01*
X70881948Y-73161450D01*
X70953413Y-73153790D01*
X71090568Y-73212411D01*
X71179263Y-73349557D01*
X71201282Y-73513676D01*
X71203710Y-73531770D01*
G37*
G36*
X73675618Y-71406272D02*
G01*
X73711918Y-71474132D01*
X73730270Y-71624215D01*
X73735349Y-71879899D01*
X73733127Y-72065976D01*
X73719555Y-72247480D01*
X73689539Y-72339240D01*
X73638402Y-72364632D01*
X73610531Y-72359940D01*
X73557464Y-72285867D01*
X73541455Y-72106107D01*
X73539616Y-72047516D01*
X73503561Y-71886637D01*
X73440592Y-71837516D01*
X73376058Y-71902754D01*
X73335306Y-72084954D01*
X73322696Y-72185122D01*
X73276279Y-72327193D01*
X73220399Y-72349959D01*
X73173411Y-72256831D01*
X73153669Y-72051218D01*
X73153711Y-72031973D01*
X73164591Y-71838135D01*
X73203310Y-71734677D01*
X73282353Y-71686189D01*
X73366470Y-71670215D01*
X73476246Y-71685648D01*
X73520820Y-71670994D01*
X73541455Y-71560558D01*
X73560556Y-71451553D01*
X73638402Y-71395166D01*
X73675618Y-71406272D01*
G37*
G36*
X76770347Y-71957071D02*
G01*
X76765441Y-72142781D01*
X76692537Y-72289988D01*
X76593352Y-72338686D01*
X76435947Y-72350044D01*
X76287554Y-72318412D01*
X76206138Y-72248708D01*
X76205626Y-72247119D01*
X76222805Y-72193591D01*
X76339529Y-72205472D01*
X76454675Y-72215186D01*
X76543562Y-72175975D01*
X76523575Y-72124473D01*
X76389036Y-72106107D01*
X76297674Y-72101714D01*
X76211378Y-72058741D01*
X76191328Y-71943144D01*
X76202118Y-71873166D01*
X76402726Y-71873166D01*
X76403726Y-71895229D01*
X76487554Y-71907112D01*
X76551083Y-71896762D01*
X76526602Y-71868064D01*
X76489227Y-71857738D01*
X76402726Y-71873166D01*
X76202118Y-71873166D01*
X76203568Y-71863760D01*
X76299845Y-71732600D01*
X76457635Y-71675547D01*
X76635570Y-71713946D01*
X76712939Y-71790332D01*
X76749583Y-71896762D01*
X76770347Y-71957071D01*
G37*
G36*
X70750555Y-71951297D02*
G01*
X70751174Y-72142007D01*
X70681850Y-72289988D01*
X70582665Y-72338686D01*
X70425260Y-72350044D01*
X70276867Y-72318412D01*
X70195451Y-72248708D01*
X70194939Y-72247119D01*
X70212118Y-72193591D01*
X70328842Y-72205472D01*
X70443988Y-72215186D01*
X70532875Y-72175975D01*
X70514304Y-72124779D01*
X70382163Y-72106107D01*
X70358196Y-72105895D01*
X70199023Y-72079741D01*
X70150937Y-71998062D01*
X70192617Y-71873166D01*
X70392039Y-71873166D01*
X70393039Y-71895229D01*
X70476867Y-71907112D01*
X70540396Y-71896762D01*
X70515915Y-71868064D01*
X70478540Y-71857738D01*
X70392039Y-71873166D01*
X70192617Y-71873166D01*
X70202358Y-71843975D01*
X70207576Y-71833844D01*
X70336305Y-71700131D01*
X70499934Y-71670009D01*
X70657318Y-71751814D01*
X70682912Y-71781895D01*
X70728779Y-71896762D01*
X70750555Y-71951297D01*
G37*
G36*
X73012642Y-71951297D02*
G01*
X73013261Y-72142007D01*
X72943936Y-72289988D01*
X72844752Y-72338686D01*
X72687346Y-72350044D01*
X72538954Y-72318412D01*
X72457537Y-72248708D01*
X72457025Y-72247119D01*
X72474204Y-72193591D01*
X72590929Y-72205472D01*
X72706074Y-72215186D01*
X72794962Y-72175975D01*
X72776390Y-72124779D01*
X72644250Y-72106107D01*
X72620282Y-72105895D01*
X72461109Y-72079741D01*
X72413024Y-71998062D01*
X72454704Y-71873166D01*
X72654125Y-71873166D01*
X72655126Y-71895229D01*
X72738953Y-71907112D01*
X72802482Y-71896762D01*
X72778001Y-71868064D01*
X72740627Y-71857738D01*
X72654125Y-71873166D01*
X72454704Y-71873166D01*
X72464445Y-71843975D01*
X72469663Y-71833844D01*
X72598392Y-71700131D01*
X72762021Y-71670009D01*
X72919405Y-71751814D01*
X72944999Y-71781895D01*
X72990866Y-71896762D01*
X73012642Y-71951297D01*
G37*
G36*
X67648179Y-71935169D02*
G01*
X67650775Y-71972136D01*
X67651695Y-72153810D01*
X67634050Y-72274482D01*
X67632028Y-72279611D01*
X67563723Y-72360705D01*
X67496498Y-72332249D01*
X67466137Y-72208340D01*
X67453316Y-72041184D01*
X67409487Y-71903169D01*
X67351035Y-71857503D01*
X67295391Y-71914620D01*
X67259988Y-72084954D01*
X67253504Y-72139329D01*
X67210204Y-72285598D01*
X67151750Y-72351797D01*
X67100138Y-72325001D01*
X67077361Y-72192282D01*
X67062556Y-72048968D01*
X67019956Y-71920092D01*
X66979978Y-71874532D01*
X66903065Y-71871850D01*
X66843652Y-71967779D01*
X66819827Y-72142237D01*
X66819345Y-72168683D01*
X66797071Y-72307897D01*
X66751818Y-72364632D01*
X66729773Y-72349267D01*
X66703341Y-72234171D01*
X66703345Y-72025319D01*
X66722880Y-71686006D01*
X67175298Y-71686006D01*
X67627715Y-71686006D01*
X67648179Y-71935169D01*
G37*
G36*
X67530768Y-73165325D02*
G01*
X67886239Y-73173978D01*
X67905775Y-73512562D01*
X67905974Y-73516048D01*
X67909397Y-73719787D01*
X67885697Y-73822699D01*
X67828887Y-73851146D01*
X67752530Y-73793839D01*
X67712405Y-73613775D01*
X67705919Y-73555706D01*
X67661608Y-73396199D01*
X67603283Y-73346187D01*
X67552488Y-73408816D01*
X67530768Y-73587235D01*
X67528369Y-73654718D01*
X67491418Y-73813428D01*
X67428759Y-73861616D01*
X67364968Y-73796120D01*
X67324619Y-73613775D01*
X67318132Y-73555706D01*
X67273822Y-73396199D01*
X67215497Y-73346187D01*
X67164702Y-73408816D01*
X67142982Y-73587235D01*
X67140879Y-73670030D01*
X67112812Y-73809330D01*
X67046036Y-73851146D01*
X66996518Y-73831738D01*
X66959736Y-73734035D01*
X66949089Y-73532346D01*
X66955784Y-73354290D01*
X66992547Y-73242058D01*
X67084130Y-73183566D01*
X67255286Y-73163194D01*
X67530768Y-73165325D01*
G37*
G36*
X69347847Y-73682293D02*
G01*
X69301056Y-73804352D01*
X69289669Y-73811360D01*
X69180957Y-73830892D01*
X69010217Y-73833706D01*
X68914951Y-73828977D01*
X68805400Y-73803511D01*
X68764724Y-73724660D01*
X68760237Y-73596661D01*
X68964770Y-73596661D01*
X68979926Y-73627937D01*
X69077874Y-73709765D01*
X69116783Y-73713305D01*
X69134426Y-73653213D01*
X69119270Y-73621937D01*
X69021322Y-73540109D01*
X68982413Y-73536569D01*
X68964770Y-73596661D01*
X68760237Y-73596661D01*
X68758758Y-73554486D01*
X68758831Y-73541213D01*
X68797809Y-73303648D01*
X68908100Y-73173607D01*
X69089451Y-73151400D01*
X69188621Y-73185363D01*
X69258234Y-73252232D01*
X69257354Y-73313165D01*
X69169846Y-73331927D01*
X69119156Y-73327196D01*
X68997832Y-73329041D01*
X69001563Y-73363492D01*
X69130387Y-73430454D01*
X69145658Y-73437398D01*
X69290648Y-73548146D01*
X69335448Y-73653213D01*
X69347847Y-73682293D01*
G37*
G36*
X79616774Y-73351925D02*
G01*
X79611442Y-73552829D01*
X79595382Y-73726081D01*
X79572340Y-73809405D01*
X79498118Y-73841385D01*
X79413213Y-73778584D01*
X79355145Y-73619605D01*
X79319726Y-73431044D01*
X79208066Y-73641095D01*
X79191792Y-73669990D01*
X79091406Y-73798812D01*
X79000252Y-73851146D01*
X78947712Y-73840571D01*
X78940461Y-73781486D01*
X78992235Y-73640203D01*
X79001431Y-73617662D01*
X79045441Y-73443726D01*
X79009591Y-73317048D01*
X78976344Y-73242973D01*
X78981969Y-73204835D01*
X79196672Y-73204835D01*
X79202408Y-73238558D01*
X79277461Y-73317939D01*
X79328469Y-73307344D01*
X79358249Y-73204835D01*
X79342327Y-73121727D01*
X79277461Y-73091731D01*
X79247638Y-73107791D01*
X79196672Y-73204835D01*
X78981969Y-73204835D01*
X78996300Y-73107667D01*
X79124858Y-73008227D01*
X79348674Y-72958753D01*
X79616774Y-72938879D01*
X79616774Y-73204835D01*
X79616774Y-73351925D01*
G37*
G36*
X66407944Y-73628550D02*
G01*
X66364025Y-73758278D01*
X66348307Y-73772673D01*
X66220745Y-73821483D01*
X66039754Y-73839413D01*
X66017093Y-73839042D01*
X65864055Y-73825486D01*
X65799467Y-73776130D01*
X65786613Y-73665791D01*
X65795529Y-73562371D01*
X65994690Y-73562371D01*
X66009281Y-73652952D01*
X66016903Y-73664378D01*
X66113129Y-73719186D01*
X66206114Y-73656796D01*
X66211439Y-73615827D01*
X66142510Y-73551865D01*
X66074463Y-73534811D01*
X65994690Y-73562371D01*
X65795529Y-73562371D01*
X65804844Y-73454322D01*
X65886618Y-73249564D01*
X66031850Y-73154759D01*
X66238148Y-73172520D01*
X66287955Y-73193098D01*
X66359751Y-73260388D01*
X66346201Y-73315269D01*
X66245302Y-73317241D01*
X66169381Y-73307927D01*
X66042804Y-73334994D01*
X66037304Y-73338633D01*
X66035547Y-73384801D01*
X66159512Y-73427968D01*
X66174871Y-73431563D01*
X66339509Y-73510949D01*
X66400540Y-73615827D01*
X66407944Y-73628550D01*
G37*
G36*
X70051379Y-73395012D02*
G01*
X70049877Y-73541847D01*
X70037054Y-73729500D01*
X70006921Y-73824689D01*
X69954433Y-73851146D01*
X69886390Y-73811185D01*
X69857486Y-73657252D01*
X69857482Y-73654921D01*
X69840126Y-73519548D01*
X69799177Y-73463359D01*
X69796727Y-73463522D01*
X69736430Y-73522975D01*
X69673277Y-73657252D01*
X69672072Y-73660666D01*
X69593891Y-73795727D01*
X69501022Y-73851146D01*
X69492446Y-73851006D01*
X69428337Y-73817720D01*
X69446303Y-73705726D01*
X69457537Y-73665859D01*
X69486237Y-73483952D01*
X69499131Y-73269466D01*
X69499772Y-73204835D01*
X69695908Y-73204835D01*
X69701645Y-73238558D01*
X69776697Y-73317939D01*
X69827706Y-73307344D01*
X69857486Y-73204835D01*
X69841564Y-73121727D01*
X69776697Y-73091731D01*
X69746875Y-73107791D01*
X69695908Y-73204835D01*
X69499772Y-73204835D01*
X69502015Y-72978626D01*
X69776697Y-72958753D01*
X70051379Y-72938879D01*
X70051379Y-73204835D01*
X70051379Y-73395012D01*
G37*
G36*
X74147051Y-72901526D02*
G01*
X74233670Y-73010942D01*
X74264223Y-73086417D01*
X74324566Y-73140204D01*
X74350766Y-73151084D01*
X74381659Y-73237151D01*
X74374367Y-73281749D01*
X74317028Y-73334097D01*
X74302540Y-73340689D01*
X74266731Y-73430733D01*
X74252397Y-73592621D01*
X74250749Y-73650572D01*
X74228238Y-73793808D01*
X74187766Y-73851146D01*
X74174451Y-73845740D01*
X74137837Y-73758851D01*
X74123135Y-73599536D01*
X74099646Y-73422028D01*
X74025887Y-73305595D01*
X73930039Y-73294939D01*
X73841353Y-73390618D01*
X73789080Y-73593186D01*
X73778594Y-73672864D01*
X73728108Y-73793927D01*
X73622244Y-73839483D01*
X73530366Y-73836885D01*
X73476824Y-73791010D01*
X73479419Y-73771653D01*
X73541455Y-73721883D01*
X73554808Y-73718904D01*
X73595158Y-73645822D01*
X73604084Y-73517172D01*
X73582833Y-73389759D01*
X73532650Y-73320390D01*
X73496860Y-73271775D01*
X73548197Y-73153427D01*
X73626246Y-73050853D01*
X73721441Y-73020881D01*
X73838782Y-73105142D01*
X73910600Y-73151430D01*
X74037126Y-73159379D01*
X74070016Y-73146026D01*
X74106977Y-73106944D01*
X74035256Y-73041896D01*
X73952421Y-72967618D01*
X73947579Y-72903444D01*
X74064555Y-72881680D01*
X74147051Y-72901526D01*
G37*
G36*
X82271314Y-70813486D02*
G01*
X82883194Y-70813486D01*
X83494636Y-71427481D01*
X83784266Y-71718321D01*
X84106077Y-72041476D01*
X83380255Y-72041476D01*
X82654433Y-72041476D01*
X82652395Y-72800891D01*
X82650357Y-73560306D01*
X81907799Y-72800891D01*
X81165242Y-72041476D01*
X81592436Y-72041476D01*
X81943491Y-72396947D01*
X81982838Y-72436672D01*
X82144466Y-72597196D01*
X82262228Y-72709890D01*
X82312912Y-72752418D01*
X82320463Y-72720794D01*
X82328256Y-72591678D01*
X82331277Y-72396947D01*
X82331277Y-72041476D01*
X81961857Y-72041476D01*
X81592436Y-72041476D01*
X81165242Y-72041476D01*
X80567467Y-72041476D01*
X79969691Y-72041476D01*
X79358249Y-71427481D01*
X79068619Y-71136642D01*
X79525229Y-71136642D01*
X79810667Y-71427481D01*
X79838157Y-71455429D01*
X79993699Y-71603412D01*
X80119253Y-71681903D01*
X80265692Y-71712880D01*
X80483890Y-71718321D01*
X80871677Y-71718321D01*
X80586239Y-71427481D01*
X80558749Y-71399534D01*
X80403206Y-71251551D01*
X80277653Y-71173060D01*
X80131214Y-71142083D01*
X79913015Y-71136642D01*
X80753219Y-71136642D01*
X81038656Y-71427481D01*
X81066147Y-71455429D01*
X81221689Y-71603412D01*
X81347243Y-71681903D01*
X81493681Y-71712880D01*
X81711880Y-71718321D01*
X82099667Y-71718321D01*
X81814229Y-71427481D01*
X81786738Y-71399534D01*
X81631196Y-71251551D01*
X81505643Y-71173060D01*
X81359204Y-71142083D01*
X81141005Y-71136642D01*
X81981209Y-71136642D01*
X82266646Y-71427481D01*
X82294137Y-71455429D01*
X82449679Y-71603412D01*
X82575232Y-71681903D01*
X82721671Y-71712880D01*
X82939870Y-71718321D01*
X83327656Y-71718321D01*
X83042219Y-71427481D01*
X83014728Y-71399534D01*
X82859186Y-71251551D01*
X82733633Y-71173060D01*
X82587194Y-71142083D01*
X82368995Y-71136642D01*
X81981209Y-71136642D01*
X81141005Y-71136642D01*
X80753219Y-71136642D01*
X79913015Y-71136642D01*
X79525229Y-71136642D01*
X79068619Y-71136642D01*
X78746807Y-70813486D01*
X79472630Y-70813486D01*
X80198453Y-70813486D01*
X80201619Y-70078361D01*
X80521608Y-70078361D01*
X80521608Y-70445924D01*
X80521608Y-70813486D01*
X80849164Y-70813486D01*
X81176721Y-70813486D01*
X81048963Y-70635751D01*
X81029811Y-70609918D01*
X80885073Y-70437764D01*
X80721407Y-70268188D01*
X80521608Y-70078361D01*
X80201619Y-70078361D01*
X80201724Y-70054072D01*
X80204994Y-69294658D01*
X80932214Y-70054072D01*
X81659433Y-70813486D01*
X82271314Y-70813486D01*
G37*
D12*
%TO.C,R74*%
X56515000Y-100491008D02*
X56515000Y-100016492D01*
X57560000Y-100491008D02*
X57560000Y-100016492D01*
%TO.C,R39*%
X84087742Y-105227499D02*
X84562258Y-105227499D01*
X84087742Y-106272499D02*
X84562258Y-106272499D01*
%TO.C,D25*%
X77350000Y-65950000D02*
X80010000Y-65950000D01*
X77350000Y-67650000D02*
X80010000Y-67650000D01*
X80010000Y-67650000D02*
X80010000Y-65950000D01*
%TO.C,T_24V1*%
X63950000Y-52500000D02*
G75*
G02*
X62050000Y-52500000I-950000J0D01*
G01*
X62050000Y-52500000D02*
G75*
G02*
X63950000Y-52500000I950000J0D01*
G01*
%TO.C,T_GND4*%
X68550000Y-117400000D02*
G75*
G02*
X66650000Y-117400000I-950000J0D01*
G01*
X66650000Y-117400000D02*
G75*
G02*
X68550000Y-117400000I950000J0D01*
G01*
%TO.C,T_5V1*%
X88450000Y-56500000D02*
G75*
G02*
X86550000Y-56500000I-950000J0D01*
G01*
X86550000Y-56500000D02*
G75*
G02*
X88450000Y-56500000I950000J0D01*
G01*
%TO.C,C33*%
X77815580Y-97590000D02*
X77534420Y-97590000D01*
X77815580Y-98610000D02*
X77534420Y-98610000D01*
%TO.C,D22*%
X55650000Y-70250000D02*
X61460000Y-70250000D01*
X55650000Y-74550000D02*
X61460000Y-74550000D01*
X61460000Y-74550000D02*
X61460000Y-70250000D01*
%TO.C,T_GND5*%
X88150000Y-118800000D02*
G75*
G02*
X86250000Y-118800000I-950000J0D01*
G01*
X86250000Y-118800000D02*
G75*
G02*
X88150000Y-118800000I950000J0D01*
G01*
%TO.C,C47*%
X117115580Y-88490000D02*
X116834420Y-88490000D01*
X117115580Y-89510000D02*
X116834420Y-89510000D01*
%TO.C,Q12*%
X92345001Y-112000000D02*
X92345001Y-112800000D01*
X92345001Y-113600000D02*
X92345001Y-112800000D01*
X95465001Y-112000000D02*
X95465001Y-112800000D01*
X95465001Y-113600000D02*
X95465001Y-112800000D01*
X95745001Y-114340000D02*
X95415001Y-114100000D01*
X95745001Y-113860000D01*
X95745001Y-114340000D01*
G36*
X95745001Y-114340000D02*
G01*
X95415001Y-114100000D01*
X95745001Y-113860000D01*
X95745001Y-114340000D01*
G37*
%TO.C,C12*%
X97990000Y-61804437D02*
X99054437Y-60740000D01*
X97990000Y-65260000D02*
X97990000Y-61804437D01*
X98690000Y-60500000D02*
X98690000Y-60000000D01*
X98940000Y-60250000D02*
X98440000Y-60250000D01*
X99190000Y-60740000D02*
X99054437Y-60740000D01*
X99190000Y-65260000D02*
X97990000Y-65260000D01*
X101310000Y-60740000D02*
X101445563Y-60740000D01*
X101310000Y-65260000D02*
X102510000Y-65260000D01*
X102510000Y-61804437D02*
X101445563Y-60740000D01*
X102510000Y-65260000D02*
X102510000Y-61804437D01*
%TO.C,C1*%
X73700000Y-54310000D02*
X73700000Y-54810000D01*
X73950000Y-54560000D02*
X73450000Y-54560000D01*
X74190000Y-51940000D02*
X74190000Y-51804437D01*
X74190000Y-54060000D02*
X74190000Y-54195563D01*
X75254437Y-50740000D02*
X74190000Y-51804437D01*
X75254437Y-55260000D02*
X74190000Y-54195563D01*
X78710000Y-50740000D02*
X75254437Y-50740000D01*
X78710000Y-51940000D02*
X78710000Y-50740000D01*
X78710000Y-54060000D02*
X78710000Y-55260000D01*
X78710000Y-55260000D02*
X75254437Y-55260000D01*
%TO.C,C6*%
X91961252Y-57765000D02*
X91438748Y-57765000D01*
X91961252Y-59235000D02*
X91438748Y-59235000D01*
%TO.C,C81*%
X94790000Y-92334420D02*
X94790000Y-92615580D01*
X95810000Y-92334420D02*
X95810000Y-92615580D01*
%TO.C,D17*%
X87450001Y-110850000D02*
X87450001Y-114860000D01*
X87450001Y-114860000D02*
X89450001Y-114860000D01*
X89450001Y-110850000D02*
X89450001Y-114860000D01*
%TO.C,T_-12V1*%
X72200000Y-67750000D02*
G75*
G02*
X70300000Y-67750000I-950000J0D01*
G01*
X70300000Y-67750000D02*
G75*
G02*
X72200000Y-67750000I950000J0D01*
G01*
%TO.C,R63*%
X109162258Y-102387500D02*
X108687742Y-102387500D01*
X109162258Y-103432500D02*
X108687742Y-103432500D01*
%TO.C,C49*%
X122615580Y-80990000D02*
X122334420Y-80990000D01*
X122615580Y-82010000D02*
X122334420Y-82010000D01*
%TO.C,C65*%
X95940001Y-122615580D02*
X95940001Y-122334420D01*
X96960001Y-122615580D02*
X96960001Y-122334420D01*
%TO.C,D12*%
X71000001Y-114150000D02*
X71000001Y-110140000D01*
X73000001Y-110140000D02*
X71000001Y-110140000D01*
X73000001Y-114150000D02*
X73000001Y-110140000D01*
%TO.C,T_Analog1*%
X119750000Y-91400000D02*
G75*
G02*
X117850000Y-91400000I-950000J0D01*
G01*
X117850000Y-91400000D02*
G75*
G02*
X119750000Y-91400000I950000J0D01*
G01*
%TO.C,R73*%
X53315000Y-100491008D02*
X53315000Y-100016492D01*
X54360000Y-100491008D02*
X54360000Y-100016492D01*
%TO.C,D23*%
X55650000Y-74850000D02*
X61460000Y-74850000D01*
X55650000Y-79150000D02*
X61460000Y-79150000D01*
X61460000Y-79150000D02*
X61460000Y-74850000D01*
%TO.C,R12*%
X116487258Y-82477500D02*
X116012742Y-82477500D01*
X116487258Y-83522500D02*
X116012742Y-83522500D01*
%TO.C,R53*%
X100827500Y-105237258D02*
X100827500Y-104762742D01*
X101872500Y-105237258D02*
X101872500Y-104762742D01*
%TO.C,C60*%
X69490001Y-117115580D02*
X69490001Y-116834420D01*
X70510001Y-117115580D02*
X70510001Y-116834420D01*
%TO.C,T_3V3*%
X108850000Y-58800000D02*
G75*
G02*
X106950000Y-58800000I-950000J0D01*
G01*
X106950000Y-58800000D02*
G75*
G02*
X108850000Y-58800000I950000J0D01*
G01*
%TO.C,Q3*%
X112000000Y-82485000D02*
X112800000Y-82485000D01*
X112000000Y-85605000D02*
X112800000Y-85605000D01*
X113600000Y-82485000D02*
X112800000Y-82485000D01*
X113600000Y-85605000D02*
X112800000Y-85605000D01*
X114100000Y-82535000D02*
X113860000Y-82205000D01*
X114340000Y-82205000D01*
X114100000Y-82535000D01*
G36*
X114100000Y-82535000D02*
G01*
X113860000Y-82205000D01*
X114340000Y-82205000D01*
X114100000Y-82535000D01*
G37*
%TO.C,C42*%
X78115580Y-95690000D02*
X77834420Y-95690000D01*
X78115580Y-96710000D02*
X77834420Y-96710000D01*
%TO.C,GND_CONN1*%
X56150000Y-67600000D02*
X58950000Y-67600000D01*
X56150000Y-69600000D02*
X56150000Y-67600000D01*
X58950000Y-67600000D02*
X58950000Y-69600000D01*
X58950000Y-69600000D02*
X56150000Y-69600000D01*
%TO.C,C70*%
X111015000Y-67238748D02*
X111015000Y-67761252D01*
X112485000Y-67238748D02*
X112485000Y-67761252D01*
%TO.C,R45*%
X75477501Y-116487258D02*
X75477501Y-116012742D01*
X76522501Y-116487258D02*
X76522501Y-116012742D01*
%TO.C,D4*%
X110140000Y-86000000D02*
X110140000Y-88000000D01*
X114150000Y-86000000D02*
X110140000Y-86000000D01*
X114150000Y-88000000D02*
X110140000Y-88000000D01*
%TO.C,R14*%
X119087742Y-80977500D02*
X119562258Y-80977500D01*
X119087742Y-82022500D02*
X119562258Y-82022500D01*
%TO.C,T_GND3*%
X123250000Y-112800000D02*
G75*
G02*
X121350000Y-112800000I-950000J0D01*
G01*
X121350000Y-112800000D02*
G75*
G02*
X123250000Y-112800000I950000J0D01*
G01*
%TO.C,D13*%
X68500001Y-110850000D02*
X68500001Y-114860000D01*
X68500001Y-114860000D02*
X70500001Y-114860000D01*
X70500001Y-110850000D02*
X70500001Y-114860000D01*
D13*
%TO.C,IC2*%
X92400000Y-60050000D02*
X95600000Y-60050000D01*
X92400000Y-64950000D02*
X92400000Y-60050000D01*
X95600000Y-60050000D02*
X95600000Y-64950000D01*
X95600000Y-64950000D02*
X92400000Y-64950000D01*
X95950000Y-59920000D02*
X97475000Y-59920000D01*
D12*
%TO.C,R36*%
X76977501Y-119087742D02*
X76977501Y-119562258D01*
X78022501Y-119087742D02*
X78022501Y-119562258D01*
%TO.C,C56*%
X116865580Y-108400000D02*
X116584420Y-108400000D01*
X116865580Y-109420000D02*
X116584420Y-109420000D01*
%TO.C,C69*%
X115015000Y-67238748D02*
X115015000Y-67761252D01*
X116485000Y-67238748D02*
X116485000Y-67761252D01*
%TO.C,C45*%
X82661252Y-81065000D02*
X82138748Y-81065000D01*
X82661252Y-82535000D02*
X82138748Y-82535000D01*
%TO.C,C9*%
X109490000Y-61104437D02*
X110554437Y-60040000D01*
X109490000Y-64560000D02*
X109490000Y-61104437D01*
X110190000Y-59800000D02*
X110190000Y-59300000D01*
X110440000Y-59550000D02*
X109940000Y-59550000D01*
X110690000Y-60040000D02*
X110554437Y-60040000D01*
X110690000Y-64560000D02*
X109490000Y-64560000D01*
X112810000Y-60040000D02*
X112945563Y-60040000D01*
X112810000Y-64560000D02*
X114010000Y-64560000D01*
X114010000Y-61104437D02*
X112945563Y-60040000D01*
X114010000Y-64560000D02*
X114010000Y-61104437D01*
%TO.C,D8*%
X109890000Y-105910000D02*
X109890000Y-107910000D01*
X113900000Y-105910000D02*
X109890000Y-105910000D01*
X113900000Y-107910000D02*
X109890000Y-107910000D01*
%TO.C,R3*%
X105227500Y-74912258D02*
X105227500Y-74437742D01*
X106272500Y-74912258D02*
X106272500Y-74437742D01*
%TO.C,R65*%
X94427501Y-109412258D02*
X94427501Y-108937742D01*
X95472501Y-109412258D02*
X95472501Y-108937742D01*
%TO.C,C73*%
X74365580Y-65740000D02*
X74084420Y-65740000D01*
X74365580Y-66760000D02*
X74084420Y-66760000D01*
%TO.C,C27*%
X86190000Y-97340580D02*
X86190000Y-97059420D01*
X87210000Y-97340580D02*
X87210000Y-97059420D01*
%TO.C,C61*%
X76990001Y-122615580D02*
X76990001Y-122334420D01*
X78010001Y-122615580D02*
X78010001Y-122334420D01*
%TO.C,R78*%
X99327500Y-105237258D02*
X99327500Y-104762742D01*
X100372500Y-105237258D02*
X100372500Y-104762742D01*
%TO.C,U6*%
X89975001Y-118805000D02*
X91925001Y-118805000D01*
X89975001Y-123925000D02*
X91925001Y-123925000D01*
X93875001Y-118805000D02*
X91925001Y-118805000D01*
X93875001Y-123925000D02*
X91925001Y-123925000D01*
X94625001Y-118900000D02*
X94385001Y-118570000D01*
X94865001Y-118570000D01*
X94625001Y-118900000D01*
G36*
X94625001Y-118900000D02*
G01*
X94385001Y-118570000D01*
X94865001Y-118570000D01*
X94625001Y-118900000D01*
G37*
%TO.C,R72*%
X54915000Y-100016492D02*
X54915000Y-100491008D01*
X55960000Y-100016492D02*
X55960000Y-100491008D01*
D13*
%TO.C,IC1*%
X74650000Y-60050000D02*
X77850000Y-60050000D01*
X74650000Y-64950000D02*
X74650000Y-60050000D01*
X77850000Y-60050000D02*
X77850000Y-64950000D01*
X77850000Y-64950000D02*
X74650000Y-64950000D01*
X78200000Y-59920000D02*
X79725000Y-59920000D01*
D12*
%TO.C,T_GND6*%
X59012500Y-112025000D02*
G75*
G02*
X57112500Y-112025000I-950000J0D01*
G01*
X57112500Y-112025000D02*
G75*
G02*
X59012500Y-112025000I950000J0D01*
G01*
%TO.C,R76*%
X103477499Y-94822259D02*
X103477499Y-94347743D01*
X104522499Y-94822259D02*
X104522499Y-94347743D01*
%TO.C,C46*%
X55134420Y-91090000D02*
X55415580Y-91090000D01*
X55134420Y-92110000D02*
X55415580Y-92110000D01*
%TO.C,C52*%
X84690000Y-97340580D02*
X84690000Y-97059420D01*
X85710000Y-97340580D02*
X85710000Y-97059420D01*
%TO.C,R22*%
X118837742Y-100887500D02*
X119312258Y-100887500D01*
X118837742Y-101932500D02*
X119312258Y-101932500D01*
%TO.C,C71*%
X88365580Y-58205000D02*
X88084420Y-58205000D01*
X88365580Y-59225000D02*
X88084420Y-59225000D01*
%TO.C,C13*%
X85490000Y-61854437D02*
X86554437Y-60790000D01*
X85490000Y-65310000D02*
X85490000Y-61854437D01*
X86190000Y-60550000D02*
X86190000Y-60050000D01*
X86440000Y-60300000D02*
X85940000Y-60300000D01*
X86690000Y-60790000D02*
X86554437Y-60790000D01*
X86690000Y-65310000D02*
X85490000Y-65310000D01*
X88810000Y-60790000D02*
X88945563Y-60790000D01*
X88810000Y-65310000D02*
X90010000Y-65310000D01*
X90010000Y-61854437D02*
X88945563Y-60790000D01*
X90010000Y-65310000D02*
X90010000Y-61854437D01*
D14*
%TO.C,G\u002A\u002A\u002A*%
G36*
X84452166Y-69446079D02*
G01*
X84473251Y-69482714D01*
X84412996Y-69559649D01*
X84353584Y-69610854D01*
X84306359Y-69613303D01*
X84292712Y-69532919D01*
X84308087Y-69472441D01*
X84386266Y-69439365D01*
X84452166Y-69446079D01*
G37*
G36*
X99121073Y-70281354D02*
G01*
X99121073Y-71123343D01*
X96641883Y-71123343D01*
X94162693Y-71123343D01*
X94162693Y-70281354D01*
X94162693Y-69439365D01*
X96641883Y-69439365D01*
X99121073Y-69439365D01*
X99121073Y-70281354D01*
G37*
G36*
X89281289Y-70953732D02*
G01*
X89297868Y-71029788D01*
X89297789Y-71035745D01*
X89268937Y-71104085D01*
X89173675Y-71123343D01*
X89098405Y-71120776D01*
X89079250Y-71097513D01*
X89134148Y-71029788D01*
X89200601Y-70967512D01*
X89258341Y-70936234D01*
X89281289Y-70953732D01*
G37*
G36*
X84811462Y-69441964D02*
G01*
X84844924Y-69463148D01*
X84826223Y-69514871D01*
X84749789Y-69608059D01*
X84610055Y-69753640D01*
X84535423Y-69828243D01*
X84414320Y-69940430D01*
X84340130Y-69989730D01*
X84302909Y-69981377D01*
X84292712Y-69920601D01*
X84299251Y-69890853D01*
X84358074Y-69792635D01*
X84458516Y-69674258D01*
X84576642Y-69559841D01*
X84688522Y-69473504D01*
X84770223Y-69439365D01*
X84811462Y-69441964D01*
G37*
G36*
X87195089Y-73088312D02*
G01*
X87218157Y-73138827D01*
X87233869Y-73262039D01*
X87239673Y-73438812D01*
X87239629Y-73455264D01*
X87232894Y-73628272D01*
X87216466Y-73746110D01*
X87192896Y-73789641D01*
X87190702Y-73789313D01*
X87167635Y-73738798D01*
X87151923Y-73615586D01*
X87146119Y-73438812D01*
X87146162Y-73422360D01*
X87152898Y-73249353D01*
X87169326Y-73131515D01*
X87192896Y-73087984D01*
X87195089Y-73088312D01*
G37*
G36*
X89954942Y-73088312D02*
G01*
X89978010Y-73138827D01*
X89993721Y-73262039D01*
X89999526Y-73438812D01*
X89999482Y-73455264D01*
X89992747Y-73628272D01*
X89976318Y-73746110D01*
X89952748Y-73789641D01*
X89950555Y-73789313D01*
X89927487Y-73738798D01*
X89911776Y-73615586D01*
X89905971Y-73438812D01*
X89906015Y-73422360D01*
X89912750Y-73249353D01*
X89929179Y-73131515D01*
X89952748Y-73087984D01*
X89954942Y-73088312D01*
G37*
G36*
X90469491Y-73088312D02*
G01*
X90492559Y-73138827D01*
X90508270Y-73262039D01*
X90514074Y-73438812D01*
X90514074Y-73789641D01*
X90299679Y-73789641D01*
X90223734Y-73787730D01*
X90124855Y-73769894D01*
X90105184Y-73731170D01*
X90159830Y-73692933D01*
X90272802Y-73684543D01*
X90420520Y-73696388D01*
X90420520Y-73392186D01*
X90426122Y-73244763D01*
X90442856Y-73130946D01*
X90467297Y-73087984D01*
X90469491Y-73088312D01*
G37*
G36*
X95240762Y-73088312D02*
G01*
X95263829Y-73138827D01*
X95279541Y-73262039D01*
X95285345Y-73438812D01*
X95285301Y-73455264D01*
X95278566Y-73628272D01*
X95262138Y-73746110D01*
X95238568Y-73789641D01*
X95236374Y-73789313D01*
X95213307Y-73738798D01*
X95197595Y-73615586D01*
X95191791Y-73438812D01*
X95191835Y-73422360D01*
X95198570Y-73249353D01*
X95214998Y-73131515D01*
X95238568Y-73087984D01*
X95240762Y-73088312D01*
G37*
G36*
X97766728Y-73088312D02*
G01*
X97789796Y-73138827D01*
X97805508Y-73262039D01*
X97811312Y-73438812D01*
X97811268Y-73455264D01*
X97804533Y-73628272D01*
X97788105Y-73746110D01*
X97764535Y-73789641D01*
X97762341Y-73789313D01*
X97739274Y-73738798D01*
X97723562Y-73615586D01*
X97717758Y-73438812D01*
X97717801Y-73422360D01*
X97724537Y-73249353D01*
X97740965Y-73131515D01*
X97764535Y-73087984D01*
X97766728Y-73088312D01*
G37*
G36*
X89280712Y-70574679D02*
G01*
X89297868Y-70644568D01*
X89291864Y-70674813D01*
X89231215Y-70775769D01*
X89125035Y-70893793D01*
X88997909Y-71006192D01*
X88874423Y-71090273D01*
X88779163Y-71123343D01*
X88753383Y-71122102D01*
X88725607Y-71106314D01*
X88743767Y-71062602D01*
X88815149Y-70978784D01*
X88947039Y-70842680D01*
X88994589Y-70795162D01*
X89119089Y-70676075D01*
X89213844Y-70593141D01*
X89261321Y-70562017D01*
X89280712Y-70574679D01*
G37*
G36*
X89291170Y-70195357D02*
G01*
X89292563Y-70246104D01*
X89228861Y-70347340D01*
X89097853Y-70502255D01*
X88897328Y-70714043D01*
X88808197Y-70803629D01*
X88620239Y-70979113D01*
X88481344Y-71086752D01*
X88395438Y-71123343D01*
X88394074Y-71123333D01*
X88367322Y-71109374D01*
X88384334Y-71063573D01*
X88451308Y-70977975D01*
X88574441Y-70844626D01*
X88759931Y-70655571D01*
X88820596Y-70594981D01*
X88984179Y-70434780D01*
X89120815Y-70305543D01*
X89217670Y-70219229D01*
X89261908Y-70187799D01*
X89291170Y-70195357D01*
G37*
G36*
X85275032Y-69425641D02*
G01*
X85245388Y-69467037D01*
X85162590Y-69559188D01*
X85041323Y-69686976D01*
X84896298Y-69835631D01*
X84742224Y-69990381D01*
X84593813Y-70136455D01*
X84465776Y-70259081D01*
X84372822Y-70343490D01*
X84329662Y-70374908D01*
X84309992Y-70362100D01*
X84292712Y-70292015D01*
X84317589Y-70236567D01*
X84399079Y-70129870D01*
X84521404Y-69993086D01*
X84668115Y-69842454D01*
X84822759Y-69694213D01*
X84968886Y-69564604D01*
X85090044Y-69469864D01*
X85169783Y-69426234D01*
X85236635Y-69415992D01*
X85275032Y-69425641D01*
G37*
G36*
X89297868Y-69847973D02*
G01*
X89267095Y-69916144D01*
X89179848Y-70033126D01*
X89049253Y-70184686D01*
X88888464Y-70357730D01*
X88710633Y-70539165D01*
X88528913Y-70715898D01*
X88356456Y-70874834D01*
X88206416Y-71002880D01*
X88091946Y-71086943D01*
X88026197Y-71113928D01*
X88012387Y-71104052D01*
X88026496Y-71059810D01*
X88089131Y-70975370D01*
X88205307Y-70844875D01*
X88380039Y-70662468D01*
X88618342Y-70422290D01*
X88838835Y-70204219D01*
X89021320Y-70028897D01*
X89152003Y-69911073D01*
X89237348Y-69845286D01*
X89283815Y-69826073D01*
X89297868Y-69847973D01*
G37*
G36*
X96337740Y-72138434D02*
G01*
X96433329Y-72263992D01*
X96471082Y-72402482D01*
X96450820Y-72581462D01*
X96348225Y-72727790D01*
X96273007Y-72774287D01*
X96152368Y-72797614D01*
X96048601Y-72770315D01*
X95994379Y-72695382D01*
X95994236Y-72694627D01*
X96000622Y-72630510D01*
X96069195Y-72630794D01*
X96175685Y-72633199D01*
X96274519Y-72579060D01*
X96314443Y-72481382D01*
X96302613Y-72369485D01*
X96241894Y-72275213D01*
X96122329Y-72245995D01*
X96074573Y-72241642D01*
X95998589Y-72201976D01*
X95990684Y-72141904D01*
X96060885Y-72087321D01*
X96201505Y-72075332D01*
X96337740Y-72138434D01*
G37*
G36*
X85573751Y-69441242D02*
G01*
X85590652Y-69459463D01*
X85572278Y-69503493D01*
X85512214Y-69581160D01*
X85404048Y-69700290D01*
X85241367Y-69868709D01*
X85017758Y-70094245D01*
X84986100Y-70125922D01*
X84786716Y-70323455D01*
X84610669Y-70494600D01*
X84468547Y-70629298D01*
X84370935Y-70717492D01*
X84328421Y-70749125D01*
X84318451Y-70748619D01*
X84285240Y-70713782D01*
X84322715Y-70623600D01*
X84431453Y-70477280D01*
X84612032Y-70274031D01*
X84865030Y-70013061D01*
X85081400Y-69799546D01*
X85260870Y-69631646D01*
X85394009Y-69520236D01*
X85489086Y-69458436D01*
X85554366Y-69439365D01*
X85573751Y-69441242D01*
G37*
G36*
X87692084Y-73132193D02*
G01*
X87787531Y-73228315D01*
X87829884Y-73335540D01*
X87834814Y-73504685D01*
X87750827Y-73666390D01*
X87697302Y-73723887D01*
X87565955Y-73786479D01*
X87407219Y-73761248D01*
X87377640Y-73748081D01*
X87333305Y-73704067D01*
X87366328Y-73674742D01*
X87464485Y-73677900D01*
X87502038Y-73683435D01*
X87622315Y-73658578D01*
X87688203Y-73558244D01*
X87698769Y-73383605D01*
X87695140Y-73343277D01*
X87673900Y-73247346D01*
X87617509Y-73202209D01*
X87496947Y-73178354D01*
X87421613Y-73165586D01*
X87362657Y-73142912D01*
X87387747Y-73116395D01*
X87400367Y-73111017D01*
X87550685Y-73089638D01*
X87692084Y-73132193D01*
G37*
G36*
X94993619Y-73092153D02*
G01*
X95102720Y-73109144D01*
X95145014Y-73134761D01*
X95115980Y-73165526D01*
X95028071Y-73181538D01*
X95008971Y-73181713D01*
X94953971Y-73191343D01*
X94924750Y-73231108D01*
X94913178Y-73322145D01*
X94911128Y-73485590D01*
X94905530Y-73632879D01*
X94888795Y-73746681D01*
X94864351Y-73789641D01*
X94841691Y-73753256D01*
X94824183Y-73644475D01*
X94817574Y-73485590D01*
X94815062Y-73328842D01*
X94802877Y-73233225D01*
X94774649Y-73191014D01*
X94724019Y-73181538D01*
X94669643Y-73172766D01*
X94630465Y-73134761D01*
X94653399Y-73115510D01*
X94746847Y-73095673D01*
X94887739Y-73087984D01*
X94993619Y-73092153D01*
G37*
G36*
X87080647Y-69449499D02*
G01*
X87072025Y-69485512D01*
X87024149Y-69553912D01*
X86931391Y-69661198D01*
X86788119Y-69813868D01*
X86588705Y-70018420D01*
X86327518Y-70281354D01*
X86199542Y-70408828D01*
X85918906Y-70682183D01*
X85695991Y-70888756D01*
X85527808Y-71030963D01*
X85411374Y-71111220D01*
X85343703Y-71131946D01*
X85321809Y-71095557D01*
X85339802Y-71071697D01*
X85415275Y-70988910D01*
X85541362Y-70856400D01*
X85709094Y-70683470D01*
X85909500Y-70479425D01*
X86133610Y-70253568D01*
X86360931Y-70027310D01*
X86593427Y-69801590D01*
X86773300Y-69635208D01*
X86906529Y-69522891D01*
X86999093Y-69459368D01*
X87056972Y-69439365D01*
X87080647Y-69449499D01*
G37*
G36*
X87454853Y-69449411D02*
G01*
X87446301Y-69485375D01*
X87398460Y-69553763D01*
X87305707Y-69661065D01*
X87162417Y-69813770D01*
X86962968Y-70018370D01*
X86701736Y-70281354D01*
X86534756Y-70447410D01*
X86263514Y-70710456D01*
X86049294Y-70907494D01*
X85888816Y-71041158D01*
X85778799Y-71114084D01*
X85715961Y-71128906D01*
X85697023Y-71088260D01*
X85714478Y-71063902D01*
X85789585Y-70980424D01*
X85915638Y-70847531D01*
X86083584Y-70674615D01*
X86284368Y-70471065D01*
X86508934Y-70246271D01*
X86722417Y-70035370D01*
X86959110Y-69807096D01*
X87142466Y-69638500D01*
X87278365Y-69524441D01*
X87372683Y-69459777D01*
X87431299Y-69439365D01*
X87454853Y-69449411D01*
G37*
G36*
X87821895Y-69439517D02*
G01*
X87830838Y-69461837D01*
X87791884Y-69525219D01*
X87700976Y-69634263D01*
X87554057Y-69793568D01*
X87347068Y-70007732D01*
X87075953Y-70281354D01*
X86882431Y-70472933D01*
X86664449Y-70683270D01*
X86472682Y-70862408D01*
X86316922Y-71001419D01*
X86206961Y-71091374D01*
X86152591Y-71123343D01*
X86109089Y-71119888D01*
X86070244Y-71100607D01*
X86090001Y-71076053D01*
X86167765Y-70993102D01*
X86296148Y-70860746D01*
X86466195Y-70688123D01*
X86668950Y-70484368D01*
X86895460Y-70258618D01*
X87175256Y-69984309D01*
X87425361Y-69747606D01*
X87616847Y-69577121D01*
X87748429Y-69473994D01*
X87818821Y-69439365D01*
X87821895Y-69439517D01*
G37*
G36*
X88207928Y-69453787D02*
G01*
X88174350Y-69513294D01*
X88084953Y-69622229D01*
X87936570Y-69784167D01*
X87726032Y-70002684D01*
X87450170Y-70281354D01*
X87256648Y-70472933D01*
X87038666Y-70683270D01*
X86846900Y-70862408D01*
X86691140Y-71001419D01*
X86581179Y-71091374D01*
X86526809Y-71123343D01*
X86483302Y-71119787D01*
X86444461Y-71099949D01*
X86464492Y-71075051D01*
X86542704Y-70991871D01*
X86671632Y-70859457D01*
X86842305Y-70686923D01*
X87045754Y-70483386D01*
X87273009Y-70257960D01*
X87310713Y-70220769D01*
X87590466Y-69949173D01*
X87823016Y-69731594D01*
X88004255Y-69571672D01*
X88130075Y-69473048D01*
X88196371Y-69439365D01*
X88207928Y-69453787D01*
G37*
G36*
X88978323Y-69441606D02*
G01*
X89017205Y-69454140D01*
X88998148Y-69476267D01*
X88921305Y-69556474D01*
X88793871Y-69686466D01*
X88624801Y-69857173D01*
X88423051Y-70059520D01*
X88197577Y-70284435D01*
X88070358Y-70410115D01*
X87832950Y-70639406D01*
X87625968Y-70832284D01*
X87458026Y-70981003D01*
X87337741Y-71077820D01*
X87273728Y-71114986D01*
X87261914Y-71111300D01*
X87283276Y-71062672D01*
X87367358Y-70957397D01*
X87515668Y-70793774D01*
X87729716Y-70570106D01*
X88011009Y-70284692D01*
X88205960Y-70091058D01*
X88423702Y-69880271D01*
X88615225Y-69700774D01*
X88770768Y-69561502D01*
X88880566Y-69471388D01*
X88934858Y-69439365D01*
X88978323Y-69441606D01*
G37*
G36*
X97115429Y-73106170D02*
G01*
X97169453Y-73197690D01*
X97232595Y-73352108D01*
X97326897Y-73616232D01*
X97417078Y-73367436D01*
X97459473Y-73264139D01*
X97521317Y-73150281D01*
X97571579Y-73097465D01*
X97600559Y-73092608D01*
X97618356Y-73119146D01*
X97617727Y-73120701D01*
X97592366Y-73187907D01*
X97545437Y-73315316D01*
X97486595Y-73476730D01*
X97480012Y-73494630D01*
X97418099Y-73642377D01*
X97362434Y-73742950D01*
X97324365Y-73775453D01*
X97297286Y-73745864D01*
X97244206Y-73649178D01*
X97182485Y-73512899D01*
X97123863Y-73365192D01*
X97080081Y-73234221D01*
X97062877Y-73148151D01*
X97062886Y-73145657D01*
X97077560Y-73086006D01*
X97115429Y-73106170D01*
G37*
G36*
X85937859Y-69439825D02*
G01*
X85958393Y-69453537D01*
X85946964Y-69491370D01*
X85897702Y-69560152D01*
X85804733Y-69666712D01*
X85662186Y-69817880D01*
X85464187Y-70020484D01*
X85204866Y-70281354D01*
X85009111Y-70476365D01*
X84796604Y-70685686D01*
X84613057Y-70863891D01*
X84467681Y-71002133D01*
X84369686Y-71091566D01*
X84328282Y-71123343D01*
X84316292Y-71122593D01*
X84286260Y-71093065D01*
X84313915Y-71018171D01*
X84401802Y-70894664D01*
X84552466Y-70719300D01*
X84768453Y-70488830D01*
X85052309Y-70200010D01*
X85286963Y-69967022D01*
X85501028Y-69760355D01*
X85665032Y-69610522D01*
X85786196Y-69511257D01*
X85871743Y-69456294D01*
X85928893Y-69439365D01*
X85937859Y-69439825D01*
G37*
G36*
X85569878Y-73093016D02*
G01*
X85682608Y-73117652D01*
X85762851Y-73161491D01*
X85769455Y-73168760D01*
X85817364Y-73273990D01*
X85836358Y-73418765D01*
X85830258Y-73499611D01*
X85772386Y-73657492D01*
X85664758Y-73756582D01*
X85521386Y-73780780D01*
X85433556Y-73759920D01*
X85382135Y-73717487D01*
X85409261Y-73678726D01*
X85515966Y-73665541D01*
X85575709Y-73665785D01*
X85662066Y-73637197D01*
X85712180Y-73550630D01*
X85732947Y-73446218D01*
X85725244Y-73305050D01*
X85704243Y-73243891D01*
X85647123Y-73193578D01*
X85531415Y-73181538D01*
X85510696Y-73181158D01*
X85409691Y-73165746D01*
X85368586Y-73134761D01*
X85382884Y-73110568D01*
X85458643Y-73089887D01*
X85569878Y-73093016D01*
G37*
G36*
X94098616Y-73091803D02*
G01*
X94161432Y-73150842D01*
X94226723Y-73258591D01*
X94308080Y-73429199D01*
X94387412Y-73273071D01*
X94399038Y-73251134D01*
X94467021Y-73149468D01*
X94525216Y-73098565D01*
X94568245Y-73090947D01*
X94576641Y-73116093D01*
X94544295Y-73190205D01*
X94467308Y-73328789D01*
X94432727Y-73395061D01*
X94373886Y-73543631D01*
X94350365Y-73661004D01*
X94337153Y-73749267D01*
X94303025Y-73789641D01*
X94302193Y-73789619D01*
X94269715Y-73747312D01*
X94256248Y-73648380D01*
X94252692Y-73608226D01*
X94211611Y-73466848D01*
X94139305Y-73321869D01*
X94068498Y-73206613D01*
X94030632Y-73128749D01*
X94037172Y-73095185D01*
X94083864Y-73087984D01*
X94098616Y-73091803D01*
G37*
G36*
X99095186Y-73116895D02*
G01*
X99113895Y-73217176D01*
X99121073Y-73365305D01*
X99116602Y-73483609D01*
X99079267Y-73658631D01*
X99000457Y-73758139D01*
X98875835Y-73789641D01*
X98808801Y-73783021D01*
X98694329Y-73717842D01*
X98627951Y-73578967D01*
X98606524Y-73361397D01*
X98613121Y-73212304D01*
X98634544Y-73111803D01*
X98663103Y-73101120D01*
X98690750Y-73180981D01*
X98709438Y-73352110D01*
X98717667Y-73445814D01*
X98761247Y-73610505D01*
X98838830Y-73688841D01*
X98950994Y-73681611D01*
X98955746Y-73679642D01*
X98998944Y-73635549D01*
X99021206Y-73539138D01*
X99027518Y-73370115D01*
X99032527Y-73242089D01*
X99049410Y-73130615D01*
X99074295Y-73087984D01*
X99095186Y-73116895D01*
G37*
G36*
X99121073Y-72456492D02*
G01*
X99119465Y-72591167D01*
X99109642Y-72722531D01*
X99087917Y-72788943D01*
X99050907Y-72807321D01*
X99001661Y-72778399D01*
X98980741Y-72666989D01*
X98978314Y-72609886D01*
X98949063Y-72542836D01*
X98868803Y-72526658D01*
X98792789Y-72511843D01*
X98731425Y-72460363D01*
X98740959Y-72395203D01*
X98810930Y-72358621D01*
X98910575Y-72369410D01*
X98951980Y-72374278D01*
X98980741Y-72321165D01*
X98979309Y-72305422D01*
X98935110Y-72259601D01*
X98817021Y-72245995D01*
X98802110Y-72245868D01*
X98688804Y-72227725D01*
X98653301Y-72175829D01*
X98668267Y-72139181D01*
X98740105Y-72113175D01*
X98887187Y-72105663D01*
X99121073Y-72105663D01*
X99121073Y-72456492D01*
G37*
G36*
X86312055Y-69439820D02*
G01*
X86332608Y-69453517D01*
X86321192Y-69491341D01*
X86271936Y-69560122D01*
X86178968Y-69666687D01*
X86036418Y-69817862D01*
X85838413Y-70020475D01*
X85579084Y-70281354D01*
X85402917Y-70456490D01*
X85134786Y-70716301D01*
X84923296Y-70910573D01*
X84764928Y-71042128D01*
X84656164Y-71113793D01*
X84593486Y-71128391D01*
X84573375Y-71088747D01*
X84590264Y-71064799D01*
X84664496Y-70981588D01*
X84789588Y-70848756D01*
X84956516Y-70675725D01*
X85156254Y-70471918D01*
X85379779Y-70246758D01*
X85406404Y-70220119D01*
X85673001Y-69956044D01*
X85883406Y-69753712D01*
X86044620Y-69607001D01*
X86163646Y-69509788D01*
X86247486Y-69455950D01*
X86303141Y-69439365D01*
X86312055Y-69439820D01*
G37*
G36*
X86686272Y-69439820D02*
G01*
X86706825Y-69453517D01*
X86695410Y-69491341D01*
X86646153Y-69560122D01*
X86553186Y-69666687D01*
X86410635Y-69817862D01*
X86212630Y-70020475D01*
X85953301Y-70281354D01*
X85777135Y-70456490D01*
X85509004Y-70716301D01*
X85297513Y-70910573D01*
X85139145Y-71042128D01*
X85030381Y-71113793D01*
X84967703Y-71128391D01*
X84947592Y-71088747D01*
X84964481Y-71064799D01*
X85038713Y-70981588D01*
X85163805Y-70848756D01*
X85330733Y-70675725D01*
X85530472Y-70471918D01*
X85753997Y-70246758D01*
X85780622Y-70220119D01*
X86047219Y-69956044D01*
X86257624Y-69753712D01*
X86418838Y-69607001D01*
X86537864Y-69509788D01*
X86621703Y-69455950D01*
X86677358Y-69439365D01*
X86686272Y-69439820D01*
G37*
G36*
X95275700Y-72444798D02*
G01*
X95261957Y-72783932D01*
X95028071Y-72783932D01*
X94905913Y-72779442D01*
X94819223Y-72757891D01*
X94794185Y-72713766D01*
X94829820Y-72660243D01*
X94946211Y-72628943D01*
X95054735Y-72602029D01*
X95098237Y-72544142D01*
X95080248Y-72501371D01*
X94994141Y-72488634D01*
X94924814Y-72484815D01*
X94873768Y-72421409D01*
X94872745Y-72415805D01*
X94889218Y-72356432D01*
X94977864Y-72339549D01*
X95058103Y-72327566D01*
X95098237Y-72292772D01*
X95098226Y-72292190D01*
X95056436Y-72259544D01*
X94957905Y-72245995D01*
X94859412Y-72231534D01*
X94817574Y-72175829D01*
X94833147Y-72138673D01*
X94905709Y-72113053D01*
X95053509Y-72105663D01*
X95289444Y-72105663D01*
X95275700Y-72444798D01*
G37*
G36*
X89280921Y-69447992D02*
G01*
X89290641Y-69502969D01*
X89278325Y-69527215D01*
X89209252Y-69615564D01*
X89090090Y-69749223D01*
X88932287Y-69916873D01*
X88747286Y-70107194D01*
X88546535Y-70308865D01*
X88341480Y-70510567D01*
X88143565Y-70700980D01*
X87964237Y-70868784D01*
X87814942Y-71002659D01*
X87707126Y-71091285D01*
X87652235Y-71123343D01*
X87606127Y-71120971D01*
X87567113Y-71108567D01*
X87567445Y-71107493D01*
X87605373Y-71063352D01*
X87698552Y-70966094D01*
X87836017Y-70826510D01*
X88006804Y-70655387D01*
X88199950Y-70463514D01*
X88404490Y-70261681D01*
X88609460Y-70060675D01*
X88803896Y-69871287D01*
X88976835Y-69704303D01*
X89117311Y-69570513D01*
X89214362Y-69480707D01*
X89257023Y-69445672D01*
X89280921Y-69447992D01*
G37*
G36*
X88642988Y-69450887D02*
G01*
X88642962Y-69451323D01*
X88608748Y-69497931D01*
X88517305Y-69597025D01*
X88379797Y-69737878D01*
X88207387Y-69909765D01*
X88011237Y-70101959D01*
X87802512Y-70303733D01*
X87592375Y-70504362D01*
X87391987Y-70693119D01*
X87212514Y-70859278D01*
X87065117Y-70992112D01*
X86960959Y-71080896D01*
X86911205Y-71114902D01*
X86857308Y-71120212D01*
X86818679Y-71111821D01*
X86818704Y-71111384D01*
X86852919Y-71064776D01*
X86944362Y-70965682D01*
X87081870Y-70824829D01*
X87254280Y-70652942D01*
X87450429Y-70460749D01*
X87659154Y-70258974D01*
X87869292Y-70058345D01*
X88069679Y-69869588D01*
X88249153Y-69703430D01*
X88396550Y-69570595D01*
X88500707Y-69481812D01*
X88550461Y-69447806D01*
X88604358Y-69442496D01*
X88642988Y-69450887D01*
G37*
G36*
X89204314Y-73444971D02*
G01*
X89204314Y-73801959D01*
X89015371Y-73776617D01*
X88885824Y-73752261D01*
X88764733Y-73692662D01*
X88705465Y-73585849D01*
X88694436Y-73463266D01*
X88783319Y-73463266D01*
X88797130Y-73566178D01*
X88863166Y-73641590D01*
X89001041Y-73675805D01*
X89053511Y-73677743D01*
X89091942Y-73653838D01*
X89107711Y-73580102D01*
X89110760Y-73434693D01*
X89108531Y-73294844D01*
X89093502Y-73216429D01*
X89053270Y-73186394D01*
X88975433Y-73181538D01*
X88954191Y-73182046D01*
X88852141Y-73212409D01*
X88798744Y-73300927D01*
X88783319Y-73463266D01*
X88694436Y-73463266D01*
X88689765Y-73411342D01*
X88699066Y-73279295D01*
X88749047Y-73163148D01*
X88856561Y-73104309D01*
X88975433Y-73093585D01*
X89037519Y-73087984D01*
X89204314Y-73087984D01*
X89204314Y-73444971D01*
G37*
G36*
X98420898Y-73088222D02*
G01*
X98444457Y-73137918D01*
X98460357Y-73261712D01*
X98466192Y-73441573D01*
X98460825Y-73626776D01*
X98444875Y-73739363D01*
X98419415Y-73766252D01*
X98402449Y-73739244D01*
X98381017Y-73638584D01*
X98372638Y-73495987D01*
X98372638Y-73254631D01*
X98205312Y-73522136D01*
X98115473Y-73656381D01*
X98039623Y-73752836D01*
X97994815Y-73789641D01*
X97990774Y-73788106D01*
X97970910Y-73730548D01*
X97956929Y-73606499D01*
X97951644Y-73438812D01*
X97953194Y-73347747D01*
X97966168Y-73191504D01*
X97988013Y-73106608D01*
X98013496Y-73098414D01*
X98037385Y-73172281D01*
X98054448Y-73333564D01*
X98068586Y-73579144D01*
X98220180Y-73333564D01*
X98295095Y-73220796D01*
X98371411Y-73124865D01*
X98418983Y-73087984D01*
X98420898Y-73088222D01*
G37*
G36*
X88143426Y-73092351D02*
G01*
X88246193Y-73120839D01*
X88309257Y-73168636D01*
X88330035Y-73269711D01*
X88270188Y-73375040D01*
X88128062Y-73462357D01*
X88121208Y-73465248D01*
X88014548Y-73534640D01*
X87994681Y-73601440D01*
X88056218Y-73649287D01*
X88193767Y-73661817D01*
X88302504Y-73659476D01*
X88339406Y-73676285D01*
X88314873Y-73720289D01*
X88271816Y-73758219D01*
X88154707Y-73790570D01*
X88031485Y-73763476D01*
X87934113Y-73687977D01*
X87894553Y-73575111D01*
X87897599Y-73535635D01*
X87942465Y-73454630D01*
X88058273Y-73389021D01*
X88172422Y-73323530D01*
X88220171Y-73254932D01*
X88190497Y-73202458D01*
X88081662Y-73181538D01*
X88079916Y-73181534D01*
X87981978Y-73167605D01*
X87941330Y-73134761D01*
X87958722Y-73106186D01*
X88035941Y-73086393D01*
X88143426Y-73092351D01*
G37*
G36*
X93040041Y-73412663D02*
G01*
X93040035Y-73418218D01*
X93033375Y-73583311D01*
X93016610Y-73708207D01*
X92993264Y-73766252D01*
X92986879Y-73768970D01*
X92957567Y-73735117D01*
X92946487Y-73628682D01*
X92946486Y-73626761D01*
X92938752Y-73516551D01*
X92899893Y-73471092D01*
X92806155Y-73462201D01*
X92804410Y-73462197D01*
X92706472Y-73448268D01*
X92665824Y-73415424D01*
X92665835Y-73414842D01*
X92707624Y-73382196D01*
X92806155Y-73368647D01*
X92842380Y-73367681D01*
X92924434Y-73343571D01*
X92946487Y-73275092D01*
X92941135Y-73232858D01*
X92895606Y-73192003D01*
X92782767Y-73181538D01*
X92761281Y-73181134D01*
X92660168Y-73165679D01*
X92619047Y-73134761D01*
X92628706Y-73120781D01*
X92704008Y-73097274D01*
X92829544Y-73087984D01*
X93040041Y-73087984D01*
X93040041Y-73412663D01*
G37*
G36*
X94257860Y-72111287D02*
G01*
X94292881Y-72169800D01*
X94303766Y-72304466D01*
X94304507Y-72503269D01*
X94432403Y-72304803D01*
X94481098Y-72236914D01*
X94571105Y-72142995D01*
X94642159Y-72106000D01*
X94644686Y-72106011D01*
X94685961Y-72119040D01*
X94710023Y-72169300D01*
X94721250Y-72275536D01*
X94724019Y-72456492D01*
X94722785Y-72574067D01*
X94713468Y-72714390D01*
X94692380Y-72786773D01*
X94656416Y-72807321D01*
X94633943Y-72801334D01*
X94595002Y-72734392D01*
X94574556Y-72585129D01*
X94560299Y-72362938D01*
X94419968Y-72585045D01*
X94413972Y-72594500D01*
X94312031Y-72739305D01*
X94240237Y-72800057D01*
X94194287Y-72774607D01*
X94169874Y-72660802D01*
X94162693Y-72456492D01*
X94164301Y-72321817D01*
X94174124Y-72190453D01*
X94195848Y-72124041D01*
X94232859Y-72105663D01*
X94257860Y-72111287D01*
G37*
G36*
X95715677Y-73107597D02*
G01*
X95790539Y-73144116D01*
X95802119Y-73156413D01*
X95848082Y-73261308D01*
X95805850Y-73360896D01*
X95679889Y-73443107D01*
X95665060Y-73449539D01*
X95554250Y-73523052D01*
X95523404Y-73595476D01*
X95571206Y-73648998D01*
X95696340Y-73665801D01*
X95765463Y-73666926D01*
X95837612Y-73690809D01*
X95824505Y-73730876D01*
X95722488Y-73772249D01*
X95595585Y-73779753D01*
X95486132Y-73718024D01*
X95434163Y-73585074D01*
X95433888Y-73512944D01*
X95475742Y-73448015D01*
X95586189Y-73390361D01*
X95586692Y-73390150D01*
X95710755Y-73318688D01*
X95752695Y-73251296D01*
X95712310Y-73201178D01*
X95589397Y-73181538D01*
X95567911Y-73181134D01*
X95466798Y-73165679D01*
X95425677Y-73134761D01*
X95433620Y-73117585D01*
X95500900Y-73093401D01*
X95607025Y-73090382D01*
X95715677Y-73107597D01*
G37*
G36*
X91075400Y-73438812D02*
G01*
X91075357Y-73455264D01*
X91068621Y-73628272D01*
X91052193Y-73746110D01*
X91028623Y-73789641D01*
X91028041Y-73789630D01*
X90995395Y-73747841D01*
X90981846Y-73649310D01*
X90979295Y-73590842D01*
X90949603Y-73524781D01*
X90868244Y-73508978D01*
X90859788Y-73508787D01*
X90743962Y-73474919D01*
X90647778Y-73401466D01*
X90607629Y-73315453D01*
X90611429Y-73298481D01*
X90747960Y-73298481D01*
X90748454Y-73320032D01*
X90775886Y-73396104D01*
X90864903Y-73415424D01*
X90886454Y-73414930D01*
X90962526Y-73387498D01*
X90981846Y-73298481D01*
X90981352Y-73276930D01*
X90953921Y-73200858D01*
X90864903Y-73181538D01*
X90843352Y-73182032D01*
X90767280Y-73209463D01*
X90747960Y-73298481D01*
X90611429Y-73298481D01*
X90631306Y-73209710D01*
X90727528Y-73119549D01*
X90864903Y-73092850D01*
X90889938Y-73087984D01*
X91075400Y-73087984D01*
X91075400Y-73438812D01*
G37*
G36*
X91636726Y-73438812D02*
G01*
X91636683Y-73455264D01*
X91629947Y-73628272D01*
X91613519Y-73746110D01*
X91589949Y-73789641D01*
X91589367Y-73789630D01*
X91556721Y-73747841D01*
X91543172Y-73649310D01*
X91540621Y-73590842D01*
X91510929Y-73524781D01*
X91429570Y-73508978D01*
X91421114Y-73508787D01*
X91305288Y-73474919D01*
X91209104Y-73401466D01*
X91168955Y-73315453D01*
X91172755Y-73298481D01*
X91309286Y-73298481D01*
X91309780Y-73320032D01*
X91337212Y-73396104D01*
X91426229Y-73415424D01*
X91447780Y-73414930D01*
X91523852Y-73387498D01*
X91543172Y-73298481D01*
X91542678Y-73276930D01*
X91515247Y-73200858D01*
X91426229Y-73181538D01*
X91404678Y-73182032D01*
X91328606Y-73209463D01*
X91309286Y-73298481D01*
X91172755Y-73298481D01*
X91192632Y-73209710D01*
X91288854Y-73119549D01*
X91426229Y-73092850D01*
X91451264Y-73087984D01*
X91636726Y-73087984D01*
X91636726Y-73438812D01*
G37*
G36*
X84630453Y-73108239D02*
G01*
X84704351Y-73144116D01*
X84730793Y-73175950D01*
X84760483Y-73245682D01*
X84757111Y-73265634D01*
X84706470Y-73349022D01*
X84624281Y-73427452D01*
X84548464Y-73462201D01*
X84513581Y-73470463D01*
X84438194Y-73526160D01*
X84415870Y-73574987D01*
X84443840Y-73641081D01*
X84527240Y-73680778D01*
X84642933Y-73677030D01*
X84664616Y-73672388D01*
X84744298Y-73677211D01*
X84755610Y-73714603D01*
X84686492Y-73761248D01*
X84642804Y-73775711D01*
X84488614Y-73778773D01*
X84360399Y-73693349D01*
X84342358Y-73671625D01*
X84306423Y-73569894D01*
X84358733Y-73471053D01*
X84501754Y-73369453D01*
X84561327Y-73333146D01*
X84628840Y-73265180D01*
X84605536Y-73216970D01*
X84491515Y-73190269D01*
X84480218Y-73189059D01*
X84380456Y-73165590D01*
X84339489Y-73131797D01*
X84347883Y-73114892D01*
X84415856Y-73092399D01*
X84522168Y-73090591D01*
X84630453Y-73108239D01*
G37*
G36*
X85265387Y-73427118D02*
G01*
X85251644Y-73766252D01*
X85029452Y-73780510D01*
X84966405Y-73782952D01*
X84850183Y-73773841D01*
X84807260Y-73745427D01*
X84812037Y-73734361D01*
X84877210Y-73707028D01*
X84994369Y-73696087D01*
X85010664Y-73696045D01*
X85123094Y-73687976D01*
X85171265Y-73654488D01*
X85181478Y-73579144D01*
X85178126Y-73528290D01*
X85141437Y-73474787D01*
X85041146Y-73462201D01*
X85039400Y-73462197D01*
X84941463Y-73448268D01*
X84900815Y-73415424D01*
X84900826Y-73414842D01*
X84942615Y-73382196D01*
X85041146Y-73368647D01*
X85077371Y-73367681D01*
X85159425Y-73343571D01*
X85181478Y-73275092D01*
X85176126Y-73232858D01*
X85130597Y-73192003D01*
X85017758Y-73181538D01*
X84996272Y-73181134D01*
X84895158Y-73165679D01*
X84854038Y-73134761D01*
X84864187Y-73120508D01*
X84940340Y-73097190D01*
X85066584Y-73087984D01*
X85279131Y-73087984D01*
X85265387Y-73427118D01*
G37*
G36*
X86996142Y-73427118D02*
G01*
X86982399Y-73766252D01*
X86800820Y-73781138D01*
X86769765Y-73782923D01*
X86645174Y-73774857D01*
X86569273Y-73746055D01*
X86557507Y-73727123D01*
X86593951Y-73703440D01*
X86715769Y-73696087D01*
X86748739Y-73695925D01*
X86856768Y-73686966D01*
X86902667Y-73653157D01*
X86912233Y-73579144D01*
X86908882Y-73528290D01*
X86872192Y-73474787D01*
X86771901Y-73462201D01*
X86770155Y-73462197D01*
X86672218Y-73448268D01*
X86631570Y-73415424D01*
X86631581Y-73414842D01*
X86673370Y-73382196D01*
X86771901Y-73368647D01*
X86808126Y-73367681D01*
X86890180Y-73343571D01*
X86912233Y-73275092D01*
X86906881Y-73232858D01*
X86861352Y-73192003D01*
X86748513Y-73181538D01*
X86727027Y-73181134D01*
X86625914Y-73165679D01*
X86584793Y-73134761D01*
X86594942Y-73120508D01*
X86671095Y-73097190D01*
X86797339Y-73087984D01*
X87009886Y-73087984D01*
X86996142Y-73427118D01*
G37*
G36*
X89755995Y-73427118D02*
G01*
X89742251Y-73766252D01*
X89520060Y-73780510D01*
X89457013Y-73782952D01*
X89340791Y-73773841D01*
X89297868Y-73745427D01*
X89302644Y-73734361D01*
X89367817Y-73707028D01*
X89484977Y-73696087D01*
X89501271Y-73696045D01*
X89613701Y-73687976D01*
X89661873Y-73654488D01*
X89672086Y-73579144D01*
X89664408Y-73510256D01*
X89619083Y-73470938D01*
X89508365Y-73462201D01*
X89486879Y-73461797D01*
X89385766Y-73446342D01*
X89344645Y-73415424D01*
X89346059Y-73409285D01*
X89400151Y-73380395D01*
X89508365Y-73368647D01*
X89582276Y-73365589D01*
X89653772Y-73339572D01*
X89672086Y-73275092D01*
X89660808Y-73219987D01*
X89605729Y-73189143D01*
X89482216Y-73181538D01*
X89441127Y-73180663D01*
X89342311Y-73165471D01*
X89321257Y-73134761D01*
X89337562Y-73121773D01*
X89427097Y-73097580D01*
X89559953Y-73087984D01*
X89769738Y-73087984D01*
X89755995Y-73427118D01*
G37*
G36*
X93471878Y-73097853D02*
G01*
X93524267Y-73098940D01*
X93647197Y-73159691D01*
X93709132Y-73290184D01*
X93722159Y-73356199D01*
X93735329Y-73420138D01*
X93735644Y-73422396D01*
X93723672Y-73487363D01*
X93690247Y-73595834D01*
X93674476Y-73633756D01*
X93580216Y-73744110D01*
X93456039Y-73787072D01*
X93327050Y-73765331D01*
X93218352Y-73681576D01*
X93155048Y-73538498D01*
X93144699Y-73446139D01*
X93145866Y-73438812D01*
X93297316Y-73438812D01*
X93303936Y-73582084D01*
X93329381Y-73658521D01*
X93381423Y-73687614D01*
X93432828Y-73688085D01*
X93533449Y-73647445D01*
X93560603Y-73612700D01*
X93593726Y-73504838D01*
X93600350Y-73375261D01*
X93580432Y-73261105D01*
X93533934Y-73199502D01*
X93471878Y-73180470D01*
X93370801Y-73189272D01*
X93314662Y-73273314D01*
X93297316Y-73438812D01*
X93145866Y-73438812D01*
X93172349Y-73272571D01*
X93262248Y-73151058D01*
X93405945Y-73096486D01*
X93471878Y-73097853D01*
G37*
G36*
X92080678Y-73128036D02*
G01*
X92142161Y-73233070D01*
X92209541Y-73380341D01*
X92269021Y-73531672D01*
X92314711Y-73660263D01*
X92333859Y-73731170D01*
X92334282Y-73743280D01*
X92311482Y-73788069D01*
X92264238Y-73769332D01*
X92221441Y-73696087D01*
X92217688Y-73685396D01*
X92158812Y-73621212D01*
X92036636Y-73602532D01*
X92009319Y-73603032D01*
X91903543Y-73626944D01*
X91857059Y-73696087D01*
X91832258Y-73750534D01*
X91776433Y-73789641D01*
X91748475Y-73776613D01*
X91750534Y-73707781D01*
X91801126Y-73572352D01*
X91844237Y-73462213D01*
X91948604Y-73462213D01*
X91964223Y-73501790D01*
X92038396Y-73508978D01*
X92110875Y-73506187D01*
X92149165Y-73497284D01*
X92149128Y-73497095D01*
X92130797Y-73449499D01*
X92090579Y-73353445D01*
X92034102Y-73221300D01*
X91979809Y-73365139D01*
X91948604Y-73462213D01*
X91844237Y-73462213D01*
X91889423Y-73346771D01*
X91955581Y-73196925D01*
X92003834Y-73113700D01*
X92034102Y-73091190D01*
X92038413Y-73087984D01*
X92080678Y-73128036D01*
G37*
G36*
X95866987Y-72106163D02*
G01*
X95908642Y-72120002D01*
X95929933Y-72167762D01*
X95935649Y-72269257D01*
X95930580Y-72444302D01*
X95923015Y-72583669D01*
X95906818Y-72709037D01*
X95879211Y-72774222D01*
X95834977Y-72798560D01*
X95810280Y-72801143D01*
X95765284Y-72771496D01*
X95753117Y-72670419D01*
X95749935Y-72603957D01*
X95719035Y-72541269D01*
X95636174Y-72526658D01*
X95585320Y-72530009D01*
X95531817Y-72566698D01*
X95519231Y-72666989D01*
X95504770Y-72765482D01*
X95449065Y-72807321D01*
X95422130Y-72799282D01*
X95395857Y-72750169D01*
X95382575Y-72641545D01*
X95378900Y-72456492D01*
X95380507Y-72321817D01*
X95390330Y-72190453D01*
X95412055Y-72124041D01*
X95449065Y-72105663D01*
X95494833Y-72128552D01*
X95519231Y-72222606D01*
X95519725Y-72244157D01*
X95547156Y-72320229D01*
X95636174Y-72339549D01*
X95657725Y-72339055D01*
X95733797Y-72311624D01*
X95753117Y-72222606D01*
X95774045Y-72132065D01*
X95848720Y-72105663D01*
X95866987Y-72106163D01*
G37*
G36*
X96780080Y-73092949D02*
G01*
X96883462Y-73112627D01*
X96934909Y-73146455D01*
X96943161Y-73199362D01*
X96949767Y-73325224D01*
X96950501Y-73485590D01*
X96945935Y-73766252D01*
X96723743Y-73780510D01*
X96660696Y-73782952D01*
X96544474Y-73773841D01*
X96501551Y-73745427D01*
X96502969Y-73738943D01*
X96557067Y-73708477D01*
X96665272Y-73696087D01*
X96761715Y-73690603D01*
X96816760Y-73658228D01*
X96828992Y-73579144D01*
X96825640Y-73528290D01*
X96788951Y-73474787D01*
X96688660Y-73462201D01*
X96686914Y-73462197D01*
X96588976Y-73448268D01*
X96548329Y-73415424D01*
X96548339Y-73414842D01*
X96590129Y-73382196D01*
X96688660Y-73368647D01*
X96724885Y-73367681D01*
X96806939Y-73343571D01*
X96828992Y-73275092D01*
X96823640Y-73232858D01*
X96778111Y-73192003D01*
X96665272Y-73181538D01*
X96643785Y-73181134D01*
X96542672Y-73165679D01*
X96501551Y-73134761D01*
X96502876Y-73128119D01*
X96555333Y-73099766D01*
X96659220Y-73088352D01*
X96780080Y-73092949D01*
G37*
G36*
X98563293Y-72113701D02*
G01*
X98589566Y-72162815D01*
X98602848Y-72271439D01*
X98606524Y-72456492D01*
X98604916Y-72591167D01*
X98595093Y-72722531D01*
X98573369Y-72788943D01*
X98536358Y-72807321D01*
X98487819Y-72779829D01*
X98466192Y-72672442D01*
X98465337Y-72641251D01*
X98436477Y-72553325D01*
X98349249Y-72515209D01*
X98274097Y-72509009D01*
X98239373Y-72546628D01*
X98232307Y-72653517D01*
X98229839Y-72721109D01*
X98206992Y-72790046D01*
X98150446Y-72798560D01*
X98116522Y-72784187D01*
X98084854Y-72732190D01*
X98066033Y-72625340D01*
X98054843Y-72444302D01*
X98052355Y-72379529D01*
X98050193Y-72229992D01*
X98060337Y-72147712D01*
X98087577Y-72112873D01*
X98136703Y-72105663D01*
X98210723Y-72131263D01*
X98232307Y-72222606D01*
X98232800Y-72244157D01*
X98260232Y-72320229D01*
X98349249Y-72339549D01*
X98370800Y-72339055D01*
X98446872Y-72311624D01*
X98466192Y-72222606D01*
X98479925Y-72146327D01*
X98536358Y-72105663D01*
X98563293Y-72113701D01*
G37*
G36*
X86461969Y-73121084D02*
G01*
X86467783Y-73129979D01*
X86482523Y-73208322D01*
X86485814Y-73334668D01*
X86479485Y-73480709D01*
X86465366Y-73618141D01*
X86445286Y-73718657D01*
X86421073Y-73753954D01*
X86404591Y-73734578D01*
X86382821Y-73644448D01*
X86374295Y-73508291D01*
X86373610Y-73424640D01*
X86369897Y-73317061D01*
X86364039Y-73275009D01*
X86336899Y-73309516D01*
X86273421Y-73402936D01*
X86187775Y-73534602D01*
X86098901Y-73660121D01*
X86022109Y-73744128D01*
X85975840Y-73765728D01*
X85958947Y-73741183D01*
X85938418Y-73647856D01*
X85928739Y-73513323D01*
X85929403Y-73364462D01*
X85939903Y-73228152D01*
X85959732Y-73131271D01*
X85988384Y-73100695D01*
X85996122Y-73104537D01*
X86029921Y-73179841D01*
X86032818Y-73338479D01*
X86029433Y-73407864D01*
X86030076Y-73513966D01*
X86039636Y-73555755D01*
X86064752Y-73531097D01*
X86127532Y-73446269D01*
X86210575Y-73321869D01*
X86294146Y-73196953D01*
X86364030Y-73114354D01*
X86415218Y-73092861D01*
X86461969Y-73121084D01*
G37*
G36*
X96407997Y-73412663D02*
G01*
X96407990Y-73418582D01*
X96401795Y-73583219D01*
X96386239Y-73707230D01*
X96364588Y-73764171D01*
X96338435Y-73767140D01*
X96300330Y-73718656D01*
X96282268Y-73630998D01*
X96294998Y-73538957D01*
X96306960Y-73491437D01*
X96286152Y-73456904D01*
X96228756Y-73475399D01*
X96153346Y-73538458D01*
X96078499Y-73637615D01*
X96046678Y-73687116D01*
X95985867Y-73755891D01*
X95952538Y-73753059D01*
X95957569Y-73683024D01*
X96004261Y-73581935D01*
X96035774Y-73530362D01*
X96051244Y-73466093D01*
X96008659Y-73413986D01*
X95971758Y-73377133D01*
X95932606Y-73275704D01*
X95936000Y-73267296D01*
X96080557Y-73267296D01*
X96084073Y-73320499D01*
X96123937Y-73385911D01*
X96220343Y-73382343D01*
X96267771Y-73356009D01*
X96301234Y-73270488D01*
X96264431Y-73202761D01*
X96188785Y-73177768D01*
X96114241Y-73199088D01*
X96080557Y-73267296D01*
X95936000Y-73267296D01*
X95970211Y-73182558D01*
X96073211Y-73114413D01*
X96188785Y-73094962D01*
X96230244Y-73087984D01*
X96407997Y-73087984D01*
X96407997Y-73412663D01*
G37*
G36*
X97488815Y-72108651D02*
G01*
X97544675Y-72144242D01*
X97596863Y-72234635D01*
X97657672Y-72398020D01*
X97705342Y-72545492D01*
X97743857Y-72676578D01*
X97760233Y-72748849D01*
X97756356Y-72776965D01*
X97709870Y-72806165D01*
X97641156Y-72787308D01*
X97587613Y-72725461D01*
X97559980Y-72684557D01*
X97473024Y-72643309D01*
X97378270Y-72655538D01*
X97317599Y-72721811D01*
X97317470Y-72722213D01*
X97259694Y-72787350D01*
X97133043Y-72807321D01*
X97132302Y-72807320D01*
X97005995Y-72787166D01*
X96948488Y-72721811D01*
X96924762Y-72681601D01*
X96841669Y-72642652D01*
X96745613Y-72657460D01*
X96678473Y-72725461D01*
X96663856Y-72751704D01*
X96599337Y-72799627D01*
X96532335Y-72800355D01*
X96501078Y-72748849D01*
X96513684Y-72684086D01*
X96550561Y-72556704D01*
X96575853Y-72480579D01*
X96752889Y-72480579D01*
X96803590Y-72511065D01*
X96857323Y-72503384D01*
X96866251Y-72462406D01*
X96828992Y-72362938D01*
X96802282Y-72315566D01*
X96785502Y-72324029D01*
X96782492Y-72348856D01*
X96756813Y-72444870D01*
X96752889Y-72480579D01*
X96575853Y-72480579D01*
X96603283Y-72398020D01*
X96637177Y-72305285D01*
X96693262Y-72182057D01*
X96746256Y-72121680D01*
X96802282Y-72107420D01*
X96809183Y-72105663D01*
X96882116Y-72124495D01*
X96940271Y-72216695D01*
X96949888Y-72250619D01*
X96995059Y-72381384D01*
X97053956Y-72529794D01*
X97139775Y-72731861D01*
X97246271Y-72430198D01*
X97398094Y-72430198D01*
X97401160Y-72494265D01*
X97460483Y-72511065D01*
X97511351Y-72504242D01*
X97522020Y-72464759D01*
X97488764Y-72366358D01*
X97475237Y-72333177D01*
X97449823Y-72303401D01*
X97421886Y-72358489D01*
X97398094Y-72430198D01*
X97246271Y-72430198D01*
X97250308Y-72418762D01*
X97290107Y-72310731D01*
X97347484Y-72185141D01*
X97400249Y-72122617D01*
X97449823Y-72108580D01*
X97460127Y-72105663D01*
X97488815Y-72108651D01*
G37*
D12*
%TO.C,U3*%
X118805000Y-84075000D02*
X118805000Y-86025000D01*
X118805000Y-87975000D02*
X118805000Y-86025000D01*
X123925000Y-84075000D02*
X123925000Y-86025000D01*
X123925000Y-87975000D02*
X123925000Y-86025000D01*
X118900000Y-83325000D02*
X118570000Y-83565000D01*
X118570000Y-83085000D01*
X118900000Y-83325000D01*
G36*
X118900000Y-83325000D02*
G01*
X118570000Y-83565000D01*
X118570000Y-83085000D01*
X118900000Y-83325000D01*
G37*
%TO.C,L2*%
X91287878Y-55940000D02*
X92087122Y-55940000D01*
X91287878Y-57060000D02*
X92087122Y-57060000D01*
%TO.C,D5*%
X110850000Y-88500000D02*
X114860000Y-88500000D01*
X110850000Y-90500000D02*
X114860000Y-90500000D01*
X114860000Y-90500000D02*
X114860000Y-88500000D01*
%TO.C,C64*%
X88440001Y-117115580D02*
X88440001Y-116834420D01*
X89460001Y-117115580D02*
X89460001Y-116834420D01*
%TO.C,Q6*%
X111750000Y-102395000D02*
X112550000Y-102395000D01*
X111750000Y-105515000D02*
X112550000Y-105515000D01*
X113350000Y-102395000D02*
X112550000Y-102395000D01*
X113350000Y-105515000D02*
X112550000Y-105515000D01*
X113850000Y-102445000D02*
X113610000Y-102115000D01*
X114090000Y-102115000D01*
X113850000Y-102445000D01*
G36*
X113850000Y-102445000D02*
G01*
X113610000Y-102115000D01*
X114090000Y-102115000D01*
X113850000Y-102445000D01*
G37*
%TO.C,R31*%
X116237258Y-102387500D02*
X115762742Y-102387500D01*
X116237258Y-103432500D02*
X115762742Y-103432500D01*
%TO.C,C85*%
X113015000Y-67238748D02*
X113015000Y-67761252D01*
X114485000Y-67238748D02*
X114485000Y-67761252D01*
%TD*%
M02*
