M48
; DRILL file {KiCad 8.0.3} date 2024-09-23T16:56:14+0200
; FORMAT={-:-/ absolute / inch / decimal}
; #@! TF.CreationDate,2024-09-23T16:56:14+02:00
; #@! TF.GenerationSoftware,Kicad,Pcbnew,8.0.3
; #@! TF.FileFunction,Plated,1,4,PTH
FMAT,2
INCH
; #@! TA.AperFunction,Plated,PTH,ViaDrill
T1C0.0098
; #@! TA.AperFunction,Plated,PTH,ViaDrill
T2C0.0118
; #@! TA.AperFunction,Plated,PTH,ComponentDrill
T3C0.0197
; #@! TA.AperFunction,Plated,PTH,ComponentDrill
T4C0.0276
; #@! TA.AperFunction,Plated,PTH,ComponentDrill
T5C0.0394
; #@! TA.AperFunction,Plated,PTH,ComponentDrill
T6C0.1260
%
G90
G05
T1
X3.3819Y-3.8268
X3.3916Y-3.5354
X3.4525Y-4.8147
T2
X2.0118Y-2.3425
X2.0197Y-3.5669
X2.0236Y-3.7953
X2.0315Y-3.8701
X2.0315Y-3.9055
X2.0352Y-3.1126
X2.0352Y-4.2126
X2.0352Y-4.2626
X2.0352Y-4.3126
X2.0352Y-4.4626
X2.0352Y-4.5126
X2.0352Y-4.5626
X2.0352Y-4.6126
X2.0512Y-2.3425
X2.0852Y-2.0126
X2.0852Y-4.4626
X2.0852Y-4.5126
X2.0852Y-4.5626
X2.0945Y-2.3425
X2.1339Y-2.7142
X2.1339Y-4.0315
X2.1352Y-4.4626
X2.1352Y-4.5126
X2.1352Y-4.5626
X2.1417Y-2.3425
X2.1417Y-3.7459
X2.1442Y-4.3002
X2.1535Y-2.3976
X2.1535Y-2.4449
X2.1575Y-3.8386
X2.1575Y-3.8701
X2.1599Y-4.1663
X2.1693Y-3.4252
X2.1693Y-3.4567
X2.1732Y-2.7142
X2.185Y-3.6894
X2.1852Y-4.4626
X2.1852Y-4.5126
X2.1852Y-4.5626
X2.1994Y-2.6914
X2.2047Y-3.4252
X2.2047Y-3.4567
X2.2089Y-3.7483
X2.2244Y-3.6929
X2.2244Y-3.8583
X2.2283Y-3.311
X2.2283Y-3.3425
X2.2283Y-3.374
X2.2352Y-2.0126
X2.2352Y-4.5126
X2.2352Y-4.5626
X2.2362Y-3.4252
X2.2362Y-3.4567
X2.2382Y-4.0512
X2.248Y-3.1496
X2.2717Y-3.4252
X2.2717Y-3.4567
X2.2756Y-3.8661
X2.2795Y-2.935
X2.2852Y-2.0126
X2.2852Y-4.5126
X2.2852Y-4.5626
X2.2874Y-4.0866
X2.3253Y-3.9872
X2.3307Y-2.9882
X2.3352Y-4.5126
X2.3352Y-4.5626
X2.3352Y-4.6126
X2.3352Y-4.6626
X2.3352Y-4.7126
X2.3352Y-4.7626
X2.3352Y-4.8126
X2.341Y-4.4065
X2.3622Y-2.5236
X2.3701Y-2.7835
X2.3725Y-3.9203
X2.374Y-2.7165
X2.374Y-3.2165
X2.374Y-3.2559
X2.374Y-3.2992
X2.374Y-3.3386
X2.374Y-3.374
X2.3841Y-3.5616
X2.3852Y-4.3126
X2.3852Y-4.4626
X2.3852Y-4.5126
X2.3852Y-4.5626
X2.3852Y-4.6126
X2.3852Y-4.6626
X2.3852Y-4.7126
X2.3852Y-4.7626
X2.3852Y-4.8126
X2.4016Y-2.5236
X2.4016Y-3.1891
X2.404Y-3.9872
X2.4055Y-3.5256
X2.4134Y-2.0118
X2.4252Y-3.876
X2.4352Y-4.3126
X2.4352Y-4.3626
X2.4352Y-4.4126
X2.4352Y-4.4626
X2.4352Y-4.5126
X2.4352Y-4.5626
X2.4352Y-4.6126
X2.4352Y-4.6626
X2.4352Y-4.7126
X2.4352Y-4.7626
X2.4352Y-4.8126
X2.4395Y-3.9518
X2.4449Y-2.5236
X2.4488Y-3.6181
X2.4528Y-3.7008
X2.4685Y-2.5827
X2.471Y-3.9872
X2.4724Y-2.5472
X2.4852Y-4.2626
X2.4852Y-4.3126
X2.4852Y-4.3626
X2.4852Y-4.4126
X2.4852Y-4.4626
X2.4852Y-4.5126
X2.4852Y-4.5626
X2.4852Y-4.6126
X2.4852Y-4.6626
X2.4852Y-4.7126
X2.4852Y-4.7626
X2.4852Y-4.8126
X2.4882Y-3.0236
X2.5197Y-3.8661
X2.5236Y-3.189
X2.5352Y-4.1126
X2.5352Y-4.1626
X2.5352Y-4.2126
X2.5352Y-4.2626
X2.5352Y-4.4126
X2.5352Y-4.4626
X2.5352Y-4.5126
X2.5352Y-4.5626
X2.5352Y-4.6126
X2.5352Y-4.6626
X2.5352Y-4.7126
X2.5352Y-4.7626
X2.5352Y-4.8126
X2.5394Y-3.8228
X2.5433Y-2.1811
X2.5433Y-2.2205
X2.5536Y-4.0187
X2.5591Y-3.9764
X2.5709Y-3.063
X2.5728Y-3.8642
X2.5748Y-2.1811
X2.5748Y-2.2205
X2.5748Y-3.8031
X2.5748Y-3.9488
X2.5852Y-4.1126
X2.5852Y-4.1626
X2.5852Y-4.2126
X2.5852Y-4.4626
X2.5852Y-4.5126
X2.5852Y-4.7626
X2.5852Y-4.8126
X2.6063Y-2.1811
X2.6063Y-2.2205
X2.6102Y-3.7598
X2.6103Y-3.8267
X2.6299Y-3.189
X2.6352Y-4.3626
X2.6457Y-2.0118
X2.6457Y-2.0433
X2.6457Y-2.0748
X2.6457Y-2.1063
X2.6575Y-2.7323
X2.6589Y-3.8228
X2.6614Y-3.6142
X2.6614Y-3.7205
X2.6614Y-4.4803
X2.6619Y-3.7575
X2.6693Y-2.3228
X2.6772Y-2.0118
X2.6772Y-2.0433
X2.6772Y-2.0748
X2.6772Y-2.1063
X2.6831Y-4.8524
X2.6841Y-3.8022
X2.6852Y-4.3126
X2.6929Y-4.6929
X2.6969Y-4.7992
X2.7165Y-4.5768
X2.7165Y-4.7146
X2.7362Y-4.1339
X2.7461Y-4.4193
X2.752Y-3.8693
X2.7598Y-2.3386
X2.7598Y-3.8307
X2.7677Y-3.3071
X2.7795Y-2.3189
X2.7854Y-4.3642
X2.7874Y-3.0236
X2.7953Y-3.2776
X2.7953Y-3.5609
X2.7953Y-3.9094
X2.7972Y-3.248
X2.8031Y-3.1102
X2.8031Y-3.6614
X2.8031Y-3.7402
X2.8031Y-3.8268
X2.8046Y-4.0669
X2.8091Y-3.4705
X2.811Y-3.1811
X2.8228Y-3.5444
X2.8465Y-3.878
X2.85Y-3.7758
X2.8504Y-3.2638
X2.8583Y-3.1102
X2.8583Y-3.311
X2.8644Y-4.3132
X2.8657Y-4.7732
X2.8661Y-2.8898
X2.8703Y-3.4071
X2.8717Y-3.7636
X2.874Y-4.498
X2.8839Y-4.1339
X2.8839Y-4.1634
X2.8839Y-4.1929
X2.8852Y-2.7626
X2.8852Y-3.9626
X2.8898Y-3.1102
X2.8937Y-2.0079
X2.8937Y-2.0394
X2.8937Y-2.9173
X2.8976Y-3.6772
X2.9035Y-4.4291
X2.9035Y-4.5768
X2.9037Y-3.8187
X2.9252Y-2.0079
X2.9252Y-2.0394
X2.9252Y-3.7008
X2.9352Y-2.7626
X2.9567Y-2.0079
X2.9567Y-2.0394
X2.9646Y-2.4843
X2.9744Y-3.3248
X2.9764Y-3.2441
X2.9764Y-3.7874
X2.9803Y-2.6378
X2.9823Y-3.2165
X2.9852Y-2.3626
X2.9852Y-2.4126
X2.9852Y-2.7626
X2.9882Y-3.9055
X2.9961Y-3.5404
X3.0039Y-3.439
X3.0079Y-2.6378
X3.0079Y-3.2185
X3.0118Y-3.2638
X3.0118Y-3.2953
X3.0143Y-4.7821
X3.0197Y-4.8543
X3.0217Y-4.6457
X3.0276Y-2.4843
X3.028Y-3.6353
X3.0295Y-3.4646
X3.0315Y-4.6063
X3.0352Y-2.4126
X3.0352Y-2.7626
X3.0352Y-4.4126
X3.0352Y-4.4626
X3.0472Y-2.0079
X3.0472Y-2.0394
X3.0591Y-3.3091
X3.063Y-3.0394
X3.063Y-3.2736
X3.063Y-3.8268
X3.0689Y-3.1811
X3.0787Y-2.0079
X3.0787Y-2.0394
X3.0852Y-4.3626
X3.0852Y-4.4126
X3.0852Y-4.4626
X3.0866Y-3.4194
X3.0866Y-3.3858
X3.0866Y-3.4843
X3.0866Y-3.4509
X3.0925Y-3.2244
X3.1024Y-3.8268
X3.1102Y-2.0079
X3.1102Y-2.0394
X3.1102Y-2.6732
X3.1352Y-4.4126
X3.1352Y-4.4626
X3.1417Y-3.2244
X3.1457Y-3.9606
X3.1535Y-3.2736
X3.1575Y-3.3169
X3.1654Y-2.2874
X3.1654Y-2.315
X3.1654Y-2.9843
X3.1693Y-3.5444
X3.1732Y-3.9134
X3.185Y-3.9606
X3.185Y-3.9921
X3.185Y-4.0236
X3.1852Y-2.6126
X3.1852Y-2.6626
X3.1852Y-4.4126
X3.1969Y-3.6614
X3.2047Y-3.0551
X3.2047Y-4.1496
X3.2047Y-4.1811
X3.2087Y-2.2756
X3.2087Y-2.3031
X3.2185Y-3.3228
X3.2205Y-2.9921
X3.2283Y-3.6535
X3.2352Y-2.6626
X3.2362Y-3.437
X3.2362Y-3.4724
X3.2441Y-4.1496
X3.248Y-4.1831
X3.2487Y-3.4069
X3.252Y-2.7953
X3.2529Y-3.371
X3.2638Y-4.5079
X3.2638Y-4.5433
X3.2638Y-4.5748
X3.2638Y-4.6102
X3.2657Y-3.2874
X3.2677Y-3.9094
X3.2717Y-3.6575
X3.2769Y-3.7736
X3.2835Y-2.9921
X3.2835Y-3.8583
X3.2852Y-2.2626
X3.2852Y-2.3126
X3.2852Y-2.6626
X3.2898Y-3.9575
X3.2992Y-3.0551
X3.3031Y-4.6378
X3.3031Y-4.6693
X3.315Y-3.8295
X3.3169Y-3.3169
X3.3228Y-3.2205
X3.3228Y-3.9567
X3.3248Y-3.6319
X3.3307Y-3.2953
X3.3327Y-2.9606
X3.3346Y-4.6378
X3.3346Y-4.6693
X3.3352Y-2.6126
X3.3352Y-2.6626
X3.3352Y-2.7626
X3.3352Y-2.8126
X3.3352Y-2.8626
X3.3386Y-3.0
X3.3484Y-2.1909
X3.3543Y-3.9567
X3.3661Y-4.5079
X3.3661Y-4.5433
X3.3661Y-4.5748
X3.3661Y-4.6063
X3.3661Y-4.6378
X3.3661Y-4.6693
X3.3704Y-3.894
X3.3731Y-3.2274
X3.374Y-3.1772
X3.3809Y-3.0581
X3.3852Y-2.6626
X3.3852Y-2.7626
X3.3852Y-2.8126
X3.3852Y-2.8626
X3.3898Y-3.4882
X3.3898Y-3.626
X3.3937Y-2.3504
X3.3937Y-3.9173
X3.3943Y-2.3116
X3.3976Y-4.8681
X3.4055Y-4.1339
X3.4055Y-4.1634
X3.4055Y-4.1929
X3.4081Y-3.1699
X3.4094Y-2.9606
X3.4094Y-4.4528
X3.4114Y-3.2795
X3.4134Y-4.4173
X3.4153Y-3.9606
X3.4173Y-3.4724
X3.4213Y-3.3228
X3.4281Y-4.8568
X3.4291Y-3.9055
X3.4302Y-3.5709
X3.4331Y-3.3543
X3.4337Y-4.7692
X3.4352Y-2.7626
X3.4352Y-2.8126
X3.4352Y-2.8626
X3.437Y-2.0079
X3.437Y-2.0394
X3.437Y-3.6181
X3.4409Y-3.06
X3.4409Y-3.2717
X3.4409Y-3.4488
X3.4626Y-4.5768
X3.4646Y-3.937
X3.4675Y-3.8583
X3.4685Y-2.0079
X3.4685Y-2.0394
X3.4685Y-3.6063
X3.4724Y-3.4075
X3.4739Y-3.8199
X3.4852Y-2.7626
X3.4852Y-2.8126
X3.4852Y-2.8626
X3.4882Y-3.7244
X3.4921Y-2.2598
X3.4921Y-4.4193
X3.5Y-2.0079
X3.5Y-2.0394
X3.5039Y-4.0197
X3.5276Y-2.2598
X3.5276Y-3.7244
X3.5315Y-4.3642
X3.5352Y-2.7626
X3.5352Y-2.8126
X3.5352Y-2.8626
X3.5352Y-2.9126
X3.5352Y-2.9626
X3.5352Y-3.1126
X3.5354Y-3.6772
X3.5433Y-3.8346
X3.5827Y-2.0079
X3.5827Y-2.0394
X3.5852Y-2.7626
X3.5852Y-2.8126
X3.5852Y-2.8626
X3.5852Y-2.9126
X3.5906Y-3.2992
X3.5984Y-3.4232
X3.6117Y-4.7732
X3.6142Y-2.0079
X3.6142Y-2.0394
X3.6181Y-3.9685
X3.6201Y-4.498
X3.622Y-4.126
X3.622Y-4.1634
X3.622Y-4.1969
X3.6352Y-2.7626
X3.6352Y-2.8126
X3.6352Y-2.8626
X3.6352Y-4.3126
X3.6398Y-3.4252
X3.6457Y-2.0079
X3.6457Y-2.0394
X3.6496Y-4.4291
X3.6496Y-4.5768
X3.6535Y-2.4567
X3.6535Y-3.315
X3.6707Y-2.4856
X3.6811Y-2.6181
X3.6811Y-3.8976
X3.685Y-3.3465
X3.685Y-3.4232
X3.6852Y-2.7626
X3.6852Y-2.8126
X3.6909Y-2.3169
X3.6929Y-4.0472
X3.6949Y-2.2894
X3.7087Y-2.6181
X3.7224Y-3.7067
X3.7278Y-4.0457
X3.7352Y-2.5626
X3.7352Y-2.7626
X3.7352Y-3.0126
X3.7402Y-2.2874
X3.7402Y-2.315
X3.7402Y-3.1496
X3.7402Y-3.1772
X3.7604Y-4.7821
X3.7638Y-4.8543
X3.7677Y-4.6457
X3.7776Y-4.6063
X3.7795Y-3.6929
X3.7852Y-2.6126
X3.7852Y-2.6626
X3.7852Y-2.9626
X3.7852Y-3.9626
X3.7852Y-4.1626
X3.7852Y-4.4126
X3.7852Y-4.4626
X3.7874Y-3.6102
X3.7953Y-3.6693
X3.8268Y-3.3661
X3.8352Y-2.2626
X3.8352Y-2.3126
X3.8352Y-2.6126
X3.8352Y-2.6626
X3.8352Y-2.9126
X3.8352Y-2.9626
X3.8352Y-3.1626
X3.8352Y-3.2126
X3.8352Y-3.2626
X3.8352Y-3.9626
X3.8352Y-4.0126
X3.8352Y-4.4126
X3.8352Y-4.4626
X3.8386Y-3.4085
X3.8425Y-4.1339
X3.8852Y-2.2626
X3.8852Y-2.3126
X3.8852Y-2.8626
X3.8852Y-2.9126
X3.8852Y-2.9626
X3.8852Y-3.1626
X3.8852Y-3.2126
X3.8852Y-3.2626
X3.8852Y-3.9626
X3.8852Y-4.0126
X3.8852Y-4.4126
X3.8852Y-4.4626
X3.8976Y-3.5394
X3.9291Y-4.1969
X3.9352Y-2.2626
X3.9352Y-2.3126
X3.9352Y-2.8126
X3.9352Y-2.8626
X3.9352Y-2.9126
X3.9352Y-2.9626
X3.9352Y-3.1626
X3.9352Y-3.2126
X3.9352Y-3.2626
X3.9352Y-4.0126
X3.9352Y-4.4626
X3.9528Y-4.2205
X3.9567Y-3.811
X3.9567Y-3.8504
X3.9567Y-3.8898
X3.9685Y-4.1969
X3.9724Y-2.0079
X3.9724Y-2.0394
X3.9803Y-3.5866
X3.9843Y-3.0315
X3.9843Y-3.0629
X3.9843Y-3.0945
X3.9852Y-2.2626
X3.9852Y-2.3126
X3.9852Y-2.8126
X3.9852Y-2.8626
X3.9852Y-2.9126
X3.9852Y-2.9626
X3.9852Y-3.1626
X3.9852Y-3.2126
X3.9852Y-3.2626
X3.9852Y-4.7626
X3.9852Y-4.8126
X3.9921Y-4.2205
X4.0039Y-2.0079
X4.0039Y-2.0394
X4.0079Y-4.1969
X4.0079Y-4.5079
X4.0079Y-4.5433
X4.0079Y-4.5748
X4.0079Y-4.6102
X4.0109Y-3.9891
X4.0352Y-2.2626
X4.0352Y-2.3126
X4.0352Y-2.3626
X4.0352Y-2.4126
X4.0352Y-2.4626
X4.0352Y-2.8626
X4.0352Y-2.9126
X4.0352Y-3.1626
X4.0352Y-3.2126
X4.0352Y-3.7126
X4.0354Y-2.0079
X4.0354Y-2.0394
X4.0472Y-4.6378
X4.0472Y-4.6693
X4.0512Y-3.9961
X4.0709Y-3.0
X4.0709Y-3.7874
X4.0787Y-4.6378
X4.0787Y-4.6693
X4.0852Y-2.2626
X4.0852Y-2.3126
X4.0852Y-2.6626
X4.0852Y-3.1626
X4.0852Y-3.2126
X4.1024Y-2.3701
X4.1024Y-3.0
X4.1024Y-3.7874
X4.1063Y-2.3976
X4.1102Y-4.5079
X4.1102Y-4.5433
X4.1102Y-4.5748
X4.1102Y-4.6063
X4.1102Y-4.6378
X4.1102Y-4.6693
X4.1142Y-2.0079
X4.1142Y-2.0394
X4.124Y-3.6382
X4.124Y-4.1598
X4.1339Y-2.8543
X4.1339Y-3.0
X4.1339Y-3.376
X4.1339Y-3.7874
X4.1352Y-2.2626
X4.1352Y-2.3126
X4.1352Y-2.6126
X4.1352Y-2.6626
X4.1352Y-3.1626
X4.1352Y-3.2126
X4.1457Y-2.0079
X4.1457Y-2.0394
X4.1535Y-3.6382
X4.1535Y-4.1598
X4.1575Y-4.3228
X4.1634Y-2.8543
X4.1634Y-3.376
X4.1654Y-3.0
X4.1654Y-3.7874
X4.1693Y-2.3976
X4.1693Y-2.4921
X4.1772Y-2.0079
X4.1772Y-2.0394
X4.1831Y-3.6382
X4.1831Y-4.1598
X4.1852Y-2.2626
X4.1852Y-2.5626
X4.1852Y-2.6126
X4.1852Y-2.6626
X4.1852Y-3.1626
X4.1852Y-3.2126
X4.1852Y-4.7626
X4.1852Y-4.8126
X4.1929Y-2.8543
X4.1929Y-3.376
X4.2008Y-2.4921
X4.2047Y-2.3976
X4.2087Y-2.122
X4.2087Y-3.9921
X4.2087Y-4.0827
X4.2352Y-2.5626
X4.2352Y-2.6126
X4.2352Y-2.6626
X4.2352Y-4.7626
X4.2352Y-4.8126
X4.2402Y-2.122
X4.2618Y-3.3425
X4.2638Y-4.4252
X4.2717Y-2.122
X4.2852Y-2.6626
X4.2852Y-2.7126
X4.2852Y-3.5126
X4.2852Y-4.2626
X4.2852Y-4.7626
X4.2852Y-4.8126
X4.2953Y-4.4252
X4.3031Y-2.122
X4.315Y-2.5669
X4.3268Y-4.4252
X4.3352Y-2.2626
X4.3352Y-2.3126
X4.3352Y-2.6626
X4.3352Y-2.7126
X4.3352Y-3.3626
X4.3352Y-4.7626
X4.3352Y-4.8126
X4.3465Y-2.5354
X4.3543Y-4.2583
X4.3642Y-3.4744
X4.3852Y-2.9126
X4.3852Y-2.9626
X4.3852Y-3.0126
X4.3852Y-3.0626
X4.3852Y-3.1126
X4.3852Y-3.1626
X4.3852Y-3.2126
X4.3852Y-3.6626
X4.3852Y-3.7126
X4.3852Y-3.7626
X4.3852Y-3.8126
X4.3852Y-3.8626
X4.3852Y-3.9126
X4.3852Y-3.9626
X4.3852Y-4.0126
X4.3852Y-4.4626
X4.3852Y-4.7126
X4.3852Y-4.7626
X4.3852Y-4.8126
X4.4016Y-2.2677
X4.4016Y-2.3031
X4.4016Y-2.7402
X4.4094Y-4.2976
X4.4134Y-4.3858
X4.4193Y-3.5138
X4.4193Y-4.1402
X4.4252Y-3.5984
X4.4291Y-3.3563
X4.4291Y-4.5394
X4.4352Y-2.8626
X4.4352Y-2.9126
X4.4352Y-2.9626
X4.4352Y-3.0126
X4.4352Y-3.0626
X4.4352Y-3.1126
X4.4352Y-3.1626
X4.4352Y-3.2126
X4.4352Y-3.6626
X4.4352Y-3.7126
X4.4352Y-3.7626
X4.4352Y-3.8126
X4.4352Y-3.8626
X4.4352Y-3.9126
X4.4352Y-3.9626
X4.4352Y-4.4626
X4.4352Y-4.7126
X4.4352Y-4.7626
X4.4352Y-4.8126
X4.4409Y-2.622
X4.4409Y-2.7402
X4.4646Y-4.5394
X4.4764Y-4.3898
X4.4803Y-2.7402
X4.4852Y-2.2626
X4.4852Y-2.8126
X4.4852Y-3.2126
X4.4852Y-3.9626
X4.4852Y-4.7126
X4.4852Y-4.7626
X4.4852Y-4.8126
X4.4882Y-3.6024
X4.4882Y-4.1697
X4.4961Y-2.1181
X4.498Y-3.3858
X4.5Y-3.6772
X4.5Y-3.7795
X4.5Y-4.5394
X4.5079Y-2.8937
X4.5079Y-2.9961
X4.5118Y-2.4567
X4.5185Y-2.5622
X4.5197Y-2.6535
X4.5197Y-2.7402
X4.5276Y-2.1181
X4.5276Y-2.4882
X4.5352Y-2.8126
X4.5352Y-4.7126
X4.5352Y-4.7626
X4.5352Y-4.8126
X4.5354Y-3.6772
X4.5354Y-3.7795
X4.5394Y-4.5394
X4.5433Y-2.8937
X4.5433Y-2.9961
X4.5591Y-2.1181
X4.5591Y-2.7402
X4.5669Y-3.6772
X4.5669Y-3.7795
X4.5669Y-4.1402
X4.5669Y-4.3272
X4.5748Y-2.8937
X4.5748Y-2.9961
X4.5768Y-3.3563
X4.5768Y-3.5433
X4.5852Y-2.8126
X4.5965Y-4.0122
X4.5984Y-3.6772
X4.6024Y-3.7795
X4.6063Y-2.5591
X4.6063Y-2.8937
X4.6063Y-3.2283
X4.6102Y-2.9961
X4.6299Y-3.6772
X4.6299Y-3.7087
X4.6299Y-3.7402
X4.6352Y-2.7626
X4.6352Y-2.8126
X4.6358Y-4.022
X4.6378Y-2.8937
X4.6378Y-2.9252
X4.6378Y-2.9567
X4.6457Y-3.2382
X4.6614Y-2.3701
X4.6614Y-3.6772
X4.6614Y-3.7087
X4.6614Y-3.7402
X4.6693Y-2.8937
X4.6693Y-2.9252
X4.6693Y-2.9567
X4.6852Y-2.7626
X4.6852Y-2.8126
X4.6929Y-2.3917
X4.6929Y-2.4272
X4.6929Y-2.4646
X4.7047Y-4.3272
X4.7249Y-3.5369
X4.7352Y-2.7626
X4.7352Y-2.8126
X4.7352Y-3.8126
X4.7634Y-4.178
X4.7722Y-4.0294
X4.7732Y-3.3942
X4.7821Y-3.2455
X4.7852Y-2.4126
X4.7852Y-2.4626
X4.7852Y-2.5126
X4.7852Y-2.5626
X4.7852Y-2.7626
X4.7852Y-2.8126
X4.7852Y-3.8126
X4.8031Y-4.3333
X4.8066Y-3.5589
X4.8228Y-2.0079
X4.8352Y-2.4126
X4.8352Y-2.4626
X4.8352Y-2.5126
X4.8352Y-2.5626
X4.8352Y-2.6126
X4.8352Y-2.8126
X4.8352Y-3.8126
X4.8386Y-2.3465
X4.8425Y-4.0236
X4.8425Y-4.3606
X4.8524Y-3.5768
X4.8543Y-2.0079
X4.8543Y-3.2402
X4.8543Y-3.6102
X4.8583Y-4.3898
X4.876Y-2.0335
T3
X2.0709Y-2.1654
X2.0709Y-4.7244
X2.0985Y-2.0985
X2.0985Y-2.2322
X2.0985Y-4.6576
X2.0985Y-4.7912
X2.1654Y-2.0709
X2.1654Y-2.2598
X2.1654Y-4.6299
X2.1654Y-4.8189
X2.2322Y-2.0985
X2.2322Y-2.2322
X2.2322Y-4.6576
X2.2322Y-4.7912
X2.2598Y-2.1654
X2.2598Y-4.7244
X4.6299Y-2.1654
X4.6299Y-4.7244
X4.6576Y-2.0985
X4.6576Y-2.2322
X4.6576Y-4.6576
X4.6576Y-4.7912
X4.7244Y-2.0709
X4.7244Y-2.2598
X4.7244Y-4.6299
X4.7244Y-4.8189
X4.7912Y-2.0985
X4.7912Y-2.2322
X4.7912Y-4.6576
X4.7912Y-4.7912
X4.8189Y-2.1654
X4.8189Y-4.7244
T5
X2.0551Y-2.4496
X2.0551Y-2.5496
X2.0551Y-2.6496
X2.0551Y-2.7496
X2.0551Y-2.8496
X2.0551Y-2.9496
T6
X2.1654Y-2.1654
X2.1654Y-4.7244
X4.7244Y-2.1654
X4.7244Y-4.7244
T4
G00X2.1619Y-4.0856
M15
G01X2.0635Y-4.0856
M16
G05
G00X2.1619Y-4.373
M15
G01X2.0635Y-4.373
M16
G05
M30
