%TF.GenerationSoftware,KiCad,Pcbnew,8.0.3*%
%TF.CreationDate,2024-09-23T16:56:09+02:00*%
%TF.ProjectId,USAN_r0,5553414e-5f72-4302-9e6b-696361645f70,rev?*%
%TF.SameCoordinates,Original*%
%TF.FileFunction,Paste,Bot*%
%TF.FilePolarity,Positive*%
%FSLAX46Y46*%
G04 Gerber Fmt 4.6, Leading zero omitted, Abs format (unit mm)*
G04 Created by KiCad (PCBNEW 8.0.3) date 2024-09-23 16:56:09*
%MOMM*%
%LPD*%
G01*
G04 APERTURE LIST*
G04 Aperture macros list*
%AMRoundRect*
0 Rectangle with rounded corners*
0 $1 Rounding radius*
0 $2 $3 $4 $5 $6 $7 $8 $9 X,Y pos of 4 corners*
0 Add a 4 corners polygon primitive as box body*
4,1,4,$2,$3,$4,$5,$6,$7,$8,$9,$2,$3,0*
0 Add four circle primitives for the rounded corners*
1,1,$1+$1,$2,$3*
1,1,$1+$1,$4,$5*
1,1,$1+$1,$6,$7*
1,1,$1+$1,$8,$9*
0 Add four rect primitives between the rounded corners*
20,1,$1+$1,$2,$3,$4,$5,0*
20,1,$1+$1,$4,$5,$6,$7,0*
20,1,$1+$1,$6,$7,$8,$9,0*
20,1,$1+$1,$8,$9,$2,$3,0*%
G04 Aperture macros list end*
%ADD10RoundRect,0.218750X0.218750X0.381250X-0.218750X0.381250X-0.218750X-0.381250X0.218750X-0.381250X0*%
%ADD11RoundRect,0.250000X-0.250000X-0.475000X0.250000X-0.475000X0.250000X0.475000X-0.250000X0.475000X0*%
%ADD12RoundRect,0.225000X0.225000X0.250000X-0.225000X0.250000X-0.225000X-0.250000X0.225000X-0.250000X0*%
%ADD13RoundRect,0.200000X-0.275000X0.200000X-0.275000X-0.200000X0.275000X-0.200000X0.275000X0.200000X0*%
%ADD14R,1.525000X0.650000*%
%ADD15RoundRect,0.250000X0.475000X-0.250000X0.475000X0.250000X-0.475000X0.250000X-0.475000X-0.250000X0*%
%ADD16RoundRect,0.150000X0.825000X0.150000X-0.825000X0.150000X-0.825000X-0.150000X0.825000X-0.150000X0*%
%ADD17RoundRect,0.200000X0.200000X0.275000X-0.200000X0.275000X-0.200000X-0.275000X0.200000X-0.275000X0*%
%ADD18RoundRect,0.250000X-1.050000X-0.550000X1.050000X-0.550000X1.050000X0.550000X-1.050000X0.550000X0*%
%ADD19RoundRect,0.225000X-0.225000X-0.250000X0.225000X-0.250000X0.225000X0.250000X-0.225000X0.250000X0*%
%ADD20RoundRect,0.150000X0.150000X-0.512500X0.150000X0.512500X-0.150000X0.512500X-0.150000X-0.512500X0*%
%ADD21RoundRect,0.225000X0.225000X0.375000X-0.225000X0.375000X-0.225000X-0.375000X0.225000X-0.375000X0*%
%ADD22RoundRect,0.200000X0.275000X-0.200000X0.275000X0.200000X-0.275000X0.200000X-0.275000X-0.200000X0*%
%ADD23RoundRect,0.250000X-0.550000X1.050000X-0.550000X-1.050000X0.550000X-1.050000X0.550000X1.050000X0*%
%ADD24RoundRect,0.225000X-0.375000X0.225000X-0.375000X-0.225000X0.375000X-0.225000X0.375000X0.225000X0*%
%ADD25RoundRect,0.250000X0.250000X0.475000X-0.250000X0.475000X-0.250000X-0.475000X0.250000X-0.475000X0*%
%ADD26RoundRect,0.200000X-0.200000X-0.275000X0.200000X-0.275000X0.200000X0.275000X-0.200000X0.275000X0*%
%ADD27RoundRect,0.150000X-0.150000X0.825000X-0.150000X-0.825000X0.150000X-0.825000X0.150000X0.825000X0*%
%ADD28RoundRect,0.225000X-0.250000X0.225000X-0.250000X-0.225000X0.250000X-0.225000X0.250000X0.225000X0*%
%ADD29RoundRect,0.112500X0.187500X0.112500X-0.187500X0.112500X-0.187500X-0.112500X0.187500X-0.112500X0*%
%ADD30RoundRect,0.250000X1.000000X0.900000X-1.000000X0.900000X-1.000000X-0.900000X1.000000X-0.900000X0*%
%ADD31RoundRect,0.225000X0.250000X-0.225000X0.250000X0.225000X-0.250000X0.225000X-0.250000X-0.225000X0*%
%ADD32RoundRect,0.225000X0.375000X-0.225000X0.375000X0.225000X-0.375000X0.225000X-0.375000X-0.225000X0*%
%ADD33RoundRect,0.150000X0.512500X0.150000X-0.512500X0.150000X-0.512500X-0.150000X0.512500X-0.150000X0*%
%ADD34RoundRect,0.225000X-0.225000X-0.375000X0.225000X-0.375000X0.225000X0.375000X-0.225000X0.375000X0*%
G04 APERTURE END LIST*
D10*
%TO.C,L1*%
X79312500Y-56500000D03*
X77187500Y-56500000D03*
%TD*%
D11*
%TO.C,C66*%
X73500000Y-68000000D03*
X75400000Y-68000000D03*
%TD*%
D12*
%TO.C,C74*%
X73525000Y-58750000D03*
X71975000Y-58750000D03*
%TD*%
D13*
%TO.C,R64*%
X76000001Y-108350000D03*
X76000001Y-110000000D03*
%TD*%
D11*
%TO.C,C67*%
X91300000Y-67750000D03*
X93200000Y-67750000D03*
%TD*%
D14*
%TO.C,IC5*%
X58261500Y-93200000D03*
X58261500Y-94470000D03*
X58261500Y-95740000D03*
X58261500Y-97010000D03*
X52837500Y-97010000D03*
X52837500Y-95740000D03*
X52837500Y-94470000D03*
X52837500Y-93200000D03*
%TD*%
D13*
%TO.C,R25*%
X105499999Y-93760001D03*
X105499999Y-95410001D03*
%TD*%
D15*
%TO.C,C2*%
X81400000Y-56600000D03*
X81400000Y-54700000D03*
%TD*%
D13*
%TO.C,R49*%
X105850000Y-107100000D03*
X105850000Y-108750000D03*
%TD*%
D11*
%TO.C,C3*%
X77300000Y-58500000D03*
X79200000Y-58500000D03*
%TD*%
D16*
%TO.C,U5*%
X75450001Y-119460000D03*
X75450001Y-120730000D03*
X75450001Y-122000000D03*
X75450001Y-123270000D03*
X70500001Y-123270000D03*
X70500001Y-122000000D03*
X70500001Y-120730000D03*
X70500001Y-119460000D03*
%TD*%
D17*
%TO.C,R77*%
X85150000Y-104249999D03*
X83500000Y-104249999D03*
%TD*%
D18*
%TO.C,C7*%
X101700000Y-53000000D03*
X105300000Y-53000000D03*
%TD*%
D13*
%TO.C,R59*%
X94950001Y-115425000D03*
X94950001Y-117075000D03*
%TD*%
D18*
%TO.C,C4*%
X88150000Y-53000000D03*
X91750000Y-53000000D03*
%TD*%
D19*
%TO.C,C72*%
X91225000Y-66000000D03*
X92775000Y-66000000D03*
%TD*%
D20*
%TO.C,Q9*%
X75905001Y-113937500D03*
X74005001Y-113937500D03*
X74955001Y-111662500D03*
%TD*%
D21*
%TO.C,D9*%
X113900000Y-109410000D03*
X110600000Y-109410000D03*
%TD*%
D22*
%TO.C,R50*%
X96450001Y-120150000D03*
X96450001Y-118500000D03*
%TD*%
D15*
%TO.C,C5*%
X95000000Y-56550000D03*
X95000000Y-54650000D03*
%TD*%
D23*
%TO.C,C10*%
X69750000Y-61150000D03*
X69750000Y-64750000D03*
%TD*%
D19*
%TO.C,C57*%
X121450000Y-101410000D03*
X123000000Y-101410000D03*
%TD*%
D13*
%TO.C,R75*%
X104250000Y-73850000D03*
X104250000Y-75500000D03*
%TD*%
D24*
%TO.C,D16*%
X90950001Y-110850000D03*
X90950001Y-114150000D03*
%TD*%
D25*
%TO.C,C8*%
X106150000Y-62200000D03*
X104250000Y-62200000D03*
%TD*%
D26*
%TO.C,R18*%
X108350000Y-83000000D03*
X110000000Y-83000000D03*
%TD*%
D27*
%TO.C,U4*%
X119210000Y-103460000D03*
X120480000Y-103460000D03*
X121750000Y-103460000D03*
X123020000Y-103460000D03*
X123020000Y-108410000D03*
X121750000Y-108410000D03*
X120480000Y-108410000D03*
X119210000Y-108410000D03*
%TD*%
D23*
%TO.C,C11*%
X82750000Y-61200000D03*
X82750000Y-64800000D03*
%TD*%
D28*
%TO.C,C53*%
X53662500Y-106625000D03*
X53662500Y-108175000D03*
%TD*%
D13*
%TO.C,R74*%
X57037500Y-99428750D03*
X57037500Y-101078750D03*
%TD*%
D17*
%TO.C,R39*%
X85150000Y-105749999D03*
X83500000Y-105749999D03*
%TD*%
D29*
%TO.C,D25*%
X79450000Y-66800000D03*
X77350000Y-66800000D03*
%TD*%
D19*
%TO.C,C33*%
X76900000Y-98100000D03*
X78450000Y-98100000D03*
%TD*%
D30*
%TO.C,D22*%
X59950000Y-72400000D03*
X55650000Y-72400000D03*
%TD*%
D19*
%TO.C,C47*%
X116200000Y-89000000D03*
X117750000Y-89000000D03*
%TD*%
D20*
%TO.C,Q12*%
X94855001Y-113937500D03*
X92955001Y-113937500D03*
X93905001Y-111662500D03*
%TD*%
D23*
%TO.C,C12*%
X100250000Y-61200000D03*
X100250000Y-64800000D03*
%TD*%
D18*
%TO.C,C1*%
X74650000Y-53000000D03*
X78250000Y-53000000D03*
%TD*%
D11*
%TO.C,C6*%
X90750000Y-58500000D03*
X92650000Y-58500000D03*
%TD*%
D31*
%TO.C,C81*%
X95300000Y-93250000D03*
X95300000Y-91700000D03*
%TD*%
D32*
%TO.C,D17*%
X88450001Y-114150000D03*
X88450001Y-110850000D03*
%TD*%
D26*
%TO.C,R63*%
X108100000Y-102910000D03*
X109750000Y-102910000D03*
%TD*%
D19*
%TO.C,C49*%
X121700000Y-81500000D03*
X123250000Y-81500000D03*
%TD*%
D28*
%TO.C,C65*%
X96450001Y-121700000D03*
X96450001Y-123250000D03*
%TD*%
D24*
%TO.C,D12*%
X72000001Y-110850000D03*
X72000001Y-114150000D03*
%TD*%
D13*
%TO.C,R73*%
X53837500Y-99428750D03*
X53837500Y-101078750D03*
%TD*%
D30*
%TO.C,D23*%
X59950000Y-77000000D03*
X55650000Y-77000000D03*
%TD*%
D26*
%TO.C,R12*%
X115425000Y-83000000D03*
X117075000Y-83000000D03*
%TD*%
D13*
%TO.C,R53*%
X101350000Y-104175000D03*
X101350000Y-105825000D03*
%TD*%
D28*
%TO.C,C60*%
X70000001Y-116200000D03*
X70000001Y-117750000D03*
%TD*%
D33*
%TO.C,Q3*%
X113937500Y-83095000D03*
X113937500Y-84995000D03*
X111662500Y-84045000D03*
%TD*%
D19*
%TO.C,C42*%
X77200000Y-96200000D03*
X78750000Y-96200000D03*
%TD*%
D15*
%TO.C,C70*%
X111750000Y-68450000D03*
X111750000Y-66550000D03*
%TD*%
D13*
%TO.C,R45*%
X76000001Y-115425000D03*
X76000001Y-117075000D03*
%TD*%
D34*
%TO.C,D4*%
X110850000Y-87000000D03*
X114150000Y-87000000D03*
%TD*%
D17*
%TO.C,R14*%
X120150000Y-81500000D03*
X118500000Y-81500000D03*
%TD*%
D32*
%TO.C,D13*%
X69500001Y-114150000D03*
X69500001Y-110850000D03*
%TD*%
D14*
%TO.C,IC2*%
X96712000Y-60595000D03*
X96712000Y-61865000D03*
X96712000Y-63135000D03*
X96712000Y-64405000D03*
X91288000Y-64405000D03*
X91288000Y-63135000D03*
X91288000Y-61865000D03*
X91288000Y-60595000D03*
%TD*%
D22*
%TO.C,R36*%
X77500001Y-120150000D03*
X77500001Y-118500000D03*
%TD*%
D19*
%TO.C,C56*%
X115950000Y-108910000D03*
X117500000Y-108910000D03*
%TD*%
D15*
%TO.C,C69*%
X115750000Y-68450000D03*
X115750000Y-66550000D03*
%TD*%
D11*
%TO.C,C45*%
X81450000Y-81800000D03*
X83350000Y-81800000D03*
%TD*%
D23*
%TO.C,C9*%
X111750000Y-60500000D03*
X111750000Y-64100000D03*
%TD*%
D34*
%TO.C,D8*%
X110600000Y-106910000D03*
X113900000Y-106910000D03*
%TD*%
D13*
%TO.C,R3*%
X105750000Y-73850000D03*
X105750000Y-75500000D03*
%TD*%
%TO.C,R65*%
X94950001Y-108350000D03*
X94950001Y-110000000D03*
%TD*%
D19*
%TO.C,C73*%
X73450000Y-66250000D03*
X75000000Y-66250000D03*
%TD*%
D28*
%TO.C,C27*%
X86700000Y-96425000D03*
X86700000Y-97975000D03*
%TD*%
%TO.C,C61*%
X77500001Y-121700000D03*
X77500001Y-123250000D03*
%TD*%
D13*
%TO.C,R78*%
X99850000Y-104175000D03*
X99850000Y-105825000D03*
%TD*%
D16*
%TO.C,U6*%
X94400001Y-119460000D03*
X94400001Y-120730000D03*
X94400001Y-122000000D03*
X94400001Y-123270000D03*
X89450001Y-123270000D03*
X89450001Y-122000000D03*
X89450001Y-120730000D03*
X89450001Y-119460000D03*
%TD*%
D22*
%TO.C,R72*%
X55437500Y-101078750D03*
X55437500Y-99428750D03*
%TD*%
D14*
%TO.C,IC1*%
X78962000Y-60595000D03*
X78962000Y-61865000D03*
X78962000Y-63135000D03*
X78962000Y-64405000D03*
X73538000Y-64405000D03*
X73538000Y-63135000D03*
X73538000Y-61865000D03*
X73538000Y-60595000D03*
%TD*%
D13*
%TO.C,R76*%
X103999999Y-93760001D03*
X103999999Y-95410001D03*
%TD*%
D12*
%TO.C,C46*%
X56050000Y-91600000D03*
X54500000Y-91600000D03*
%TD*%
D28*
%TO.C,C52*%
X85200000Y-96425000D03*
X85200000Y-97975000D03*
%TD*%
D17*
%TO.C,R22*%
X119900000Y-101410000D03*
X118250000Y-101410000D03*
%TD*%
D19*
%TO.C,C71*%
X87450000Y-58715000D03*
X89000000Y-58715000D03*
%TD*%
D23*
%TO.C,C13*%
X87750000Y-61250000D03*
X87750000Y-64850000D03*
%TD*%
D27*
%TO.C,U3*%
X119460000Y-83550000D03*
X120730000Y-83550000D03*
X122000000Y-83550000D03*
X123270000Y-83550000D03*
X123270000Y-88500000D03*
X122000000Y-88500000D03*
X120730000Y-88500000D03*
X119460000Y-88500000D03*
%TD*%
D10*
%TO.C,L2*%
X92750000Y-56500000D03*
X90625000Y-56500000D03*
%TD*%
D21*
%TO.C,D5*%
X114150000Y-89500000D03*
X110850000Y-89500000D03*
%TD*%
D28*
%TO.C,C64*%
X88950001Y-116200000D03*
X88950001Y-117750000D03*
%TD*%
D33*
%TO.C,Q6*%
X113687500Y-103005000D03*
X113687500Y-104905000D03*
X111412500Y-103955000D03*
%TD*%
D26*
%TO.C,R31*%
X115175000Y-102910000D03*
X116825000Y-102910000D03*
%TD*%
D15*
%TO.C,C85*%
X113750000Y-68450000D03*
X113750000Y-66550000D03*
%TD*%
M02*
